<svg width="16" height="17" viewBox="0 0 16 17" fill="none" xmlns="http://www.w3.org/2000/svg">
<path fill-rule="evenodd" clip-rule="evenodd" d="M4 5.01758C2.89543 5.01758 2 5.91301 2 7.01758V10.0176C2 10.9533 2.64257 11.7389 3.51051 11.9572L3.19452 13.8532C3.09293 14.4627 3.56297 15.0176 4.18091 15.0176H11.82C12.4379 15.0176 12.908 14.4627 12.8064 13.8532L12.4904 11.957C13.3579 11.7384 14 10.953 14 10.0176V7.01758C14 5.91301 13.1046 5.01758 12 5.01758V2.01758C12 1.46529 11.5523 1.01758 11 1.01758H5C4.44772 1.01758 4 1.46529 4 2.01758V5.01758ZM5.5 5.01758V2.51758H10.5V5.01758H5.5ZM10.7298 10.5176H5.27114L4.77114 13.5176H11.2298L10.7298 10.5176Z" fill="#0F172A"/>
</svg>
