<svg width="16" height="17" viewBox="0 0 16 17" fill="none" xmlns="http://www.w3.org/2000/svg">
<path d="M4.75 4.26758C4.47386 4.26758 4.25 4.49144 4.25 4.76758C4.25 5.04372 4.47386 5.26758 4.75 5.26758C5.02614 5.26758 5.25 5.04372 5.25 4.76758C5.25 4.49144 5.02614 4.26758 4.75 4.26758Z" fill="#0F172A"/>
<path fill-rule="evenodd" clip-rule="evenodd" d="M2 3.51758C2 2.68915 2.67157 2.01758 3.5 2.01758H6C6.82843 2.01758 7.5 2.68915 7.5 3.51758V6.01758C7.5 6.84601 6.82843 7.51758 6 7.51758H3.5C2.67157 7.51758 2 6.846 2 6.01758V3.51758ZM3.5 3.51758H6V6.01758H3.5V3.51758Z" fill="#0F172A"/>
<path d="M4.25 11.2676C4.25 10.9914 4.47386 10.7676 4.75 10.7676C5.02614 10.7676 5.25 10.9914 5.25 11.2676C5.25 11.5437 5.02614 11.7676 4.75 11.7676C4.47386 11.7676 4.25 11.5437 4.25 11.2676Z" fill="#0F172A"/>
<path fill-rule="evenodd" clip-rule="evenodd" d="M2 10.0176C2 9.18915 2.67157 8.51758 3.5 8.51758H6C6.82843 8.51758 7.5 9.18915 7.5 10.0176V12.5176C7.5 13.346 6.82843 14.0176 6 14.0176H3.5C2.67157 14.0176 2 13.346 2 12.5176V10.0176ZM3.5 12.5176V10.0176H6V12.5176H3.5Z" fill="#0F172A"/>
<path d="M11.25 4.26758C10.9739 4.26758 10.75 4.49144 10.75 4.76758C10.75 5.04372 10.9739 5.26758 11.25 5.26758C11.5261 5.26758 11.75 5.04372 11.75 4.76758C11.75 4.49144 11.5261 4.26758 11.25 4.26758Z" fill="#0F172A"/>
<path fill-rule="evenodd" clip-rule="evenodd" d="M10 2.01758C9.17157 2.01758 8.5 2.68915 8.5 3.51758V6.01758C8.5 6.846 9.17157 7.51758 10 7.51758H12.5C13.3284 7.51758 14 6.84601 14 6.01758V3.51758C14 2.68915 13.3284 2.01758 12.5 2.01758H10ZM12.5 3.51758H10V6.01758H12.5V3.51758Z" fill="#0F172A"/>
<path d="M8.5 9.43425C8.5 8.92798 8.91041 8.51758 9.41667 8.51758C9.92293 8.51758 10.3333 8.92798 10.3333 9.43425C10.3333 9.94051 9.92293 10.3509 9.41667 10.3509C8.91041 10.3509 8.5 9.94051 8.5 9.43425Z" fill="#0F172A"/>
<path d="M8.5 13.1006C8.5 12.5943 8.91041 12.1839 9.41667 12.1839C9.92293 12.1839 10.3333 12.5943 10.3333 13.1006C10.3333 13.6069 9.92293 14.0173 9.41667 14.0173C8.91041 14.0173 8.5 13.6069 8.5 13.1006Z" fill="#0F172A"/>
<path d="M13.0827 8.51758C12.5764 8.51758 12.166 8.92798 12.166 9.43425C12.166 9.94051 12.5764 10.3509 13.0827 10.3509C13.5889 10.3509 13.9993 9.94051 13.9993 9.43425C13.9993 8.92798 13.5889 8.51758 13.0827 8.51758Z" fill="#0F172A"/>
<path d="M12.166 13.1012C12.166 12.595 12.5764 12.1846 13.0827 12.1846C13.5889 12.1846 13.9993 12.595 13.9993 13.1012C13.9993 13.6075 13.5889 14.0179 13.0827 14.0179C12.5764 14.0179 12.166 13.6075 12.166 13.1012Z" fill="#0F172A"/>
<path d="M11.2493 10.3506C10.7433 10.3506 10.333 10.7612 10.333 11.2673C10.333 11.7732 10.7431 12.1837 11.249 12.1839C11.7552 12.1841 12.1657 11.7735 12.1657 11.2673C12.1657 10.7612 11.7554 10.3506 11.2493 10.3506Z" fill="#0F172A"/>
</svg>
