<svg width="16" height="17" viewBox="0 0 16 17" fill="none" xmlns="http://www.w3.org/2000/svg">
<path fill-rule="evenodd" clip-rule="evenodd" d="M10 3.01758C10 2.46529 9.55229 2.01758 9 2.01758H3C2.44772 2.01758 2 2.46529 2 3.01758V12.0176C2 13.1221 2.89543 14.0176 4 14.0176H12C10.8954 14.0176 10 13.1221 10 12.0176V3.01758ZM4 4.01758H8V6.01758H4V4.01758ZM8 7.51758H4V9.01758H8V7.51758ZM4 10.5176H8V12.0176H4V10.5176Z" fill="#0F172A"/>
<path d="M13 5.01758H11.5V11.2676C11.5 11.9579 12.0596 12.5176 12.75 12.5176C13.4404 12.5176 14 11.9579 14 11.2676V6.01758C14 5.46529 13.5523 5.01758 13 5.01758Z" fill="#0F172A"/>
</svg>
