<svg width="16" height="16" viewBox="0 0 16 16" fill="none" xmlns="http://www.w3.org/2000/svg">
<path d="M9 8.00001C9 8.5523 8.55228 9.00001 8 9.00001C7.44772 9.00001 7 8.5523 7 8.00001C7 7.44773 7.44772 7.00001 8 7.00001C8.55228 7.00001 9 7.44773 9 8.00001Z" fill="#0F172A"/>
<path fill-rule="evenodd" clip-rule="evenodd" d="M9.67938 5.25998C9.97227 4.96708 10.4471 4.96708 10.74 5.25998C12.2533 6.77326 12.2533 9.22677 10.74 10.7401C10.4471 11.0329 9.97227 11.0329 9.67938 10.7401C9.38649 10.4472 9.38649 9.97229 9.67938 9.67939C10.6069 8.7519 10.6069 7.24813 9.67938 6.32064C9.38649 6.02774 9.38649 5.55287 9.67938 5.25998ZM6.32062 5.25998C6.61351 5.55287 6.61351 6.02774 6.32062 6.32064C5.39313 7.24813 5.39313 8.7519 6.32062 9.67939C6.61351 9.97229 6.61351 10.4472 6.32062 10.7401C6.02773 11.0329 5.55285 11.0329 5.25996 10.7401C3.74668 9.22677 3.74668 6.77326 5.25996 5.25998C5.55285 4.96708 6.02773 4.96708 6.32062 5.25998Z" fill="#0F172A"/>
<path fill-rule="evenodd" clip-rule="evenodd" d="M11.8891 3.05027C12.182 2.75737 12.6569 2.75737 12.9497 3.05027C15.6834 5.78394 15.6834 10.2161 12.9497 12.9498C12.6569 13.2427 12.182 13.2427 11.8891 12.9498C11.5962 12.6569 11.5962 12.182 11.8891 11.8891C14.037 9.74122 14.037 6.25881 11.8891 4.11093C11.5962 3.81803 11.5962 3.34316 11.8891 3.05027ZM4.11091 3.05027C4.40381 3.34316 4.40381 3.81803 4.11091 4.11093C1.96303 6.25881 1.96303 9.74122 4.11091 11.8891C4.40381 12.182 4.40381 12.6569 4.11091 12.9498C3.81802 13.2427 3.34315 13.2427 3.05025 12.9498C0.316583 10.2161 0.316582 5.78394 3.05025 3.05027C3.34315 2.75737 3.81802 2.75737 4.11091 3.05027Z" fill="#0F172A"/>
</svg>
