<svg width="16" height="17" viewBox="0 0 16 17" fill="none" xmlns="http://www.w3.org/2000/svg">
<path d="M13.4875 2.53014C12.804 1.84672 11.696 1.84672 11.0126 2.53014L6.75098 6.79175C6.49563 7.04709 6.29308 7.35023 6.15488 7.68385L5.30712 9.7304C5.19103 10.0107 5.25519 10.3332 5.46968 10.5477C5.68417 10.7622 6.00676 10.8264 6.28702 10.7103L8.33382 9.86259C8.66748 9.72438 8.97066 9.52181 9.22604 9.26644L13.4875 5.00501C14.1709 4.3216 14.1709 3.21356 13.4875 2.53014Z" fill="#0F172A"/>
<path d="M4.75 3.51758C4.05964 3.51758 3.5 4.07722 3.5 4.76758V11.2676C3.5 11.9579 4.05964 12.5176 4.75 12.5176H11.25C11.9404 12.5176 12.5 11.9579 12.5 11.2676V9.01758C12.5 8.60336 12.8358 8.26758 13.25 8.26758C13.6642 8.26758 14 8.60336 14 9.01758V11.2676C14 12.7864 12.7688 14.0176 11.25 14.0176H4.75C3.23122 14.0176 2 12.7864 2 11.2676V4.76758C2 3.2488 3.23122 2.01758 4.75 2.01758H7C7.41421 2.01758 7.75 2.35336 7.75 2.76758C7.75 3.18179 7.41421 3.51758 7 3.51758H4.75Z" fill="#0F172A"/>
</svg>
