<?xml version="1.0" encoding="utf-8"?>
<!-- Generator: Adobe Illustrator 28.4.1, SVG Export Plug-In . SVG Version: 6.00 Build 0)  -->
<svg version="1.1" id="Layer_1" xmlns="http://www.w3.org/2000/svg" xmlns:xlink="http://www.w3.org/1999/xlink" x="0px" y="0px"
	 viewBox="0 0 16 16" style="enable-background:new 0 0 16 16;" xml:space="preserve">
<style type="text/css">
	.st0{fill:#0F172A;}
</style>
<g>
	<path class="st0" d="M12,14H7c-1.1,0-2-0.9-2-2v-0.5H4c-1.1,0-2-0.9-2-2V4c0-1.1,0.9-2,2-2h5.5c1.1,0,2,0.9,2,2v1H12
		c1.1,0,2,0.9,2,2v5C14,13.1,13.1,14,12,14z M6,11v1c0,0.6,0.4,1,1,1h5c0.6,0,1-0.4,1-1V7c0-0.6-0.4-1-1-1H7C6.4,6,6,6.4,6,7V11z
		 M4,3C3.4,3,3,3.4,3,4v5.5c0,0.6,0.4,1,1,1h1V7c0-1.1,0.9-2,2-2h3.5V4c0-0.6-0.4-1-1-1H4z"/>
</g>
</svg>
