<svg width="16" height="17" viewBox="0 0 16 17" fill="none" xmlns="http://www.w3.org/2000/svg">
<path d="M4.5 2.01758C4.22386 2.01758 4 2.24144 4 2.51758V13.5176C4 13.7937 4.22386 14.0176 4.5 14.0176H5.5C5.77614 14.0176 6 13.7937 6 13.5176V2.51758C6 2.24144 5.77614 2.01758 5.5 2.01758H4.5Z" fill="#0F172A"/>
<path d="M10.5 2.01758C10.2239 2.01758 10 2.24144 10 2.51758V13.5176C10 13.7937 10.2239 14.0176 10.5 14.0176H11.5C11.7761 14.0176 12 13.7937 12 13.5176V2.51758C12 2.24144 11.7761 2.01758 11.5 2.01758H10.5Z" fill="#0F172A"/>
</svg>
