<svg width="16" height="17" viewBox="0 0 16 17" fill="none" xmlns="http://www.w3.org/2000/svg">
<path d="M4.92241 6.7699L3.85462 7.30379C4.59083 9.60668 6.4109 11.4267 8.71379 12.163L9.24768 11.0952C9.44195 10.7066 9.86482 10.488 10.2942 10.554L13.1521 10.9937C13.6399 11.0687 14 11.4885 14 11.9821V13.0176C14 13.5699 13.5523 14.0176 13 14.0176H11C10.2912 14.0176 9.60064 13.9355 8.93763 13.78C5.62265 13.0025 3.01505 10.3949 2.23758 7.07995C2.08208 6.41694 2 5.72637 2 5.01758V3.01758C2 2.46529 2.44772 2.01758 3 2.01758H4.03552C4.52909 2.01758 4.94884 2.37769 5.02389 2.86552L5.46357 5.72341C5.52962 6.15276 5.31094 6.57563 4.92241 6.7699Z" fill="#0F172A"/>
<path d="M11.5607 5.51758L13.7803 3.29791C14.0732 3.00502 14.0732 2.53014 13.7803 2.23725C13.4874 1.94435 13.0126 1.94435 12.7197 2.23725L10.5 4.45692V2.76758C10.5 2.35336 10.1642 2.01758 9.75 2.01758C9.33579 2.01758 9 2.35336 9 2.76758V6.26758C9 6.68179 9.33579 7.01758 9.75 7.01758H13.25C13.6642 7.01758 14 6.68179 14 6.26758C14 5.85336 13.6642 5.51758 13.25 5.51758H11.5607Z" fill="#0F172A"/>
</svg>
