<svg width="16" height="17" viewBox="0 0 16 17" fill="none" xmlns="http://www.w3.org/2000/svg">
<path fill-rule="evenodd" clip-rule="evenodd" d="M2 4.01758C2 2.91301 2.89543 2.01758 4 2.01758H12C13.1046 2.01758 14 2.91301 14 4.01758V12.0176C14 13.1221 13.1046 14.0176 12 14.0176H4C2.89543 14.0176 2 13.1221 2 12.0176V4.01758ZM12.5 9.72469C12.5 9.59208 12.4473 9.4649 12.3536 9.37113L11.3536 8.37113C11.1583 8.17587 10.8417 8.17587 10.6464 8.37113L9.35355 9.66402C9.15829 9.85929 8.84171 9.85929 8.64645 9.66402L6.35355 7.37113C6.15829 7.17587 5.84171 7.17587 5.64645 7.37113L3.64645 9.37113C3.55268 9.4649 3.5 9.59208 3.5 9.72468V12.0176C3.5 12.2937 3.72386 12.5176 4 12.5176H12C12.2761 12.5176 12.5 12.2937 12.5 12.0176V9.72469ZM12 5.01758C12 5.56986 11.5523 6.01758 11 6.01758C10.4477 6.01758 10 5.56986 10 5.01758C10 4.46529 10.4477 4.01758 11 4.01758C11.5523 4.01758 12 4.46529 12 5.01758Z" fill="#0F172A"/>
</svg>
