<svg width="16" height="17" viewBox="0 0 16 17" fill="none" xmlns="http://www.w3.org/2000/svg">
<path d="M4.92241 6.7699L3.85462 7.30379C4.59083 9.60668 6.4109 11.4267 8.71379 12.163L9.24768 11.0952C9.44195 10.7066 9.86482 10.488 10.2942 10.554L13.1521 10.9937C13.6399 11.0687 14 11.4885 14 11.9821V13.0176C14 13.5699 13.5523 14.0176 13 14.0176H11C10.2912 14.0176 9.60064 13.9355 8.93763 13.78C5.62265 13.0025 3.01505 10.3949 2.23758 7.07995C2.08208 6.41694 2 5.72637 2 5.01758V3.01758C2 2.46529 2.44772 2.01758 3 2.01758H4.03552C4.52909 2.01758 4.94884 2.37769 5.02389 2.86552L5.46357 5.72341C5.52962 6.15276 5.31094 6.57563 4.92241 6.7699Z" fill="#0F172A"/>
<path d="M9.21967 5.73725C8.92678 6.03014 8.92678 6.50501 9.21967 6.79791C9.51256 7.0908 9.98744 7.0908 10.2803 6.79791L12.5 4.57824V6.26758C12.5 6.68179 12.8358 7.01758 13.25 7.01758C13.6642 7.01758 14 6.68179 14 6.26758V2.76758C14 2.35337 13.6642 2.01758 13.25 2.01758H9.75C9.33579 2.01758 9 2.35336 9 2.76758C9 3.18179 9.33579 3.51758 9.75 3.51758L11.4393 3.51758L9.21967 5.73725Z" fill="#0F172A"/>
</svg>
