<svg width="16" height="17" viewBox="0 0 16 17" fill="none" xmlns="http://www.w3.org/2000/svg">
<path d="M12.6133 1.27541C12.8654 1.10729 13.1617 1.01758 13.4648 1.01758C14.3127 1.01758 15 1.7049 15 2.55276C15 2.85585 14.9103 3.15215 14.7422 3.40433L12.8381 6.26041C11.9595 7.57836 10.7169 8.59544 9.27774 9.19947C8.87694 8.05066 7.96692 7.14064 6.81812 6.73984C7.42214 5.30073 8.43922 4.0581 9.75718 3.17946L12.6133 1.27541Z" fill="#0F172A"/>
<path d="M5.49976 8.01758C4.11905 8.01758 2.99976 9.13687 2.99976 10.5176C2.99976 10.7937 2.77591 11.0176 2.49976 11.0176C2.42716 11.0176 2.36004 11.0026 2.29976 10.9762C2.01467 10.8514 1.68215 10.9156 1.46405 11.1376C1.24595 11.3596 1.1876 11.6932 1.31739 11.9761C1.86958 13.1794 3.086 14.0176 4.49976 14.0176C6.43276 14.0176 7.99976 12.4506 7.99976 10.5176C7.99976 9.13687 6.88048 8.01758 5.49976 8.01758Z" fill="#0F172A"/>
</svg>
