<svg width="16" height="17" viewBox="0 0 16 17" fill="none" xmlns="http://www.w3.org/2000/svg">
<path fill-rule="evenodd" clip-rule="evenodd" d="M8 1.01758C8.41421 1.01758 8.75 1.35336 8.75 1.76758V8.26758C8.75 8.68179 8.41421 9.01758 8 9.01758C7.58579 9.01758 7.25 8.68179 7.25 8.26758V1.76758C7.25 1.35336 7.58579 1.01758 8 1.01758ZM4.11091 3.06783C4.40381 3.36072 4.40381 3.8356 4.11091 4.12849C1.96303 6.27637 1.96303 9.75878 4.11091 11.9067C6.2588 14.0545 9.7412 14.0545 11.8891 11.9067C14.037 9.75878 14.037 6.27637 11.8891 4.12849C11.5962 3.8356 11.5962 3.36072 11.8891 3.06783C12.182 2.77494 12.6569 2.77494 12.9497 3.06783C15.6834 5.8015 15.6834 10.2337 12.9497 12.9673C10.2161 15.701 5.78392 15.701 3.05025 12.9673C0.316582 10.2337 0.316583 5.8015 3.05025 3.06783C3.34315 2.77494 3.81802 2.77494 4.11091 3.06783Z" fill="#0F172A"/>
</svg>
