<svg width="16" height="17" viewBox="0 0 16 17" fill="none" xmlns="http://www.w3.org/2000/svg">
<path d="M13.9997 1.76758C13.9997 1.54409 13.9 1.33225 13.7278 1.18976C13.5557 1.04728 13.3289 0.989013 13.1094 1.03083L5.60771 2.45971C5.25397 2.52709 4.99805 2.83637 4.99805 3.19647V5.69647C4.99805 5.7146 4.9987 5.73265 5 5.7506V9.74803C5 10.2282 4.65876 10.6405 4.18711 10.7304L3.60783 10.8407C2.67494 11.0184 2 11.834 2 12.7837C2 14.0245 3.12916 14.9588 4.34802 14.7267L4.9509 14.6118C5.85043 14.4405 6.50123 13.654 6.50123 12.7383V11.1959C6.50123 11.1815 6.50082 11.1672 6.5 11.1529V6.31672L12.5 5.17387V8.31945C12.5 8.79959 12.1588 9.21195 11.6871 9.30179L11.103 9.41305C10.1701 9.59074 9.49518 10.4064 9.49518 11.356C9.49518 12.5968 10.6243 13.5312 11.8432 13.299L12.169 13.237C13.2314 13.0346 14 12.1058 14 11.0243L13.9997 1.76758Z" fill="#0F172A"/>
</svg>
