<svg width="16" height="16" viewBox="0 0 16 16" fill="none" xmlns="http://www.w3.org/2000/svg">
<path fill-rule="evenodd" clip-rule="evenodd" d="M12.9497 3.05024C10.2161 0.316567 5.78392 0.316567 3.05025 3.05024C0.316582 5.78391 0.316583 10.2161 3.05025 12.9497C5.78392 15.6834 10.2161 15.6834 12.9497 12.9497C15.6834 10.2161 15.6834 5.78391 12.9497 3.05024ZM5.68843 3.00768C7.15077 2.33075 8.84922 2.33075 10.3116 3.00768L8.69825 5.08194C8.23966 4.97267 7.76034 4.97267 7.30175 5.08195L5.68843 3.00768ZM3.00769 5.68844C2.33077 7.15077 2.33077 8.84922 3.0077 10.3116L5.08196 8.69824C4.97268 8.23966 4.97268 7.76034 5.08195 7.30175L3.00769 5.68844ZM5.68845 12.9923L7.30176 10.918C7.76034 11.0273 8.23966 11.0273 8.69824 10.918L10.3116 12.9923C8.84922 13.6692 7.15078 13.6692 5.68845 12.9923ZM12.9923 10.3116C13.6692 8.84922 13.6692 7.15077 12.9923 5.68843L10.918 7.30175C11.0273 7.76033 11.0273 8.23965 10.918 8.69824L12.9923 10.3116ZM6.93934 6.93933C7.52513 6.35354 8.47487 6.35354 9.06066 6.93933C9.64645 7.52512 9.64645 8.47486 9.06066 9.06065C8.47487 9.64644 7.52513 9.64644 6.93934 9.06065C6.35355 8.47486 6.35355 7.52512 6.93934 6.93933Z" fill="#0F172A"/>
</svg>
