<svg width="16" height="17" viewBox="0 0 16 17" fill="none" xmlns="http://www.w3.org/2000/svg">
<path fill-rule="evenodd" clip-rule="evenodd" d="M1.75 2.01758C1.33579 2.01758 1 2.35336 1 2.76758C1 3.18179 1.33579 3.51758 1.75 3.51758H2V9.01758C2 10.1221 2.89543 11.0176 4 11.0176H4.04271L3.03845 14.0304C2.90746 14.4233 3.11983 14.8481 3.51279 14.979C3.90575 15.11 4.33049 14.8977 4.46147 14.5047L4.62385 14.0176H11.3762L11.5385 14.5047C11.6695 14.8977 12.0943 15.11 12.4872 14.979C12.8802 14.8481 13.0925 14.4233 12.9616 14.0304L11.9573 11.0176H12C13.1046 11.0176 14 10.1221 14 9.01758V3.51758H14.25C14.6642 3.51758 15 3.18179 15 2.76758C15 2.35336 14.6642 2.01758 14.25 2.01758H1.75ZM10.3762 11.0176L10.8762 12.5176H5.12385L5.62385 11.0176H10.3762ZM11.6932 5.1848C12.0262 4.93846 12.0965 4.46882 11.8502 4.13581C11.6038 3.8028 11.1342 3.73254 10.8012 3.97887C9.79106 4.72608 8.94722 5.68585 8.33584 6.79279L7.28033 5.73728C6.98744 5.44439 6.51256 5.44439 6.21967 5.73728L4.21967 7.73728C3.92678 8.03017 3.92678 8.50505 4.21967 8.79794C4.51256 9.09083 4.98744 9.09083 5.28033 8.79794L6.75 7.32827L8.02789 8.60616C8.20651 8.78478 8.46305 8.86148 8.7104 8.81023C8.95776 8.75897 9.16269 8.58664 9.25562 8.35175C9.75813 7.08162 10.6099 5.98615 11.6932 5.1848Z" fill="#0F172A"/>
</svg>
