<svg width="16" height="17" viewBox="0 0 16 17" fill="none" xmlns="http://www.w3.org/2000/svg">
<path fill-rule="evenodd" clip-rule="evenodd" d="M1.75 2.01758C1.33579 2.01758 1 2.35336 1 2.76758C1 3.18179 1.33579 3.51758 1.75 3.51758H2V9.01758C2 10.1221 2.89543 11.0176 4 11.0176H4.04277L3.03851 14.0304C2.90752 14.4233 3.11989 14.8481 3.51285 14.979C3.90581 15.11 4.33055 14.8977 4.46153 14.5047L4.62391 14.0176H11.3761L11.5385 14.5047C11.6695 14.8977 12.0942 15.11 12.4872 14.979C12.8801 14.8481 13.0925 14.4233 12.9615 14.0304L11.9572 11.0176H12C13.1046 11.0176 14 10.1221 14 9.01758V3.51758H14.25C14.6642 3.51758 15 3.18179 15 2.76758C15 2.35336 14.6642 2.01758 14.25 2.01758H1.75ZM10.3761 11.0176L10.8761 12.5176H5.12391L5.62391 11.0176H10.3761ZM5.25 7.01758C4.83579 7.01758 4.5 7.35336 4.5 7.76758V8.26758C4.5 8.68179 4.83579 9.01758 5.25 9.01758C5.66421 9.01758 6 8.68179 6 8.26758V7.76758C6 7.35336 5.66421 7.01758 5.25 7.01758ZM10 4.76758C10 4.35336 10.3358 4.01758 10.75 4.01758C11.1642 4.01758 11.5 4.35336 11.5 4.76758V8.26758C11.5 8.68179 11.1642 9.01758 10.75 9.01758C10.3358 9.01758 10 8.68179 10 8.26758V4.76758ZM8 5.51758C7.58579 5.51758 7.25 5.85336 7.25 6.26758V8.26758C7.25 8.68179 7.58579 9.01758 8 9.01758C8.41421 9.01758 8.75 8.68179 8.75 8.26758V6.26758C8.75 5.85336 8.41421 5.51758 8 5.51758Z" fill="#0F172A"/>
</svg>
