<svg width="16" height="17" viewBox="0 0 16 17" fill="none" xmlns="http://www.w3.org/2000/svg">
<path d="M3.85462 7.30379L4.92241 6.7699C5.31094 6.57563 5.52962 6.15276 5.46357 5.72341L5.02389 2.86552C4.94884 2.37769 4.52909 2.01758 4.03552 2.01758H3C2.44772 2.01758 2 2.46529 2 3.01758V5.01758C2 5.72637 2.08208 6.41694 2.23758 7.07995C3.01505 10.3949 5.62265 13.0025 8.93763 13.78C9.60064 13.9355 10.2912 14.0176 11 14.0176H13C13.5523 14.0176 14 13.5699 14 13.0176V11.9821C14 11.4885 13.6399 11.0687 13.1521 10.9937L10.2942 10.554C9.86482 10.488 9.44195 10.7066 9.24768 11.0952L8.71379 12.163C6.4109 11.4267 4.59083 9.60668 3.85462 7.30379Z" fill="#0F172A"/>
<path d="M13.7803 2.23725C14.0732 2.53014 14.0732 3.00502 13.7803 3.29791L12.5607 4.51758L13.7803 5.73725C14.0732 6.03014 14.0732 6.50501 13.7803 6.79791C13.4874 7.0908 13.0126 7.0908 12.7197 6.79791L11.5 5.57824L10.2803 6.79791C9.98744 7.0908 9.51256 7.0908 9.21967 6.79791C8.92678 6.50501 8.92678 6.03014 9.21967 5.73725L10.4393 4.51758L9.21967 3.29791C8.92678 3.00502 8.92678 2.53014 9.21967 2.23725C9.51256 1.94435 9.98744 1.94435 10.2803 2.23725L11.5 3.45692L12.7197 2.23725C13.0126 1.94435 13.4874 1.94435 13.7803 2.23725Z" fill="#0F172A"/>
</svg>
