<svg width="16" height="17" viewBox="0 0 16 17" fill="none" xmlns="http://www.w3.org/2000/svg">
<path fill-rule="evenodd" clip-rule="evenodd" d="M3.85462 7.30379L4.92241 6.7699C5.31094 6.57563 5.52962 6.15276 5.46357 5.72341L5.02389 2.86552C4.94884 2.37769 4.52909 2.01758 4.03552 2.01758H3C2.44772 2.01758 2 2.46529 2 3.01758V5.01758C2 5.72637 2.08208 6.41694 2.23758 7.07995C3.01505 10.3949 5.62265 13.0025 8.93763 13.78C9.60064 13.9355 10.2912 14.0176 11 14.0176H13C13.5523 14.0176 14 13.5699 14 13.0176V11.9821C14 11.4885 13.6399 11.0687 13.1521 10.9937L10.2942 10.554C9.86482 10.488 9.44195 10.7066 9.24768 11.0952L8.71379 12.163C6.4109 11.4267 4.59083 9.60668 3.85462 7.30379Z" fill="#0F172A"/>
</svg>
