<svg width="16" height="17" viewBox="0 0 16 17" fill="none" xmlns="http://www.w3.org/2000/svg">
<path fill-rule="evenodd" clip-rule="evenodd" d="M3.05025 3.06783C5.78392 0.334161 10.2161 0.334161 12.9497 3.06783C15.6834 5.8015 15.6834 10.2337 12.9497 12.9673C10.2161 15.701 5.78392 15.701 3.05025 12.9673C0.316582 10.2337 0.316582 5.8015 3.05025 3.06783ZM4.6771 3.63402L12.3836 11.3405C14.0219 9.18482 13.8571 6.09648 11.8891 4.12849C9.92109 2.1605 6.83276 1.99567 4.6771 3.63402ZM11.3229 12.4011L3.61644 4.69468C1.9781 6.85033 2.14292 9.93867 4.11091 11.9067C6.07891 13.8747 9.16724 14.0395 11.3229 12.4011Z" fill="#0F172A"/>
</svg>
