<svg width="16" height="17" viewBox="0 0 16 17" fill="none" xmlns="http://www.w3.org/2000/svg">
<path d="M8 1.01758C6.89543 1.01758 6 1.91301 6 3.01758V7.01758C6 8.12215 6.89543 9.01758 8 9.01758C9.10457 9.01758 10 8.12215 10 7.01758V3.01758C10 1.91301 9.10457 1.01758 8 1.01758Z" fill="#0F172A"/>
<path d="M4.5 7.01758C4.5 6.60336 4.16421 6.26758 3.75 6.26758C3.33579 6.26758 3 6.60336 3 7.01758C3 9.5241 4.84437 11.5998 7.25 11.9617V13.5176H5.75C5.33579 13.5176 5 13.8534 5 14.2676C5 14.6818 5.33579 15.0176 5.75 15.0176H10.25C10.6642 15.0176 11 14.6818 11 14.2676C11 13.8534 10.6642 13.5176 10.25 13.5176H8.75V11.9617C11.1556 11.5998 13 9.5241 13 7.01758C13 6.60336 12.6642 6.26758 12.25 6.26758C11.8358 6.26758 11.5 6.60336 11.5 7.01758C11.5 8.95057 9.933 10.5176 8 10.5176C6.067 10.5176 4.5 8.95057 4.5 7.01758Z" fill="#0F172A"/>
</svg>
