<svg width="16" height="17" viewBox="0 0 16 17" fill="none" xmlns="http://www.w3.org/2000/svg">
<path d="M9 3.90659C9 3.63376 9.18823 3.40447 9.41748 3.25656C9.77185 3.02793 10 2.66996 10 2.26758C10 1.57722 9.32843 1.01758 8.5 1.01758C7.67157 1.01758 7 1.57722 7 2.26758C7 2.67748 7.23676 3.0413 7.60253 3.26925C7.82216 3.40613 8 3.62413 8 3.88292C8 4.21386 7.72506 4.479 7.39458 4.46143C6.65084 4.42188 5.9127 4.36151 5.18072 4.28088C4.9575 4.25629 4.735 4.33303 4.57439 4.49C4.41378 4.64697 4.33197 4.86765 4.35143 5.09138C4.41795 5.85592 4.46242 6.62686 4.48419 7.40355C4.49366 7.74135 4.22043 8.01758 3.88249 8.01758C3.61353 8.01758 3.38734 7.83223 3.24251 7.60559C3.01404 7.24808 2.65445 7.01758 2.25 7.01758C1.55964 7.01758 1 7.68915 1 8.51758C1 9.34601 1.55964 10.0176 2.25 10.0176C2.65445 10.0176 3.01404 9.78707 3.24252 9.42956C3.38734 9.20293 3.61353 9.01758 3.88249 9.01758C4.22042 9.01758 4.49365 9.2938 4.48418 9.63161C4.45298 10.7439 4.37523 11.8444 4.25283 12.9312C4.20647 13.3428 4.50253 13.7141 4.91411 13.7605C5.74018 13.8536 6.57371 13.9218 7.41391 13.9645C7.73398 13.9807 8 13.7238 8 13.4033C8 13.1324 7.8132 12.9047 7.58525 12.7583C7.22932 12.5298 7 12.171 7 11.7676C7 11.0772 7.67157 10.5176 8.5 10.5176C9.32843 10.5176 10 11.0772 10 11.7676C10 12.171 9.77068 12.5298 9.41475 12.7583C9.1868 12.9047 9 13.1324 9 13.4033V13.5144C9 13.7914 9.22278 14.0173 9.49979 14.0173C10.6964 14.0173 11.881 13.9654 13.0515 13.8636C13.4066 13.8328 13.6909 13.5563 13.7317 13.2023C13.8672 12.0255 13.9524 10.8334 13.9848 9.62846C13.9939 9.29234 13.722 9.01758 13.3858 9.01758C13.1149 9.01758 12.8871 9.20437 12.7407 9.43233C12.5122 9.78826 12.1534 10.0176 11.75 10.0176C11.0596 10.0176 10.5 9.34601 10.5 8.51758C10.5 7.68915 11.0596 7.01758 11.75 7.01758C12.1534 7.01758 12.5122 7.2469 12.7407 7.60283C12.8871 7.83078 13.1149 8.01758 13.3858 8.01758C13.722 8.01758 13.9939 7.74282 13.9848 7.4067C13.9635 6.61277 13.9192 5.82446 13.8528 5.04241C13.8359 4.84358 13.7404 4.65969 13.5876 4.53141C13.4347 4.40314 13.237 4.34107 13.0383 4.35894C11.873 4.46372 10.6927 4.51726 9.49979 4.51726C9.22274 4.51726 9 4.29137 9 4.01433V3.90659Z" fill="#0F172A"/>
</svg>
