<svg width="16" height="17" viewBox="0 0 16 17" fill="none" xmlns="http://www.w3.org/2000/svg">
<path d="M2.86908 2.31555C2.60248 2.27412 2.33418 2.37908 2.16646 2.5904C1.99873 2.80172 1.95744 3.08685 2.05831 3.33707L3.39039 6.64147C3.54291 7.0198 3.90994 7.26758 4.31787 7.26758H8.25C8.66421 7.26758 9 7.60336 9 8.01758C9 8.43179 8.66421 8.76758 8.25 8.76758H4.31812C3.9102 8.76758 3.54317 9.01535 3.39065 9.39369L2.05831 12.6987C1.95744 12.9489 1.99873 13.2341 2.16646 13.4454C2.33418 13.6567 2.60248 13.7617 2.86908 13.7202C7.23525 13.0418 11.2273 11.2337 14.5368 8.6052C14.7159 8.46292 14.8204 8.24666 14.8204 8.0179C14.8204 7.78913 14.7159 7.57287 14.5368 7.43059C11.2273 4.80212 7.23525 2.99402 2.86908 2.31555Z" fill="#0F172A"/>
</svg>
