<svg width="16" height="17" viewBox="0 0 16 17" fill="none" xmlns="http://www.w3.org/2000/svg">
<path fill-rule="evenodd" clip-rule="evenodd" d="M15 8.01758C15 11.8836 11.866 15.0176 8 15.0176C4.13401 15.0176 1 11.8836 1 8.01758C1 4.15158 4.13401 1.01758 8 1.01758C11.866 1.01758 15 4.15158 15 8.01758ZM5.5 5.51758C5.5 5.24144 5.72386 5.01758 6 5.01758H6.5C6.77614 5.01758 7 5.24144 7 5.51758V10.5176C7 10.7937 6.77614 11.0176 6.5 11.0176H6C5.72386 11.0176 5.5 10.7937 5.5 10.5176V5.51758ZM9.5 5.01758C9.22386 5.01758 9 5.24144 9 5.51758V10.5176C9 10.7937 9.22386 11.0176 9.5 11.0176H10C10.2761 11.0176 10.5 10.7937 10.5 10.5176V5.51758C10.5 5.24144 10.2761 5.01758 10 5.01758H9.5Z" fill="#0F172A"/>
</svg>
