<svg width="16" height="17" viewBox="0 0 16 17" fill="none" xmlns="http://www.w3.org/2000/svg">
<path d="M8.75 3.76758C8.75 3.35336 8.41421 3.01758 8 3.01758C7.58579 3.01758 7.25 3.35336 7.25 3.76758V7.26758H3.75C3.33579 7.26758 3 7.60336 3 8.01758C3 8.43179 3.33579 8.76758 3.75 8.76758L7.25 8.76758V12.2676C7.25 12.6818 7.58579 13.0176 8 13.0176C8.41421 13.0176 8.75 12.6818 8.75 12.2676V8.76758L12.25 8.76758C12.6642 8.76758 13 8.43179 13 8.01758C13 7.60337 12.6642 7.26758 12.25 7.26758H8.75V3.76758Z" fill="#0F172A"/>
</svg>
