<svg width="16" height="16" viewBox="0 0 16 16" fill="none" xmlns="http://www.w3.org/2000/svg">
<path fill-rule="evenodd" clip-rule="evenodd" d="M11.8896 4.11128C9.74169 1.9634 6.25928 1.9634 4.1114 4.11128C1.96352 6.25916 1.96352 9.74157 4.1114 11.8895C6.25928 14.0373 9.74169 14.0373 11.8896 11.8895C12.1825 11.5966 12.6573 11.5966 12.9502 11.8895C13.2431 12.1823 13.2431 12.6572 12.9502 12.9501C10.2166 15.6838 5.78441 15.6838 3.05074 12.9501C0.31707 10.2164 0.317071 5.78429 3.05074 3.05062C5.78441 0.316949 10.2166 0.316949 12.9502 3.05062C14.3169 4.41732 15.0005 6.2101 15.0005 8.0004C15.0005 9.38159 13.8802 10.5 12.5 10.5C11.8993 10.5 11.348 10.2881 10.9169 9.93501C10.2899 10.8783 9.21758 11.5 8.00002 11.5C6.06702 11.5 4.50002 9.933 4.50002 8.00001C4.50002 6.06701 6.06702 4.50001 8.00002 4.50001C9.93301 4.50001 11.5 6.06701 11.5 8.00001C11.5 8.55229 11.9477 9.00001 12.5 9.00001C13.0528 9.00001 13.5005 8.5522 13.5005 8.00039C13.5005 6.59165 12.9637 5.18537 11.8896 4.11128ZM10 8.00001C10 6.89544 9.10459 6.00001 8.00002 6.00001C6.89545 6.00001 6.00002 6.89544 6.00002 8.00001C6.00002 9.10458 6.89545 10 8.00002 10C9.10459 10 10 9.10458 10 8.00001Z" fill="#0F172A"/>
</svg>
