<svg width="16" height="17" viewBox="0 0 16 17" fill="none" xmlns="http://www.w3.org/2000/svg">
<path fill-rule="evenodd" clip-rule="evenodd" d="M11.9142 4.10336C11.1332 3.32232 9.86684 3.32232 9.08579 4.10336L4.08579 9.10336C3.30474 9.88441 3.30474 11.1507 4.08579 11.9318C4.86684 12.7128 6.13316 12.7128 6.91421 11.9318L7.46967 11.3763C7.76256 11.0834 8.23744 11.0834 8.53033 11.3763C8.82322 11.6692 8.82322 12.1441 8.53033 12.437L7.97487 12.9925C6.60804 14.3593 4.39196 14.3593 3.02513 12.9925C1.65829 11.6256 1.65829 9.40954 3.02513 8.0427L8.02513 3.0427C9.39196 1.67587 11.608 1.67587 12.9749 3.0427C14.3417 4.40954 14.3417 6.62562 12.9749 7.99245L11.0026 9.96472C10.1727 10.7946 8.82726 10.7946 7.9974 9.96472C7.16753 9.13486 7.16753 7.78938 7.9974 6.95952L9.96967 4.98725C10.2626 4.69435 10.7374 4.69435 11.0303 4.98725C11.3232 5.28014 11.3232 5.75501 11.0303 6.04791L9.05806 8.02018C8.81398 8.26426 8.81398 8.65999 9.05806 8.90406C9.30214 9.14814 9.69786 9.14814 9.94194 8.90406L11.9142 6.93179C12.6953 6.15074 12.6953 4.88441 11.9142 4.10336Z" fill="#0F172A"/>
</svg>
