<svg width="16" height="17" viewBox="0 0 16 17" fill="none" xmlns="http://www.w3.org/2000/svg">
<path d="M1 4.82179C1 4.03635 1.86395 3.55751 2.53 3.97379L7.6432 7.16954C8.26987 7.56121 8.26987 8.47387 7.6432 8.86554L2.53 12.0613C1.86395 12.4776 1 11.9987 1 11.2133V4.82179Z" fill="#0F172A"/>
<path d="M13.5 4.51754C13.5 4.2414 13.7239 4.01754 14 4.01754H14.5C14.7761 4.01754 15 4.2414 15 4.51754V11.5175C15 11.7937 14.7761 12.0175 14.5 12.0175H14C13.7239 12.0175 13.5 11.7937 13.5 11.5175V4.51754Z" fill="#0F172A"/>
<path d="M10.5 4.01754C10.2239 4.01754 10 4.2414 10 4.51754V11.5175C10 11.7937 10.2239 12.0175 10.5 12.0175H11C11.2761 12.0175 11.5 11.7937 11.5 11.5175V4.51754C11.5 4.2414 11.2761 4.01754 11 4.01754H10.5Z" fill="#0F172A"/>
</svg>
