<svg width="16" height="17" viewBox="0 0 16 17" fill="none" xmlns="http://www.w3.org/2000/svg">
<path d="M7.33166 14.6579C7.89019 15.2768 8.38832 14.9748 8.64494 14.6579C9.55065 13.7521 11.0753 12.2376 11.7243 11.5935C11.7243 11.5935 12.1017 11.0954 11.6488 10.6576C11.196 10.2199 10.6979 10.5671 10.6979 10.5671L8.72042 12.5445V7.60841C8.84621 5.92782 10.1635 2.54248 14.4264 2.44587C14.4264 2.44587 15 2.31002 15 1.7515C15 1.19297 14.4264 1.01183 14.4264 1.01183C12.9923 0.921262 9.69855 1.56733 7.99582 4.87619C7.01463 3.11006 4.97679 1.01183 1.56528 1.01183C0.538814 1.47978 1.14262 2.45344 1.56528 2.44587C3.25091 2.41568 6.75198 3.40592 7.27125 7.60841L7.27125 12.5445L5.30891 10.5671C4.26735 10.0991 3.90503 11.1256 4.26735 11.5935L7.33166 14.6579Z" fill="black" stroke="black"/>
</svg>
