<svg width="16" height="17" viewBox="0 0 16 17" fill="none" xmlns="http://www.w3.org/2000/svg">
<path fill-rule="evenodd" clip-rule="evenodd" d="M8 15.0176C11.866 15.0176 15 11.8836 15 8.01758C15 4.15158 11.866 1.01758 8 1.01758C4.13401 1.01758 1 4.15158 1 8.01758C1 11.8836 4.13401 15.0176 8 15.0176ZM8.75 4.76758V7.26758L11.25 7.26758C11.6642 7.26758 12 7.60336 12 8.01758C12 8.43179 11.6642 8.76758 11.25 8.76758H8.75V11.2676C8.75 11.6818 8.41421 12.0176 8 12.0176C7.58579 12.0176 7.25 11.6818 7.25 11.2676V8.76758H4.75C4.33579 8.76758 4 8.43179 4 8.01758C4 7.60336 4.33579 7.26758 4.75 7.26758L7.25 7.26758V4.76758C7.25 4.35336 7.58579 4.01758 8 4.01758C8.41421 4.01758 8.75 4.35336 8.75 4.76758Z" fill="#0F172A"/>
</svg>
