<?xml version="1.0" encoding="utf-8"?>
<!-- Generator: Adobe Illustrator 28.4.1, SVG Export Plug-In . SVG Version: 6.00 Build 0)  -->
<svg version="1.1" id="Layer_1" xmlns="http://www.w3.org/2000/svg" xmlns:xlink="http://www.w3.org/1999/xlink" x="0px" y="0px"
	 viewBox="0 0 24 24" style="enable-background:new 0 0 24 24;" xml:space="preserve">
<style type="text/css">
	.st0{fill:#0F172A;}
</style>
<g>
	<path class="st0" d="M12,21.8c-0.4,0-0.8-0.3-0.8-0.8v-2.2c0-0.4,0.3-0.8,0.8-0.8s0.8,0.3,0.8,0.8V21C12.8,21.4,12.4,21.8,12,21.8z
		 M18.4,19.1c-0.2,0-0.4-0.1-0.5-0.2l-1.6-1.6c-0.3-0.3-0.3-0.8,0-1.1c0.3-0.3,0.8-0.3,1.1,0l1.6,1.6c0.3,0.3,0.3,0.8,0,1.1
		C18.7,19,18.6,19.1,18.4,19.1z M5.6,19.1c-0.2,0-0.4-0.1-0.5-0.2c-0.3-0.3-0.3-0.8,0-1.1l1.6-1.6c0.3-0.3,0.8-0.3,1.1,0
		c0.3,0.3,0.3,0.8,0,1.1l-1.6,1.6C6,19,5.8,19.1,5.6,19.1z M12,16.5c-2.5,0-4.5-2-4.5-4.5c0-2.5,2-4.5,4.5-4.5s4.5,2,4.5,4.5
		C16.5,14.5,14.5,16.5,12,16.5z M12,9c-1.7,0-3,1.3-3,3c0,1.7,1.3,3,3,3s3-1.3,3-3C15,10.3,13.7,9,12,9z M21,12.7h-2.2
		c-0.4,0-0.8-0.3-0.8-0.8s0.3-0.8,0.8-0.8H21c0.4,0,0.8,0.3,0.8,0.8S21.4,12.7,21,12.7z M5.2,12.7H3c-0.4,0-0.8-0.3-0.8-0.8
		s0.3-0.8,0.8-0.8h2.2C5.7,11.2,6,11.6,6,12S5.7,12.7,5.2,12.7z M16.8,8c-0.2,0-0.4-0.1-0.5-0.2C16,7.5,16,7,16.2,6.7l1.6-1.6
		c0.3-0.3,0.8-0.3,1.1,0s0.3,0.8,0,1.1l-1.6,1.6C17.2,7.9,17,8,16.8,8z M7.2,8C7,8,6.8,7.9,6.7,7.8L5.1,6.2c-0.3-0.3-0.3-0.8,0-1.1
		s0.8-0.3,1.1,0l1.6,1.6c0.3,0.3,0.3,0.8,0,1.1C7.6,7.9,7.4,8,7.2,8z M12,6c-0.4,0-0.8-0.3-0.8-0.8V3c0-0.4,0.3-0.8,0.8-0.8
		s0.8,0.3,0.8,0.8v2.2C12.8,5.7,12.4,6,12,6z"/>
</g>
</svg>
