<?xml version="1.0" encoding="utf-8"?>
<!-- Generator: Adobe Illustrator 28.4.1, SVG Export Plug-In . SVG Version: 6.00 Build 0)  -->
<svg version="1.1" id="Layer_1" xmlns="http://www.w3.org/2000/svg" xmlns:xlink="http://www.w3.org/1999/xlink" x="0px" y="0px"
	 viewBox="0 0 24 24" style="enable-background:new 0 0 24 24;" xml:space="preserve">
<style type="text/css">
	.st0{fill:#0F172A;}
</style>
<g>
	<path class="st0" d="M7.1,22.5c0,0-0.1,0-0.1,0c-0.4-0.1-0.7-0.5-0.6-0.9l1-5.1H3.8c-0.4,0-0.8-0.3-0.8-0.7C3,15.3,3.3,15,3.8,15
		h3.9l1.2-6H5.2C4.8,9,4.5,8.7,4.5,8.2c0-0.4,0.3-0.8,0.8-0.8h3.9l1.1-5.4c0.1-0.4,0.5-0.7,0.9-0.6c0.4,0.1,0.7,0.5,0.6,0.9l-1,5.1
		h4.5l1.1-5.4c0.1-0.4,0.5-0.7,0.9-0.6c0.4,0.1,0.7,0.5,0.6,0.9l-1,5.1h3.6c0.4,0,0.8,0.3,0.8,0.8C21,8.7,20.7,9,20.2,9h-3.9l-1.2,6
		h3.6c0.4,0,0.8,0.3,0.8,0.8c0,0.4-0.3,0.7-0.8,0.7h-3.9l-1.1,5.4c-0.1,0.4-0.5,0.7-0.9,0.6c-0.4-0.1-0.7-0.5-0.6-0.9l1-5.1H8.9
		l-1.1,5.4C7.7,22.3,7.4,22.5,7.1,22.5z M9.2,15h4.5l1.2-6h-4.5L9.2,15z"/>
</g>
</svg>
