<?xml version="1.0" encoding="utf-8"?>
<!-- Generator: Adobe Illustrator 28.4.1, SVG Export Plug-In . SVG Version: 6.00 Build 0)  -->
<svg version="1.1" id="Layer_1" xmlns="http://www.w3.org/2000/svg" xmlns:xlink="http://www.w3.org/1999/xlink" x="0px" y="0px"
	 viewBox="0 0 24 25" style="enable-background:new 0 0 24 25;" xml:space="preserve">
<style type="text/css">
	.st0{fill:#0F172A;}
</style>
<g>
	<path class="st0" d="M17.2,21.8c-0.3,0-0.6-0.2-0.7-0.5l-0.3-1H7.8l-0.3,1c-0.1,0.4-0.6,0.6-0.9,0.5c-0.4-0.1-0.6-0.6-0.5-0.9
		l0.5-1.5c0,0,0,0,0,0l0.7-2H6c-1.7,0-3-1.3-3-3V3.8H2.2C1.8,3.8,1.5,3.4,1.5,3s0.3-0.8,0.8-0.8h19.5c0.4,0,0.8,0.3,0.8,0.8
		s-0.3,0.8-0.8,0.8H21v10.5c0,1.7-1.3,3-3,3h-1.2l0.7,2c0,0,0,0,0,0l0.5,1.5c0.1,0.4-0.1,0.8-0.5,0.9C17.4,21.8,17.3,21.8,17.2,21.8
		z M8.3,18.8h7.4l-0.5-1.5H8.8L8.3,18.8z M15.8,15.8H18c0.8,0,1.5-0.7,1.5-1.5V3.8h-15v10.5c0,0.8,0.7,1.5,1.5,1.5h2.2c0,0,0,0,0,0
		H15.8C15.7,15.8,15.8,15.8,15.8,15.8z M15,13.5c-0.4,0-0.8-0.3-0.8-0.8v-6C14.2,6.4,14.6,6,15,6s0.8,0.3,0.8,0.8v6
		C15.8,13.2,15.4,13.5,15,13.5z M12,13.5c-0.4,0-0.8-0.3-0.8-0.8V9c0-0.4,0.3-0.8,0.8-0.8s0.8,0.3,0.8,0.8v3.8
		C12.8,13.2,12.4,13.5,12,13.5z M9,13.5c-0.4,0-0.8-0.3-0.8-0.8v-1.5c0-0.4,0.3-0.8,0.8-0.8s0.8,0.3,0.8,0.8v1.5
		C9.8,13.2,9.4,13.5,9,13.5z"/>
</g>
</svg>
