<?xml version="1.0" encoding="utf-8"?>
<!-- Generator: Adobe Illustrator 28.4.1, SVG Export Plug-In . SVG Version: 6.00 Build 0)  -->
<svg version="1.1" id="Layer_1" xmlns="http://www.w3.org/2000/svg" xmlns:xlink="http://www.w3.org/1999/xlink" x="0px" y="0px"
	 viewBox="0 0 24 24" style="enable-background:new 0 0 24 24;" xml:space="preserve">
<style type="text/css">
	.st0{fill:#0F172A;}
</style>
<g>
	<path class="st0" d="M12,21.8c-5.4,0-9.8-4.4-9.8-9.8c0-5.4,4.4-9.8,9.8-9.8s9.8,4.4,9.8,9.8C21.8,17.4,17.4,21.8,12,21.8z M12,3.7
		c-4.5,0-8.2,3.7-8.2,8.2c0,4.5,3.7,8.3,8.2,8.3s8.2-3.7,8.2-8.3C20.2,7.5,16.5,3.7,12,3.7z M12,18c-0.7,0-1.5-0.2-2.1-0.5
		C9.3,17.2,9,16.6,9,15.9v-4.7H8.2c-0.4,0-0.8-0.3-0.8-0.8s0.3-0.8,0.8-0.8H9V8L8.6,8.2c-0.4,0.2-0.8,0-1-0.3c-0.2-0.4,0-0.8,0.3-1
		l0.4-0.2c0.5-0.2,1-0.2,1.5,0.1C10.2,7,10.5,7.4,10.5,8v1.8h5.2c0.4,0,0.8,0.3,0.8,0.8s-0.3,0.8-0.8,0.8h-5.2v4.7
		c0,0.1,0,0.2,0.1,0.2c0.4,0.2,0.9,0.4,1.4,0.4c1.4,0,2.6-1,2.9-2.3l-0.7,0c-0.4,0-0.8-0.3-0.8-0.8s0.3-0.8,0.8-0.8H15
		c0.4,0,0.9,0.2,1.1,0.5c0.3,0.3,0.4,0.7,0.3,1.1C16,16.5,14.1,18,12,18z"/>
</g>
</svg>
