<?xml version="1.0" encoding="utf-8"?>
<!-- Generator: Adobe Illustrator 28.4.1, SVG Export Plug-In . SVG Version: 6.00 Build 0)  -->
<svg version="1.1" id="Layer_1" xmlns="http://www.w3.org/2000/svg" xmlns:xlink="http://www.w3.org/1999/xlink" x="0px" y="0px"
	 viewBox="0 0 24 24" style="enable-background:new 0 0 24 24;" xml:space="preserve">
<style type="text/css">
	.st0{fill:#0F172A;}
</style>
<g>
	<path class="st0" d="M6,22.5H2.2c-0.4,0-0.8-0.3-0.8-0.8v-2.8c0-0.8,0.3-1.6,0.9-2.1l6.5-6.5c0.2-0.2,0.3-0.5,0.2-0.9
		C9,9,9,8.6,9,8.2c0-3.7,3-6.8,6.8-6.8c3.7,0,6.8,3,6.8,6.8s-3,6.8-6.8,6.8c-0.4,0-0.8,0-1.2-0.1c-0.4-0.1-0.7,0-0.9,0.2L11,17.8
		c-0.1,0.1-0.3,0.2-0.5,0.2H9v1.5c0,0.4-0.3,0.8-0.8,0.8H6.8v1.5C6.8,22.2,6.4,22.5,6,22.5z M3,21h2.2v-1.5c0-0.4,0.3-0.8,0.8-0.8
		h1.5v-1.5c0-0.4,0.3-0.8,0.8-0.8h1.9l2.4-2.4c0.5-0.5,1.4-0.8,2.2-0.6c0.3,0.1,0.6,0.1,0.9,0.1c2.9,0,5.2-2.4,5.2-5.3
		S18.6,3,15.8,3c-2.9,0-5.2,2.4-5.2,5.2c0,0.3,0,0.6,0.1,0.9c0.1,0.8-0.1,1.7-0.6,2.2l-6.5,6.5C3.2,18.2,3,18.5,3,18.9V21z M18.8,9
		C18.3,9,18,8.7,18,8.2C18,7,17,6,15.8,6C15.3,6,15,5.7,15,5.2s0.3-0.8,0.8-0.8c2.1,0,3.8,1.7,3.8,3.8C19.5,8.7,19.2,9,18.8,9z"/>
</g>
</svg>
