<?xml version="1.0" encoding="utf-8"?>
<!-- Generator: Adobe Illustrator 28.4.1, SVG Export Plug-In . SVG Version: 6.00 Build 0)  -->
<svg version="1.1" id="Layer_1" xmlns="http://www.w3.org/2000/svg" xmlns:xlink="http://www.w3.org/1999/xlink" x="0px" y="0px"
	 viewBox="0 0 24 24" style="enable-background:new 0 0 24 24;" xml:space="preserve">
<style type="text/css">
	.st0{fill:#0F172A;}
</style>
<g>
	<path class="st0" d="M12,21.4c-0.4,0-0.8-0.2-1.1-0.4l-4.5-4.5H4.5c-1.3,0-2.3-0.8-2.7-1.9c-0.2-0.8-0.3-1.7-0.3-2.6
		c0-0.9,0.1-1.8,0.3-2.6c0.3-1.1,1.4-1.9,2.7-1.9h1.9L10.9,3c0.4-0.4,1.1-0.6,1.6-0.3c0.6,0.2,0.9,0.8,0.9,1.4v15.9
		c0,0.6-0.4,1.2-0.9,1.4C12.4,21.4,12.2,21.4,12,21.4z M4.5,9C4,9,3.4,9.2,3.3,9.8C3.1,10.5,3,11.3,3,12s0.1,1.5,0.3,2.2
		C3.4,14.8,4,15,4.5,15h2.2c0.2,0,0.4,0.1,0.5,0.2l4.7,4.7V4.1L7.3,8.8C7.1,8.9,6.9,9,6.8,9H4.5z M21.8,15c-0.2,0-0.4-0.1-0.5-0.2
		l-1.7-1.7l-1.7,1.7c-0.3,0.3-0.8,0.3-1.1,0s-0.3-0.8,0-1.1l1.7-1.7l-1.7-1.7c-0.3-0.3-0.3-0.8,0-1.1s0.8-0.3,1.1,0l1.7,1.7l1.7-1.7
		c0.3-0.3,0.8-0.3,1.1,0s0.3,0.8,0,1.1L20.6,12l1.7,1.7c0.3,0.3,0.3,0.8,0,1.1C22.1,14.9,21.9,15,21.8,15z"/>
</g>
</svg>
