<?xml version="1.0" encoding="utf-8"?>
<!-- Generator: Adobe Illustrator 28.4.1, SVG Export Plug-In . SVG Version: 6.00 Build 0)  -->
<svg version="1.1" id="Layer_1" xmlns="http://www.w3.org/2000/svg" xmlns:xlink="http://www.w3.org/1999/xlink" x="0px" y="0px"
	 viewBox="0 0 24 24" style="enable-background:new 0 0 24 24;" xml:space="preserve">
<style type="text/css">
	.st0{fill:#0F172A;}
</style>
<g>
	<path class="st0" d="M9.7,22.5c-0.1,0-0.2,0-0.4-0.1c-0.3-0.2-0.4-0.5-0.4-0.9l2-7.3H3.8c-0.3,0-0.6-0.2-0.7-0.5
		C2.9,13.5,3,13.2,3.2,13L13.7,1.7c0.2-0.3,0.6-0.3,0.9-0.1c0.3,0.2,0.4,0.5,0.4,0.9l-2,7.3h7.3c0.3,0,0.6,0.2,0.7,0.5
		s0.1,0.6-0.1,0.8L10.3,22.3C10.2,22.4,10,22.5,9.7,22.5z M5.5,12.8H12c0.2,0,0.5,0.1,0.6,0.3c0.1,0.2,0.2,0.4,0.1,0.7L11.3,19
		l7.3-7.8H12c-0.2,0-0.5-0.1-0.6-0.3c-0.1-0.2-0.2-0.4-0.1-0.7L12.7,5L5.5,12.8z"/>
</g>
</svg>
