<?xml version="1.0" encoding="utf-8"?>
<!-- Generator: Adobe Illustrator 28.4.1, SVG Export Plug-In . SVG Version: 6.00 Build 0)  -->
<svg version="1.1" id="Layer_1" xmlns="http://www.w3.org/2000/svg" xmlns:xlink="http://www.w3.org/1999/xlink" x="0px" y="0px"
	 viewBox="0 0 24 24" style="enable-background:new 0 0 24 24;" xml:space="preserve">
<style type="text/css">
	.st0{fill:#0F172A;}
</style>
<g>
	<path class="st0" d="M19.5,20.3h-9.3c-0.5,0-1-0.2-1.3-0.5l-6.4-6.4c-0.7-0.7-0.7-1.9,0-2.7l6.4-6.4c0.4-0.4,0.8-0.5,1.3-0.5h9.3
		c1.7,0,3,1.3,3,3v10.5C22.5,18.9,21.2,20.3,19.5,20.3z M10.2,5.2c-0.1,0-0.2,0-0.3,0.1l-6.4,6.4c-0.1,0.1-0.1,0.4,0,0.5l6.4,6.4
		c0.1,0.1,0.2,0.1,0.3,0.1h9.3c0.8,0,1.5-0.7,1.5-1.5V6.7c0-0.8-0.7-1.5-1.5-1.5H10.2z M16.5,15c-0.2,0-0.4-0.1-0.5-0.2l-1.7-1.7
		l-1.7,1.7c-0.3,0.3-0.8,0.3-1.1,0s-0.3-0.8,0-1.1l1.7-1.7l-1.7-1.7c-0.3-0.3-0.3-0.8,0-1.1s0.8-0.3,1.1,0l1.7,1.7L16,9.2
		c0.3-0.3,0.8-0.3,1.1,0s0.3,0.8,0,1.1L15.3,12l1.7,1.7c0.3,0.3,0.3,0.8,0,1.1C16.9,14.9,16.7,15,16.5,15z"/>
</g>
</svg>
