<?xml version="1.0" encoding="utf-8"?>
<!-- Generator: Adobe Illustrator 28.4.1, SVG Export Plug-In . SVG Version: 6.00 Build 0)  -->
<svg version="1.1" id="Layer_1" xmlns="http://www.w3.org/2000/svg" xmlns:xlink="http://www.w3.org/1999/xlink" x="0px" y="0px"
	 viewBox="0 0 24 24" style="enable-background:new 0 0 24 24;" xml:space="preserve">
<style type="text/css">
	.st0{fill:#0F172A;}
</style>
<g>
	<path class="st0" d="M18,21.8c-0.8,0-1.5-0.7-1.5-1.5s0.7-1.5,1.5-1.5s1.5,0.7,1.5,1.5S18.8,21.8,18,21.8z M18,20.2L18,20.2
		L18,20.2z M5.2,21.8c-0.8,0-1.5-0.7-1.5-1.5s0.7-1.5,1.5-1.5s1.5,0.7,1.5,1.5S6.1,21.8,5.2,21.8z M5.2,20.2L5.2,20.2L5.2,20.2z
		 M20.2,18H4.5c-0.4,0-0.8-0.3-0.8-0.8c0-1.7,1.2-3.2,2.8-3.6L4.4,5.5c0,0,0,0,0,0L4,4c0-0.2-0.2-0.3-0.4-0.3H2.2
		C1.8,3.7,1.5,3.4,1.5,3s0.3-0.8,0.8-0.8h1.4c0.8,0,1.6,0.6,1.8,1.4l0.2,0.9C11.1,4.4,16.6,5,21.8,6.4c0.2,0.1,0.4,0.2,0.5,0.4
		s0.1,0.4,0.1,0.6c-0.8,2.5-1.8,4.9-3,7.2C19.3,14.8,19,15,18.7,15H7.5c0,0,0,0,0,0c-1,0-1.8,0.6-2.1,1.5h14.9
		c0.4,0,0.8,0.3,0.8,0.8S20.7,18,20.2,18z M8.1,13.5h10.2c0.9-1.9,1.7-3.9,2.4-5.9C15.9,6.5,11,6,6.1,6L8.1,13.5z"/>
</g>
</svg>
