<?xml version="1.0" encoding="utf-8"?>
<!-- Generator: Adobe Illustrator 28.4.1, SVG Export Plug-In . SVG Version: 6.00 Build 0)  -->
<svg version="1.1" id="Layer_1" xmlns="http://www.w3.org/2000/svg" xmlns:xlink="http://www.w3.org/1999/xlink" x="0px" y="0px"
	 viewBox="0 0 24 24" style="enable-background:new 0 0 24 24;" xml:space="preserve">
<style type="text/css">
	.st0{fill:#0F172A;}
</style>
<g>
	<path class="st0" d="M19.9,22.5H4.1c-1,0-1.9-0.8-1.9-1.9v-4.1c0,0,0,0,0,0v-1c0-1.5,1-2.7,2.5-2.9c0.2,0,0.3-0.1,0.5-0.1v-1.9
		c0-1.5,1.1-2.8,2.7-2.9c0.1,0,0.2,0,0.3,0V6.7C8.2,6.3,8.6,6,9,6s0.8,0.3,0.8,0.8v0.8c0.5,0,1,0,1.5,0V6.7C11.2,6.3,11.6,6,12,6
		s0.8,0.3,0.8,0.8v0.8c0.5,0,1,0,1.5,0V6.7C14.2,6.3,14.6,6,15,6s0.8,0.3,0.8,0.8v0.9c0.1,0,0.2,0,0.3,0c1.5,0.1,2.7,1.4,2.7,2.9
		v1.9c0.2,0,0.3,0,0.5,0.1c1.4,0.2,2.5,1.4,2.5,2.9v1c0,0,0,0,0,0v4.1C21.8,21.7,20.9,22.5,19.9,22.5z M3.8,17.7v2.9
		c0,0.2,0.2,0.4,0.4,0.4h15.8c0.2,0,0.4-0.2,0.4-0.4v-2.9l-0.4,0.2c-1.1,0.6-2.5,0.6-3.7,0c-0.7-0.4-1.6-0.4-2.3,0
		c-1.2,0.6-2.5,0.6-3.7,0c-0.7-0.4-1.6-0.4-2.3,0c-1.1,0.6-2.5,0.6-3.7,0L3.8,17.7z M15,16.1c0.6,0,1.3,0.1,1.8,0.4
		c0.7,0.4,1.6,0.4,2.3,0l1.1-0.5v-0.6c0-0.7-0.5-1.3-1.2-1.4c-0.4-0.1-0.8-0.1-1.1-0.2c0,0,0,0,0,0c-3.9-0.5-7.9-0.5-11.8,0
		c0,0,0,0,0,0c-0.4,0-0.8,0.1-1.1,0.2c-0.7,0.1-1.2,0.7-1.2,1.4V16l1.1,0.5c0.7,0.4,1.6,0.4,2.3,0c1.1-0.6,2.5-0.6,3.7,0
		c0.7,0.4,1.6,0.4,2.3,0C13.7,16.3,14.4,16.1,15,16.1z M12,12c1.8,0,3.5,0.1,5.2,0.3v-1.7c0-0.8-0.6-1.4-1.3-1.4
		c-2.6-0.2-5.3-0.2-7.9,0c-0.7,0.1-1.3,0.7-1.3,1.4v1.7C8.5,12.1,10.2,12,12,12z M15,4.5C15,4.5,15,4.5,15,4.5
		c-0.3,0-0.6-0.1-0.8-0.3C14,4,13.9,3.7,13.9,3.4s0.1-0.6,0.3-0.8l0.3-0.3c0.3-0.3,0.8-0.3,1.1,0l0.3,0.3c0,0,0,0,0,0
		c0.2,0.2,0.3,0.5,0.3,0.8S16,4,15.8,4.2C15.6,4.4,15.3,4.5,15,4.5z M14.7,3.6C14.7,3.6,14.7,3.6,14.7,3.6L14.7,3.6z M15.3,3.1
		L15.3,3.1C15.3,3.1,15.3,3.1,15.3,3.1C15.3,3.1,15.3,3.1,15.3,3.1L15.3,3.1L15.3,3.1L15.3,3.1z M12,4.5c-0.3,0-0.6-0.1-0.8-0.3
		C11,4,10.9,3.7,10.9,3.4s0.1-0.6,0.3-0.8l0.3-0.3c0.3-0.3,0.8-0.3,1.1,0l0.3,0.3c0.2,0.2,0.3,0.5,0.3,0.8S13,4,12.8,4.2
		C12.6,4.4,12.3,4.5,12,4.5z M11.7,3.6L11.7,3.6L11.7,3.6z M12.3,3.1L12.3,3.1C12.3,3.1,12.3,3.1,12.3,3.1
		C12.3,3.1,12.3,3.1,12.3,3.1z M11.7,3.1C11.7,3.1,11.7,3.1,11.7,3.1C11.7,3.1,11.7,3.1,11.7,3.1L11.7,3.1z M9,4.5
		c-0.3,0-0.6-0.1-0.8-0.3C8,4,7.9,3.7,7.9,3.4S8,2.8,8.2,2.6l0.3-0.3C8.8,2,9.2,2,9.5,2.3l0.3,0.3c0.4,0.4,0.4,1.2,0,1.6
		C9.6,4.4,9.3,4.5,9,4.5z M8.7,3.6L8.7,3.6L8.7,3.6z M9.3,3.1L9.3,3.1C9.3,3.1,9.3,3.1,9.3,3.1C9.3,3.1,9.3,3.1,9.3,3.1z M8.7,3.1
		C8.7,3.1,8.7,3.1,8.7,3.1C8.7,3.1,8.7,3.1,8.7,3.1L8.7,3.1z"/>
</g>
</svg>
