<?xml version="1.0" encoding="utf-8"?>
<!-- Generator: Adobe Illustrator 28.4.1, SVG Export Plug-In . SVG Version: 6.00 Build 0)  -->
<svg version="1.1" id="Layer_1" xmlns="http://www.w3.org/2000/svg" xmlns:xlink="http://www.w3.org/1999/xlink" x="0px" y="0px"
	 viewBox="0 0 24 24" style="enable-background:new 0 0 24 24;" xml:space="preserve">
<style type="text/css">
	.st0{fill:#0F172A;}
</style>
<g>
	<path class="st0" d="M9,19.5c-0.3,0-0.6-0.2-0.7-0.5l-0.8-2.8c-0.4-1.3-1.3-2.2-2.6-2.6L2,12.7c-0.3-0.1-0.5-0.4-0.5-0.7
		s0.2-0.6,0.5-0.7l2.8-0.8c1.3-0.4,2.2-1.3,2.6-2.6L8.3,5C8.4,4.7,8.7,4.5,9,4.5S9.6,4.7,9.7,5l0.8,2.8c0.4,1.3,1.3,2.2,2.6,2.6
		l2.8,0.8c0.3,0.1,0.5,0.4,0.5,0.7s-0.2,0.6-0.5,0.7l-2.8,0.8c-1.3,0.4-2.2,1.3-2.6,2.6L9.7,19C9.6,19.3,9.3,19.5,9,19.5z M5,12
		l0.3,0.1c1.8,0.5,3.1,1.8,3.6,3.6L9,16l0.1-0.3l0,0c0.5-1.8,1.8-3.1,3.6-3.6L13,12l-0.3-0.1c-1.8-0.5-3.1-1.9-3.6-3.6L9,8L8.9,8.3
		c-0.5,1.8-1.9,3.1-3.6,3.6L5,12z"/>
</g>
<g>
	<path class="st0" d="M18,10.5c-0.3,0-0.6-0.2-0.7-0.6l-0.3-1C16.8,8,16,7.2,15.1,7l-1-0.3c-0.3-0.1-0.6-0.4-0.6-0.7
		s0.2-0.6,0.6-0.7l1-0.3C16,4.8,16.8,4,17,3.1l0.3-1c0.1-0.3,0.4-0.6,0.7-0.6s0.6,0.2,0.7,0.6l0.3,1C19.2,4,20,4.8,20.9,5l1,0.3
		c0.3,0.1,0.6,0.4,0.6,0.7s-0.2,0.6-0.6,0.7l-1,0.3C20,7.2,19.2,8,19,8.9l-0.3,1C18.6,10.3,18.3,10.5,18,10.5z M16.6,6
		c0.6,0.3,1.1,0.8,1.4,1.4c0.3-0.6,0.8-1.1,1.4-1.4c-0.6-0.3-1.1-0.8-1.4-1.4C17.7,5.2,17.2,5.7,16.6,6z"/>
</g>
<g>
	<path class="st0" d="M16.5,22.5c-0.3,0-0.6-0.2-0.7-0.5l-0.4-1.2c-0.1-0.4-0.5-0.8-0.9-1l-1.2-0.4c-0.3-0.1-0.5-0.4-0.5-0.7
		c0-0.3,0.2-0.6,0.5-0.7l1.2-0.4c0.4-0.1,0.8-0.5,0.9-0.9l0.4-1.2c0.1-0.3,0.4-0.5,0.7-0.5s0.6,0.2,0.7,0.5l0.4,1.2
		c0.1,0.4,0.5,0.8,0.9,0.9l1.2,0.4c0.3,0.1,0.5,0.4,0.5,0.7c0,0.3-0.2,0.6-0.5,0.7l-1.2,0.4c-0.4,0.1-0.8,0.5-0.9,0.9l0,0L17.2,22
		C17.1,22.3,16.8,22.5,16.5,22.5z M15.6,18.8c0.4,0.2,0.7,0.5,0.9,0.9c0.2-0.4,0.5-0.7,0.9-0.9c-0.4-0.2-0.7-0.5-0.9-0.9
		C16.3,18.2,16,18.5,15.6,18.8z"/>
</g>
</svg>
