<?xml version="1.0" encoding="utf-8"?>
<!-- Generator: Adobe Illustrator 28.4.1, SVG Export Plug-In . SVG Version: 6.00 Build 0)  -->
<svg version="1.1" id="Layer_1" xmlns="http://www.w3.org/2000/svg" xmlns:xlink="http://www.w3.org/1999/xlink" x="0px" y="0px"
	 viewBox="0 0 24 24" style="enable-background:new 0 0 24 24;" xml:space="preserve">
<style type="text/css">
	.st0{fill:#0F172A;}
</style>
<g>
	<path class="st0" d="M12,21c-0.1,0-0.2,0-0.4-0.1c-0.4-0.2-9.4-5.1-9.4-12.7C2.2,5.4,4.7,3,7.7,3C9.4,3,11,3.8,12,5
		c1-1.3,2.6-2,4.3-2c3,0,5.4,2.4,5.4,5.2c0,7.6-9,12.5-9.4,12.7C12.2,21,12.1,21,12,21z M7.7,4.5c-2.2,0-3.9,1.7-3.9,3.8
		c0,5.9,6.6,10.2,8.2,11.1c1.6-1,8.2-5.2,8.2-11.1c0-2.1-1.8-3.8-3.9-3.8c-1.6,0-3,0.9-3.6,2.3c-0.2,0.5-1.1,0.5-1.4,0
		C10.7,5.4,9.3,4.5,7.7,4.5z"/>
</g>
</svg>
