<?xml version="1.0" encoding="utf-8"?>
<!-- Generator: Adobe Illustrator 28.4.1, SVG Export Plug-In . SVG Version: 6.00 Build 0)  -->
<svg version="1.1" id="Layer_1" xmlns="http://www.w3.org/2000/svg" xmlns:xlink="http://www.w3.org/1999/xlink" x="0px" y="0px"
	 viewBox="0 0 24 24" style="enable-background:new 0 0 24 24;" xml:space="preserve">
<style type="text/css">
	.st0{fill:#0F172A;}
</style>
<g>
	<path class="st0" d="M19.9,18.7c-0.3,0-0.6-0.1-0.9-0.2l-7.1-4.1c-0.6-0.3-0.9-0.9-0.9-1.6c0-0.7,0.4-1.3,0.9-1.6l7.1-4.1
		c0.6-0.3,1.3-0.3,1.9,0c0.6,0.3,0.9,0.9,0.9,1.6v8.1c0,0.7-0.3,1.3-0.9,1.6C20.5,18.6,20.2,18.7,19.9,18.7z M19.9,8.3
		c-0.1,0-0.1,0-0.2,0.1l-7.1,4.1c-0.2,0.1-0.2,0.3-0.2,0.3s0,0.2,0.2,0.3l7.1,4.1c0.2,0.1,0.3,0,0.4,0c0.1,0,0.2-0.1,0.2-0.3V8.7
		c0-0.2-0.1-0.3-0.2-0.3C20,8.3,20,8.3,19.9,8.3z"/>
</g>
<g>
	<path class="st0" d="M10.1,18.7c-0.3,0-0.6-0.1-0.9-0.2l-7.1-4.1c-0.6-0.3-0.9-0.9-0.9-1.6c0-0.7,0.4-1.3,0.9-1.6l7.1-4.1
		c0.6-0.3,1.3-0.3,1.9,0S12,8,12,8.7v8.1c0,0.7-0.3,1.3-0.9,1.6C10.8,18.6,10.4,18.7,10.1,18.7z M10.1,8.3c-0.1,0-0.1,0-0.2,0.1
		l-7.1,4.1c-0.2,0.1-0.2,0.3-0.2,0.3s0,0.2,0.2,0.3l7.1,4.1c0.2,0.1,0.3,0,0.4,0c0.1,0,0.2-0.1,0.2-0.3V8.7c0-0.2-0.1-0.3-0.2-0.3
		C10.3,8.3,10.2,8.3,10.1,8.3z"/>
</g>
</svg>
