<?xml version="1.0" encoding="utf-8"?>
<!-- Generator: Adobe Illustrator 28.4.1, SVG Export Plug-In . SVG Version: 6.00 Build 0)  -->
<svg version="1.1" id="Layer_1" xmlns="http://www.w3.org/2000/svg" xmlns:xlink="http://www.w3.org/1999/xlink" x="0px" y="0px"
	 viewBox="0 0 24 24" style="enable-background:new 0 0 24 24;" xml:space="preserve">
<style type="text/css">
	.st0{fill:#0F172A;}
</style>
<g>
	<path class="st0" d="M9.4,21.8c-2.4,0-4.7-0.6-6.8-1.9c-0.2-0.1-0.4-0.4-0.4-0.6l0.8,0l-0.8,0l0-0.1c0-3.9,3.2-7.1,7.1-7.1
		s7.1,3.2,7.1,7.1l0,0.1c0,0.3-0.1,0.5-0.4,0.6C14.1,21.1,11.8,21.8,9.4,21.8z M3.8,18.8c3.4,1.9,7.8,1.9,11.2,0
		c-0.2-3-2.6-5.3-5.6-5.3C6.4,13.5,3.9,15.9,3.8,18.8z M18,14.3c-0.4,0-0.8-0.3-0.8-0.8v-2.3H15c-0.4,0-0.8-0.3-0.8-0.8
		s0.3-0.8,0.8-0.8h2.2V7.5c0-0.4,0.3-0.8,0.8-0.8s0.8,0.3,0.8,0.8v2.3H21c0.4,0,0.8,0.3,0.8,0.8s-0.3,0.8-0.8,0.8h-2.2v2.3
		C18.8,13.9,18.4,14.3,18,14.3z M9.4,10.5c-2.3,0-4.1-1.9-4.1-4.1s1.9-4.1,4.1-4.1s4.1,1.9,4.1,4.1S11.6,10.5,9.4,10.5z M9.4,3.7
		c-1.4,0-2.6,1.2-2.6,2.6S7.9,9,9.4,9S12,7.8,12,6.4S10.8,3.7,9.4,3.7z"/>
</g>
</svg>
