<?xml version="1.0" encoding="utf-8"?>
<!-- Generator: Adobe Illustrator 28.4.1, SVG Export Plug-In . SVG Version: 6.00 Build 0)  -->
<svg version="1.1" id="Layer_1" xmlns="http://www.w3.org/2000/svg" xmlns:xlink="http://www.w3.org/1999/xlink" x="0px" y="0px"
	 viewBox="0 0 24 24" style="enable-background:new 0 0 24 24;" xml:space="preserve">
<style type="text/css">
	.st0{fill:#0F172A;}
</style>
<g>
	<path class="st0" d="M12,22.5c-3.3,0-6-3.4-6-7.5c0-0.3,0-0.5,0.1-0.7c-0.5,0.1-1,0.3-1.5,0.5c0.2,1.8,0.5,3.6,1.1,5.3
		c0.1,0.4-0.1,0.8-0.5,0.9c-0.4,0.1-0.8-0.1-0.9-0.5c-0.7-2-1.1-4.1-1.2-6.3c0-0.3,0.2-0.6,0.5-0.7c1.9-0.7,3.9-1.2,5.9-1.4
		c-0.2-0.3-0.4-0.7-0.4-1c-1.6-0.2-3.2-0.5-4.8-1C4,9.9,3.8,9.6,3.8,9.3C3.8,8.1,4,7,4.2,5.9c0.1-0.4,0.5-0.7,0.9-0.6
		c0.4,0.1,0.7,0.5,0.6,0.9C5.5,7,5.4,7.9,5.3,8.8c1.2,0.4,2.5,0.6,3.8,0.8c0.1-0.3,0.2-0.5,0.4-0.7C9.3,8.8,9.1,8.8,9,8.8
		C8.2,8.6,7.6,8.1,7.5,7.4c0-0.2,0-0.4,0-0.6c0-0.5,0.1-1,0.3-1.5C7.5,5,7.2,4.8,7,4.5C6.8,4.3,6.8,4.1,6.8,3.9
		c0.1-0.7,0.3-1.4,0.7-2c0.2-0.4,0.7-0.5,1-0.3c0.4,0.2,0.5,0.7,0.3,1C8.5,3,8.4,3.4,8.3,3.7c0.1,0.1,0.1,0.1,0.2,0.2
		c0.8-1,2.1-1.7,3.5-1.7c1.4,0,2.7,0.6,3.5,1.7c0.1-0.1,0.1-0.1,0.2-0.2c-0.1-0.4-0.2-0.8-0.4-1.1c-0.2-0.4-0.1-0.8,0.3-1
		c0.4-0.2,0.8-0.1,1,0.3c0.4,0.6,0.6,1.3,0.7,2c0,0.2,0,0.4-0.2,0.6c-0.2,0.3-0.5,0.5-0.8,0.7c0.2,0.5,0.3,1,0.3,1.5
		c0,0.2,0,0.4,0,0.6c-0.1,0.7-0.7,1.3-1.4,1.4c-0.2,0-0.4,0.1-0.5,0.1c0.2,0.2,0.3,0.5,0.4,0.7c1.3-0.2,2.6-0.4,3.8-0.8
		c-0.1-0.9-0.2-1.8-0.3-2.6c-0.1-0.4,0.2-0.8,0.6-0.9c0.4-0.1,0.8,0.2,0.9,0.6C20,7,20.2,8.1,20.2,9.3c0,0.3-0.2,0.6-0.5,0.7
		c-1.5,0.5-3.1,0.9-4.8,1c-0.1,0.4-0.2,0.7-0.4,1c2,0.2,4,0.7,5.9,1.4c0.3,0.1,0.5,0.4,0.5,0.7c-0.1,2.1-0.5,4.2-1.2,6.3
		c-0.1,0.4-0.6,0.6-0.9,0.5c-0.4-0.1-0.6-0.6-0.5-0.9c0.6-1.7,0.9-3.5,1.1-5.3c-0.5-0.2-1-0.3-1.5-0.5C18,14.5,18,14.7,18,15
		C18,19.1,15.3,22.5,12,22.5z M12,13.5c-1.1,0-2.2,0.1-3.3,0.2C8,13.8,7.5,14.4,7.5,15c0,3.3,2,6,4.5,6c2.5,0,4.5-2.7,4.5-6
		c0-0.6-0.5-1.2-1.2-1.3C14.2,13.6,13.1,13.5,12,13.5C12,13.5,12,13.5,12,13.5C12,13.5,12,13.5,12,13.5z M10.5,10.4
		c0,0.9,0.7,1.6,1.5,1.6c0.8,0,1.5-0.7,1.5-1.5c0,0,0,0,0-0.1c0,0,0,0,0,0C13.5,9.6,12.8,9,12,9S10.5,9.6,10.5,10.4
		C10.5,10.4,10.5,10.4,10.5,10.4z M12,7.5c0.9,0,1.9-0.1,2.8-0.2c0.1,0,0.2-0.1,0.2-0.1c0-0.1,0-0.3,0-0.4c0-0.5-0.1-1-0.3-1.4
		c0,0,0,0,0,0c-0.5-1-1.5-1.6-2.7-1.6c-1.1,0-2.1,0.6-2.6,1.6c0,0,0,0,0,0C9.1,5.8,9,6.3,9,6.7C9,6.9,9,7,9,7.2
		c0,0.1,0.1,0.1,0.2,0.1C10.1,7.4,11.1,7.5,12,7.5z"/>
</g>
</svg>
