<?xml version="1.0" encoding="utf-8"?>
<!-- Generator: Adobe Illustrator 28.4.1, SVG Export Plug-In . SVG Version: 6.00 Build 0)  -->
<svg version="1.1" id="Layer_1" xmlns="http://www.w3.org/2000/svg" xmlns:xlink="http://www.w3.org/1999/xlink" x="0px" y="0px"
	 viewBox="0 0 24 24" style="enable-background:new 0 0 24 24;" xml:space="preserve">
<style type="text/css">
	.st0{fill:#0F172A;}
</style>
<g>
	<path class="st0" d="M16.5,20.3c-0.2,0-0.4-0.1-0.5-0.2l-1.4-1.4l0,0L1,5C0.7,4.7,0.7,4.3,1,4S1.7,3.7,2,4L3,4.9
		c0.5-0.3,1-0.4,1.5-0.4h9c1.7,0,3,1.3,3,3v1.2l3.4-3.4c0.4-0.4,1.1-0.6,1.6-0.3c0.6,0.2,0.9,0.8,0.9,1.4v11.4
		c0,0.6-0.4,1.2-0.9,1.4c-0.6,0.2-1.2,0.1-1.6-0.3l-3.4-3.4v1.2c0,0.5-0.1,1.1-0.4,1.5L17,19c0.3,0.3,0.3,0.8,0,1.1
		C16.9,20.2,16.7,20.3,16.5,20.3z M16.5,13.2l4.5,4.5V6.3l-4.5,4.5V13.2z M4.1,6.1l10.8,10.8c0-0.1,0.1-0.3,0.1-0.4v-9
		C15,6.7,14.3,6,13.5,6h-9C4.4,6,4.2,6,4.1,6.1z M12,19.5H4.5c-1.7,0-3-1.3-3-3V9c0-0.4,0.3-0.8,0.8-0.8S3,8.6,3,9v7.5
		C3,17.3,3.7,18,4.5,18H12c0.4,0,0.8,0.3,0.8,0.8S12.4,19.5,12,19.5z"/>
</g>
</svg>
