<?xml version="1.0" encoding="utf-8"?>
<!-- Generator: Adobe Illustrator 28.4.1, SVG Export Plug-In . SVG Version: 6.00 Build 0)  -->
<svg version="1.1" id="Layer_1" xmlns="http://www.w3.org/2000/svg" xmlns:xlink="http://www.w3.org/1999/xlink" x="0px" y="0px"
	 viewBox="0 0 24 24" style="enable-background:new 0 0 24 24;" xml:space="preserve">
<style type="text/css">
	.st0{fill:#0F172A;}
</style>
<g>
	<path class="st0" d="M18,21c-0.4,0-0.8-0.3-0.8-0.8v-3.1c-0.9-0.3-1.5-1.1-1.5-2.1s0.6-1.8,1.5-2.1V3.7C17.2,3.3,17.6,3,18,3
		s0.8,0.3,0.8,0.8v9.1c0.9,0.3,1.5,1.1,1.5,2.1s-0.6,1.8-1.5,2.1v3.1C18.8,20.7,18.4,21,18,21z M18,15.8c0.4,0,0.8-0.3,0.8-0.8
		s-0.3-0.8-0.8-0.8s-0.8,0.3-0.8,0.8S17.6,15.8,18,15.8z M12,21c-0.4,0-0.8-0.3-0.8-0.8v-9.1C10.4,10.8,9.8,10,9.8,9
		s0.6-1.8,1.5-2.1V3.7C11.2,3.3,11.6,3,12,3s0.8,0.3,0.8,0.8v3.1C13.6,7.2,14.2,8,14.2,9s-0.6,1.8-1.5,2.1v9.1
		C12.8,20.7,12.4,21,12,21z M12,9.7c0.4,0,0.8-0.3,0.8-0.8S12.4,8.2,12,8.2S11.2,8.6,11.2,9S11.6,9.7,12,9.7z M6,21
		c-0.4,0-0.8-0.3-0.8-0.8v-3.1C4.4,16.8,3.8,16,3.8,15s0.6-1.8,1.5-2.1V3.7C5.2,3.3,5.6,3,6,3s0.8,0.3,0.8,0.8v9.1
		C7.6,13.2,8.2,14,8.2,15s-0.6,1.8-1.5,2.1v3.1C6.8,20.7,6.4,21,6,21z M6,15.8c0.4,0,0.8-0.3,0.8-0.8S6.4,14.3,6,14.3
		S5.2,14.6,5.2,15S5.6,15.8,6,15.8z"/>
</g>
</svg>
