<?xml version="1.0" encoding="utf-8"?>
<!-- Generator: Adobe Illustrator 28.4.1, SVG Export Plug-In . SVG Version: 6.00 Build 0)  -->
<svg version="1.1" id="Layer_1" xmlns="http://www.w3.org/2000/svg" xmlns:xlink="http://www.w3.org/1999/xlink" x="0px" y="0px"
	 viewBox="0 0 24 24" style="enable-background:new 0 0 24 24;" xml:space="preserve">
<style type="text/css">
	.st0{fill:#0F172A;}
</style>
<g>
	<path class="st0" d="M12,21c-0.8,0-1.5-0.1-2.3-0.3c-1.5-0.4-2.9-1.2-4-2.3l-1.9-1.9v3.2c0,0.4-0.3,0.8-0.8,0.8s-0.8-0.3-0.8-0.8
		v-5c0,0,0,0,0,0l0,0c0,0,0,0,0,0v0v0c0-0.1,0-0.2,0.1-0.3c0,0,0,0,0,0l0,0c0-0.1,0.1-0.2,0.2-0.2C2.5,14,2.6,14,2.7,14c0,0,0,0,0,0
		c0,0,0,0,0,0c0.1,0,0.2-0.1,0.3-0.1c0,0,0,0,0,0s0,0,0,0l0,0c0,0,0,0,0,0h5c0.4,0,0.8,0.3,0.8,0.8S8.4,15.4,8,15.4H4.8l1.9,1.9
		c0.9,0.9,2.1,1.6,3.4,1.9c4,1.1,8.1-1.3,9.2-5.3c0.1-0.4,0.5-0.6,0.9-0.5c0.4,0.1,0.6,0.5,0.5,0.9C19.6,18.3,16,21,12,21z M4,10.6
		c-0.1,0-0.1,0-0.2,0c-0.4-0.1-0.6-0.5-0.5-0.9c1.3-4.8,6.2-7.6,11-6.4c1.5,0.4,2.9,1.2,4,2.3l1.9,1.9V4.4c0-0.4,0.3-0.7,0.8-0.7
		s0.8,0.3,0.8,0.7v5c0,0,0,0,0,0c0,0.4-0.3,0.8-0.8,0.8h-5c-0.4,0-0.8-0.3-0.8-0.8s0.3-0.8,0.8-0.8h3.2l-1.9-1.9
		c-0.9-0.9-2.1-1.6-3.4-1.9c-4-1.1-8.1,1.3-9.2,5.3C4.7,10.4,4.4,10.6,4,10.6z"/>
</g>
</svg>
