<?xml version="1.0" encoding="utf-8"?>
<!-- Generator: Adobe Illustrator 28.4.1, SVG Export Plug-In . SVG Version: 6.00 Build 0)  -->
<svg version="1.1" id="Layer_1" xmlns="http://www.w3.org/2000/svg" xmlns:xlink="http://www.w3.org/1999/xlink" x="0px" y="0px"
	 viewBox="0 0 24 24" style="enable-background:new 0 0 24 24;" xml:space="preserve">
<style type="text/css">
	.st0{fill:#0F172A;}
</style>
<g>
	<path class="st0" d="M12,21.8c-5.4,0-9.8-4.4-9.8-9.8c0-5.4,4.4-9.8,9.8-9.8s9.8,4.4,9.8,9.8C21.8,17.4,17.4,21.8,12,21.8z M12,3.7
		c-4.5,0-8.2,3.7-8.2,8.2c0,4.5,3.7,8.3,8.2,8.3s8.2-3.7,8.2-8.3C20.2,7.5,16.5,3.7,12,3.7z M9,17.3c-0.2,0-0.4-0.1-0.6-0.3
		c-0.2-0.2-0.2-0.6-0.1-0.8l0.1-0.2c0.3-0.7,0.5-1.4,0.4-2.2l-0.1-1H8.2c-0.4,0-0.8-0.3-0.8-0.8s0.3-0.8,0.8-0.8h0.2l-0.2-1.1
		c0-0.2-0.1-0.5,0-0.8c0.1-0.8,0.5-1.6,1.1-2.3c1.5-1.5,3.8-1.5,5.3,0c0.3,0.3,0.3,0.8,0,1.1c-0.3,0.3-0.8,0.3-1.1,0
		c-0.9-0.9-2.3-0.9-3.2,0C10,8.5,9.8,9,9.8,9.5c0,0.1,0,0.3,0,0.5l0.2,1.3h2c0.4,0,0.8,0.3,0.8,0.8s-0.3,0.8-0.8,0.8h-1.8l0.1,0.8
		c0.1,0.6,0.1,1.2-0.1,1.8l0.1,0c0.6-0.2,1.3-0.2,1.9,0l0.7,0.2c0.4,0.1,0.8,0.1,1.1-0.1l0.7-0.3c0.4-0.2,0.8,0,1,0.3
		c0.2,0.4,0,0.8-0.3,1l-0.7,0.3c-0.7,0.4-1.5,0.4-2.3,0.2l-0.7-0.2c-0.3-0.1-0.6-0.1-0.9,0l-1.5,0.5C9.2,17.2,9.1,17.3,9,17.3z"/>
</g>
</svg>
