<?xml version="1.0" encoding="utf-8"?>
<!-- Generator: Adobe Illustrator 28.4.1, SVG Export Plug-In . SVG Version: 6.00 Build 0)  -->
<svg version="1.1" id="Layer_1" xmlns="http://www.w3.org/2000/svg" xmlns:xlink="http://www.w3.org/1999/xlink" x="0px" y="0px"
	 viewBox="0 0 24 24" style="enable-background:new 0 0 24 24;" xml:space="preserve">
<style type="text/css">
	.st0{fill:#0F172A;}
</style>
<g>
	<path class="st0" d="M12,21.8c-5.4,0-9.8-4.4-9.8-9.8c0-5.4,4.4-9.8,9.8-9.8s9.8,4.4,9.8,9.8C21.8,17.4,17.4,21.8,12,21.8z M12,3.7
		c-4.5,0-8.2,3.7-8.2,8.2c0,4.5,3.7,8.3,8.2,8.3s8.2-3.7,8.2-8.3C20.2,7.5,16.5,3.7,12,3.7z M12,18.8c-0.4,0-0.8-0.3-0.8-0.8v-0.8
		c-0.7-0.1-1.3-0.4-1.8-0.8l-0.9-0.7c-0.3-0.2-0.4-0.7-0.1-1c0.2-0.3,0.7-0.4,1.1-0.1l0.9,0.7c0.3,0.2,0.6,0.3,0.9,0.4v-3
		c-0.6-0.1-1.2-0.4-1.7-0.8c-0.7-0.6-1.1-1.3-1.1-2.2c0-0.8,0.4-1.6,1.1-2.2c0.5-0.4,1.1-0.6,1.7-0.8V6c0-0.4,0.3-0.8,0.8-0.8
		s0.8,0.3,0.8,0.8v0.8c0.6,0.1,1.2,0.4,1.7,0.8l0.4,0.3C15.2,8.2,15.3,8.6,15,9c-0.3,0.3-0.7,0.4-1.1,0.1l-0.4-0.3
		c-0.2-0.2-0.5-0.3-0.8-0.4v3c0.7,0.1,1.3,0.4,1.8,0.8c0.7,0.6,1.2,1.4,1.2,2.2c0,0.8-0.4,1.6-1.2,2.2c-0.5,0.4-1.2,0.6-1.8,0.8V18
		C12.8,18.4,12.4,18.8,12,18.8z M12.8,12.8v2.8c0.3-0.1,0.7-0.2,0.9-0.4c0.4-0.3,0.6-0.6,0.6-1c0-0.4-0.2-0.7-0.6-1
		C13.4,13.1,13.1,12.9,12.8,12.8z M11.2,8.4c-0.3,0.1-0.6,0.2-0.8,0.4c-0.4,0.3-0.5,0.6-0.5,1s0.2,0.7,0.5,1
		c0.2,0.2,0.5,0.3,0.8,0.4V8.4z"/>
</g>
</svg>
