<?xml version="1.0" encoding="utf-8"?>
<!-- Generator: Adobe Illustrator 28.4.1, SVG Export Plug-In . SVG Version: 6.00 Build 0)  -->
<svg version="1.1" id="Layer_1" xmlns="http://www.w3.org/2000/svg" xmlns:xlink="http://www.w3.org/1999/xlink" x="0px" y="0px"
	 viewBox="0 0 24 24" style="enable-background:new 0 0 24 24;" xml:space="preserve">
<style type="text/css">
	.st0{fill:#0F172A;}
</style>
<g>
	<path class="st0" d="M20.2,18H12c-0.4,0-0.8-0.3-0.8-0.8s0.3-0.8,0.8-0.8h8.2c0.4,0,0.8,0.3,0.8,0.8S20.7,18,20.2,18z M20.2,12.7
		H3.8C3.3,12.7,3,12.4,3,12s0.3-0.8,0.8-0.8h16.5c0.4,0,0.8,0.3,0.8,0.8S20.7,12.7,20.2,12.7z M20.2,7.5H3.8C3.3,7.5,3,7.2,3,6.7
		S3.3,6,3.8,6h16.5C20.7,6,21,6.3,21,6.7S20.7,7.5,20.2,7.5z"/>
</g>
</svg>
