<?xml version="1.0" encoding="utf-8"?>
<!-- Generator: Adobe Illustrator 28.4.1, SVG Export Plug-In . SVG Version: 6.00 Build 0)  -->
<svg version="1.1" id="Layer_1" xmlns="http://www.w3.org/2000/svg" xmlns:xlink="http://www.w3.org/1999/xlink" x="0px" y="0px"
	 viewBox="0 0 24 24" style="enable-background:new 0 0 24 24;" xml:space="preserve">
<style type="text/css">
	.st0{fill:#0F172A;}
</style>
<g>
	<path class="st0" d="M6,21.8c-0.2,0-0.4,0-0.7,0c-0.2,0-0.4,0-0.5-0.1c-0.3,0-0.5-0.2-0.6-0.5s0-0.5,0.1-0.7
		C4.7,20,5,19.5,5.1,18.9c0.1-0.4-0.2-0.8-0.4-0.9c-1.6-1.7-2.5-3.8-2.5-6c0-5,4.4-9,9.8-9s9.8,4,9.8,9s-4.4,9-9.8,9
		c-0.8,0-1.6-0.1-2.4-0.3C8.5,21.4,7.3,21.8,6,21.8z M12,4.5c-4.5,0-8.2,3.4-8.2,7.5c0,1.8,0.7,3.6,2.1,5c0.7,0.7,1,1.6,0.8,2.3
		c-0.1,0.3-0.2,0.6-0.3,0.9c1,0,1.9-0.4,2.8-0.9c0.2-0.1,0.4-0.2,0.6-0.1c0.8,0.2,1.6,0.3,2.4,0.3c4.5,0,8.2-3.4,8.2-7.5
		C20.2,7.9,16.5,4.5,12,4.5z"/>
</g>
</svg>
