<?xml version="1.0" encoding="utf-8"?>
<!-- Generator: Adobe Illustrator 28.4.1, SVG Export Plug-In . SVG Version: 6.00 Build 0)  -->
<svg version="1.1" id="Layer_1" xmlns="http://www.w3.org/2000/svg" xmlns:xlink="http://www.w3.org/1999/xlink" x="0px" y="0px"
	 viewBox="0 0 24 24" style="enable-background:new 0 0 24 24;" xml:space="preserve">
<style type="text/css">
	.st0{fill:#0F172A;}
</style>
<g>
	<path class="st0" d="M19.5,21.8h-15c-1.7,0-3-1.3-3-3V9.6c0-1.5,1-2.7,2.4-2.9c0.1,0,0.1,0,0.2,0l15.9-4c0.4-0.1,0.8,0.1,0.9,0.5
		c0.1,0.4-0.1,0.8-0.5,0.9L12.8,6c2.4,0,4.9,0.3,7.3,0.7c1.4,0.2,2.4,1.5,2.4,2.9v9.2C22.5,20.4,21.2,21.8,19.5,21.8z M3.8,8.2
		C3.3,8.5,3,9,3,9.6v9.2c0,0.8,0.7,1.5,1.5,1.5h15c0.8,0,1.5-0.7,1.5-1.5V9.6c0-0.7-0.5-1.3-1.2-1.4c-5.1-0.8-10.3-0.9-15.4,0
		L3.8,8.2C3.9,8.2,3.9,8.2,3.8,8.2z M9.3,18.8c-0.4,0-0.8-0.3-0.8-0.8s0.3-0.8,0.8-0.8S10,17.6,10,18v0C10,18.4,9.7,18.8,9.3,18.8z
		 M7.4,18.3c-0.1,0-0.3,0-0.4-0.1c-0.2-0.1-0.3-0.3-0.3-0.5c0-0.2,0-0.4,0.1-0.6c0.2-0.3,0.7-0.4,1-0.2c0.2,0.1,0.3,0.3,0.3,0.5
		c0,0.2,0,0.4-0.1,0.6l0,0C7.9,18.1,7.6,18.3,7.4,18.3z M11.1,18.3c-0.2,0-0.5-0.1-0.6-0.3l0,0c-0.1-0.2-0.2-0.4-0.1-0.6
		c0-0.2,0.2-0.4,0.3-0.5c0.3-0.2,0.8-0.1,1,0.2c0.1,0.2,0.2,0.4,0.1,0.6c0,0.2-0.2,0.4-0.3,0.5C11.4,18.2,11.3,18.3,11.1,18.3z
		 M17.2,18c-0.8,0-1.5-0.7-1.5-1.5c0-0.8,0.7-1.5,1.5-1.5s1.5,0.7,1.5,1.5C18.8,17.3,18.1,18,17.2,18z M17.3,16.5
		C17.2,16.5,17.2,16.5,17.3,16.5l0,0.8L17.3,16.5z M6,16.9c-0.1,0-0.1,0-0.2,0c-0.2,0-0.4-0.2-0.5-0.4c-0.2-0.4-0.1-0.8,0.3-1
		c0.2-0.1,0.4-0.1,0.6-0.1c0.2,0,0.4,0.2,0.5,0.4c0.2,0.4,0.1,0.8-0.3,1l0,0C6.3,16.8,6.1,16.9,6,16.9z M12.5,16.9
		c-0.1,0-0.3,0-0.4-0.1l0,0c-0.3-0.2-0.5-0.7-0.3-1c0.1-0.2,0.3-0.3,0.5-0.4c0.2,0,0.4,0,0.6,0.1c0.3,0.2,0.5,0.7,0.3,1
		c-0.1,0.2-0.3,0.3-0.5,0.4C12.6,16.9,12.6,16.9,12.5,16.9z M8.2,16.1c-0.2,0-0.4-0.1-0.5-0.2c-0.1-0.1-0.2-0.3-0.2-0.5
		c0-0.2,0.1-0.4,0.2-0.5c0.3-0.3,0.8-0.3,1.1,0c0.1,0.1,0.2,0.3,0.2,0.5c0,0.2-0.1,0.4-0.2,0.5l0,0C8.6,16,8.4,16.1,8.2,16.1z
		 M10.3,16.1c-0.2,0-0.4-0.1-0.6-0.2l0,0c-0.1-0.1-0.2-0.3-0.2-0.5c0-0.2,0.1-0.4,0.2-0.5c0.3-0.3,0.8-0.3,1,0
		c0.3,0.3,0.3,0.7,0.1,1C10.8,16,10.5,16.1,10.3,16.1C10.3,16.1,10.3,16.1,10.3,16.1z M13,15L13,15c-0.4,0-0.8-0.3-0.8-0.8
		s0.3-0.8,0.8-0.8c0.4,0,0.8,0.3,0.8,0.8S13.4,15,13,15z M5.5,15L5.5,15c-0.4,0-0.8-0.3-0.8-0.8s0.3-0.8,0.8-0.8s0.8,0.3,0.8,0.8
		S5.9,15,5.5,15z M10.3,13.9c-0.2,0-0.4-0.1-0.6-0.2c-0.1-0.1-0.2-0.3-0.2-0.5c0-0.2,0.1-0.4,0.2-0.5c0.3-0.3,0.7-0.3,1,0
		c0.1,0.1,0.2,0.3,0.2,0.5s-0.1,0.4-0.2,0.5l0,0C10.7,13.9,10.5,13.9,10.3,13.9z M8.2,13.9C8.2,13.9,8.2,13.9,8.2,13.9
		c-0.2,0-0.4-0.1-0.6-0.3l0,0c-0.2-0.3-0.2-0.7,0-1c0.3-0.3,0.7-0.3,1,0c0.1,0.1,0.2,0.3,0.2,0.5c0,0.2-0.1,0.4-0.2,0.5
		C8.6,13.9,8.4,13.9,8.2,13.9z M17.2,13.5c-0.8,0-1.5-0.7-1.5-1.5s0.7-1.5,1.5-1.5s1.5,0.7,1.5,1.5S18.1,13.5,17.2,13.5z M17.3,12
		L17.3,12l0,0.8L17.3,12z M12.5,13.1c-0.3,0-0.5-0.1-0.6-0.4c-0.2-0.4-0.1-0.8,0.2-1c0.2-0.1,0.4-0.1,0.6-0.1
		c0.2,0.1,0.4,0.2,0.5,0.4c0.1,0.2,0.1,0.4,0.1,0.6S13,12.9,12.9,13l0,0C12.7,13.1,12.6,13.1,12.5,13.1z M6,13.1
		c-0.1,0-0.3,0-0.4-0.1l0,0c-0.2-0.1-0.3-0.3-0.4-0.5s0-0.4,0.1-0.6c0.2-0.4,0.7-0.5,1-0.3c0.3,0.2,0.5,0.6,0.3,1
		c-0.1,0.2-0.3,0.3-0.5,0.4C6.1,13.1,6.1,13.1,6,13.1z M11.1,11.8c-0.1,0-0.2,0-0.4-0.1c-0.2-0.1-0.3-0.3-0.4-0.5s0-0.4,0.1-0.6
		c0.2-0.3,0.6-0.5,1-0.3c0.2,0.1,0.3,0.3,0.4,0.5c0.1,0.2,0,0.4-0.1,0.6l0,0C11.6,11.6,11.4,11.8,11.1,11.8z M7.4,11.8
		c-0.3,0-0.5-0.1-0.6-0.4l0,0c-0.2-0.4-0.1-0.8,0.2-1c0.2-0.1,0.4-0.1,0.6-0.1c0.2,0.1,0.4,0.2,0.5,0.4c0.1,0.2,0.1,0.4,0.1,0.6
		s-0.2,0.4-0.4,0.5C7.6,11.7,7.5,11.8,7.4,11.8z M9.3,11.3c-0.4,0-0.8-0.3-0.8-0.8s0.3-0.8,0.8-0.8s0.8,0.3,0.8,0.8v0
		C10,10.9,9.7,11.3,9.3,11.3z"/>
</g>
</svg>
