<?xml version="1.0" encoding="utf-8"?>
<!-- Generator: Adobe Illustrator 28.4.1, SVG Export Plug-In . SVG Version: 6.00 Build 0)  -->
<svg version="1.1" id="Layer_1" xmlns="http://www.w3.org/2000/svg" xmlns:xlink="http://www.w3.org/1999/xlink" x="0px" y="0px"
	 viewBox="0 0 24 24" style="enable-background:new 0 0 24 24;" xml:space="preserve">
<style type="text/css">
	.st0{fill:#0F172A;}
</style>
<g>
	<path class="st0" d="M8.2,11.2H6c-1.7,0-3-1.3-3-3V6c0-1.7,1.3-3,3-3h2.2c1.7,0,3,1.3,3,3v2.3C11.2,9.9,9.9,11.2,8.2,11.2z M6,4.5
		C5.2,4.5,4.5,5.2,4.5,6v2.3c0,0.8,0.7,1.5,1.5,1.5h2.2c0.8,0,1.5-0.7,1.5-1.5V6c0-0.8-0.7-1.5-1.5-1.5H6z"/>
</g>
<g>
	<path class="st0" d="M8.2,21H6c-1.7,0-3-1.3-3-3v-2.2c0-1.7,1.3-3,3-3h2.2c1.7,0,3,1.3,3,3V18C11.2,19.7,9.9,21,8.2,21z M6,14.3
		c-0.8,0-1.5,0.7-1.5,1.5V18c0,0.8,0.7,1.5,1.5,1.5h2.2c0.8,0,1.5-0.7,1.5-1.5v-2.2c0-0.8-0.7-1.5-1.5-1.5H6z"/>
</g>
<g>
	<path class="st0" d="M18,11.2h-2.2c-1.7,0-3-1.3-3-3V6c0-1.7,1.3-3,3-3H18c1.7,0,3,1.3,3,3v2.3C21,9.9,19.7,11.2,18,11.2z
		 M15.8,4.5c-0.8,0-1.5,0.7-1.5,1.5v2.3c0,0.8,0.7,1.5,1.5,1.5H18c0.8,0,1.5-0.7,1.5-1.5V6c0-0.8-0.7-1.5-1.5-1.5H15.8z"/>
</g>
<g>
	<path class="st0" d="M18,21h-2.2c-1.7,0-3-1.3-3-3v-2.2c0-1.7,1.3-3,3-3H18c1.7,0,3,1.3,3,3V18C21,19.7,19.7,21,18,21z M15.8,14.3
		c-0.8,0-1.5,0.7-1.5,1.5V18c0,0.8,0.7,1.5,1.5,1.5H18c0.8,0,1.5-0.7,1.5-1.5v-2.2c0-0.8-0.7-1.5-1.5-1.5H15.8z"/>
</g>
</svg>
