<?xml version="1.0" encoding="utf-8"?>
<!-- Generator: Adobe Illustrator 28.4.1, SVG Export Plug-In . SVG Version: 6.00 Build 0)  -->
<svg version="1.1" id="Layer_1" xmlns="http://www.w3.org/2000/svg" xmlns:xlink="http://www.w3.org/1999/xlink" x="0px" y="0px"
	 viewBox="0 0 24 24" style="enable-background:new 0 0 24 24;" xml:space="preserve">
<style type="text/css">
	.st0{fill:#0F172A;}
</style>
<g>
	<path class="st0" d="M9.8,22.5c-0.4,0-0.8-0.3-0.8-0.8v-4.1c0,0,0,0,0,0C8,16.8,7.2,16,6.4,15c0,0,0,0,0,0H2.2
		c-0.4,0-0.8-0.3-0.8-0.8c0-3.7,3-6.8,6.8-6.8c0.4,0,0.7,0,1.1,0.1c3-3.8,7.6-6.1,12.4-6.1c0.2,0,0.4,0.1,0.5,0.2s0.2,0.3,0.2,0.5
		c0,4.8-2.3,9.5-6.1,12.4c0.1,0.4,0.1,0.7,0.1,1.1C16.5,19.5,13.5,22.5,9.8,22.5z M10.5,17.6v3.4c2.5-0.4,4.5-2.6,4.5-5.2
		c0,0,0-0.1,0-0.1C13.6,16.5,12.1,17.2,10.5,17.6z M7.8,14.4C8.4,15,9,15.7,9.6,16.2c2-0.4,3.8-1.2,5.5-2.4c0,0,0,0,0,0
		C18.6,11.2,20.7,7.3,21,3c-4.2,0.2-8.2,2.4-10.7,5.8c0,0,0,0,0,0C9,10.5,8.2,12.4,7.8,14.4z M3.1,13.5h3.4c0.4-1.6,1-3.1,1.9-4.5
		C5.7,8.9,3.4,10.9,3.1,13.5z M3.8,21.8c-0.3,0-0.5,0-0.8-0.1c-0.3,0-0.6-0.3-0.6-0.6c0-0.3-0.1-0.5-0.1-0.8C2.2,18.6,3,17,4.4,16
		c0.3-0.2,0.8-0.2,1,0.2c0.2,0.3,0.2,0.8-0.2,1c-1,0.7-1.5,1.8-1.5,3c1.2,0,2.3-0.6,3-1.5c0.2-0.3,0.7-0.4,1-0.2
		c0.3,0.2,0.4,0.7,0.2,1C7,21,5.4,21.8,3.8,21.8z M15,11.2c-1.2,0-2.2-1-2.2-2.2s1-2.3,2.2-2.3s2.2,1,2.2,2.3S16.2,11.2,15,11.2z
		 M15,8.2c-0.4,0-0.8,0.3-0.8,0.8s0.3,0.8,0.8,0.8s0.8-0.3,0.8-0.8S15.4,8.2,15,8.2z"/>
</g>
</svg>
