<?xml version="1.0" encoding="utf-8"?>
<!-- Generator: Adobe Illustrator 28.4.1, SVG Export Plug-In . SVG Version: 6.00 Build 0)  -->
<svg version="1.1" id="Layer_1" xmlns="http://www.w3.org/2000/svg" xmlns:xlink="http://www.w3.org/1999/xlink" x="0px" y="0px"
	 viewBox="0 0 24 24" style="enable-background:new 0 0 24 24;" xml:space="preserve">
<style type="text/css">
	.st0{fill:#0F172A;}
</style>
<g>
	<path class="st0" d="M18.8,21H5.2c-1.7,0-3-1.3-3-3V6c0-1.7,1.3-3,3-3h13.5c1.7,0,3,1.3,3,3v12C21.8,19.7,20.4,21,18.8,21z
		 M5.2,4.5C4.4,4.5,3.8,5.2,3.8,6v12c0,0.8,0.7,1.5,1.5,1.5h13.5c0.8,0,1.5-0.7,1.5-1.5V6c0-0.8-0.7-1.5-1.5-1.5H5.2z M6.8,12.7
		c-0.2,0-0.5-0.1-0.6-0.3c-0.2-0.3-0.2-0.8,0.1-1.1l2.2-1.6L6.3,8.1C6,7.9,5.9,7.4,6.1,7c0.2-0.3,0.7-0.4,1.1-0.1l3,2.3
		c0.2,0.1,0.3,0.4,0.3,0.6s-0.1,0.5-0.3,0.6l-3,2.2C7.1,12.7,6.9,12.7,6.8,12.7z M14.2,12.7h-3c-0.4,0-0.8-0.3-0.8-0.8
		s0.3-0.8,0.8-0.8h3c0.4,0,0.8,0.3,0.8,0.8S14.7,12.7,14.2,12.7z"/>
</g>
</svg>
