<?xml version="1.0" encoding="utf-8"?>
<!-- Generator: Adobe Illustrator 28.4.1, SVG Export Plug-In . SVG Version: 6.00 Build 0)  -->
<svg version="1.1" id="Layer_1" xmlns="http://www.w3.org/2000/svg" xmlns:xlink="http://www.w3.org/1999/xlink" x="0px" y="0px"
	 viewBox="0 0 24 24" style="enable-background:new 0 0 24 24;" xml:space="preserve">
<style type="text/css">
	.st0{fill:#0F172A;}
</style>
<g>
	<path class="st0" d="M13.5,20.3c-0.2,0-0.4-0.1-0.5-0.2c-0.3-0.3-0.3-0.8,0-1.1l6.2-6.2H3c-0.4,0-0.8-0.3-0.8-0.8s0.3-0.8,0.8-0.8
		h16.2L13,5c-0.3-0.3-0.3-0.8,0-1.1s0.8-0.3,1.1,0l7.5,7.5c0,0,0,0,0,0l0,0c0,0,0,0,0,0c0,0,0,0,0,0c0,0,0,0,0,0c0,0,0,0,0,0v0
		c0,0,0,0,0,0c0,0,0,0,0,0l0,0c0,0,0,0,0,0v0c0,0,0,0,0,0l0,0c0,0,0,0,0,0l0,0c0,0,0,0,0,0l0,0c0,0,0,0,0,0l0,0c0,0,0,0,0,0l0,0
		c0,0,0,0,0,0l0,0c0,0,0,0,0,0v0c0,0,0,0,0,0c0,0,0,0,0,0l0,0c0,0,0,0,0,0l0,0c0,0,0,0,0,0v0c0,0,0,0,0,0c0,0,0,0,0,0v0c0,0,0,0,0,0
		c0,0,0,0,0,0c0,0,0,0,0,0c0,0,0,0,0,0c0,0,0,0,0,0c0,0,0,0,0,0v0c0,0,0,0,0,0c0,0,0,0,0,0l0,0c0,0,0,0,0,0l0,0c0,0,0,0,0,0l0,0
		c0,0,0,0,0,0v0c0,0,0,0,0,0c0,0,0,0,0,0l0,0c0,0.1,0.1,0.1,0.1,0.2c0,0.1,0.1,0.2,0.1,0.3v0c0,0,0,0,0,0c0,0,0,0,0,0c0,0,0,0,0,0
		c0,0,0,0,0,0c0,0,0,0,0,0v0c0,0.1,0,0.2-0.1,0.3c0,0.1-0.1,0.2-0.2,0.2c0,0,0,0,0,0c0,0,0,0,0,0l0,0v0c0,0,0,0,0,0c0,0,0,0,0,0l0,0
		c0,0,0,0,0,0l0,0c0,0,0,0,0,0L14,20C13.9,20.2,13.7,20.3,13.5,20.3z"/>
</g>
</svg>
