<?xml version="1.0" encoding="utf-8"?>
<!-- Generator: Adobe Illustrator 28.4.1, SVG Export Plug-In . SVG Version: 6.00 Build 0)  -->
<svg version="1.1" id="Layer_1" xmlns="http://www.w3.org/2000/svg" xmlns:xlink="http://www.w3.org/1999/xlink" x="0px" y="0px"
	 viewBox="0 0 24 24" style="enable-background:new 0 0 24 24;" xml:space="preserve">
<style type="text/css">
	.st0{fill:#0F172A;}
</style>
<g>
	<path class="st0" d="M4.5,21.8c-0.1,0-0.3,0-0.4-0.1c-0.2-0.1-0.4-0.4-0.4-0.6V8.7C3.8,8.3,4.1,8,4.5,8s0.8,0.3,0.8,0.8v11l6.4-3.2
		c0.2-0.1,0.5-0.1,0.7,0l2,1c0.4,0.2,0.5,0.6,0.3,1c-0.2,0.4-0.6,0.5-1,0.3L12,18.1l-7.2,3.6C4.7,21.7,4.6,21.8,4.5,21.8z M21,21.8
		c-0.2,0-0.4-0.1-0.5-0.2L19,20l0,0L4.1,5.2c0,0,0,0,0,0L2.5,3.5c-0.3-0.3-0.3-0.8,0-1.1s0.8-0.3,1.1,0l1,1C5,3,5.6,2.7,6.3,2.6
		c3.7-0.4,7.6-0.4,11.4,0c1.5,0.2,2.6,1.4,2.6,2.9v13.7l1.3,1.3c0.3,0.3,0.3,0.8,0,1.1C21.4,21.7,21.2,21.8,21,21.8z M5.6,4.5
		l13.1,13.1V5.5c0-0.7-0.5-1.4-1.2-1.4c-3.6-0.4-7.4-0.4-11,0C6.1,4.1,5.8,4.3,5.6,4.5z"/>
</g>
</svg>
