<?xml version="1.0" encoding="utf-8"?>
<!-- Generator: Adobe Illustrator 28.4.1, SVG Export Plug-In . SVG Version: 6.00 Build 0)  -->
<svg version="1.1" id="Layer_1" xmlns="http://www.w3.org/2000/svg" xmlns:xlink="http://www.w3.org/1999/xlink" x="0px" y="0px"
	 viewBox="0 0 24 24" style="enable-background:new 0 0 24 24;" xml:space="preserve">
<style type="text/css">
	.st0{fill:#0F172A;}
</style>
<g>
	<path class="st0" d="M14.8,22.1c-0.7,0-1.5-0.3-2.1-0.9l-9.6-9.6c-0.6-0.6-0.9-1.3-0.9-2.1V5.2c0-1.7,1.3-3,3-3h4.3
		c0.8,0,1.6,0.3,2.1,0.9l9.6,9.6c1,1,1.2,2.4,0.4,3.5c-1.4,2.2-3.3,4-5.4,5.4C15.8,22,15.3,22.1,14.8,22.1z M5.2,3.7
		c-0.8,0-1.5,0.7-1.5,1.5v4.3c0,0.4,0.2,0.8,0.4,1.1l9.6,9.6c0.5,0.5,1.2,0.6,1.7,0.2c2-1.3,3.7-3,5-5c0.3-0.5,0.2-1.2-0.2-1.7
		l-9.6-9.6C10.3,3.9,10,3.7,9.6,3.7H5.2z"/>
</g>
<g>
	<path class="st0" d="M6,6.8C5.6,6.8,5.2,6.4,5.2,6S5.6,5.2,6,5.2h0c0.4,0,0.8,0.3,0.8,0.8S6.4,6.8,6,6.8z"/>
</g>
</svg>
