<?xml version="1.0" encoding="utf-8"?>
<!-- Generator: Adobe Illustrator 28.4.1, SVG Export Plug-In . SVG Version: 6.00 Build 0)  -->
<svg version="1.1" id="Layer_1" xmlns="http://www.w3.org/2000/svg" xmlns:xlink="http://www.w3.org/1999/xlink" x="0px" y="0px"
	 viewBox="0 0 24 24" style="enable-background:new 0 0 24 24;" xml:space="preserve">
<style type="text/css">
	.st0{fill:#0F172A;}
</style>
<g>
	<path class="st0" d="M20.2,21c-0.2,0-0.4-0.1-0.5-0.2l-4-4v2.7c0,0.4-0.3,0.8-0.8,0.8s-0.8-0.3-0.8-0.8V15c0-0.1,0-0.2,0.1-0.3
		c0-0.1,0.1-0.2,0.2-0.2s0.2-0.1,0.2-0.2c0.1,0,0.2-0.1,0.3-0.1h4.5c0.4,0,0.8,0.3,0.8,0.8s-0.3,0.8-0.8,0.8h-2.7l4,4
		c0.3,0.3,0.3,0.8,0,1.1C20.6,20.9,20.4,21,20.2,21z M3.8,21c-0.2,0-0.4-0.1-0.5-0.2c-0.3-0.3-0.3-0.8,0-1.1l4-4H4.5
		c-0.4,0-0.8-0.3-0.8-0.8s0.3-0.8,0.8-0.8H9c0.1,0,0.2,0,0.3,0.1c0.1,0,0.2,0.1,0.2,0.2s0.1,0.2,0.2,0.2c0,0.1,0.1,0.2,0.1,0.3v4.5
		c0,0.4-0.3,0.8-0.8,0.8s-0.8-0.3-0.8-0.8v-2.7l-4,4C4.1,20.9,3.9,21,3.8,21z M15,9.7C15,9.7,15,9.8,15,9.7L15,9.7
		c-0.1,0-0.2,0-0.3-0.1c0,0,0,0,0,0c0,0,0,0,0,0c-0.1,0-0.2-0.1-0.2-0.2c0,0,0,0,0,0c0,0,0,0,0,0c0,0,0,0,0,0c0,0,0,0,0,0
		c0,0,0,0,0,0c0,0,0,0,0,0c0,0,0,0,0,0v0c-0.1-0.1-0.1-0.1-0.2-0.2c0,0,0,0,0,0c0,0,0,0,0,0c0-0.1-0.1-0.2-0.1-0.3V4.5
		c0-0.4,0.3-0.7,0.8-0.7s0.8,0.3,0.8,0.7v2.7l4-4c0.3-0.3,0.8-0.3,1.1,0s0.3,0.8,0,1.1l-4,4h2.7c0.4,0,0.8,0.3,0.8,0.8
		s-0.3,0.8-0.8,0.8H15C15,9.7,15,9.7,15,9.7z M9,9.7C9,9.7,9,9.7,9,9.7H4.5C4.1,9.7,3.8,9.4,3.8,9s0.3-0.8,0.8-0.8h2.7l-4-4
		C2.9,4,2.9,3.5,3.2,3.2s0.8-0.3,1.1,0l4,4V4.5c0-0.4,0.3-0.7,0.8-0.7s0.8,0.3,0.8,0.7V9c0,0.1,0,0.2-0.1,0.3c0,0,0,0,0,0
		c0,0,0,0,0,0c0,0.1-0.1,0.2-0.2,0.2l0,0c0,0,0,0,0,0l0,0c0,0,0,0,0,0c0,0,0,0,0,0c0,0,0,0,0,0c0,0,0,0,0,0c0,0,0,0,0,0c0,0,0,0,0,0
		C9.5,9.6,9.4,9.7,9.3,9.7c0,0,0,0,0,0c0,0,0,0,0,0C9.2,9.7,9.1,9.7,9,9.7C9,9.7,9,9.7,9,9.7C9,9.7,9,9.7,9,9.7z"/>
</g>
</svg>
