<?xml version="1.0" encoding="utf-8"?>
<!-- Generator: Adobe Illustrator 28.4.1, SVG Export Plug-In . SVG Version: 6.00 Build 0)  -->
<svg version="1.1" id="Layer_1" xmlns="http://www.w3.org/2000/svg" xmlns:xlink="http://www.w3.org/1999/xlink" x="0px" y="0px"
	 viewBox="0 0 24 24" style="enable-background:new 0 0 24 24;" xml:space="preserve">
<style type="text/css">
	.st0{fill:#0F172A;}
</style>
<g>
	<path class="st0" d="M12,22.5c-5,0-9-2.1-9-4.9V6.4c0-2.7,4-4.9,9-4.9s9,2.1,9,4.9v11.3C21,20.4,17,22.5,12,22.5z M4.5,16.6v1
		c0,1.6,3.1,3.4,7.5,3.4s7.5-1.8,7.5-3.4v-1c-1.6,1.3-4.3,2.1-7.5,2.1C8.8,18.8,6.1,17.9,4.5,16.6z M4.5,13.9c0,1.6,3.1,3.4,7.5,3.4
		s7.5-1.8,7.5-3.4v-1C17.9,14.2,15.2,15,12,15c-3.2,0-5.9-0.8-7.5-2.1V13.9z M4.5,10.1c0,1.6,3.1,3.4,7.5,3.4s7.5-1.8,7.5-3.4v-1
		c-1.6,1.3-4.3,2.1-7.5,2.1c-3.2,0-5.9-0.8-7.5-2.1V10.1z M4.5,6.4C4.5,8,7.6,9.7,12,9.7s7.5-1.8,7.5-3.4S16.4,3,12,3
		S4.5,4.8,4.5,6.4z"/>
</g>
</svg>
