<?xml version="1.0" encoding="utf-8"?>
<!-- Generator: Adobe Illustrator 28.4.1, SVG Export Plug-In . SVG Version: 6.00 Build 0)  -->
<svg version="1.1" id="Layer_1" xmlns="http://www.w3.org/2000/svg" xmlns:xlink="http://www.w3.org/1999/xlink" x="0px" y="0px"
	 viewBox="0 0 24 24" style="enable-background:new 0 0 24 24;" xml:space="preserve">
<style type="text/css">
	.st0{fill:#0F172A;}
</style>
<g>
	<path class="st0" d="M12,21.8c-3.7,0-7.2-2.2-8.8-5.5c0,0,0,0,0,0c-0.6-1.3-1-2.7-1-4.2c0-5.4,4.4-9.8,9.8-9.8c0.3,0,0.5,0,0.8,0
		c0,0,0,0,0,0c5,0.4,8.9,4.7,8.9,9.7c0,2-0.6,3.9-1.7,5.5c0,0,0,0,0,0c-1.4,2-3.4,3.4-5.7,4c0,0,0,0,0,0
		C13.6,21.7,12.8,21.8,12,21.8z M5,16.3c1.5,2.4,4.2,3.9,7,3.9c0.4,0,0.8,0,1.2-0.1c-0.2-0.4-0.6-0.7-1.1-0.7
		c-0.9,0-1.6-0.6-1.7-1.5l-0.1-0.4c-0.2-0.9,0.4-1.8,1.3-2.1l1-0.3c0.2-0.1,0.4-0.2,0.5-0.4c0.4-0.8,1.2-1.3,2-1.3
		c0.6,0,1.1,0.2,1.6,0.6l0.1,0.1h0.3c1,0,1.8,0.4,2.4,1.2c0.5-1.1,0.7-2.2,0.7-3.4c0-3.9-2.8-7.3-6.6-8.1l1,0.9
		c0.7,0.6,0.9,1.7,0.4,2.5L14.6,8c-0.4,0.6-0.9,1-1.5,1.2l-0.1,0c-0.1,0-0.2,0.2-0.2,0.2s0,0.2,0,0.3c0.3,0.4,0.4,1,0.2,1.5
		c-0.1,0.5-0.5,0.9-1,1.2l-2,1l0.2,0.4c0.3,0.8,0,1.8-0.8,2.2c-0.7,0.4-1.6,0.2-2.1-0.5l-0.7-0.9c-0.1-0.2-0.3-0.2-0.3-0.1
		c-0.1,0-0.2,0-0.3,0.2l-0.7,1.4C5.1,16.2,5.1,16.3,5,16.3z M15.1,15c-0.3,0-0.5,0.1-0.6,0.4c-0.3,0.7-0.9,1.1-1.5,1.3l-1,0.3
		c-0.2,0.1-0.3,0.2-0.3,0.4l0.1,0.4c0,0.1,0.1,0.2,0.2,0.2c1.2,0,2.2,0.7,2.6,1.8c1.6-0.5,3-1.5,4-2.9l-0.1-0.2
		c-0.2-0.6-0.8-1-1.4-1h-0.6c-0.2,0-0.4-0.1-0.5-0.2l-0.3-0.3C15.5,15.1,15.3,15,15.1,15z M6.2,13c0.6,0,1.1,0.3,1.5,0.8l0.7,0.9
		c0.1,0.1,0.2,0.1,0.3,0.1c0.1,0,0.1-0.2,0.1-0.3l-0.4-1.1c-0.1-0.4,0-0.8,0.4-0.9l2.6-1.3c0.1-0.1,0.2-0.2,0.2-0.2
		c0-0.1,0-0.2,0-0.3C11.1,10.1,11,9.5,11.2,9s0.6-1,1.2-1.2l0.1,0c0.3-0.1,0.6-0.3,0.8-0.6l0.5-0.8c0.1-0.2,0.1-0.4-0.1-0.5L12.7,5
		C12.3,4.7,12,4.3,12,3.7c0,0,0,0,0,0c-4.5,0-8.2,3.7-8.2,8.2c0,0.9,0.1,1.8,0.4,2.7L4.5,14c0.3-0.6,0.9-1,1.5-1
		C6.1,13,6.1,13,6.2,13z M14.7,12c-0.2,0-0.4-0.1-0.6-0.3c-0.3-0.3-0.2-0.8,0.1-1.1c0.5-0.4,0.8-1,0.8-1.7c0-0.4,0.3-0.8,0.8-0.8
		s0.8,0.3,0.8,0.8c0,1.1-0.5,2.1-1.3,2.8C15.1,11.9,14.9,12,14.7,12z"/>
</g>
</svg>
