<?xml version="1.0" encoding="utf-8"?>
<!-- Generator: Adobe Illustrator 28.4.1, SVG Export Plug-In . SVG Version: 6.00 Build 0)  -->
<svg version="1.1" id="Layer_1" xmlns="http://www.w3.org/2000/svg" xmlns:xlink="http://www.w3.org/1999/xlink" x="0px" y="0px"
	 viewBox="0 0 24 24" style="enable-background:new 0 0 24 24;" xml:space="preserve">
<style type="text/css">
	.st0{fill:#0F172A;}
</style>
<g>
	<path class="st0" d="M19.5,21h-15c-1.7,0-3-1.3-3-3V6c0-1.7,1.3-3,3-3h5.4c0.6,0,1.2,0.2,1.6,0.7l2.1,2.1c0,0,0,0,0,0
		C13.7,5.9,13.9,6,14.1,6h5.4c1.7,0,3,1.3,3,3v9C22.5,19.7,21.2,21,19.5,21z M3,12.7V18c0,0.8,0.7,1.5,1.5,1.5h15
		c0.8,0,1.5-0.7,1.5-1.5v-6c0-0.8-0.7-1.5-1.5-1.5h-15C3.7,10.5,3,11.2,3,12V12.7z M4.5,9h15C20,9,20.6,9.1,21,9.4V9
		c0-0.8-0.7-1.5-1.5-1.5h-5.4c-0.6,0-1.2-0.2-1.6-0.7l-2.1-2.1c-0.1-0.1-0.3-0.2-0.5-0.2H4.5C3.7,4.5,3,5.2,3,6v3.4
		C3.4,9.1,4,9,4.5,9z"/>
</g>
</svg>
