<?xml version="1.0" encoding="utf-8"?>
<!-- Generator: Adobe Illustrator 28.4.1, SVG Export Plug-In . SVG Version: 6.00 Build 0)  -->
<svg version="1.1" id="Layer_1" xmlns="http://www.w3.org/2000/svg" xmlns:xlink="http://www.w3.org/1999/xlink" x="0px" y="0px"
	 viewBox="0 0 24 24" style="enable-background:new 0 0 24 24;" xml:space="preserve">
<style type="text/css">
	.st0{fill:#0F172A;}
</style>
<g>
	<path class="st0" d="M14.6,22.5H4.9c-1,0-1.9-0.8-1.9-1.9v-12c0-1,0.8-1.9,1.9-1.9h1.9c0.3,0,0.5,0,0.8,0V6.1
		c0-1.5,1.1-2.8,2.7-2.9c0.2,0,0.4,0,0.7-0.1c0.5-1,1.5-1.6,2.7-1.6H15c1.1,0,2.2,0.6,2.7,1.6c0.2,0,0.4,0,0.7,0.1
		C19.9,3.3,21,4.6,21,6.1v9.6c0,1.7-1.3,3-3,3h-1.5v1.9C16.5,21.7,15.7,22.5,14.6,22.5z M4.9,8.2c-0.2,0-0.4,0.2-0.4,0.4v12
		c0,0.2,0.2,0.4,0.4,0.4h9.8c0.2,0,0.4-0.2,0.4-0.4v-3.8c0-1.4-1.2-2.6-2.6-2.6h-1.5c-1,0-1.9-0.8-1.9-1.9v-1.5
		c0-1.4-1.2-2.6-2.6-2.6H4.9z M16.5,17.3H18c0.8,0,1.5-0.7,1.5-1.5V6.1c0-0.8-0.6-1.4-1.3-1.4c-0.1,0-0.1,0-0.2,0v0.6
		C18,5.7,17.7,6,17.2,6h-6c-0.4,0-0.8-0.3-0.8-0.8V4.6c-0.1,0-0.1,0-0.2,0C9.6,4.7,9,5.3,9,6.1V7c4.3,1,7.5,4.9,7.5,9.5V17.3z
		 M10,8.9c0.3,0.6,0.5,1.2,0.5,2v1.5c0,0.2,0.2,0.4,0.4,0.4h1.5c0.7,0,1.4,0.2,2,0.5C13.5,11.3,11.9,9.8,10,8.9z M12,4.5h4.5
		c0-0.1,0-0.3-0.1-0.4c0,0,0,0,0,0c-0.2-0.6-0.8-1-1.4-1h-1.5c-0.7,0-1.2,0.4-1.4,1c0,0,0,0,0,0C12,4.2,12,4.4,12,4.5z"/>
</g>
</svg>
