<?xml version="1.0" encoding="utf-8"?>
<!-- Generator: Adobe Illustrator 28.4.1, SVG Export Plug-In . SVG Version: 6.00 Build 0)  -->
<svg version="1.1" id="Layer_1" xmlns="http://www.w3.org/2000/svg" xmlns:xlink="http://www.w3.org/1999/xlink" x="0px" y="0px"
	 viewBox="0 0 24 24" style="enable-background:new 0 0 24 24;" xml:space="preserve">
<style type="text/css">
	.st0{fill:#0F172A;}
</style>
<g>
	<path class="st0" d="M3,21.8c-0.4,0-0.8-0.3-0.8-0.8v-6c0,0,0,0,0,0V4.5c0,0,0,0,0,0V3c0-0.4,0.3-0.8,0.8-0.8S3.8,2.6,3.8,3v0.5
		l1.8-0.5c2.3-0.6,4.6-0.3,6.7,0.7l0.1,0.1C14.1,4.7,16.1,5,18,4.5l3.1-0.7c0.2-0.1,0.5,0,0.7,0.2C22,4.1,22.1,4.4,22,4.6
		c-0.2,1.7-0.3,3.4-0.3,5.1c0,1.7,0.1,3.5,0.3,5.2c0,0.4-0.2,0.7-0.6,0.8l-3.1,0.7c-2.2,0.5-4.6,0.2-6.6-0.8l-0.1-0.1
		C9.9,14.8,7.9,14.6,6,15l-2.2,0.6V21C3.8,21.4,3.4,21.8,3,21.8z M8,13.3c1.5,0,3,0.3,4.4,1l0.1,0.1c1.7,0.9,3.7,1.1,5.6,0.7
		l2.5-0.6c-0.1-1.6-0.2-3.1-0.2-4.7c0-1.4,0.1-2.8,0.2-4.3L18.3,6c-2.2,0.5-4.6,0.2-6.6-0.8l-0.1-0.1C9.9,4.3,7.9,4.1,6,4.5L3.8,5.1
		v9l1.8-0.5C6.4,13.4,7.2,13.3,8,13.3z"/>
</g>
</svg>
