<?xml version="1.0" encoding="utf-8"?>
<!-- Generator: Adobe Illustrator 28.4.1, SVG Export Plug-In . SVG Version: 6.00 Build 0)  -->
<svg version="1.1" id="Layer_1" xmlns="http://www.w3.org/2000/svg" xmlns:xlink="http://www.w3.org/1999/xlink" x="0px" y="0px"
	 viewBox="0 0 24 24" style="enable-background:new 0 0 24 24;" xml:space="preserve">
<style type="text/css">
	.st0{fill:#0F172A;}
</style>
<g>
	<path class="st0" d="M18,20.3H6.8c-2.9,0-5.2-2.4-5.2-5.2c0-2.1,1.2-3.9,3-4.8c0-0.2,0-0.3,0-0.5c0-3.3,2.7-6,6-6
		c2.5,0,4.7,1.5,5.6,3.8c0.1,0,0.3,0,0.4,0c2.1,0,3.8,1.7,3.8,3.8c0,0.2,0,0.4,0,0.6c1.4,0.8,2.3,2.3,2.3,3.9
		C22.5,18.2,20.5,20.3,18,20.3z M10.5,5.2C8,5.2,6,7.3,6,9.7c0,0.3,0,0.6,0.1,0.8c0.1,0.4-0.1,0.7-0.5,0.9C4,11.9,3,13.4,3,15
		c0,2.1,1.7,3.7,3.8,3.7H18c1.7,0,3-1.3,3-3c0-1.2-0.8-2.4-1.9-2.8c-0.4-0.1-0.6-0.6-0.4-0.9c0.1-0.2,0.1-0.5,0.1-0.7
		c0-1.2-1-2.2-2.2-2.2c-0.2,0-0.5,0-0.7,0.1c-0.2,0.1-0.4,0-0.6-0.1C15,9,14.9,8.8,14.8,8.6C14.3,6.6,12.5,5.2,10.5,5.2z M12,17.3
		c-0.4,0-0.8-0.3-0.8-0.8v-4.9l-1.7,1.7c-0.3,0.3-0.8,0.3-1.1,0s-0.3-0.8,0-1.1l3-3c0.1-0.1,0.2-0.1,0.2-0.2c0.2-0.1,0.4-0.1,0.6,0
		c0.1,0,0.2,0.1,0.2,0.2l3,3c0.3,0.3,0.3,0.8,0,1.1s-0.8,0.3-1.1,0l-1.7-1.7v4.9C12.8,16.9,12.4,17.3,12,17.3z"/>
</g>
</svg>
