<?xml version="1.0" encoding="utf-8"?>
<!-- Generator: Adobe Illustrator 28.4.1, SVG Export Plug-In . SVG Version: 6.00 Build 0)  -->
<svg version="1.1" id="Layer_1" xmlns="http://www.w3.org/2000/svg" xmlns:xlink="http://www.w3.org/1999/xlink" x="0px" y="0px"
	 viewBox="0 0 24 25" style="enable-background:new 0 0 24 25;" xml:space="preserve">
<style type="text/css">
	.st0{fill:#0F172A;}
</style>
<g>
	<path class="st0" d="M20.2,20.3H3.8c-1.2,0-2.2-1-2.2-2.2V6c0-1.2,1-2.2,2.2-2.2h16.5c1.2,0,2.2,1,2.2,2.2v12
		C22.5,19.3,21.5,20.3,20.2,20.3z M3,16.1V18c0,0.4,0.3,0.8,0.8,0.8h16.5c0.4,0,0.8-0.3,0.8-0.8v-1.9l-2.7-2.7
		c-0.6-0.6-1.6-0.6-2.1,0l-0.9,0.9l1,1c0.3,0.3,0.3,0.8,0,1.1s-0.8,0.3-1.1,0l-5.2-5.2c-0.6-0.6-1.6-0.6-2.1,0L3,16.1z M17.2,11.5
		c0.8,0,1.5,0.3,2.1,0.9L21,14V6c0-0.4-0.3-0.8-0.8-0.8H3.8C3.3,5.3,3,5.6,3,6V14l3.9-3.9c1.1-1.1,3.1-1.1,4.2,0l3.1,3.1l0.9-0.9
		C15.7,11.7,16.5,11.5,17.2,11.5z M14.2,9.4c-0.6,0-1.1-0.5-1.1-1.1s0.5-1.1,1.1-1.1s1.1,0.5,1.1,1.1S14.9,9.4,14.2,9.4z"/>
</g>
</svg>
