<?xml version="1.0" encoding="utf-8"?>
<!-- Generator: Adobe Illustrator 28.4.1, SVG Export Plug-In . SVG Version: 6.00 Build 0)  -->
<svg version="1.1" id="Layer_1" xmlns="http://www.w3.org/2000/svg" xmlns:xlink="http://www.w3.org/1999/xlink" x="0px" y="0px"
	 viewBox="0 0 24 24" style="enable-background:new 0 0 24 24;" xml:space="preserve">
<style type="text/css">
	.st0{fill:#0F172A;}
</style>
<g>
	<path class="st0" d="M12,21.8c-0.4,0-0.8-0.3-0.8-0.8V4.8L5,11c-0.3,0.3-0.8,0.3-1.1,0S3.7,10.3,4,10l7.5-7.5
		c0.1-0.1,0.2-0.1,0.2-0.2c0.2-0.1,0.4-0.1,0.6,0c0.1,0,0.2,0.1,0.2,0.2L20,10c0.3,0.3,0.3,0.8,0,1.1s-0.8,0.3-1.1,0l-6.2-6.2V21
		C12.8,21.4,12.4,21.8,12,21.8z"/>
</g>
</svg>
