<?xml version="1.0" encoding="utf-8"?>
<!-- Generator: Adobe Illustrator 28.4.1, SVG Export Plug-In . SVG Version: 6.00 Build 0)  -->
<svg version="1.1" id="Layer_1" xmlns="http://www.w3.org/2000/svg" xmlns:xlink="http://www.w3.org/1999/xlink" x="0px" y="0px"
	 viewBox="0 0 24 24" style="enable-background:new 0 0 24 24;" xml:space="preserve">
<style type="text/css">
	.st0{fill:#0F172A;}
</style>
<g>
	<path class="st0" d="M14.2,22.5H3.8c-1.7,0-3-1.3-3-3v-6.8c0-1.7,1.3-3,3-3h9v-3c0-2.9,2.4-5.2,5.2-5.2s5.2,2.4,5.2,5.2v3.8
		c0,0.4-0.3,0.8-0.8,0.8s-0.8-0.3-0.8-0.8V6.7C21.8,4.7,20.1,3,18,3s-3.8,1.7-3.8,3.7v3c1.7,0,3,1.3,3,3v6.8
		C17.2,21.2,15.9,22.5,14.2,22.5z M3.8,11.2c-0.8,0-1.5,0.7-1.5,1.5v6.8c0,0.8,0.7,1.5,1.5,1.5h10.5c0.8,0,1.5-0.7,1.5-1.5v-6.8
		c0-0.8-0.7-1.5-1.5-1.5H3.8z"/>
</g>
</svg>
