<?xml version="1.0" encoding="utf-8"?>
<!-- Generator: Adobe Illustrator 28.4.1, SVG Export Plug-In . SVG Version: 6.00 Build 0)  -->
<svg version="1.1" id="Layer_1" xmlns="http://www.w3.org/2000/svg" xmlns:xlink="http://www.w3.org/1999/xlink" x="0px" y="0px"
	 viewBox="0 0 24 24" style="enable-background:new 0 0 24 24;" xml:space="preserve">
<style type="text/css">
	.st0{fill:#0F172A;}
</style>
<g>
	<path class="st0" d="M19.9,21.8H6.8c-0.6,0-1.2-0.1-1.8-0.4c-0.5-0.2-1-0.5-1.4-1c0,0,0,0,0,0c-0.8-0.8-1.3-1.9-1.3-3.1V4.1
		c0-1,0.8-1.9,1.9-1.9h5.2c1,0,1.9,0.8,1.9,1.9v2.3l1.6-1.6c0.4-0.4,0.8-0.5,1.3-0.5h0c0.5,0,1,0.2,1.3,0.5l3.7,3.7
		c0.4,0.4,0.5,0.8,0.5,1.3c0,0.5-0.2,1-0.5,1.3l-1.6,1.6h2.3c1,0,1.9,0.8,1.9,1.9v5.2C21.8,20.9,20.9,21.8,19.9,21.8z M10.1,20.3
		h9.8c0.2,0,0.4-0.2,0.4-0.4v-5.2c0-0.2-0.2-0.4-0.4-0.4h-3.8L10.1,20.3z M6.7,20.3C6.7,20.3,6.8,20.3,6.7,20.3L6.7,20.3
		C6.8,20.3,6.8,20.3,6.7,20.3L6.7,20.3c1.7,0,3-1.3,3-3V4.1c0-0.2-0.2-0.4-0.4-0.4H4.1c-0.2,0-0.4,0.2-0.4,0.4v13.1
		C3.8,18.9,5.1,20.2,6.7,20.3L6.7,20.3C6.7,20.3,6.7,20.3,6.7,20.3L6.7,20.3z M11.2,8.5V17l4-4c0,0,0,0,0,0l2.9-2.9
		c0.1-0.1,0.1-0.4,0-0.5l-3.7-3.7c-0.1-0.1-0.2-0.1-0.3-0.1l0,0c-0.1,0-0.2,0-0.3,0.1L11.2,8.5z M6.8,18C6.3,18,6,17.7,6,17.3
		s0.3-0.8,0.8-0.8h0c0.4,0,0.8,0.3,0.8,0.8S7.2,18,6.8,18z"/>
</g>
</svg>
