<?xml version="1.0" encoding="utf-8"?>
<!-- Generator: Adobe Illustrator 28.4.1, SVG Export Plug-In . SVG Version: 6.00 Build 0)  -->
<svg version="1.1" id="Layer_1" xmlns="http://www.w3.org/2000/svg" xmlns:xlink="http://www.w3.org/1999/xlink" x="0px" y="0px"
	 viewBox="0 0 24 24" style="enable-background:new 0 0 24 24;" xml:space="preserve">
<style type="text/css">
	.st0{fill:#0F172A;}
</style>
<g>
	<path class="st0" d="M12,19.5c-0.2,0-0.4-0.1-0.5-0.2l-0.5-0.5c-0.3-0.3-0.3-0.8,0-1.1c0.6-0.6,1.5-0.6,2.1,0
		c0.3,0.3,0.3,0.8,0,1.1l-0.5,0.5C12.4,19.4,12.2,19.5,12,19.5z M8.3,15.8c-0.2,0-0.4-0.1-0.5-0.2c-0.3-0.3-0.3-0.8,0-1.1
		c2.3-2.3,6.1-2.3,8.5,0c0.3,0.3,0.3,0.8,0,1.1s-0.8,0.3-1.1,0c-1.8-1.8-4.6-1.8-6.4,0C8.7,15.7,8.5,15.8,8.3,15.8z M18.9,12.6
		c-0.2,0-0.4-0.1-0.5-0.2c-3.5-3.5-9.2-3.5-12.7,0c-0.3,0.3-0.8,0.3-1.1,0s-0.3-0.8,0-1.1c4.1-4.1,10.8-4.1,14.8,0
		c0.3,0.3,0.3,0.8,0,1.1C19.3,12.5,19.1,12.6,18.9,12.6z M22.1,9.4c-0.2,0-0.4-0.1-0.5-0.2c-2.5-2.5-5.9-4-9.5-4c-3.6,0-7,1.4-9.5,4
		c-0.3,0.3-0.8,0.3-1.1,0s-0.3-0.8,0-1.1C4.2,5.3,8,3.7,12,3.7c4,0,7.8,1.6,10.6,4.4c0.3,0.3,0.3,0.8,0,1.1
		C22.5,9.4,22.3,9.4,22.1,9.4z"/>
</g>
</svg>
