<?xml version="1.0" encoding="utf-8"?>
<!-- Generator: Adobe Illustrator 28.4.1, SVG Export Plug-In . SVG Version: 6.00 Build 0)  -->
<svg version="1.1" id="Layer_1" xmlns="http://www.w3.org/2000/svg" xmlns:xlink="http://www.w3.org/1999/xlink" x="0px" y="0px"
	 viewBox="0 0 24 24" style="enable-background:new 0 0 24 24;" xml:space="preserve">
<style type="text/css">
	.st0{fill:#0F172A;}
</style>
<g>
	<path class="st0" d="M18,21H6c-1.7,0-3-1.3-3-3V6c0-1.7,1.3-3,3-3h12c1.7,0,3,1.3,3,3v12C21,19.7,19.7,21,18,21z M6,4.5
		C5.2,4.5,4.5,5.2,4.5,6v12c0,0.8,0.7,1.5,1.5,1.5h12c0.8,0,1.5-0.7,1.5-1.5V6c0-0.8-0.7-1.5-1.5-1.5h-0.8v12c0,0.3-0.1,0.5-0.4,0.6
		c-0.2,0.1-0.5,0.2-0.7,0L12,15.1l-4.2,2.1c-0.2,0.1-0.5,0.1-0.7,0c-0.2-0.1-0.4-0.4-0.4-0.6v-12H6z M12,13.5c0.1,0,0.2,0,0.3,0.1
		l3.4,1.7V4.5H8.2v10.8l3.4-1.7C11.8,13.5,11.9,13.5,12,13.5z"/>
</g>
</svg>
