<?xml version="1.0" encoding="utf-8"?>
<!-- Generator: Adobe Illustrator 28.4.1, SVG Export Plug-In . SVG Version: 6.00 Build 0)  -->
<svg version="1.1" id="Layer_1" xmlns="http://www.w3.org/2000/svg" xmlns:xlink="http://www.w3.org/1999/xlink" x="0px" y="0px"
	 viewBox="0 0 24 24" style="enable-background:new 0 0 24 24;" xml:space="preserve">
<style type="text/css">
	.st0{fill:#0F172A;}
</style>
<g>
	<path class="st0" d="M12,22.1c-0.1,0-0.1,0-0.2,0c-5.6-1.4-9.6-6.5-9.6-12.3c0-1.4,0.2-2.7,0.6-4C3,5.5,3.3,5.3,3.6,5.2l0.1,0
		c2.9,0,5.6-1.1,7.7-3.1c0.3-0.3,0.7-0.3,1,0c2.1,2,4.8,3.1,7.7,3.1l0.1,0c0,0,0,0,0,0c0.3,0,0.6,0.2,0.7,0.5c0.4,1.3,0.6,2.6,0.6,4
		c0,5.8-3.9,10.9-9.6,12.3C12.1,22.1,12.1,22.1,12,22.1z M4.2,6.7c-0.3,1-0.4,2-0.4,3c0,5.1,3.4,9.5,8.2,10.8
		c4.9-1.3,8.2-5.8,8.2-10.8c0-1-0.1-2-0.4-3c-2.9-0.1-5.6-1.2-7.8-3C9.8,5.6,7.1,6.7,4.2,6.7z M11.2,15.7c-0.2,0-0.4-0.1-0.5-0.2
		l-2.2-2.2c-0.3-0.3-0.3-0.8,0-1.1s0.8-0.3,1.1,0l1.6,1.6l3.2-4.5c0.2-0.3,0.7-0.4,1-0.2c0.3,0.2,0.4,0.7,0.2,1l-3.8,5.2
		C11.7,15.6,11.5,15.7,11.2,15.7C11.3,15.7,11.3,15.7,11.2,15.7z"/>
</g>
</svg>
