<?xml version="1.0" encoding="utf-8"?>
<!-- Generator: Adobe Illustrator 28.4.1, SVG Export Plug-In . SVG Version: 6.00 Build 0)  -->
<svg version="1.1" id="Layer_1" xmlns="http://www.w3.org/2000/svg" xmlns:xlink="http://www.w3.org/1999/xlink" x="0px" y="0px"
	 viewBox="0 0 24 24" style="enable-background:new 0 0 24 24;" xml:space="preserve">
<style type="text/css">
	.st0{fill:#0F172A;}
</style>
<g>
	<path class="st0" d="M12.5,23.3h-2c-4.1,0-7.5-3.4-7.5-7.5V7.6c0-1.3,1-2.3,2.3-2.3c0.3,0,0.6,0.1,0.8,0.2V4.6c0-1.3,1-2.3,2.3-2.3
		c0.3,0,0.6,0.1,0.9,0.2c0.3-1,1.2-1.7,2.2-1.7s2,0.7,2.2,1.7c0.3-0.1,0.6-0.2,0.9-0.2c1.3,0,2.3,1,2.3,2.3v5.5
		c0.9-0.7,2.3-0.7,3.1,0.1c0.9,0.9,0.9,2.4,0,3.3l0,2c0,1.6-0.6,3.1-1.8,4.2l-1.7,1.7C15.6,22.6,14.1,23.3,12.5,23.3z M5.3,6.7
		c-0.5,0-0.8,0.4-0.8,0.8v8.2c0,3.3,2.7,6,6,6h2c1.2,0,2.3-0.5,3.2-1.3l1.7-1.7c0.9-0.8,1.3-2,1.3-3.2l0-2c0-0.4,0.2-0.7,0.4-1
		c0.3-0.3,0.3-0.8,0-1.2c-0.3-0.3-0.9-0.3-1.2,0c-0.6,0.6-0.9,1.3-0.9,2.2c0,0,0,0,0,0.1V15c0,0.4-0.3,0.8-0.8,0.8
		c-0.5,0-1.1,0.1-1.6,0.3c-0.4,0.2-0.8,0.4-1.1,0.8c-0.3,0.3-0.8,0.3-1.1,0c-0.3-0.3-0.3-0.8,0-1.1c0.4-0.4,1-0.8,1.5-1.1
		c0.5-0.2,0.9-0.4,1.4-0.4V4.6c0-0.5-0.4-0.8-0.8-0.8c-0.5,0-0.8,0.4-0.8,0.8v6.7c0,0.4-0.3,0.8-0.8,0.8s-0.8-0.3-0.8-0.8V3.1
		c0-0.5-0.4-0.8-0.8-0.8s-0.8,0.4-0.8,0.8v1.5l0.1,5.9c0,0.4-0.3,0.8-0.7,0.8c0,0,0,0,0,0c-0.4,0-0.7-0.3-0.8-0.7L9.3,4.6
		c0,0,0,0,0,0c0,0,0,0,0,0c0-0.5-0.4-0.8-0.8-0.8C8,3.7,7.6,4.1,7.6,4.6V12c0,0.4-0.3,0.8-0.8,0.8S6.1,12.4,6.1,12V7.6
		C6.1,7.1,5.8,6.7,5.3,6.7z"/>
</g>
</svg>
