<?xml version="1.0" encoding="utf-8"?>
<!-- Generator: Adobe Illustrator 28.4.1, SVG Export Plug-In . SVG Version: 6.00 Build 0)  -->
<svg version="1.1" id="Layer_1" xmlns="http://www.w3.org/2000/svg" xmlns:xlink="http://www.w3.org/1999/xlink" x="0px" y="0px"
	 viewBox="0 0 24 24" style="enable-background:new 0 0 24 24;" xml:space="preserve">
<style type="text/css">
	.st0{fill:#0F172A;}
</style>
<g>
	<path class="st0" d="M18.4,21.6c-0.2,0-0.3,0-0.5-0.1c-5.1-1.4-10.3-2.1-15.6-2.1c-0.4,0-0.8-0.3-0.8-0.8S1.8,18,2.2,18
		c5.4,0,10.8,0.7,16,2.1c0.2,0,0.3,0,0.4-0.1c0.1,0,0.2-0.1,0.2-0.3v-1c0-0.4,0.3-0.8,0.8-0.8s0.8,0.3,0.8,0.8v1
		c0,0.6-0.3,1.1-0.7,1.5C19.2,21.5,18.8,21.6,18.4,21.6z M20.6,17.3H3.4c-1,0-1.9-0.8-1.9-1.9V5.6c0-1,0.8-1.9,1.9-1.9h17.2
		c1,0,1.9,0.8,1.9,1.9v9.8C22.5,16.4,21.7,17.3,20.6,17.3z M4.5,15.8h15c0-0.8,0.7-1.5,1.5-1.5V6.7c-0.8,0-1.5-0.7-1.5-1.5h-15
		c0,0.8-0.7,1.5-1.5,1.5v7.5C3.8,14.3,4.5,14.9,4.5,15.8z M12,14.3c-2.1,0-3.8-1.7-3.8-3.8S9.9,6.7,12,6.7c2.1,0,3.8,1.7,3.8,3.8
		S14.1,14.3,12,14.3z M12,8.2c-1.2,0-2.2,1-2.2,2.2s1,2.3,2.2,2.3c1.2,0,2.2-1,2.2-2.3S13.2,8.2,12,8.2z M18,11.3
		c-0.4,0-0.8-0.3-0.8-0.8s0.3-0.8,0.8-0.8h0c0.4,0,0.8,0.3,0.8,0.8S18.4,11.3,18,11.3z M6,11.3c-0.4,0-0.8-0.3-0.8-0.8
		S5.6,9.7,6,9.7h0c0.4,0,0.8,0.3,0.8,0.8S6.4,11.3,6,11.3z"/>
</g>
</svg>
