<?xml version="1.0" encoding="utf-8"?>
<!-- Generator: Adobe Illustrator 28.4.1, SVG Export Plug-In . SVG Version: 6.00 Build 0)  -->
<svg version="1.1" id="Layer_1" xmlns="http://www.w3.org/2000/svg" xmlns:xlink="http://www.w3.org/1999/xlink" x="0px" y="0px"
	 viewBox="0 0 24 24" style="enable-background:new 0 0 24 24;" xml:space="preserve">
<style type="text/css">
	.st0{fill:#0F172A;}
</style>
<g>
	<path class="st0" d="M21.8,21.8H2.2c-0.4,0-0.8-0.3-0.8-0.8s0.3-0.8,0.8-0.8H3V3.7C2.6,3.7,2.2,3.4,2.2,3S2.6,2.2,3,2.2h12
		c0.4,0,0.8,0.3,0.8,0.8S15.4,3.7,15,3.7v3h6c0.4,0,0.8,0.3,0.8,0.8S21.4,8.2,21,8.2v12h0.8c0.4,0,0.8,0.3,0.8,0.8
		S22.2,21.8,21.8,21.8z M15,20.3h4.5v-12H15V20.3z M12,20.3h1.5V3.7h-9v16.5H6v-2.6c0-1,0.8-1.9,1.9-1.9h2.2c1,0,1.9,0.8,1.9,1.9
		V20.3z M7.5,20.3h3v-2.6c0-0.2-0.2-0.4-0.4-0.4H7.9c-0.2,0-0.4,0.2-0.4,0.4V20.3z M17.3,18c-0.4,0-0.8-0.3-0.8-0.8s0.3-0.8,0.8-0.8
		h0c0.4,0,0.8,0.3,0.8,0.8S17.7,18,17.3,18z M17.3,15c-0.4,0-0.8-0.3-0.8-0.8s0.3-0.8,0.8-0.8h0c0.4,0,0.8,0.3,0.8,0.8
		S17.7,15,17.3,15z M11.2,13.5h-0.8c-0.4,0-0.8-0.3-0.8-0.7c0-0.4,0.3-0.8,0.8-0.8h0.8c0.4,0,0.8,0.3,0.8,0.8
		C12,13.2,11.7,13.5,11.2,13.5z M7.5,13.5H6.8c-0.4,0-0.8-0.3-0.8-0.7C6,12.3,6.3,12,6.8,12h0.8c0.4,0,0.8,0.3,0.8,0.8
		C8.2,13.2,7.9,13.5,7.5,13.5z M17.3,12c-0.4,0-0.8-0.3-0.8-0.8s0.3-0.8,0.8-0.8h0c0.4,0,0.8,0.3,0.8,0.8S17.7,12,17.3,12z
		 M11.2,10.5h-0.8c-0.4,0-0.8-0.3-0.8-0.8S10.1,9,10.5,9h0.8C11.7,9,12,9.3,12,9.7S11.7,10.5,11.2,10.5z M7.5,10.5H6.8
		C6.3,10.5,6,10.2,6,9.7S6.3,9,6.8,9h0.8c0.4,0,0.8,0.3,0.8,0.8S7.9,10.5,7.5,10.5z M11.2,7.5h-0.8c-0.4,0-0.8-0.3-0.8-0.8
		S10.1,6,10.5,6h0.8C11.7,6,12,6.3,12,6.7S11.7,7.5,11.2,7.5z M7.5,7.5H6.8C6.3,7.5,6,7.2,6,6.7S6.3,6,6.8,6h0.8
		c0.4,0,0.8,0.3,0.8,0.8S7.9,7.5,7.5,7.5z"/>
</g>
</svg>
