<?xml version="1.0" encoding="utf-8"?>
<!-- Generator: Adobe Illustrator 28.4.1, SVG Export Plug-In . SVG Version: 6.00 Build 0)  -->
<svg version="1.1" id="Layer_1" xmlns="http://www.w3.org/2000/svg" xmlns:xlink="http://www.w3.org/1999/xlink" x="0px" y="0px"
	 viewBox="0 0 24 25" style="enable-background:new 0 0 24 25;" xml:space="preserve">
<style type="text/css">
	.st0{fill:#0F172A;}
</style>
<g>
	<path class="st0" d="M2.2,22.5c-0.2,0-0.4-0.1-0.5-0.2c-0.2-0.2-0.3-0.5-0.2-0.7l0.8-2.7C2.6,18,3,17.3,3.6,16.7L18,2.3
		c1-1,2.7-1,3.7,0c1,1,1,2.7,0,3.7L7.4,20.4C6.7,21,6,21.4,5.1,21.7l-2.7,0.8C2.4,22.5,2.3,22.5,2.2,22.5z M16.9,5.6L4.7,17.7
		c-0.4,0.4-0.8,1-0.9,1.6l-0.4,1.4l1.4-0.4c0.6-0.2,1.1-0.5,1.6-0.9L18.5,7.2L16.9,5.6z M17.9,4.5l1.6,1.6l1.2-1.2
		c0.4-0.4,0.4-1.2,0-1.6c-0.4-0.4-1.2-0.4-1.6,0L17.9,4.5z"/>
</g>
</svg>
