<?xml version="1.0" encoding="utf-8"?>
<!-- Generator: Adobe Illustrator 28.4.1, SVG Export Plug-In . SVG Version: 6.00 Build 0)  -->
<svg version="1.1" id="Layer_1" xmlns="http://www.w3.org/2000/svg" xmlns:xlink="http://www.w3.org/1999/xlink" x="0px" y="0px"
	 viewBox="0 0 24 24" style="enable-background:new 0 0 24 24;" xml:space="preserve">
<style type="text/css">
	.st0{fill:#0F172A;}
</style>
<g>
	<path class="st0" d="M20.2,21.8H3.8C3.3,21.8,3,21.4,3,21s0.3-0.8,0.8-0.8h0.8V3.7C4.1,3.7,3.8,3.4,3.8,3s0.3-0.8,0.8-0.8h15
		c0.4,0,0.8,0.3,0.8,0.8s-0.3,0.8-0.8,0.8v16.5h0.8c0.4,0,0.8,0.3,0.8,0.8S20.7,21.8,20.2,21.8z M15.8,20.3H18V3.7H6v16.5h2.2v-2.6
		c0-1,0.8-1.9,1.9-1.9h3.8c1,0,1.9,0.8,1.9,1.9V20.3z M9.8,20.3h4.5v-2.6c0-0.2-0.2-0.4-0.4-0.4h-3.8c-0.2,0-0.4,0.2-0.4,0.4V20.3z
		 M15,13.5h-1.5c-0.4,0-0.8-0.3-0.8-0.7c0-0.4,0.3-0.8,0.8-0.8H15c0.4,0,0.8,0.3,0.8,0.8C15.8,13.2,15.4,13.5,15,13.5z M10.5,13.5H9
		c-0.4,0-0.8-0.3-0.8-0.7C8.2,12.3,8.6,12,9,12h1.5c0.4,0,0.8,0.3,0.8,0.8C11.2,13.2,10.9,13.5,10.5,13.5z M15,10.5h-1.5
		c-0.4,0-0.8-0.3-0.8-0.8S13.1,9,13.5,9H15c0.4,0,0.8,0.3,0.8,0.8S15.4,10.5,15,10.5z M10.5,10.5H9c-0.4,0-0.8-0.3-0.8-0.8
		S8.6,9,9,9h1.5c0.4,0,0.8,0.3,0.8,0.8S10.9,10.5,10.5,10.5z M15,7.5h-1.5c-0.4,0-0.8-0.3-0.8-0.8S13.1,6,13.5,6H15
		c0.4,0,0.8,0.3,0.8,0.8S15.4,7.5,15,7.5z M10.5,7.5H9c-0.4,0-0.8-0.3-0.8-0.8S8.6,6,9,6h1.5c0.4,0,0.8,0.3,0.8,0.8
		S10.9,7.5,10.5,7.5z"/>
</g>
</svg>
