<?xml version="1.0" encoding="utf-8"?>
<!-- Generator: Adobe Illustrator 28.4.1, SVG Export Plug-In . SVG Version: 6.00 Build 0)  -->
<svg version="1.1" id="Layer_1" xmlns="http://www.w3.org/2000/svg" xmlns:xlink="http://www.w3.org/1999/xlink" x="0px" y="0px"
	 viewBox="0 0 24 24" style="enable-background:new 0 0 24 24;" xml:space="preserve">
<style type="text/css">
	.st0{fill:#0F172A;}
</style>
<g>
	<path class="st0" d="M6,21.8c-0.2,0-0.4,0-0.7,0c-0.2,0-0.4,0-0.5-0.1c-0.3,0-0.5-0.2-0.6-0.5s0-0.5,0.1-0.7
		c0.4-0.5,0.7-1.1,0.8-1.7c0-0.2-0.1-0.4-0.3-0.5c-1.7-1.7-2.7-3.9-2.7-6.2c0-5,4.4-9,9.8-9s9.8,4,9.8,9s-4.4,9-9.8,9
		c-0.8,0-1.6-0.1-2.4-0.3C8.5,21.4,7.3,21.8,6,21.8z M12,4.5c-4.5,0-8.2,3.4-8.2,7.5c0,1.9,0.8,3.7,2.2,5.1c0.6,0.5,0.8,1.2,0.7,1.9
		c-0.1,0.4-0.2,0.8-0.4,1.2c1,0,1.9-0.4,2.8-0.9c0.2-0.1,0.4-0.2,0.6-0.1c0.8,0.2,1.6,0.3,2.4,0.3c4.5,0,8.2-3.4,8.2-7.5
		C20.2,7.9,16.5,4.5,12,4.5z M15.8,13.1c-0.6,0-1.1-0.5-1.1-1.1s0.5-1.1,1.1-1.1s1.1,0.5,1.1,1.1S16.4,13.1,15.8,13.1z M12,13.1
		c-0.6,0-1.1-0.5-1.1-1.1s0.5-1.1,1.1-1.1s1.1,0.5,1.1,1.1S12.6,13.1,12,13.1z M8.2,13.1c-0.6,0-1.1-0.5-1.1-1.1s0.5-1.1,1.1-1.1
		s1.1,0.5,1.1,1.1S8.9,13.1,8.2,13.1z"/>
</g>
</svg>
