<?xml version="1.0" encoding="utf-8"?>
<!-- Generator: Adobe Illustrator 28.4.1, SVG Export Plug-In . SVG Version: 6.00 Build 0)  -->
<svg version="1.1" id="Layer_1" xmlns="http://www.w3.org/2000/svg" xmlns:xlink="http://www.w3.org/1999/xlink" x="0px" y="0px"
	 viewBox="0 0 24 24" style="enable-background:new 0 0 24 24;" xml:space="preserve">
<style type="text/css">
	.st0{fill:#0F172A;}
</style>
<g>
	<path class="st0" d="M8.6,21.8c-2.4,0-4.7-0.6-6.8-1.9c-0.2-0.1-0.4-0.4-0.4-0.6l0-0.1c0-3.9,3.2-7.1,7.1-7.1
		c2.2,0,4.3,1.1,5.7,2.8c0.9-0.8,2.1-1.3,3.3-1.3c2.7,0,4.9,2.2,4.9,4.9c0,0.1,0,0.1,0,0.2c0,0.3-0.2,0.5-0.4,0.6
		c-2.1,1-4.6,1.3-6.8,0.7C13.2,21.1,11,21.8,8.6,21.8z M3,18.8c3.4,1.9,7.8,1.9,11.2,0c0-0.8-0.3-1.6-0.7-2.4c0,0,0,0,0,0
		c-1-1.8-2.9-2.9-4.9-2.9C5.6,13.5,3.2,15.9,3,18.8z M15.7,18.5c1.8,0.4,3.6,0.2,5.3-0.5c-0.2-1.7-1.6-3.1-3.4-3.1
		c-1,0-1.9,0.4-2.5,1.1C15.4,16.9,15.7,17.7,15.7,18.5z M17.6,12c-1.9,0-3.4-1.5-3.4-3.4s1.5-3.4,3.4-3.4S21,6.8,21,8.6
		S19.5,12,17.6,12z M17.6,6.7c-1,0-1.9,0.8-1.9,1.9s0.8,1.9,1.9,1.9s1.9-0.8,1.9-1.9S18.7,6.7,17.6,6.7z M8.6,10.5
		c-2.3,0-4.1-1.9-4.1-4.1s1.9-4.1,4.1-4.1s4.1,1.9,4.1,4.1S10.9,10.5,8.6,10.5z M8.6,3.7C7.2,3.7,6,4.9,6,6.4S7.2,9,8.6,9
		s2.6-1.2,2.6-2.6S10.1,3.7,8.6,3.7z"/>
</g>
</svg>
