<?xml version="1.0" encoding="utf-8"?>
<!-- Generator: Adobe Illustrator 28.4.1, SVG Export Plug-In . SVG Version: 6.00 Build 0)  -->
<svg version="1.1" id="Layer_1" xmlns="http://www.w3.org/2000/svg" xmlns:xlink="http://www.w3.org/1999/xlink" x="0px" y="0px"
	 viewBox="0 0 24 24" style="enable-background:new 0 0 24 24;" xml:space="preserve">
<style type="text/css">
	.st0{fill:#0F172A;}
</style>
<g>
	<path class="st0" d="M9.4,12.7h-6c-1,0-1.9-0.8-1.9-1.9V7.1c0-1,0.8-1.9,1.9-1.9h6c1,0,1.9,0.8,1.9,1.9v3.8
		C11.2,11.9,10.4,12.7,9.4,12.7z M3.4,6.7C3.2,6.7,3,6.9,3,7.1v3.8c0,0.2,0.2,0.4,0.4,0.4h6c0.2,0,0.4-0.2,0.4-0.4V7.1
		c0-0.2-0.2-0.4-0.4-0.4H3.4z"/>
</g>
<g>
	<path class="st0" d="M20.6,18.8h-5.2c-1,0-1.9-0.8-1.9-1.9V8.6c0-1,0.8-1.9,1.9-1.9h5.2c1,0,1.9,0.8,1.9,1.9v8.3
		C22.5,17.9,21.7,18.8,20.6,18.8z M15.4,8.2c-0.2,0-0.4,0.2-0.4,0.4v8.3c0,0.2,0.2,0.4,0.4,0.4h5.2c0.2,0,0.4-0.2,0.4-0.4V8.6
		c0-0.2-0.2-0.4-0.4-0.4H15.4z"/>
</g>
<g>
	<path class="st0" d="M10.1,20.3H4.9c-1,0-1.9-0.8-1.9-1.9v-2.2c0-1,0.8-1.9,1.9-1.9h5.2c1,0,1.9,0.8,1.9,1.9v2.2
		C12,19.4,11.2,20.3,10.1,20.3z M4.9,15.8c-0.2,0-0.4,0.2-0.4,0.4v2.2c0,0.2,0.2,0.4,0.4,0.4h5.2c0.2,0,0.4-0.2,0.4-0.4v-2.2
		c0-0.2-0.2-0.4-0.4-0.4H4.9z"/>
</g>
</svg>
