<?xml version="1.0" encoding="utf-8"?>
<!-- Generator: Adobe Illustrator 28.4.1, SVG Export Plug-In . SVG Version: 6.00 Build 0)  -->
<svg version="1.1" id="Layer_1" xmlns="http://www.w3.org/2000/svg" xmlns:xlink="http://www.w3.org/1999/xlink" x="0px" y="0px"
	 viewBox="0 0 24 24" style="enable-background:new 0 0 24 24;" xml:space="preserve">
<style type="text/css">
	.st0{fill:#0F172A;}
</style>
<g>
	<path class="st0" d="M12,14.3c-2.1,0-3.8-1.7-3.8-3.8S9.9,6.7,12,6.7c2.1,0,3.8,1.7,3.8,3.8S14.1,14.3,12,14.3z M12,8.2
		c-1.2,0-2.2,1-2.2,2.2s1,2.3,2.2,2.3c1.2,0,2.2-1,2.2-2.3S13.2,8.2,12,8.2z"/>
</g>
<g>
	<path class="st0" d="M12,22.5c-0.1,0-0.2,0-0.4-0.1c-0.3-0.2-7.9-4.4-7.9-11.9C3.8,6,7.5,2.2,12,2.2s8.2,3.7,8.2,8.2
		c0,7.5-7.6,11.7-7.9,11.9C12.2,22.5,12.1,22.5,12,22.5z M12,3.7c-3.7,0-6.8,3-6.8,6.8c0,5.7,5.3,9.5,6.7,10.4
		c1.4-0.9,6.8-4.6,6.8-10.4C18.8,6.8,15.7,3.7,12,3.7z"/>
</g>
</svg>
