<?xml version="1.0" encoding="utf-8"?>
<!-- Generator: Adobe Illustrator 28.4.1, SVG Export Plug-In . SVG Version: 6.00 Build 0)  -->
<svg version="1.1" id="Layer_1" xmlns="http://www.w3.org/2000/svg" xmlns:xlink="http://www.w3.org/1999/xlink" x="0px" y="0px"
	 viewBox="0 0 24 24" style="enable-background:new 0 0 24 24;" xml:space="preserve">
<style type="text/css">
	.st0{fill:#0F172A;}
</style>
<g>
	<path class="st0" d="M12,21.8c-5.4,0-9.8-4.4-9.8-9.8c0-5.4,4.4-9.8,9.8-9.8s9.8,4.4,9.8,9.8C21.8,17.4,17.4,21.8,12,21.8z M12,3.7
		c-4.5,0-8.2,3.7-8.2,8.2c0,4.5,3.7,8.3,8.2,8.3s8.2-3.7,8.2-8.3C20.2,7.5,16.5,3.7,12,3.7z M15.8,16.5c-0.2,0-0.4-0.1-0.5-0.2l-2-2
		c-0.7,0.5-1.5,0.7-2.3,0.7c-2.3,0-4.1-1.9-4.1-4.1c0-2.3,1.9-4.1,4.1-4.1S15,8.6,15,10.9c0,0.8-0.3,1.7-0.7,2.3l2,2
		c0.3,0.3,0.3,0.8,0,1.1C16.1,16.4,15.9,16.5,15.8,16.5z M10.9,8.2c-1.4,0-2.6,1.2-2.6,2.6c0,1.4,1.2,2.6,2.6,2.6
		c0.7,0,1.4-0.3,1.9-0.8c0,0,0,0,0,0c0.5-0.5,0.8-1.2,0.8-1.9C13.5,9.4,12.3,8.2,10.9,8.2z"/>
</g>
</svg>
