<?xml version="1.0" encoding="utf-8"?>
<!-- Generator: Adobe Illustrator 28.4.1, SVG Export Plug-In . SVG Version: 6.00 Build 0)  -->
<svg version="1.1" id="Layer_1" xmlns="http://www.w3.org/2000/svg" xmlns:xlink="http://www.w3.org/1999/xlink" x="0px" y="0px"
	 viewBox="0 0 24 24" style="enable-background:new 0 0 24 24;" xml:space="preserve">
<style type="text/css">
	.st0{fill:#0F172A;}
</style>
<g>
	<path class="st0" d="M12.5,21.7c-0.1,0-0.3,0-0.4-0.1c-0.3-0.2-0.4-0.7-0.2-1c1.1-1.6,1.9-3.3,2.4-5.1c0.1-0.4,0.5-0.6,0.9-0.5
		c0.4,0.1,0.6,0.5,0.5,0.9c-0.6,2-1.4,3.8-2.6,5.5C13,21.6,12.8,21.7,12.5,21.7z M8.4,21c-0.2,0-0.3-0.1-0.5-0.2
		c-0.3-0.3-0.4-0.7-0.1-1.1c2.2-2.6,3.4-5.9,3.4-9.3c0-0.4,0.3-0.8,0.8-0.8s0.8,0.3,0.8,0.8c0,3.8-1.3,7.4-3.8,10.2
		C8.8,20.9,8.6,21,8.4,21z M17.9,19.5c-0.1,0-0.2,0-0.3-0.1c-0.4-0.2-0.6-0.6-0.4-1c1-2.5,1.5-5.2,1.5-8c0-3.7-3-6.8-6.8-6.8
		c-1.3,0-2.6,0.4-3.7,1.1C7.9,5.1,7.5,5,7.2,4.7C7,4.3,7.1,3.8,7.4,3.6c1.4-0.9,2.9-1.4,4.6-1.4c4.5,0,8.2,3.7,8.2,8.2
		c0,3-0.5,5.8-1.6,8.5C18.5,19.3,18.2,19.5,17.9,19.5z M5.3,18.8c-0.2,0-0.4-0.1-0.5-0.2c-0.3-0.3-0.3-0.8-0.1-1.1
		c1.8-1.9,2.7-4.4,2.7-7C7.5,8,9.5,6,12,6s4.5,2,4.5,4.5c0,0.5,0,1.1-0.1,1.6c0,0.4-0.4,0.7-0.8,0.7c-0.4,0-0.7-0.4-0.7-0.8
		c0-0.5,0.1-1,0.1-1.5c0-1.7-1.3-3-3-3s-3,1.3-3,3c0,3-1.1,5.8-3.1,8.1C5.7,18.7,5.5,18.8,5.3,18.8z M3.3,15.2c-0.1,0-0.3,0-0.4-0.1
		c-0.4-0.2-0.5-0.7-0.2-1c0.7-1.1,1-2.3,1-3.6c0-1.6,0.5-3.2,1.4-4.5c0.2-0.3,0.7-0.4,1-0.2c0.3,0.2,0.4,0.7,0.2,1
		c-0.7,1.1-1.1,2.4-1.1,3.7c0,1.6-0.4,3.1-1.3,4.4C3.8,15.1,3.6,15.2,3.3,15.2z"/>
</g>
</svg>
