<?xml version="1.0" encoding="utf-8"?>
<!-- Generator: Adobe Illustrator 28.4.1, SVG Export Plug-In . SVG Version: 6.00 Build 0)  -->
<svg version="1.1" id="Layer_1" xmlns="http://www.w3.org/2000/svg" xmlns:xlink="http://www.w3.org/1999/xlink" x="0px" y="0px"
	 viewBox="0 0 24 24" style="enable-background:new 0 0 24 24;" xml:space="preserve">
<style type="text/css">
	.st0{fill:#0F172A;}
</style>
<g>
	<path class="st0" d="M4.5,20.3c-0.2,0-0.4-0.1-0.5-0.2c-0.3-0.3-0.3-0.8,0-1.1L17.7,5.2H8.2c-0.4,0-0.8-0.3-0.8-0.8
		s0.3-0.7,0.8-0.7h11.2h0c0,0,0,0,0,0l0,0c0,0,0,0,0,0h0c0,0,0,0,0,0c0.1,0,0.2,0,0.3,0.1c0,0,0,0,0,0c0,0,0,0,0,0
		C19.9,3.8,20,3.9,20,4c0.1,0.1,0.1,0.2,0.2,0.2c0,0.1,0.1,0.2,0.1,0.3v0c0,0,0,0,0,0c0,0,0,0,0,0c0,0,0,0,0,0v11.2
		c0,0.4-0.3,0.7-0.8,0.7s-0.8-0.3-0.8-0.7V6.3L5,20C4.9,20.2,4.7,20.3,4.5,20.3z"/>
</g>
</svg>
