<?xml version="1.0" encoding="utf-8"?>
<!-- Generator: Adobe Illustrator 28.4.1, SVG Export Plug-In . SVG Version: 6.00 Build 0)  -->
<svg version="1.1" id="Layer_1" xmlns="http://www.w3.org/2000/svg" xmlns:xlink="http://www.w3.org/1999/xlink" x="0px" y="0px"
	 viewBox="0 0 24 24" style="enable-background:new 0 0 24 24;" xml:space="preserve">
<style type="text/css">
	.st0{fill:#0F172A;}
</style>
<g>
	<path class="st0" d="M12,21.8c-2.2,0-4.4-0.6-6.3-1.7c-0.2-0.1-0.3-0.3-0.4-0.6c-1.1,0-2.2-0.2-3.3-0.6c-0.3-0.1-0.5-0.4-0.5-0.6
		c0-0.1,0-0.2,0-0.3c0-2.1,1.7-3.7,3.8-3.7c0.5,0,1,0.1,1.5,0.3C8,12.9,9.9,12,12,12c2.1,0,4,0.9,5.3,2.5c0.5-0.2,1-0.3,1.5-0.3
		c2.1,0,3.8,1.7,3.8,3.7c0,0.1,0,0.2,0,0.3c0,0.3-0.2,0.6-0.5,0.7c-1.1,0.4-2.2,0.6-3.3,0.6c0,0.2-0.2,0.4-0.4,0.6
		C16.4,21.2,14.2,21.8,12,21.8z M6.8,19c3.2,1.7,7.3,1.7,10.5,0c0-0.1,0-0.1,0-0.2c0,0,0,0,0,0c0,0,0,0,0,0c0-1-0.3-2-0.8-2.8
		c0,0,0,0,0,0c-1-1.5-2.6-2.4-4.4-2.4c-1.8,0-3.5,0.9-4.4,2.4l0,0c0,0,0,0,0,0l0,0c0,0,0,0,0,0c0,0,0,0,0,0
		c-0.5,0.8-0.8,1.8-0.8,2.8c0,0,0,0,0,0C6.8,18.8,6.8,18.9,6.8,19z M18.7,18c0.8,0,1.5-0.1,2.3-0.3c-0.1-1.1-1.1-1.9-2.2-1.9
		c-0.2,0-0.4,0-0.7,0.1C18.4,16.5,18.6,17.3,18.7,18z M3,17.7C3.8,17.9,4.5,18,5.3,18c0.1-0.7,0.3-1.5,0.6-2.2
		c-0.2-0.1-0.4-0.1-0.7-0.1C4.1,15.8,3.2,16.6,3,17.7z M18.8,12.7c-1.7,0-3-1.3-3-3s1.3-3,3-3s3,1.3,3,3S20.4,12.7,18.8,12.7z
		 M18.8,8.2c-0.8,0-1.5,0.7-1.5,1.5s0.7,1.5,1.5,1.5s1.5-0.7,1.5-1.5S19.6,8.2,18.8,8.2z M5.2,12.7c-1.7,0-3-1.3-3-3s1.3-3,3-3
		s3,1.3,3,3S6.9,12.7,5.2,12.7z M5.2,8.2c-0.8,0-1.5,0.7-1.5,1.5s0.7,1.5,1.5,1.5s1.5-0.7,1.5-1.5S6.1,8.2,5.2,8.2z M12,10.5
		c-2.1,0-3.8-1.7-3.8-3.8S9.9,3,12,3c2.1,0,3.8,1.7,3.8,3.7S14.1,10.5,12,10.5z M12,4.5c-1.2,0-2.2,1-2.2,2.2S10.8,9,12,9
		c1.2,0,2.2-1,2.2-2.3S13.2,4.5,12,4.5z"/>
</g>
</svg>
