<?xml version="1.0" encoding="utf-8"?>
<!-- Generator: Adobe Illustrator 28.4.1, SVG Export Plug-In . SVG Version: 6.00 Build 0)  -->
<svg version="1.1" id="Layer_1" xmlns="http://www.w3.org/2000/svg" xmlns:xlink="http://www.w3.org/1999/xlink" x="0px" y="0px"
	 viewBox="0 0 24 24" style="enable-background:new 0 0 24 24;" xml:space="preserve">
<style type="text/css">
	.st0{fill:#0F172A;}
</style>
<g>
	<path class="st0" d="M10.5,20.3c-0.2,0-0.4-0.1-0.5-0.2l-7.5-7.5c0,0,0,0,0,0c0,0,0,0,0,0c0,0,0,0,0,0c0,0,0,0,0,0l0,0c0,0,0,0,0,0
		c0,0,0,0,0,0c0,0,0,0,0,0c0,0,0,0,0,0l0,0c0,0,0,0,0,0c0,0,0,0,0,0c-0.1-0.1-0.1-0.1-0.2-0.2S2.3,12.1,2.2,12v0c0,0,0,0,0,0
		c0,0,0,0,0,0c0,0,0,0,0,0c0,0,0,0,0,0c0,0,0,0,0,0v0c0-0.1,0-0.2,0.1-0.3c0-0.1,0.1-0.1,0.1-0.2l0,0c0,0,0,0,0,0c0,0,0,0,0,0
		c0,0,0,0,0,0l0,0c0,0,0,0,0,0c0,0,0,0,0,0c0,0,0,0,0,0c0,0,0,0,0,0c0,0,0,0,0,0c0,0,0,0,0,0c0,0,0,0,0,0c0,0,0,0,0,0c0,0,0,0,0,0
		c0,0,0,0,0,0c0,0,0,0,0,0c0,0,0,0,0,0c0,0,0,0,0,0l0,0c0,0,0,0,0,0l0,0c0,0,0,0,0,0c0,0,0,0,0,0v0c0,0,0,0,0,0l0,0c0,0,0,0,0,0l0,0
		c0,0,0,0,0,0l0,0c0,0,0,0,0,0h0c0,0,0,0,0,0l0,0c0,0,0,0,0,0c0,0,0,0,0,0v0c0,0,0,0,0,0c0,0,0,0,0,0c0,0,0,0,0,0c0,0,0,0,0,0l0,0
		c0,0,0,0,0,0c0,0,0,0,0,0s0,0,0,0c0,0,0,0,0,0L10,4c0.3-0.3,0.8-0.3,1.1,0s0.3,0.8,0,1.1l-6.2,6.2H21c0.4,0,0.8,0.3,0.8,0.8
		s-0.3,0.8-0.8,0.8H4.8L11,19c0.3,0.3,0.3,0.8,0,1.1C10.9,20.2,10.7,20.3,10.5,20.3z"/>
</g>
</svg>
