<?xml version="1.0" encoding="utf-8"?>
<!-- Generator: Adobe Illustrator 28.4.1, SVG Export Plug-In . SVG Version: 6.00 Build 0)  -->
<svg version="1.1" id="Layer_1" xmlns="http://www.w3.org/2000/svg" xmlns:xlink="http://www.w3.org/1999/xlink" x="0px" y="0px"
	 viewBox="0 0 24 24" style="enable-background:new 0 0 24 24;" xml:space="preserve">
<style type="text/css">
	.st0{fill:#0F172A;}
</style>
<g>
	<path class="st0" d="M19.5,22.5c-0.1,0-0.2,0-0.3-0.1l-3.5-1.4l-3.5,1.4c-0.2,0.1-0.4,0.1-0.6,0l-3.5-1.4l-3.5,1.4
		c-0.2,0.1-0.5,0.1-0.7-0.1c-0.2-0.1-0.3-0.4-0.3-0.6v-17c0-1.5,1.1-2.8,2.6-2.9c3.7-0.4,7.6-0.4,11.4,0c1.5,0.2,2.6,1.4,2.6,2.9v17
		c0,0.2-0.1,0.5-0.3,0.6C19.8,22.5,19.6,22.5,19.5,22.5z M8.2,19.5c0.1,0,0.2,0,0.3,0.1l3.5,1.4l3.5-1.4c0.2-0.1,0.4-0.1,0.6,0
		l2.7,1.1V4.8c0-0.7-0.5-1.4-1.2-1.4c-3.6-0.4-7.4-0.4-11,0C5.8,3.4,5.2,4,5.2,4.8v15.9L8,19.6C8.1,19.5,8.2,19.5,8.2,19.5z
		 M13.1,15.8H12c-0.4,0-0.8-0.3-0.8-0.8s0.3-0.8,0.8-0.8h1.1c1,0,1.9-0.8,1.9-1.9s-0.8-1.9-1.9-1.9h-3.1l1,1c0.3,0.3,0.3,0.8,0,1.1
		s-0.8,0.3-1.1,0l-2.2-2.2c0,0,0,0,0,0c0,0,0,0,0,0c0,0,0,0,0,0l0,0c0,0,0,0,0,0l0,0c-0.1-0.1-0.1-0.1-0.2-0.2c0,0,0,0,0,0
		c0,0,0,0,0,0c0-0.1-0.1-0.2-0.1-0.3s0-0.2,0.1-0.3c0-0.1,0.1-0.2,0.2-0.2L10,7c0.3-0.3,0.8-0.3,1.1,0s0.3,0.8,0,1.1l-1,1h3.1
		c1.9,0,3.4,1.5,3.4,3.4S15,15.8,13.1,15.8z"/>
</g>
</svg>
