<?xml version="1.0" encoding="utf-8"?>
<!-- Generator: Adobe Illustrator 28.4.1, SVG Export Plug-In . SVG Version: 6.00 Build 0)  -->
<svg version="1.1" id="Layer_1" xmlns="http://www.w3.org/2000/svg" xmlns:xlink="http://www.w3.org/1999/xlink" x="0px" y="0px"
	 viewBox="0 0 24 25" style="enable-background:new 0 0 24 25;" xml:space="preserve">
<style type="text/css">
	.st0{fill:#0F172A;}
</style>
<g>
	<path class="st0" d="M15.8,21.8H5.2c-1.7,0-3-1.3-3-3V8.3c0-1.7,1.3-3,3-3H10c0.4,0,0.8,0.3,0.8,0.8S10.4,6.8,10,6.8H5.2
		c-0.8,0-1.5,0.7-1.5,1.5v10.5c0,0.8,0.7,1.5,1.5,1.5h10.5c0.8,0,1.5-0.7,1.5-1.5V14c0-0.4,0.3-0.8,0.8-0.8s0.8,0.3,0.8,0.8v4.7
		C18.8,20.4,17.4,21.8,15.8,21.8z M6,18.8c-0.2,0-0.4-0.1-0.5-0.2c-0.2-0.2-0.3-0.5-0.2-0.7l0.8-2.7c0.2-0.8,0.7-1.6,1.3-2.2L16.3,4
		l0,0l0,0l0,0L18,2.3c1-1,2.7-1,3.7,0c1,1,1,2.7,0,3.7L11.1,16.6c-0.6,0.6-1.4,1.1-2.2,1.3l-2.7,0.8C6.1,18.8,6.1,18.8,6,18.8z
		 M16.9,5.6L8.5,14c-0.4,0.4-0.8,1-0.9,1.6l-0.4,1.4l1.4-0.4c0.6-0.2,1.1-0.5,1.6-0.9l8.4-8.4L16.9,5.6z M17.9,4.5l1.6,1.6l1.2-1.2
		c0.4-0.4,0.4-1.2,0-1.6c-0.4-0.4-1.2-0.4-1.6,0L17.9,4.5z"/>
</g>
</svg>
