<?xml version="1.0" encoding="utf-8"?>
<!-- Generator: Adobe Illustrator 28.4.1, SVG Export Plug-In . SVG Version: 6.00 Build 0)  -->
<svg version="1.1" id="Layer_1" xmlns="http://www.w3.org/2000/svg" xmlns:xlink="http://www.w3.org/1999/xlink" x="0px" y="0px"
	 viewBox="0 0 24 24" style="enable-background:new 0 0 24 24;" xml:space="preserve">
<style type="text/css">
	.st0{fill:#0F172A;}
</style>
<g>
	<path class="st0" d="M12,21.7c-5,0-9-4-9-9c0-2.3,0.9-4.5,2.5-6.2c0.2-0.2,0.4-0.2,0.6-0.2c0.2,0,0.4,0.1,0.6,0.3
		c0.5,0.7,1.1,1.2,1.7,1.7c0.4-2.4,1.6-4.6,3.5-6.2C12.1,2,12.3,2,12.5,2c0.2,0,0.4,0.1,0.5,0.3c0.7,1,1.6,1.7,2.7,2.2
		C18.9,6,21,9.2,21,12.7C21,17.7,17,21.7,12,21.7z M6,8.2c-1,1.3-1.5,2.9-1.5,4.5c0,4.1,3.4,7.5,7.5,7.5s7.5-3.4,7.5-7.5
		c0-3-1.7-5.6-4.4-6.9c0,0,0,0,0,0c-1-0.5-2-1.2-2.8-2.1c-1.6,1.5-2.5,3.6-2.5,5.8c0,0.3-0.1,0.5-0.4,0.6c-0.2,0.1-0.5,0.1-0.7,0
		C7.7,9.8,6.8,9.1,6,8.2z"/>
</g>
<g>
	<path class="st0" d="M12,18.8c-2.5,0-4.5-2-4.5-4.5c0-0.5,0.1-1,0.2-1.4c0.1-0.2,0.3-0.4,0.5-0.5c0.2-0.1,0.5,0,0.7,0.1
		c0.4,0.3,0.7,0.5,1.1,0.6c0.4-1.2,1-2.3,2-3.1c0.2-0.1,0.4-0.2,0.6-0.2c2.2,0.3,3.9,2.2,3.9,4.5C16.5,16.7,14.5,18.8,12,18.8z
		 M9,14.3c0,1.6,1.4,3,3,3c1.7,0,3-1.3,3-3c0-1.4-1-2.6-2.3-2.9c-0.8,0.8-1.3,1.8-1.4,2.9c0,0.2-0.1,0.4-0.3,0.5
		c-0.2,0.1-0.4,0.2-0.6,0.1C9.9,14.7,9.4,14.5,9,14.3z"/>
</g>
</svg>
