<?xml version="1.0" encoding="utf-8"?>
<!-- Generator: Adobe Illustrator 28.4.1, SVG Export Plug-In . SVG Version: 6.00 Build 0)  -->
<svg version="1.1" id="Layer_1" xmlns="http://www.w3.org/2000/svg" xmlns:xlink="http://www.w3.org/1999/xlink" x="0px" y="0px"
	 viewBox="0 0 24 24" style="enable-background:new 0 0 24 24;" xml:space="preserve">
<style type="text/css">
	.st0{fill:#0F172A;}
</style>
<g>
	<path class="st0" d="M9.7,22.5c-0.1,0-0.2,0-0.4-0.1c-0.3-0.2-0.4-0.5-0.4-0.9l1.7-6.1c0.1-0.4,0.5-0.6,0.9-0.5
		c0.4,0.1,0.6,0.5,0.5,0.9L11.3,19l1.7-1.8c0.3-0.3,0.8-0.3,1.1,0c0.3,0.3,0.3,0.8,0,1.1l-3.7,4C10.2,22.4,10,22.5,9.7,22.5z
		 M21,21.8c-0.2,0-0.4-0.1-0.5-0.2L15,16.1c0,0,0,0,0,0L7.9,9c0,0,0,0,0,0L2.5,3.5c-0.3-0.3-0.3-0.8,0-1.1s0.8-0.3,1.1,0l4.9,4.9
		l5.3-5.6c0.2-0.3,0.6-0.3,0.9-0.1c0.3,0.2,0.4,0.5,0.4,0.9l-2,7.3h7.3c0.3,0,0.6,0.2,0.7,0.5s0.1,0.6-0.1,0.8l-4.2,4.5l4.9,4.9
		c0.3,0.3,0.3,0.8,0,1.1C21.4,21.7,21.2,21.8,21,21.8z M12.3,11.2l3.2,3.2l3-3.2H12.3z M9.5,8.4l1.8,1.8L12.7,5L9.5,8.4z M9.3,14.3
		H3.8c-0.3,0-0.6-0.2-0.7-0.5C2.9,13.5,3,13.2,3.2,13l2.7-2.8c0.3-0.3,0.8-0.3,1.1,0c0.3,0.3,0.3,0.8,0,1.1l-1.5,1.6h3.8
		c0.4,0,0.8,0.3,0.8,0.8S9.7,14.3,9.3,14.3z"/>
</g>
</svg>
