<?xml version="1.0" encoding="utf-8"?>
<!-- Generator: Adobe Illustrator 28.4.1, SVG Export Plug-In . SVG Version: 6.00 Build 0)  -->
<svg version="1.1" id="Layer_1" xmlns="http://www.w3.org/2000/svg" xmlns:xlink="http://www.w3.org/1999/xlink" x="0px" y="0px"
	 viewBox="0 0 24 24" style="enable-background:new 0 0 24 24;" xml:space="preserve">
<style type="text/css">
	.st0{fill:#0F172A;}
</style>
<g>
	<path class="st0" d="M18,21H6c-1.7,0-3-1.3-3-3V6c0-1.7,1.3-3,3-3h12c1.7,0,3,1.3,3,3v12C21,19.7,19.7,21,18,21z M6,4.5
		C5.2,4.5,4.5,5.2,4.5,6v12c0,0.8,0.7,1.5,1.5,1.5h12c0.8,0,1.5-0.7,1.5-1.5V6c0-0.8-0.7-1.5-1.5-1.5H6z M16.5,17.3
		c-0.4,0-0.8-0.3-0.8-0.8v-9c0-0.4,0.3-0.8,0.8-0.8s0.8,0.3,0.8,0.8v9C17.2,16.9,16.9,17.3,16.5,17.3z M13.5,17.3
		c-0.4,0-0.8-0.3-0.8-0.8V9.7c0-0.4,0.3-0.8,0.8-0.8s0.8,0.3,0.8,0.8v6.8C14.2,16.9,13.9,17.3,13.5,17.3z M10.5,17.3
		c-0.4,0-0.8-0.3-0.8-0.8V12c0-0.4,0.3-0.8,0.8-0.8s0.8,0.3,0.8,0.8v4.5C11.2,16.9,10.9,17.3,10.5,17.3z M7.5,17.3
		c-0.4,0-0.8-0.3-0.8-0.8v-2.2c0-0.4,0.3-0.8,0.8-0.8s0.8,0.3,0.8,0.8v2.2C8.2,16.9,7.9,17.3,7.5,17.3z"/>
</g>
</svg>
