<?xml version="1.0" encoding="utf-8"?>
<!-- Generator: Adobe Illustrator 28.4.1, SVG Export Plug-In . SVG Version: 6.00 Build 0)  -->
<svg version="1.1" id="Layer_1" xmlns="http://www.w3.org/2000/svg" xmlns:xlink="http://www.w3.org/1999/xlink" x="0px" y="0px"
	 viewBox="0 0 24 24" style="enable-background:new 0 0 24 24;" xml:space="preserve">
<style type="text/css">
	.st0{fill:#0F172A;}
</style>
<g>
	<path class="st0" d="M2.2,18.8c-0.2,0-0.4-0.1-0.5-0.2c-0.3-0.3-0.3-0.8,0-1.1l6.8-6.8c0.3-0.3,0.8-0.3,1.1,0l3.6,3.6
		c1.3-2.2,3.3-3.9,5.7-5l1.1-0.5l-4.3-1.6c-0.4-0.1-0.6-0.6-0.4-1c0.1-0.4,0.6-0.6,1-0.4l5.9,2.3c0,0,0,0,0,0c0.1,0,0.1,0.1,0.2,0.1
		l0,0c0,0,0,0,0,0l0,0c0,0,0,0,0,0c0,0,0,0,0,0c0,0,0,0,0,0v0c0,0,0,0,0,0c0.1,0.1,0.1,0.1,0.2,0.2c0,0.1,0.1,0.2,0.1,0.3
		c0,0.1,0,0.2,0,0.3c0,0,0,0,0,0L20.3,15c-0.1,0.4-0.6,0.6-1,0.4c-0.4-0.1-0.6-0.6-0.4-1l1.6-4.3l-1.1,0.5c-2.4,1-4.3,2.9-5.4,5.2
		c-0.1,0.2-0.3,0.4-0.6,0.4c-0.2,0-0.5,0-0.6-0.2L9,12.3l-6.2,6.2C2.6,18.7,2.4,18.8,2.2,18.8z"/>
</g>
</svg>
