<?xml version="1.0" encoding="utf-8"?>
<!-- Generator: Adobe Illustrator 28.4.1, SVG Export Plug-In . SVG Version: 6.00 Build 0)  -->
<svg version="1.1" id="Layer_1" xmlns="http://www.w3.org/2000/svg" xmlns:xlink="http://www.w3.org/1999/xlink" x="0px" y="0px"
	 viewBox="0 0 24 24" style="enable-background:new 0 0 24 24;" xml:space="preserve">
<style type="text/css">
	.st0{fill:#0F172A;}
</style>
<g>
	<path class="st0" d="M3.8,18.4c-0.6,0-1.1-0.5-1.1-1.1s0.5-1.1,1.1-1.1s1.1,0.5,1.1,1.1S4.4,18.4,3.8,18.4z M20.2,18h-12
		c-0.4,0-0.8-0.3-0.8-0.8s0.3-0.8,0.8-0.8h12c0.4,0,0.8,0.3,0.8,0.8S20.7,18,20.2,18z M3.8,13.1c-0.6,0-1.1-0.5-1.1-1.1
		s0.5-1.1,1.1-1.1s1.1,0.5,1.1,1.1S4.4,13.1,3.8,13.1z M20.2,12.7h-12c-0.4,0-0.8-0.3-0.8-0.8s0.3-0.8,0.8-0.8h12
		c0.4,0,0.8,0.3,0.8,0.8S20.7,12.7,20.2,12.7z M3.8,7.9c-0.6,0-1.1-0.5-1.1-1.1s0.5-1.1,1.1-1.1s1.1,0.5,1.1,1.1S4.4,7.9,3.8,7.9z
		 M20.2,7.5h-12c-0.4,0-0.8-0.3-0.8-0.8S7.8,6,8.2,6h12C20.7,6,21,6.3,21,6.7S20.7,7.5,20.2,7.5z"/>
</g>
</svg>
