<?xml version="1.0" encoding="utf-8"?>
<!-- Generator: Adobe Illustrator 28.4.1, SVG Export Plug-In . SVG Version: 6.00 Build 0)  -->
<svg version="1.1" id="Layer_1" xmlns="http://www.w3.org/2000/svg" xmlns:xlink="http://www.w3.org/1999/xlink" x="0px" y="0px"
	 viewBox="0 0 24 24" style="enable-background:new 0 0 24 24;" xml:space="preserve">
<style type="text/css">
	.st0{fill:#0F172A;}
</style>
<g>
	<path class="st0" d="M17.2,21.8c-0.4,0-0.8-0.3-0.8-0.8V10.8L14,13.3c-0.3,0.3-0.8,0.3-1.1,0s-0.3-0.8,0-1.1l3.8-3.8
		c0.1-0.1,0.2-0.1,0.2-0.2c0.2-0.1,0.4-0.1,0.6,0c0.1,0,0.2,0.1,0.2,0.2l3.8,3.8c0.3,0.3,0.3,0.8,0,1.1s-0.8,0.3-1.1,0L18,10.8V21
		C18,21.4,17.7,21.8,17.2,21.8z M8.2,14.3H3c-0.4,0-0.8-0.3-0.8-0.8s0.3-0.8,0.8-0.8h5.2c0.4,0,0.8,0.3,0.8,0.8S8.7,14.3,8.2,14.3z
		 M12.8,9.7H3C2.6,9.7,2.2,9.4,2.2,9S2.6,8.2,3,8.2h9.8c0.4,0,0.8,0.3,0.8,0.8S13.2,9.7,12.8,9.7z M17.2,5.2H3
		c-0.4,0-0.8-0.3-0.8-0.8S2.6,3.7,3,3.7h14.2c0.4,0,0.8,0.3,0.8,0.7S17.7,5.2,17.2,5.2z"/>
</g>
</svg>
