<?xml version="1.0" encoding="utf-8"?>
<!-- Generator: Adobe Illustrator 28.4.1, SVG Export Plug-In . SVG Version: 6.00 Build 0)  -->
<svg version="1.1" id="Layer_1" xmlns="http://www.w3.org/2000/svg" xmlns:xlink="http://www.w3.org/1999/xlink" x="0px" y="0px"
	 viewBox="0 0 24 24" style="enable-background:new 0 0 24 24;" xml:space="preserve">
<style type="text/css">
	.st0{fill:#0F172A;}
</style>
<g>
	<path class="st0" d="M10.5,21.8c-4.5,0-8.2-3.7-8.2-8.2C2.2,9,6,5.2,10.5,5.2c0.4,0,0.8,0.3,0.8,0.8v6.8H18c0.4,0,0.8,0.3,0.8,0.8
		C18.8,18,15,21.8,10.5,21.8z M9.8,6.8c-3.4,0.4-6,3.2-6,6.7c0,3.7,3,6.7,6.8,6.7c3.5,0,6.3-2.6,6.7-6h-6.7c-0.4,0-0.8-0.3-0.8-0.8
		V6.8z"/>
</g>
<g>
	<path class="st0" d="M21,11.2h-7.5c-0.4,0-0.8-0.3-0.8-0.8V3c0-0.4,0.3-0.8,0.8-0.8c4.5,0,8.2,3.7,8.2,8.2
		C21.8,10.9,21.4,11.2,21,11.2z M14.2,9.7h6c-0.3-3.1-2.8-5.6-6-6V9.7z"/>
</g>
</svg>
