<?xml version="1.0" encoding="utf-8"?>
<!-- Generator: Adobe Illustrator 28.4.1, SVG Export Plug-In . SVG Version: 6.00 Build 0)  -->
<svg version="1.1" id="Layer_1" xmlns="http://www.w3.org/2000/svg" xmlns:xlink="http://www.w3.org/1999/xlink" x="0px" y="0px"
	 viewBox="0 0 24 24" style="enable-background:new 0 0 24 24;" xml:space="preserve">
<style type="text/css">
	.st0{fill:#0F172A;}
</style>
<g>
	<path class="st0" d="M18,21H6c-1.7,0-3-1.3-3-3V6c0-1.7,1.3-3,3-3h12c1.7,0,3,1.3,3,3v12C21,19.7,19.7,21,18,21z M6,4.5
		C5.2,4.5,4.5,5.2,4.5,6v12c0,0.8,0.7,1.5,1.5,1.5h12c0.8,0,1.5-0.7,1.5-1.5V6c0-0.8-0.7-1.5-1.5-1.5H6z M14.2,15
		c-0.2,0-0.4-0.1-0.5-0.2c-0.3-0.3-0.3-0.8,0-1.1l1.7-1.7l-1.7-1.7c-0.3-0.3-0.3-0.8,0-1.1s0.8-0.3,1.1,0l2.2,2.2
		c0.3,0.3,0.3,0.8,0,1.1l-2.2,2.3C14.6,14.9,14.4,15,14.2,15z M9.8,15c-0.2,0-0.4-0.1-0.5-0.2L7,12.5c-0.3-0.3-0.3-0.8,0-1.1
		l2.2-2.2c0.3-0.3,0.8-0.3,1.1,0s0.3,0.8,0,1.1L8.6,12l1.7,1.7c0.3,0.3,0.3,0.8,0,1.1C10.1,14.9,9.9,15,9.8,15z"/>
</g>
</svg>
