<?xml version="1.0" encoding="utf-8"?>
<!-- Generator: Adobe Illustrator 28.4.1, SVG Export Plug-In . SVG Version: 6.00 Build 0)  -->
<svg version="1.1" id="Layer_1" xmlns="http://www.w3.org/2000/svg" xmlns:xlink="http://www.w3.org/1999/xlink" x="0px" y="0px"
	 viewBox="0 0 24 24" style="enable-background:new 0 0 24 24;" xml:space="preserve">
<style type="text/css">
	.st0{fill:#0F172A;}
</style>
<g>
	<path class="st0" d="M18,21H6c-0.4,0-0.8-0.3-0.8-0.8s0.3-0.8,0.8-0.8h3.8V18H3.4c-1,0-1.9-0.8-1.9-1.9V4.9c0-1,0.8-1.9,1.9-1.9
		h17.2c1,0,1.9,0.8,1.9,1.9v11.3c0,1-0.8,1.9-1.9,1.9h-6.4v1.5H18c0.4,0,0.8,0.3,0.8,0.8S18.4,21,18,21z M11.2,19.5h1.5V18h-1.5
		V19.5z M3.4,4.5C3.2,4.5,3,4.7,3,4.9v11.3c0,0.2,0.2,0.4,0.4,0.4h17.2c0.2,0,0.4-0.2,0.4-0.4V4.9c0-0.2-0.2-0.4-0.4-0.4H3.4z"/>
</g>
</svg>
