<?xml version="1.0" encoding="utf-8"?>
<!-- Generator: Adobe Illustrator 28.4.1, SVG Export Plug-In . SVG Version: 6.00 Build 0)  -->
<svg version="1.1" id="Layer_1" xmlns="http://www.w3.org/2000/svg" xmlns:xlink="http://www.w3.org/1999/xlink" x="0px" y="0px"
	 viewBox="0 0 24 24" style="enable-background:new 0 0 24 24;" xml:space="preserve">
<style type="text/css">
	.st0{fill:#0F172A;}
</style>
<g>
	<path class="st0" d="M18,21h-7.5c-1.7,0-3-1.3-3-3v-0.8H6c-1.7,0-3-1.3-3-3V6c0-1.7,1.3-3,3-3h8.2c1.7,0,3,1.3,3,3v1.5H18
		c1.7,0,3,1.3,3,3V18C21,19.7,19.7,21,18,21z M9,16.5V18c0,0.8,0.7,1.5,1.5,1.5H18c0.8,0,1.5-0.7,1.5-1.5v-7.5C19.5,9.7,18.8,9,18,9
		h-7.5C9.7,9,9,9.7,9,10.5V16.5z M6,4.5C5.2,4.5,4.5,5.2,4.5,6v8.3c0,0.8,0.7,1.5,1.5,1.5h1.5v-5.3c0-1.7,1.3-3,3-3h5.2V6
		c0-0.8-0.7-1.5-1.5-1.5H6z"/>
</g>
</svg>
