<?xml version="1.0" encoding="utf-8"?>
<!-- Generator: Adobe Illustrator 28.4.1, SVG Export Plug-In . SVG Version: 6.00 Build 0)  -->
<svg version="1.1" id="Layer_1" xmlns="http://www.w3.org/2000/svg" xmlns:xlink="http://www.w3.org/1999/xlink" x="0px" y="0px"
	 viewBox="0 0 24 25" style="enable-background:new 0 0 24 25;" xml:space="preserve">
<style type="text/css">
	.st0{fill:#0F172A;}
</style>
<g>
	<path class="st0" d="M12,21.8c-5.4,0-9.8-4.4-9.8-9.8c0-5.4,4.4-9.8,9.8-9.8s9.8,4.4,9.8,9.8C21.8,17.4,17.4,21.8,12,21.8z M12,3.8
		c-4.5,0-8.2,3.7-8.2,8.2c0,4.5,3.7,8.3,8.2,8.3s8.2-3.7,8.2-8.3C20.2,7.5,16.5,3.8,12,3.8z M14.2,15.8c-0.4,0-0.8-0.3-0.8-0.8V9
		c0-0.4,0.3-0.8,0.8-0.8S15,8.6,15,9v6C15,15.4,14.7,15.8,14.2,15.8z M9.8,15.8C9.3,15.8,9,15.4,9,15V9c0-0.4,0.3-0.8,0.8-0.8
		s0.8,0.3,0.8,0.8v6C10.5,15.4,10.2,15.8,9.8,15.8z"/>
</g>
</svg>
