<?xml version="1.0" encoding="utf-8"?>
<!-- Generator: Adobe Illustrator 28.4.1, SVG Export Plug-In . SVG Version: 6.00 Build 0)  -->
<svg version="1.1" id="Layer_1" xmlns="http://www.w3.org/2000/svg" xmlns:xlink="http://www.w3.org/1999/xlink" x="0px" y="0px"
	 viewBox="0 0 24 25" style="enable-background:new 0 0 24 25;" xml:space="preserve">
<style type="text/css">
	.st0{fill:#0F172A;}
</style>
<g>
	<path class="st0" d="M5.2,22.5c-1.9,0-3.6-1-4.6-2.6c-0.1-0.2-0.1-0.5,0-0.8c0.1-0.2,0.4-0.4,0.7-0.4l0.1,0c0.8,0,1.5-0.7,1.5-1.5
		c0-2.1,1.7-3.7,3.8-3.7c0.2,0,0.4,0,0.7,0.1c0.4-1,0.9-2,1.4-2.9c0,0,0,0,0,0c1.3-2,2.9-3.7,4.9-5l5.8-3.9c0.3-0.2,0.7-0.3,1.1-0.3
		c1,0,1.9,0.9,1.9,1.9c0,0.4-0.1,0.7-0.3,1.1l-3.9,5.8c-1.3,2-3,3.6-5,4.9c0,0,0,0,0,0c-0.9,0.6-1.9,1.1-2.9,1.4
		c0,0.2,0.1,0.4,0.1,0.7C10.5,20.2,8.1,22.5,5.2,22.5z M2.7,20c0.7,0.6,1.6,1,2.5,1C7.3,21,9,19.3,9,17.3c0-0.3-0.1-0.6-0.2-0.9
		c0,0,0,0,0,0c-0.2-0.5-0.6-1-1.1-1.2c0,0,0,0-0.1,0c0,0-0.1,0-0.1-0.1C7.3,15.1,7,15,6.8,15c-1.2,0-2.2,1-2.2,2.2
		C4.5,18.5,3.8,19.6,2.7,20z M8.8,14.1c0.4,0.3,0.8,0.6,1.1,1.1c0.7-0.3,1.4-0.6,2-1c-0.5-0.9-1.3-1.6-2.2-2.2
		C9.4,12.7,9.1,13.4,8.8,14.1z M10.6,10.8c1.1,0.6,2,1.5,2.6,2.6c1.5-1.1,2.8-2.4,3.9-4l3.9-5.8C21,3.6,21,3.5,21,3.4
		c0-0.3-0.4-0.5-0.6-0.3L14.6,7C13,8,11.7,9.3,10.6,10.8z"/>
</g>
</svg>
