<?xml version="1.0" encoding="utf-8"?>
<!-- Generator: Adobe Illustrator 28.4.1, SVG Export Plug-In . SVG Version: 6.00 Build 0)  -->
<svg version="1.1" id="Layer_1" xmlns="http://www.w3.org/2000/svg" xmlns:xlink="http://www.w3.org/1999/xlink" x="0px" y="0px"
	 viewBox="0 0 24 24" style="enable-background:new 0 0 24 24;" xml:space="preserve">
<style type="text/css">
	.st0{fill:#0F172A;}
</style>
<g>
	<path class="st0" d="M12,21.7c-1.8,0-3.5-0.5-5.1-1.4c0,0,0,0,0,0c-0.6-0.4-1.2-0.9-1.8-1.4c-0.5-0.5-1-1.1-1.4-1.8c0,0,0,0,0,0
		C1.8,14,1.8,10,3.7,6.9c0,0,0,0,0,0c0.4-0.6,0.9-1.2,1.4-1.8c0.5-0.5,1.1-1,1.8-1.4c0,0,0,0,0,0c3.1-1.9,7.1-1.9,10.2,0
		c0,0,0,0,0,0c0.6,0.4,1.2,0.9,1.8,1.4c0.5,0.5,1,1.1,1.4,1.8c0,0,0,0,0,0c1.9,3.1,1.9,7.1,0,10.2c0,0,0,0,0,0
		c-0.4,0.6-0.9,1.2-1.4,1.8c-0.5,0.5-1.1,1-1.8,1.4c0,0,0,0,0,0C15.5,21.3,13.8,21.7,12,21.7z M8.4,19.4c2.2,1.1,4.9,1.1,7.1,0
		L13,16.4c-0.7,0.1-1.3,0.1-2,0L8.4,19.4z M14.4,15.8l2.4,2.9c0.3-0.3,0.7-0.5,1-0.8c0.3-0.3,0.6-0.6,0.8-1l-2.9-2.4
		c-0.2,0.3-0.4,0.5-0.6,0.7S14.7,15.6,14.4,15.8z M5.3,16.9c0.3,0.3,0.5,0.7,0.8,1c0.3,0.3,0.6,0.6,1,0.8l2.4-2.9
		c-0.3-0.2-0.5-0.4-0.7-0.6c-0.2-0.2-0.4-0.5-0.6-0.7L5.3,16.9z M16.4,13l3.1,2.5c1.1-2.2,1.1-4.9,0-7.1L16.4,11
		C16.5,11.7,16.5,12.3,16.4,13z M4.6,8.4c-1.1,2.2-1.1,4.9,0,7.1L7.6,13c-0.1-0.7-0.1-1.3,0-2L4.6,8.4z M11,14.8
		c0.6,0.2,1.4,0.2,2,0c0,0,0,0,0,0c0.4-0.1,0.8-0.4,1.1-0.7c0.3-0.3,0.5-0.7,0.7-1.1c0,0,0,0,0,0c0.2-0.6,0.2-1.3,0-2c0,0,0,0,0,0
		c-0.1-0.4-0.4-0.8-0.7-1.1c-0.3-0.3-0.7-0.5-1.1-0.7c0,0,0,0,0,0c-0.6-0.2-1.4-0.2-2,0c0,0,0,0,0,0c-0.4,0.1-0.8,0.4-1.1,0.7
		c-0.3,0.3-0.5,0.7-0.7,1.1c0,0,0,0,0,0c-0.2,0.6-0.2,1.4,0,2c0,0,0,0,0,0c0.2,0.4,0.4,0.8,0.7,1.1C10.2,14.4,10.6,14.7,11,14.8
		C11,14.8,11,14.8,11,14.8z M5.3,7.1l2.9,2.4C8.4,9.3,8.6,9,8.8,8.8C9,8.6,9.3,8.4,9.6,8.2L7.1,5.3c-0.3,0.3-0.7,0.5-1,0.8
		C5.9,6.5,5.6,6.8,5.3,7.1z M14.4,8.2c0.3,0.2,0.5,0.4,0.7,0.6c0.2,0.2,0.4,0.5,0.6,0.7l2.9-2.4c-0.3-0.3-0.5-0.7-0.8-1
		c-0.3-0.3-0.6-0.6-1-0.8L14.4,8.2z M8.4,4.6L11,7.6c0.7-0.1,1.3-0.1,2,0l2.5-3.1C13.3,3.5,10.7,3.5,8.4,4.6z"/>
</g>
</svg>
