<?xml version="1.0" encoding="utf-8"?>
<!-- Generator: Adobe Illustrator 28.4.1, SVG Export Plug-In . SVG Version: 6.00 Build 0)  -->
<svg version="1.1" id="Layer_1" xmlns="http://www.w3.org/2000/svg" xmlns:xlink="http://www.w3.org/1999/xlink" x="0px" y="0px"
	 viewBox="0 0 24 24" style="enable-background:new 0 0 24 24;" xml:space="preserve">
<style type="text/css">
	.st0{fill:#0F172A;}
</style>
<g>
	<path class="st0" d="M8.2,21.8c-0.1,0-0.2,0-0.3-0.1c-0.3-0.1-0.5-0.4-0.5-0.7v-4c-0.9-0.1-1.8-0.2-2.7-0.3c-1.9-0.3-3.3-2-3.3-4
		v-6c0-2,1.4-3.7,3.3-4c4.7-0.7,9.6-0.7,14.3,0c1.9,0.3,3.3,2,3.3,4v6c0,2-1.4,3.7-3.3,4c-1.9,0.3-3.9,0.5-5.9,0.5
		c-0.1,0-0.2,0-0.3,0.1l-4.2,4.2C8.6,21.7,8.4,21.8,8.2,21.8z M12,3.7c-2.3,0-4.7,0.2-6.9,0.5C3.9,4.4,3,5.5,3,6.7v6
		c0,1.3,0.9,2.3,2.1,2.5c1.1,0.2,2.2,0.3,3.2,0.4C8.7,15.6,9,16,9,16.4v2.8l2.9-2.9c0.3-0.3,0.8-0.5,1.3-0.6c1.9,0,3.9-0.2,5.7-0.5
		c1.2-0.2,2.1-1.2,2.1-2.5v-6c0-1.3-0.9-2.3-2.1-2.5C16.7,3.9,14.3,3.7,12,3.7z M15.8,10.9c-0.6,0-1.1-0.5-1.1-1.1s0.5-1.1,1.1-1.1
		s1.1,0.5,1.1,1.1S16.4,10.9,15.8,10.9z M12,10.9c-0.6,0-1.1-0.5-1.1-1.1s0.5-1.1,1.1-1.1s1.1,0.5,1.1,1.1S12.6,10.9,12,10.9z
		 M8.2,10.9c-0.6,0-1.1-0.5-1.1-1.1s0.5-1.1,1.1-1.1s1.1,0.5,1.1,1.1S8.9,10.9,8.2,10.9z"/>
</g>
</svg>
