<?xml version="1.0" encoding="utf-8"?>
<!-- Generator: Adobe Illustrator 28.4.1, SVG Export Plug-In . SVG Version: 6.00 Build 0)  -->
<svg version="1.1" id="Layer_1" xmlns="http://www.w3.org/2000/svg" xmlns:xlink="http://www.w3.org/1999/xlink" x="0px" y="0px"
	 viewBox="0 0 24 24" style="enable-background:new 0 0 24 24;" xml:space="preserve">
<style type="text/css">
	.st0{fill:#0F172A;}
</style>
<g>
	<path class="st0" d="M15.9,22.5H8.1c-1.6,0-2.9-1.2-3-2.8l-1-13.1c-0.1,0-0.1,0-0.2,0C3.5,6.8,3.1,6.5,3,6.1
		C2.9,5.7,3.2,5.3,3.6,5.2c0.3-0.1,0.7-0.1,1-0.2c0,0,0,0,0,0c0.9-0.1,1.9-0.3,2.8-0.3V4.5c0-1.6,1.2-2.9,2.8-3c1.1,0,2.3,0,3.4,0
		c1.6,0.1,2.8,1.3,2.8,3v0.2c0.9,0.1,1.9,0.2,2.8,0.3c0,0,0,0,0,0c0.3,0.1,0.7,0.1,1,0.2c0.4,0.1,0.7,0.5,0.6,0.9
		c-0.1,0.4-0.5,0.7-0.9,0.6c-0.1,0-0.1,0-0.2,0l-1,13.1C18.8,21.3,17.5,22.5,15.9,22.5z M5.6,6.4l1,13.2C6.6,20.4,7.3,21,8.1,21h7.8
		c0.8,0,1.4-0.6,1.5-1.4l1-13.2c-0.9-0.1-1.8-0.2-2.7-0.3c0,0,0,0,0,0C13.2,6,10.8,6,8.3,6.1c0,0,0,0,0,0C7.4,6.2,6.5,6.3,5.6,6.4z
		 M12,4.5c1,0,2,0,3,0.1V4.5c0-0.8-0.6-1.4-1.4-1.5c-1.1,0-2.2,0-3.3,0C9.6,3.1,9,3.7,9,4.5v0.1C10,4.5,11,4.5,12,4.5z M9.6,18.8
		c-0.4,0-0.7-0.3-0.7-0.7L8.5,9c0-0.4,0.3-0.8,0.7-0.8C9.6,8.2,10,8.6,10,9l0.3,9C10.4,18.4,10,18.7,9.6,18.8
		C9.6,18.8,9.6,18.8,9.6,18.8z M14.4,18.8C14.4,18.8,14.4,18.8,14.4,18.8c-0.4,0-0.8-0.4-0.8-0.8L14,9c0-0.4,0.4-0.7,0.8-0.7
		c0.4,0,0.7,0.4,0.7,0.8l-0.3,9C15.1,18.4,14.8,18.8,14.4,18.8z"/>
</g>
</svg>
