<?xml version="1.0" encoding="utf-8"?>
<!-- Generator: Adobe Illustrator 28.4.1, SVG Export Plug-In . SVG Version: 6.00 Build 0)  -->
<svg version="1.1" id="Layer_1" xmlns="http://www.w3.org/2000/svg" xmlns:xlink="http://www.w3.org/1999/xlink" x="0px" y="0px"
	 viewBox="0 0 24 25" style="enable-background:new 0 0 24 25;" xml:space="preserve">
<style type="text/css">
	.st0{fill:#0F172A;}
</style>
<g>
	<path class="st0" d="M12.8,21.8C7,21.8,2.2,17.1,2.2,11.3c0-4.3,2.5-8.1,6.5-9.7C9,1.5,9.3,1.5,9.5,1.7C9.7,2,9.8,2.3,9.7,2.6
		C9.2,3.7,9,4.8,9,6c0,5,4,9,9,9c1.2,0,2.4-0.2,3.5-0.7c0.3-0.1,0.6-0.1,0.8,0.2c0.2,0.2,0.3,0.5,0.2,0.8
		C20.8,19.2,17,21.8,12.8,21.8z M7.7,3.8c-2.5,1.6-4,4.4-4,7.5c0,5,4,9,9,9c3,0,5.8-1.5,7.5-4c-0.7,0.2-1.5,0.2-2.2,0.2
		C12.2,16.5,7.5,11.8,7.5,6C7.5,5.3,7.6,4.5,7.7,3.8z"/>
</g>
</svg>
