<?xml version="1.0" encoding="utf-8"?>
<!-- Generator: Adobe Illustrator 28.4.1, SVG Export Plug-In . SVG Version: 6.00 Build 0)  -->
<svg version="1.1" id="Layer_1" xmlns="http://www.w3.org/2000/svg" xmlns:xlink="http://www.w3.org/1999/xlink" x="0px" y="0px"
	 viewBox="0 0 24 24" style="enable-background:new 0 0 24 24;" xml:space="preserve">
<style type="text/css">
	.st0{fill:#0F172A;}
</style>
<g>
	<path class="st0" d="M20.2,20.3H3.8c-0.4,0-0.8-0.3-0.8-0.8s0.3-0.8,0.8-0.8h16.5c0.4,0,0.8,0.3,0.8,0.8S20.7,20.3,20.2,20.3z
		 M20.2,16.5H3.8c-0.4,0-0.8-0.3-0.8-0.7C3,15.3,3.3,15,3.8,15h16.5c0.4,0,0.8,0.3,0.8,0.8C21,16.2,20.7,16.5,20.2,16.5z M20.2,12.7
		H3.8C3.3,12.7,3,12.4,3,12s0.3-0.8,0.8-0.8h16.5c0.4,0,0.8,0.3,0.8,0.8S20.7,12.7,20.2,12.7z M18.4,9H5.6C4.2,9,3,7.8,3,6.4
		s1.2-2.6,2.6-2.6h12.8c1.4,0,2.6,1.2,2.6,2.6S19.8,9,18.4,9z M5.6,5.2C5,5.2,4.5,5.8,4.5,6.4S5,7.5,5.6,7.5h12.8
		c0.6,0,1.1-0.5,1.1-1.1S19,5.2,18.4,5.2H5.6z"/>
</g>
</svg>
