<?xml version="1.0" encoding="utf-8"?>
<!-- Generator: Adobe Illustrator 28.4.1, SVG Export Plug-In . SVG Version: 6.00 Build 0)  -->
<svg version="1.1" id="Layer_1" xmlns="http://www.w3.org/2000/svg" xmlns:xlink="http://www.w3.org/1999/xlink" x="0px" y="0px"
	 viewBox="0 0 24 24" style="enable-background:new 0 0 24 24;" xml:space="preserve">
<style type="text/css">
	.st0{fill:#0F172A;}
</style>
<g>
	<path class="st0" d="M19.5,21h-15c-1.7,0-3-1.3-3-3V6c0-1.7,1.3-3,3-3h5.4c0.6,0,1.2,0.2,1.6,0.7l2.1,2.1c0,0,0,0,0,0
		C13.7,5.9,13.9,6,14.1,6h5.4c1.7,0,3,1.3,3,3v9C22.5,19.7,21.2,21,19.5,21z M4.5,4.5C3.7,4.5,3,5.2,3,6v12c0,0.8,0.7,1.5,1.5,1.5
		h15c0.8,0,1.5-0.7,1.5-1.5V9c0-0.8-0.7-1.5-1.5-1.5h-5.4c-0.6,0-1.2-0.2-1.6-0.7l-2.1-2.1c-0.1-0.1-0.3-0.2-0.5-0.2H4.5z M12,17.3
		c-0.1,0-0.2,0-0.3-0.1c-0.1,0-0.2-0.1-0.2-0.2l-3-3c-0.3-0.3-0.3-0.8,0-1.1s0.8-0.3,1.1,0l1.7,1.7v-4.2c0-0.4,0.3-0.8,0.8-0.8
		s0.8,0.3,0.8,0.8v4.2l1.7-1.7c0.3-0.3,0.8-0.3,1.1,0s0.3,0.8,0,1.1l-3,3c-0.1,0.1-0.2,0.1-0.2,0.2C12.2,17.2,12.1,17.3,12,17.3z"/>
</g>
</svg>
