<?xml version="1.0" encoding="utf-8"?>
<!-- Generator: Adobe Illustrator 28.4.1, SVG Export Plug-In . SVG Version: 6.00 Build 0)  -->
<svg version="1.1" id="Layer_1" xmlns="http://www.w3.org/2000/svg" xmlns:xlink="http://www.w3.org/1999/xlink" x="0px" y="0px"
	 viewBox="0 0 24 25" style="enable-background:new 0 0 24 25;" xml:space="preserve">
<style type="text/css">
	.st0{clip-path:url(#SVGID_00000153677107409431998260000002380382909736438968_);}
	.st1{fill:#0F172A;}
</style>
<g>
	<defs>
		<rect id="SVGID_1_" y="0" width="24" height="24"/>
	</defs>
	<clipPath id="SVGID_00000176034230994151732020000002372178575477840304_">
		<use xlink:href="#SVGID_1_"  style="overflow:visible;"/>
	</clipPath>
	<g style="clip-path:url(#SVGID_00000176034230994151732020000002372178575477840304_);">
		<g>
			<path class="st1" d="M15.8,23.3H8.2c-0.4,0-0.8-0.3-0.8-0.8s0.3-0.8,0.8-0.8h3v-2.3c-3.4-0.4-6-3.2-6-6.7v-1.5
				c0-0.4,0.3-0.8,0.8-0.8s0.8,0.3,0.8,0.8v1.5c0,2.9,2.4,5.3,5.2,5.3c2.9,0,5.2-2.4,5.2-5.3v-1.5c0-0.4,0.3-0.8,0.8-0.8
				s0.8,0.3,0.8,0.8v1.5c0,3.5-2.6,6.3-6,6.7v2.3h3c0.4,0,0.8,0.3,0.8,0.8S16.2,23.3,15.8,23.3z M12,16.5c-2.1,0-3.8-1.7-3.8-3.8
				V4.5c0-2.1,1.7-3.8,3.8-3.8c2.1,0,3.8,1.7,3.8,3.8v8.2C15.8,14.8,14.1,16.5,12,16.5z M12,2.3c-1.2,0-2.2,1-2.2,2.2v8.2
				c0,1.2,1,2.3,2.2,2.3c1.2,0,2.2-1,2.2-2.3V4.5C14.2,3.3,13.2,2.3,12,2.3z"/>
		</g>
	</g>
</g>
</svg>
