<?xml version="1.0" encoding="utf-8"?>
<!-- Generator: Adobe Illustrator 28.4.1, SVG Export Plug-In . SVG Version: 6.00 Build 0)  -->
<svg version="1.1" id="Layer_1" xmlns="http://www.w3.org/2000/svg" xmlns:xlink="http://www.w3.org/1999/xlink" x="0px" y="0px"
	 viewBox="0 0 24 24" style="enable-background:new 0 0 24 24;" xml:space="preserve">
<style type="text/css">
	.st0{fill:#0F172A;}
</style>
<g>
	<path class="st0" d="M19.5,20.3c-0.4,0-0.8-0.3-0.8-0.8v-0.8c0-7.4-6.1-13.5-13.5-13.5H4.5c-0.4,0-0.8-0.3-0.8-0.8s0.3-0.7,0.8-0.7
		h0.8c8.3,0,15,6.7,15,15v0.8C20.2,19.9,19.9,20.3,19.5,20.3z M12.8,20.3c-0.4,0-0.8-0.3-0.8-0.8v-0.8C12,15,9,12,5.2,12H4.5
		c-0.4,0-0.8-0.3-0.8-0.8s0.3-0.8,0.8-0.8h0.8c4.5,0,8.2,3.7,8.2,8.3v0.8C13.5,19.9,13.2,20.3,12.8,20.3z M5.2,20.3
		c-0.8,0-1.5-0.7-1.5-1.5s0.7-1.5,1.5-1.5s1.5,0.7,1.5,1.5S6.1,20.3,5.2,20.3z M5.2,18.7L5.2,18.7L5.2,18.7z"/>
</g>
</svg>
