<?xml version="1.0" encoding="utf-8"?>
<!-- Generator: Adobe Illustrator 28.4.1, SVG Export Plug-In . SVG Version: 6.00 Build 0)  -->
<svg version="1.1" id="Layer_1" xmlns="http://www.w3.org/2000/svg" xmlns:xlink="http://www.w3.org/1999/xlink" x="0px" y="0px"
	 viewBox="0 0 24 24" style="enable-background:new 0 0 24 24;" xml:space="preserve">
<style type="text/css">
	.st0{fill:#0F172A;}
</style>
<g>
	<path class="st0" d="M16.5,19.5h-9c-1.7,0-3-1.3-3-3v-9c0-1.7,1.3-3,3-3h9c1.7,0,3,1.3,3,3v9C19.5,18.2,18.2,19.5,16.5,19.5z
		 M7.5,6C6.7,6,6,6.7,6,7.5v9C6,17.3,6.7,18,7.5,18h9c0.8,0,1.5-0.7,1.5-1.5v-9C18,6.7,17.3,6,16.5,6H7.5z"/>
</g>
</svg>
