<?xml version="1.0" encoding="utf-8"?>
<!-- Generator: Adobe Illustrator 28.4.1, SVG Export Plug-In . SVG Version: 6.00 Build 0)  -->
<svg version="1.1" id="Layer_1" xmlns="http://www.w3.org/2000/svg" xmlns:xlink="http://www.w3.org/1999/xlink" x="0px" y="0px"
	 viewBox="0 0 24 24" style="enable-background:new 0 0 24 24;" xml:space="preserve">
<style type="text/css">
	.st0{fill:#0F172A;}
</style>
<g>
	<path class="st0" d="M9.6,21.4c-0.2,0-0.4,0-0.6-0.1c-0.5-0.2-0.9-0.5-1.1-1c-0.6-1.3-1-2.6-1.4-3.9c-2.5-0.4-4.4-2.6-4.4-5.2
		C2.2,8.4,4.6,6,7.5,6h0.8c0.7,0,1.3,0,2-0.1c0,0,0,0,0,0c2.8-0.2,5.5-1,8-2.2c-0.1-0.2-0.1-0.3-0.2-0.5c-0.1-0.4,0.1-0.8,0.4-1
		c0.4-0.1,0.8,0.1,1,0.4c0.1,0.4,0.3,0.8,0.4,1.1c0,0,0,0,0,0c0.5,1.7,0.9,3.5,1,5.3c0.5,0.6,0.8,1.3,0.8,2.1s-0.3,1.5-0.8,2.1
		c-0.1,1.8-0.5,3.6-1,5.3c0,0,0,0,0,0c-0.1,0.4-0.2,0.8-0.4,1.1c-0.1,0.4-0.6,0.6-1,0.4c-0.4-0.1-0.6-0.6-0.4-1
		c0.1-0.2,0.1-0.3,0.2-0.5c-2.2-1-4.5-1.7-6.9-2.1c0.2,0.5,0.4,1.1,0.6,1.6c0.4,0.9,0.1,2-0.8,2.5l-0.7,0.4
		C10.3,21.3,10,21.4,9.6,21.4z M8.2,16.5c0.3,1.1,0.7,2.2,1.2,3.2c0,0.1,0.1,0.1,0.2,0.2c0.1,0,0.2,0,0.3,0l0.7-0.4
		c0.2-0.1,0.2-0.3,0.2-0.6c-0.3-0.8-0.6-1.6-0.9-2.4C9.3,16.5,8.8,16.5,8.2,16.5L8.2,16.5z M10.9,15.1c2.7,0.3,5.3,1,7.8,2.2
		c0.4-1.4,0.6-2.9,0.7-4.4l0,0c0,0,0,0,0,0c0-0.6,0.1-1.1,0.1-1.7c0-0.6,0-1.1-0.1-1.7v0c0,0,0,0,0,0l0,0c-0.1-1.5-0.4-3-0.7-4.4
		c-2.5,1.1-5.1,1.9-7.8,2.2c-0.3,1.3-0.4,2.6-0.4,3.9S10.6,13.9,10.9,15.1z M7.5,7.5c-2.1,0-3.8,1.7-3.8,3.8S5.4,15,7.5,15h0.8
		c0.4,0,0.8,0,1.1,0C9.1,13.8,9,12.5,9,11.2s0.1-2.5,0.4-3.8c-0.4,0-0.8,0-1.1,0H7.5z"/>
</g>
</svg>
