<?xml version="1.0" encoding="utf-8"?>
<!-- Generator: Adobe Illustrator 28.4.1, SVG Export Plug-In . SVG Version: 6.00 Build 0)  -->
<svg version="1.1" id="Layer_1" xmlns="http://www.w3.org/2000/svg" xmlns:xlink="http://www.w3.org/1999/xlink" x="0px" y="0px"
	 viewBox="0 0 24 24" style="enable-background:new 0 0 24 24;" xml:space="preserve">
<style type="text/css">
	.st0{fill:#0F172A;}
</style>
<g>
	<path class="st0" d="M18.8,21.8H5.2c-1.7,0-3-1.3-3-3V7.5c0-1.7,1.3-3,3-3H6V3c0-0.4,0.3-0.8,0.8-0.8S7.5,2.6,7.5,3v1.5h9V3
		c0-0.4,0.3-0.8,0.8-0.8S18,2.6,18,3v1.5h0.8c1.7,0,3,1.3,3,3v11.3C21.8,20.4,20.4,21.8,18.8,21.8z M3.8,18.8c0,0.8,0.7,1.5,1.5,1.5
		h13.5c0.8,0,1.5-0.7,1.5-1.5v-7.5c0-0.8-0.7-1.5-1.5-1.5H5.2c-0.8,0-1.5,0.7-1.5,1.5V18.8z M5.2,8.2h13.5c0.5,0,1.1,0.1,1.5,0.4
		V7.5c0-0.8-0.7-1.5-1.5-1.5H5.2C4.4,6,3.8,6.7,3.8,7.5v1.2C4.2,8.4,4.7,8.2,5.2,8.2z"/>
</g>
</svg>
