<?xml version="1.0" encoding="utf-8"?>
<!-- Generator: Adobe Illustrator 28.4.1, SVG Export Plug-In . SVG Version: 6.00 Build 0)  -->
<svg version="1.1" id="Layer_1" xmlns="http://www.w3.org/2000/svg" xmlns:xlink="http://www.w3.org/1999/xlink" x="0px" y="0px"
	 viewBox="0 0 24 24" style="enable-background:new 0 0 24 24;" xml:space="preserve">
<style type="text/css">
	.st0{fill:#0F172A;}
</style>
<g>
	<path class="st0" d="M21.6,21.8H2.4c-0.4,0-0.8-0.3-0.8-0.8s0.3-0.8,0.8-0.8H3V9.8C2.9,9.6,2.7,9.5,2.6,9.4
		C1.9,8.7,1.5,7.8,1.5,6.7s0.4-1.9,1.1-2.7l1.2-1.2c0.4-0.4,1-0.7,1.6-0.7h13.2c0.6,0,1.2,0.2,1.6,0.7l1.2,1.2
		c0.7,0.7,1.1,1.6,1.1,2.7s-0.4,1.9-1.1,2.7c-0.1,0.1-0.3,0.2-0.4,0.3v10.5h0.6c0.4,0,0.8,0.3,0.8,0.8S22.1,21.8,21.6,21.8z
		 M18.8,20.3h0.8v-9.8c-1,0.2-2.1,0-3-0.7c-1.3,1-3.2,1-4.5,0c-1.3,1-3.2,1-4.5,0c-0.9,0.6-2,0.9-3,0.7v9.8h8.2v-6.7
		c0-0.8,0.7-1.5,1.5-1.5h3c0.8,0,1.5,0.7,1.5,1.5V20.3z M14.2,20.3h3v-6.7l-3,0V20.3z M16.5,8c0.2,0,0.4,0.1,0.6,0.3l0.1,0.1
		c0.7,0.7,1.8,0.9,2.7,0.4c0,0,0,0,0,0c0.2-0.1,0.3-0.2,0.5-0.4c0.4-0.4,0.7-1,0.7-1.6s-0.2-1.2-0.7-1.6L19.2,4
		c-0.1-0.1-0.3-0.2-0.5-0.2H5.4C5.2,3.7,5,3.8,4.8,4L3.7,5.2C3.2,5.6,3,6.1,3,6.7s0.2,1.2,0.7,1.6c0.1,0.1,0.3,0.3,0.5,0.4
		c0,0,0,0,0,0c0.9,0.5,2,0.4,2.7-0.4l0.1-0.1C7.1,8.1,7.3,8,7.5,8c0,0,0,0,0,0c0.2,0,0.4,0.1,0.6,0.3c0.9,1,2.5,1,3.4,0
		c0.3-0.3,0.8-0.3,1.1,0c0.9,1,2.5,1,3.4,0C16.1,8.1,16.3,8,16.5,8L16.5,8z M10.5,18.8H6.8c-0.8,0-1.5-0.7-1.5-1.5v-3.7
		c0-0.8,0.7-1.5,1.5-1.5h3.8c0.8,0,1.5,0.7,1.5,1.5v3.7C12,18.1,11.3,18.8,10.5,18.8z M6.8,13.5v3.8h3.8v-3.7L6.8,13.5z"/>
</g>
</svg>
