<?xml version="1.0" encoding="utf-8"?>
<!-- Generator: Adobe Illustrator 28.4.1, SVG Export Plug-In . SVG Version: 6.00 Build 0)  -->
<svg version="1.1" id="Layer_1" xmlns="http://www.w3.org/2000/svg" xmlns:xlink="http://www.w3.org/1999/xlink" x="0px" y="0px"
	 viewBox="0 0 24 24" style="enable-background:new 0 0 24 24;" xml:space="preserve">
<style type="text/css">
	.st0{fill:#0F172A;}
</style>
<g>
	<path class="st0" d="M19.5,20.3L19.5,20.3H8.2c-0.4,0-0.8-0.3-0.8-0.8s0.3-0.8,0.8-0.8h9.4L4,5C3.7,4.7,3.7,4.3,4,4S4.7,3.7,5,4
		l13.7,13.7V8.2c0-0.4,0.3-0.8,0.8-0.8s0.8,0.3,0.8,0.8v11.2c0,0,0,0,0,0l0,0c0,0,0,0,0,0v0c0,0,0,0,0,0c0,0.1,0,0.2-0.1,0.3
		c0,0.1-0.1,0.2-0.2,0.2c-0.1,0.1-0.2,0.1-0.2,0.2h0l0,0C19.7,20.2,19.6,20.2,19.5,20.3C19.5,20.3,19.5,20.3,19.5,20.3L19.5,20.3
		C19.5,20.3,19.5,20.3,19.5,20.3L19.5,20.3C19.5,20.3,19.5,20.3,19.5,20.3z"/>
</g>
</svg>
