<?xml version="1.0" encoding="utf-8"?>
<!-- Generator: Adobe Illustrator 28.4.1, SVG Export Plug-In . SVG Version: 6.00 Build 0)  -->
<svg version="1.1" id="Layer_1" xmlns="http://www.w3.org/2000/svg" xmlns:xlink="http://www.w3.org/1999/xlink" x="0px" y="0px"
	 viewBox="0 0 24 24" style="enable-background:new 0 0 24 24;" xml:space="preserve">
<style type="text/css">
	.st0{fill:#0F172A;}
</style>
<g>
	<path class="st0" d="M19.9,20.3H4.1c-1,0-1.9-0.8-1.9-1.9V5.6c0-1,0.8-1.9,1.9-1.9h15.8c1,0,1.9,0.8,1.9,1.9v12.8
		C21.8,19.4,20.9,20.3,19.9,20.3z M15.8,18.8h4.1c0.2,0,0.4-0.2,0.4-0.4V5.6c0-0.2-0.2-0.4-0.4-0.4h-4.1V18.8z M9.8,18.8h4.5V5.2
		H9.8V18.8z M4.1,5.2c-0.2,0-0.4,0.2-0.4,0.4v12.8c0,0.2,0.2,0.4,0.4,0.4h4.1V5.2H4.1z"/>
</g>
</svg>
