<?xml version="1.0" encoding="utf-8"?>
<!-- Generator: Adobe Illustrator 28.4.1, SVG Export Plug-In . SVG Version: 6.00 Build 0)  -->
<svg version="1.1" id="Layer_1" xmlns="http://www.w3.org/2000/svg" xmlns:xlink="http://www.w3.org/1999/xlink" x="0px" y="0px"
	 viewBox="0 0 24 24" style="enable-background:new 0 0 24 24;" xml:space="preserve">
<style type="text/css">
	.st0{fill:#0F172A;}
</style>
<g>
	<path class="st0" d="M4.5,20.3C4.5,20.3,4.5,20.3,4.5,20.3C4.5,20.3,4.5,20.3,4.5,20.3C4.5,20.3,4.5,20.3,4.5,20.3L4.5,20.3
		c-0.1,0-0.2,0-0.3-0.1c0,0,0,0,0,0C4.1,20.2,4,20.1,4,20c-0.1-0.1-0.1-0.2-0.2-0.2c0-0.1-0.1-0.2-0.1-0.3c0,0,0,0,0,0v0
		c0,0,0,0,0,0l0,0c0,0,0,0,0,0V8.2c0-0.4,0.3-0.8,0.8-0.8s0.8,0.3,0.8,0.8v9.4L19,4c0.3-0.3,0.8-0.3,1.1,0s0.3,0.8,0,1.1L6.3,18.8
		h9.4c0.4,0,0.8,0.3,0.8,0.8s-0.3,0.8-0.8,0.8H4.5C4.5,20.3,4.5,20.3,4.5,20.3z"/>
</g>
</svg>
