<?xml version="1.0" encoding="utf-8"?>
<!-- Generator: Adobe Illustrator 28.4.1, SVG Export Plug-In . SVG Version: 6.00 Build 0)  -->
<svg version="1.1" id="Layer_1" xmlns="http://www.w3.org/2000/svg" xmlns:xlink="http://www.w3.org/1999/xlink" x="0px" y="0px"
	 viewBox="0 0 24 24" style="enable-background:new 0 0 24 24;" xml:space="preserve">
<style type="text/css">
	.st0{fill:#0F172A;}
</style>
<g>
	<path class="st0" d="M12,21.8c-5.4,0-9.8-4.4-9.8-9.8c0-5.4,4.4-9.8,9.8-9.8s9.8,4.4,9.8,9.8C21.8,17.4,17.4,21.8,12,21.8z M12,3.7
		c-4.5,0-8.2,3.7-8.2,8.2c0,4.5,3.7,8.3,8.2,8.3s8.2-3.7,8.2-8.3C20.2,7.5,16.5,3.7,12,3.7z M11.2,15.8c-0.2,0-0.4-0.1-0.5-0.2l-3-3
		c0,0,0,0,0,0c0,0,0,0,0,0l0,0l0,0c0,0,0,0,0,0l0,0c0,0,0,0,0,0c0,0,0,0,0,0c-0.1-0.1-0.1-0.1-0.2-0.2c0,0,0,0,0,0c0,0,0,0,0,0
		c0-0.1-0.1-0.2-0.1-0.3s0-0.2,0.1-0.3c0-0.1,0.1-0.2,0.1-0.2l0,0c0,0,0,0,0,0l0,0c0,0,0,0,0,0l0,0c0,0,0,0,0,0l0,0c0,0,0,0,0,0
		c0,0,0,0,0,0c0,0,0,0,0,0c0,0,0,0,0,0l0,0l3-3c0.3-0.3,0.8-0.3,1.1,0s0.3,0.8,0,1.1l-1.7,1.7h5.7c0.4,0,0.8,0.3,0.8,0.8
		s-0.3,0.8-0.8,0.8h-5.7l1.7,1.7c0.3,0.3,0.3,0.8,0,1.1C11.6,15.7,11.4,15.8,11.2,15.8z"/>
</g>
</svg>
