<?xml version="1.0" encoding="utf-8"?>
<!-- Generator: Adobe Illustrator 28.4.1, SVG Export Plug-In . SVG Version: 6.00 Build 0)  -->
<svg version="1.1" id="Layer_1" xmlns="http://www.w3.org/2000/svg" xmlns:xlink="http://www.w3.org/1999/xlink" x="0px" y="0px"
	 viewBox="0 0 24 24" style="enable-background:new 0 0 24 24;" xml:space="preserve">
<style type="text/css">
	.st0{fill:#0F172A;}
</style>
<g>
	<path class="st0" d="M11.2,20.3c-0.2,0-0.4-0.1-0.5-0.2c-0.3-0.3-0.3-0.8,0-1.1l7-7l-7-7c-0.3-0.3-0.3-0.8,0-1.1s0.8-0.3,1.1,0
		l7.5,7.5c0.3,0.3,0.3,0.8,0,1.1L11.8,20C11.6,20.2,11.4,20.3,11.2,20.3z M5.2,20.3c-0.2,0-0.4-0.1-0.5-0.2c-0.3-0.3-0.3-0.8,0-1.1
		l7-7l-7-7C4.4,4.7,4.4,4.3,4.7,4s0.8-0.3,1.1,0l7.5,7.5c0.3,0.3,0.3,0.8,0,1.1L5.8,20C5.6,20.2,5.4,20.3,5.2,20.3z"/>
</g>
</svg>
