<?xml version="1.0" encoding="utf-8"?>
<!-- Generator: Adobe Illustrator 28.4.1, SVG Export Plug-In . SVG Version: 6.00 Build 0)  -->
<svg version="1.1" id="Layer_1" xmlns="http://www.w3.org/2000/svg" xmlns:xlink="http://www.w3.org/1999/xlink" x="0px" y="0px"
	 viewBox="0 0 24 24" style="enable-background:new 0 0 24 24;" xml:space="preserve">
<style type="text/css">
	.st0{fill:#0F172A;}
</style>
<g>
	<path class="st0" d="M6,13.5c-0.8,0-1.5-0.7-1.5-1.5s0.7-1.5,1.5-1.5s1.5,0.7,1.5,1.5S6.8,13.5,6,13.5z M6,12C6,12,6,12,6,12l0.8,0
		L6,12z"/>
</g>
<g>
	<path class="st0" d="M12,13.5c-0.8,0-1.5-0.7-1.5-1.5s0.7-1.5,1.5-1.5s1.5,0.7,1.5,1.5S12.8,13.5,12,13.5z M12,12
		C12,12,12,12,12,12l0.8,0L12,12z"/>
</g>
<g>
	<path class="st0" d="M18,13.5c-0.8,0-1.5-0.7-1.5-1.5s0.7-1.5,1.5-1.5s1.5,0.7,1.5,1.5S18.8,13.5,18,13.5z M18,12
		C18,12,18,12,18,12l0.8,0L18,12z"/>
</g>
</svg>
