<?xml version="1.0" encoding="utf-8"?>
<!-- Generator: Adobe Illustrator 28.4.1, SVG Export Plug-In . SVG Version: 6.00 Build 0)  -->
<svg version="1.1" id="Layer_1" xmlns="http://www.w3.org/2000/svg" xmlns:xlink="http://www.w3.org/1999/xlink" x="0px" y="0px"
	 viewBox="0 0 24 25" style="enable-background:new 0 0 24 25;" xml:space="preserve">
<style type="text/css">
	.st0{fill:#0F172A;}
</style>
<g>
	<path class="st0" d="M18.8,21H5.2c-1.7,0-3-1.3-3-3V4.9c0-1,0.8-1.9,1.9-1.9h11.2c1,0,1.9,0.8,1.9,1.9v1.9h2.6c1,0,1.9,0.8,1.9,1.9
		V18C21.8,19.7,20.4,21,18.8,21z M18.8,19.5c0.8,0,1.5-0.7,1.5-1.5V8.6c0-0.2-0.2-0.4-0.4-0.4h-2.6V18
		C17.2,18.8,17.9,19.5,18.8,19.5z M4.1,4.5c-0.2,0-0.4,0.2-0.4,0.4V18c0,0.8,0.7,1.5,1.5,1.5h10.9c-0.3-0.4-0.4-1-0.4-1.5V4.9
		c0-0.2-0.2-0.4-0.4-0.4H4.1z M13.5,17.3H6c-0.4,0-0.8-0.3-0.8-0.8s0.3-0.7,0.8-0.7h7.5c0.4,0,0.8,0.3,0.8,0.7S13.9,17.3,13.5,17.3z
		 M13.5,14.3H6c-0.4,0-0.8-0.3-0.8-0.7c0-0.4,0.3-0.8,0.8-0.8h7.5c0.4,0,0.8,0.3,0.8,0.8C14.2,13.9,13.9,14.3,13.5,14.3z M13.5,11.3
		H12c-0.4,0-0.8-0.3-0.8-0.8s0.3-0.8,0.8-0.8h1.5c0.4,0,0.8,0.3,0.8,0.8S13.9,11.3,13.5,11.3z M9,11.3H6c-0.4,0-0.8-0.3-0.8-0.8v-3
		c0-0.4,0.3-0.8,0.8-0.8h3c0.4,0,0.8,0.3,0.8,0.8v3C9.8,10.9,9.4,11.3,9,11.3z M6.8,9.8h1.5V8.3H6.8V9.8z M13.5,8.3H12
		c-0.4,0-0.8-0.3-0.8-0.8s0.3-0.8,0.8-0.8h1.5c0.4,0,0.8,0.3,0.8,0.8S13.9,8.3,13.5,8.3z"/>
</g>
</svg>
