<?xml version="1.0" encoding="utf-8"?>
<!-- Generator: Adobe Illustrator 28.4.1, SVG Export Plug-In . SVG Version: 6.00 Build 0)  -->
<svg version="1.1" id="Layer_1" xmlns="http://www.w3.org/2000/svg" xmlns:xlink="http://www.w3.org/1999/xlink" x="0px" y="0px"
	 viewBox="0 0 24 24" style="enable-background:new 0 0 24 24;" xml:space="preserve">
<style type="text/css">
	.st0{fill:#0F172A;}
</style>
<g>
	<path class="st0" d="M19.5,21h-15c-1.7,0-3-1.3-3-3V9.6c0-1.5,1-2.7,2.4-2.9c0.4-0.1,0.8-0.1,1.2-0.2C5.5,6.4,6,6.2,6.2,5.8l0,0
		L7,4.5c0.5-0.8,1.4-1.3,2.3-1.4c1.8-0.1,3.6-0.1,5.3,0c0.9,0.1,1.8,0.6,2.3,1.4l0.8,1.3c0.2,0.4,0.6,0.6,1.1,0.7
		c0.4,0.1,0.8,0.1,1.2,0.2c1.4,0.2,2.4,1.5,2.4,2.9V18C22.5,19.7,21.2,21,19.5,21z M7.5,6.6L7.5,6.6C7,7.3,6.2,7.8,5.3,8
		C4.9,8,4.5,8.1,4.2,8.1C3.5,8.3,3,8.9,3,9.6V18c0,0.8,0.7,1.5,1.5,1.5h15c0.8,0,1.5-0.7,1.5-1.5V9.6c0-0.7-0.5-1.3-1.2-1.4
		C19.5,8.1,19.1,8,18.7,8c-0.9-0.1-1.7-0.6-2.2-1.4l-0.8-1.3c-0.3-0.4-0.7-0.7-1.1-0.7c-1.7-0.1-3.5-0.1-5.2,0
		C9,4.6,8.5,4.9,8.3,5.3L7.5,6.6z"/>
</g>
<g>
	<path class="st0" d="M12,18c-2.9,0-5.2-2.4-5.2-5.3S9.1,7.5,12,7.5c2.9,0,5.2,2.4,5.2,5.3S14.9,18,12,18z M12,9
		c-2.1,0-3.8,1.7-3.8,3.8s1.7,3.8,3.8,3.8c2.1,0,3.8-1.7,3.8-3.8S14.1,9,12,9z"/>
</g>
<g>
	<path class="st0" d="M18.8,11.3c-0.4,0-0.8-0.3-0.8-0.8s0.3-0.8,0.8-0.8h0c0.4,0,0.8,0.3,0.8,0.8S19.2,11.3,18.8,11.3z"/>
</g>
</svg>
