<?xml version="1.0" encoding="utf-8"?>
<!-- Generator: Adobe Illustrator 28.4.1, SVG Export Plug-In . SVG Version: 6.00 Build 0)  -->
<svg version="1.1" id="Layer_1" xmlns="http://www.w3.org/2000/svg" xmlns:xlink="http://www.w3.org/1999/xlink" x="0px" y="0px"
	 viewBox="0 0 24 24" style="enable-background:new 0 0 24 24;" xml:space="preserve">
<style type="text/css">
	.st0{fill:#0F172A;}
</style>
<g>
	<path class="st0" d="M19.5,20.3h-15c-1.7,0-3-1.3-3-3V6.7c0-1.7,1.3-3,3-3h15c1.7,0,3,1.3,3,3v10.5C22.5,18.9,21.2,20.3,19.5,20.3z
		 M3,9.7v7.5c0,0.8,0.7,1.5,1.5,1.5h15c0.8,0,1.5-0.7,1.5-1.5V9.7H3z M3,7.5h18V6.7c0-0.8-0.7-1.5-1.5-1.5h-15C3.7,5.2,3,5.9,3,6.7
		V7.5z M8.2,17.3h-3c-0.4,0-0.8-0.3-0.8-0.8s0.3-0.7,0.8-0.7h3c0.4,0,0.8,0.3,0.8,0.7S8.7,17.3,8.2,17.3z M11.2,15h-6
		c-0.4,0-0.8-0.3-0.8-0.8s0.3-0.8,0.8-0.8h6c0.4,0,0.8,0.3,0.8,0.8S11.7,15,11.2,15z"/>
</g>
</svg>
