<?xml version="1.0" encoding="utf-8"?>
<!-- Generator: Adobe Illustrator 28.4.1, SVG Export Plug-In . SVG Version: 6.00 Build 0)  -->
<svg version="1.1" id="Layer_1" xmlns="http://www.w3.org/2000/svg" xmlns:xlink="http://www.w3.org/1999/xlink" x="0px" y="0px"
	 viewBox="0 0 24 24" style="enable-background:new 0 0 24 24;" xml:space="preserve">
<style type="text/css">
	.st0{fill:#0F172A;}
</style>
<g>
	<path class="st0" d="M18,21h-1.5c-0.4,0-0.8-0.3-0.8-0.8s0.3-0.8,0.8-0.8H18c0.8,0,1.5-0.7,1.5-1.5v-1.5c0-0.4,0.3-0.7,0.8-0.7
		s0.8,0.3,0.8,0.7V18C21,19.7,19.7,21,18,21z M7.5,21H6c-1.7,0-3-1.3-3-3v-1.5c0-0.4,0.3-0.7,0.8-0.7s0.8,0.3,0.8,0.7V18
		c0,0.8,0.7,1.5,1.5,1.5h1.5c0.4,0,0.8,0.3,0.8,0.8S7.9,21,7.5,21z M12,15.8c-2.1,0-3.8-1.7-3.8-3.8S9.9,8.2,12,8.2
		c2.1,0,3.8,1.7,3.8,3.8S14.1,15.8,12,15.8z M12,9.7c-1.2,0-2.2,1-2.2,2.2s1,2.3,2.2,2.3c1.2,0,2.2-1,2.2-2.3S13.2,9.7,12,9.7z
		 M20.2,8.2c-0.4,0-0.8-0.3-0.8-0.8V6c0-0.8-0.7-1.5-1.5-1.5h-1.5c-0.4,0-0.8-0.3-0.8-0.7S16.1,3,16.5,3H18c1.7,0,3,1.3,3,3v1.5
		C21,7.9,20.7,8.2,20.2,8.2z M3.8,8.2C3.3,8.2,3,7.9,3,7.5V6c0-1.7,1.3-3,3-3h1.5c0.4,0,0.8,0.3,0.8,0.8S7.9,4.5,7.5,4.5H6
		C5.2,4.5,4.5,5.2,4.5,6v1.5C4.5,7.9,4.2,8.2,3.8,8.2z"/>
</g>
</svg>
