<?xml version="1.0" encoding="utf-8"?>
<!-- Generator: Adobe Illustrator 28.4.1, SVG Export Plug-In . SVG Version: 6.00 Build 0)  -->
<svg version="1.1" id="Layer_1" xmlns="http://www.w3.org/2000/svg" xmlns:xlink="http://www.w3.org/1999/xlink" x="0px" y="0px"
	 viewBox="0 0 24 25" style="enable-background:new 0 0 24 25;" xml:space="preserve">
<style type="text/css">
	.st0{fill:#0F172A;}
</style>
<g>
	<path class="st0" d="M12,21.8c-2.5,0-5-1-6.9-2.9c-1.8-1.8-2.9-4.3-2.9-6.9s1-5.1,2.9-6.9l0,0l0,0l0,0c3.8-3.8,10-3.8,13.8,0
		c3.8,3.8,3.8,10,0,13.8l0,0l0,0C17,20.8,14.5,21.8,12,21.8z M5.7,6.7C4.4,8.2,3.8,10.1,3.8,12c0,2.2,0.9,4.3,2.4,5.8
		c3,3,7.9,3.2,11.1,0.5L5.7,6.7z M6.7,5.7l11.6,11.6c2.7-3.2,2.5-8.1-0.5-11.1S10,3,6.7,5.7z"/>
</g>
</svg>
