<?xml version="1.0" encoding="utf-8"?>
<!-- Generator: Adobe Illustrator 28.4.1, SVG Export Plug-In . SVG Version: 6.00 Build 0)  -->
<svg version="1.1" id="Layer_1" xmlns="http://www.w3.org/2000/svg" xmlns:xlink="http://www.w3.org/1999/xlink" x="0px" y="0px"
	 viewBox="0 0 24 24" style="enable-background:new 0 0 24 24;" xml:space="preserve">
<style type="text/css">
	.st0{fill:#0F172A;}
</style>
<g>
	<path class="st0" d="M21,21.8c-0.2,0-0.4-0.1-0.5-0.2l-6.3-6.3c0,0,0,0,0,0s0,0,0,0l-2.4-2.4c0,0,0,0,0,0l-0.2-0.2
		c0,0-0.1-0.1-0.1-0.1l-9-9c-0.3-0.3-0.3-0.8,0-1.1s0.8-0.3,1.1,0l8.4,8.4c0.6,0,1.2,0.5,1.2,1.1c0,0,0,0,0,0.1l1.5,1.5
		c0.3-0.5,0.4-1,0.4-1.5c0-0.8-0.3-1.6-0.9-2.1c-0.3-0.3-0.3-0.8,0-1.1s0.8-0.3,1.1,0c0.9,0.8,1.3,2,1.3,3.2c0,0.9-0.3,1.9-0.8,2.6
		l1.1,1.1c1.8-2.4,1.7-5.8-0.5-7.9C16,7.5,16,7,16.2,6.7s0.8-0.3,1.1,0c2.7,2.7,2.9,7.1,0.5,10l1.1,1.1c3-3.5,2.8-8.8-0.5-12.2
		c-0.3-0.3-0.3-0.8,0-1.1s0.8-0.3,1.1,0c3.9,3.9,4.1,10.2,0.5,14.3l1.6,1.6c0.3,0.3,0.3,0.8,0,1.1C21.4,21.7,21.2,21.8,21,21.8z
		 M5.1,19.6c-0.2,0-0.4-0.1-0.5-0.2c-3.2-3.2-4-8.1-1.9-12.2c0.2-0.4,0.6-0.5,1-0.3C4,7.1,4.2,7.5,4,7.9c-1.8,3.5-1.1,7.7,1.7,10.5
		c0.3,0.3,0.3,0.8,0,1.1C5.5,19.6,5.3,19.6,5.1,19.6z M7.2,17.5c-0.2,0-0.4-0.1-0.5-0.2c-2-2-2.7-5-1.8-7.7C5,9.2,5.4,9,5.8,9.1
		c0.4,0.1,0.6,0.6,0.5,1c-0.7,2.2-0.2,4.5,1.4,6.2c0.3,0.3,0.3,0.8,0,1.1C7.6,17.4,7.4,17.5,7.2,17.5z M9.3,15.4
		c-0.2,0-0.4-0.1-0.5-0.2c-0.7-0.7-1.1-1.6-1.3-2.5c-0.1-0.4,0.2-0.8,0.6-0.8C8.6,11.7,9,12,9,12.4c0.1,0.6,0.4,1.2,0.8,1.7
		c0.3,0.3,0.3,0.8,0,1.1C9.7,15.3,9.5,15.4,9.3,15.4z"/>
</g>
</svg>
