<?xml version="1.0" encoding="utf-8"?>
<!-- Generator: Adobe Illustrator 28.4.1, SVG Export Plug-In . SVG Version: 6.00 Build 0)  -->
<svg version="1.1" id="Layer_1" xmlns="http://www.w3.org/2000/svg" xmlns:xlink="http://www.w3.org/1999/xlink" x="0px" y="0px"
	 viewBox="0 0 24 24" style="enable-background:new 0 0 24 24;" xml:space="preserve">
<style type="text/css">
	.st0{fill:#0F172A;}
</style>
<g>
	<path class="st0" d="M9.8,21c-0.1,0-0.1,0-0.2,0c-0.4-0.1-0.6-0.5-0.5-0.9l4.5-16.5C13.6,3.2,14,2.9,14.4,3
		c0.4,0.1,0.6,0.5,0.5,0.9l-4.5,16.5C10.4,20.8,10.1,21,9.8,21z M17.2,18c-0.2,0-0.4-0.1-0.5-0.2c-0.3-0.3-0.3-0.8,0-1.1l4.7-4.7
		l-4.7-4.7c-0.3-0.3-0.3-0.8,0-1.1s0.8-0.3,1.1,0l5.2,5.3c0.3,0.3,0.3,0.8,0,1.1l-5.2,5.3C17.6,17.9,17.4,18,17.2,18z M6.8,18
		c-0.2,0-0.4-0.1-0.5-0.2L1,12.5c-0.3-0.3-0.3-0.8,0-1.1l5.2-5.3c0.3-0.3,0.8-0.3,1.1,0s0.3,0.8,0,1.1L2.6,12l4.7,4.7
		c0.3,0.3,0.3,0.8,0,1.1C7.1,17.9,6.9,18,6.8,18z"/>
</g>
</svg>
