<?xml version="1.0" encoding="utf-8"?>
<!-- Generator: Adobe Illustrator 28.4.1, SVG Export Plug-In . SVG Version: 6.00 Build 0)  -->
<svg version="1.1" id="Layer_1" xmlns="http://www.w3.org/2000/svg" xmlns:xlink="http://www.w3.org/1999/xlink" x="0px" y="0px"
	 viewBox="0 0 24 24" style="enable-background:new 0 0 24 24;" xml:space="preserve">
<style type="text/css">
	.st0{fill:#0F172A;}
</style>
<g>
	<path class="st0" d="M12,21.8c-2.2,0-4.3-0.1-6.5-0.4C4.1,21.1,3,19.9,3,18.4v-3.9c-0.5-0.5-0.8-1.2-0.8-2V8.7c0-1.5,1-2.7,2.5-2.9
		c0.9-0.1,1.8-0.2,2.8-0.3V5.2c0-1.7,1.3-3,3-3h3c1.7,0,3,1.3,3,3v0.2c0.9,0.1,1.9,0.2,2.8,0.3c1.4,0.2,2.5,1.4,2.5,2.9v3.8
		c0,0.7-0.3,1.4-0.8,2v3.9c0,1.5-1.1,2.7-2.5,2.9C16.3,21.6,14.2,21.8,12,21.8z M4.5,15.3v3.1c0,0.7,0.5,1.3,1.2,1.4
		c4.1,0.5,8.4,0.5,12.6,0c0.7-0.1,1.2-0.7,1.2-1.4v-3.1C14.7,16.9,9.3,16.9,4.5,15.3z M4.2,13.6c0.1,0.1,0.3,0.2,0.4,0.2
		c4.7,1.6,10,1.6,14.7,0c0.2-0.1,0.3-0.1,0.4-0.2c0,0,0,0,0,0c0.3-0.3,0.5-0.7,0.5-1.1V8.7c0-0.7-0.5-1.3-1.2-1.4
		c-1.1-0.2-2.2-0.3-3.4-0.4c0,0,0,0,0,0c-2.4-0.2-4.9-0.2-7.4,0c0,0,0,0,0,0C7.2,7,6.1,7.1,4.9,7.3C4.3,7.4,3.8,8,3.8,8.7v3.8
		C3.8,12.9,3.9,13.3,4.2,13.6C4.2,13.6,4.2,13.6,4.2,13.6z M12,5.2c1,0,2,0,3,0.1V5.2c0-0.8-0.7-1.5-1.5-1.5h-3C9.7,3.7,9,4.4,9,5.2
		v0.1C10,5.3,11,5.2,12,5.2z M12,13.5c-0.4,0-0.8-0.3-0.8-0.7c0-0.4,0.3-0.8,0.8-0.8h0c0.4,0,0.8,0.3,0.8,0.8
		C12.8,13.2,12.4,13.5,12,13.5z"/>
</g>
</svg>
