<?xml version="1.0" encoding="utf-8"?>
<!-- Generator: Adobe Illustrator 28.4.1, SVG Export Plug-In . SVG Version: 6.00 Build 0)  -->
<svg version="1.1" id="Layer_1" xmlns="http://www.w3.org/2000/svg" xmlns:xlink="http://www.w3.org/1999/xlink" x="0px" y="0px"
	 viewBox="0 0 24 24" style="enable-background:new 0 0 24 24;" xml:space="preserve">
<style type="text/css">
	.st0{fill:#0F172A;}
</style>
<g>
	<path class="st0" d="M18.8,18.8h-15c-1.7,0-3-1.3-3-3v-6c0-1.7,1.3-3,3-3h15c1.7,0,3,1.3,3,3v0c0.9,0.2,1.5,0.9,1.5,1.8v2.3
		c0,0.9-0.6,1.7-1.5,1.8v0C21.8,17.4,20.4,18.8,18.8,18.8z M3.8,8.2c-0.8,0-1.5,0.7-1.5,1.5v6c0,0.8,0.7,1.5,1.5,1.5h15
		c0.8,0,1.5-0.7,1.5-1.5v-6c0-0.8-0.7-1.5-1.5-1.5H3.8z M21.8,11.6v2.3V11.6z"/>
</g>
</svg>
