<?xml version="1.0" encoding="utf-8"?>
<!-- Generator: Adobe Illustrator 28.4.1, SVG Export Plug-In . SVG Version: 6.00 Build 0)  -->
<svg version="1.1" id="Layer_1" xmlns="http://www.w3.org/2000/svg" xmlns:xlink="http://www.w3.org/1999/xlink" x="0px" y="0px"
	 viewBox="0 0 24 24" style="enable-background:new 0 0 24 24;" xml:space="preserve">
<style type="text/css">
	.st0{fill:#0F172A;}
</style>
<g>
	<path class="st0" d="M6.4,21.8H4.1c-1,0-1.9-0.8-1.9-1.9v-6.7c0-1,0.8-1.9,1.9-1.9h2.2c1,0,1.9,0.8,1.9,1.9v6.7
		C8.2,20.9,7.4,21.8,6.4,21.8z M4.1,12.7c-0.2,0-0.4,0.2-0.4,0.4v6.7c0,0.2,0.2,0.4,0.4,0.4h2.2c0.2,0,0.4-0.2,0.4-0.4v-6.7
		c0-0.2-0.2-0.4-0.4-0.4H4.1z"/>
</g>
<g>
	<path class="st0" d="M13.1,21.8h-2.2c-1,0-1.9-0.8-1.9-1.9V8.6c0-1,0.8-1.9,1.9-1.9h2.2c1,0,1.9,0.8,1.9,1.9v11.3
		C15,20.9,14.2,21.8,13.1,21.8z M10.9,8.2c-0.2,0-0.4,0.2-0.4,0.4v11.3c0,0.2,0.2,0.4,0.4,0.4h2.2c0.2,0,0.4-0.2,0.4-0.4V8.6
		c0-0.2-0.2-0.4-0.4-0.4H10.9z"/>
</g>
<g>
	<path class="st0" d="M19.9,21.8h-2.2c-1,0-1.9-0.8-1.9-1.9V4.1c0-1,0.8-1.9,1.9-1.9h2.2c1,0,1.9,0.8,1.9,1.9v15.8
		C21.8,20.9,20.9,21.8,19.9,21.8z M17.6,3.7c-0.2,0-0.4,0.2-0.4,0.4v15.8c0,0.2,0.2,0.4,0.4,0.4h2.2c0.2,0,0.4-0.2,0.4-0.4V4.1
		c0-0.2-0.2-0.4-0.4-0.4H17.6z"/>
</g>
</svg>
