<?xml version="1.0" encoding="utf-8"?>
<!-- Generator: Adobe Illustrator 28.4.1, SVG Export Plug-In . SVG Version: 6.00 Build 0)  -->
<svg version="1.1" id="Layer_1" xmlns="http://www.w3.org/2000/svg" xmlns:xlink="http://www.w3.org/1999/xlink" x="0px" y="0px"
	 viewBox="0 0 24 24" style="enable-background:new 0 0 24 24;" xml:space="preserve">
<style type="text/css">
	.st0{fill:#0F172A;}
</style>
<g>
	<path class="st0" d="M18.9,19.6c-0.2,0-0.4-0.1-0.5-0.2c-0.3-0.3-0.3-0.8,0-1.1c3.5-3.5,3.5-9.2,0-12.7c-0.3-0.3-0.3-0.8,0-1.1
		s0.8-0.3,1.1,0c4.1,4.1,4.1,10.8,0,14.8C19.3,19.6,19.1,19.6,18.9,19.6z M5.1,19.6c-0.2,0-0.4-0.1-0.5-0.2
		c-4.1-4.1-4.1-10.8,0-14.8c0.3-0.3,0.8-0.3,1.1,0s0.3,0.8,0,1.1c-3.5,3.5-3.5,9.2,0,12.7c0.3,0.3,0.3,0.8,0,1.1
		C5.5,19.6,5.3,19.6,5.1,19.6z M16.8,17.5c-0.2,0-0.4-0.1-0.5-0.2c-0.3-0.3-0.3-0.8,0-1.1c2.3-2.3,2.3-6.1,0-8.5
		C16,7.5,16,7,16.2,6.7s0.8-0.3,1.1,0c2.9,2.9,2.9,7.7,0,10.6C17.2,17.4,17,17.5,16.8,17.5z M7.2,17.5c-0.2,0-0.4-0.1-0.5-0.2
		C5.3,15.9,4.5,14,4.5,12c0-2,0.8-3.9,2.2-5.3c0.3-0.3,0.8-0.3,1.1,0s0.3,0.8,0,1.1C6.6,8.9,6,10.4,6,12c0,1.6,0.6,3.1,1.8,4.2
		c0.3,0.3,0.3,0.8,0,1.1C7.6,17.4,7.4,17.5,7.2,17.5z M14.7,15.4c-0.2,0-0.4-0.1-0.5-0.2c-0.3-0.3-0.3-0.8,0-1.1
		c0.6-0.6,0.9-1.3,0.9-2.1s-0.3-1.6-0.9-2.1c-0.3-0.3-0.3-0.8,0-1.1s0.8-0.3,1.1,0c0.9,0.8,1.3,2,1.3,3.2s-0.5,2.3-1.3,3.2
		C15,15.3,14.8,15.4,14.7,15.4z M9.3,15.4c-0.2,0-0.4-0.1-0.5-0.2c-1.8-1.8-1.8-4.6,0-6.4c0.3-0.3,0.8-0.3,1.1,0s0.3,0.8,0,1.1
		c-1.2,1.2-1.2,3.1,0,4.2c0.3,0.3,0.3,0.8,0,1.1C9.7,15.3,9.5,15.4,9.3,15.4z M12,13.1c-0.6,0-1.1-0.5-1.1-1.1s0.5-1.1,1.1-1.1
		s1.1,0.5,1.1,1.1S12.6,13.1,12,13.1z"/>
</g>
</svg>
