<?xml version="1.0" encoding="utf-8"?>
<!-- Generator: Adobe Illustrator 28.4.1, SVG Export Plug-In . SVG Version: 6.00 Build 0)  -->
<svg version="1.1" id="Layer_1" xmlns="http://www.w3.org/2000/svg" xmlns:xlink="http://www.w3.org/1999/xlink" x="0px" y="0px"
	 viewBox="0 0 24 24" style="enable-background:new 0 0 24 24;" xml:space="preserve">
<style type="text/css">
	.st0{fill:#0F172A;}
</style>
<g>
	<path class="st0" d="M13.6,21.6c-0.4,0-0.7-0.3-0.7-0.6l-0.1-0.8c-0.5,0-0.9,0-1.4,0L11.2,21c-0.1,0.4-0.5,0.7-0.9,0.6
		c-0.4-0.1-0.7-0.5-0.6-0.9L9.8,20c-0.4-0.1-0.9-0.3-1.3-0.5l-0.4,0.7c-0.2,0.4-0.7,0.5-1,0.3c-0.4-0.2-0.5-0.7-0.3-1l0.4-0.7
		c-0.4-0.3-0.7-0.6-1.1-0.9l-0.6,0.5c-0.3,0.3-0.8,0.2-1.1-0.1c-0.3-0.3-0.2-0.8,0.1-1.1l0.6-0.5c-0.3-0.4-0.5-0.8-0.7-1.2l-0.7,0.3
		c-0.4,0.1-0.8-0.1-1-0.4c-0.1-0.4,0.1-0.8,0.4-1L4,14.1c-0.1-0.4-0.2-0.9-0.2-1.4H3c-0.4,0-0.8-0.3-0.8-0.8s0.3-0.8,0.8-0.8h0.8
		c0-0.5,0.1-0.9,0.2-1.4L3.3,9.6c-0.4-0.1-0.6-0.6-0.4-1c0.1-0.4,0.6-0.6,1-0.4l0.7,0.3C4.7,8.1,5,7.7,5.2,7.3L4.6,6.8
		C4.3,6.5,4.3,6,4.5,5.7c0.3-0.3,0.7-0.4,1.1-0.1l0.6,0.5c0.3-0.3,0.7-0.6,1.1-0.9L6.9,4.6c-0.2-0.4-0.1-0.8,0.3-1
		c0.4-0.2,0.8-0.1,1,0.3l0.4,0.7C9,4.3,9.4,4.2,9.8,4L9.7,3.3c-0.1-0.4,0.2-0.8,0.6-0.9c0.4-0.1,0.8,0.2,0.9,0.6l0.1,0.8
		c0.5,0,0.9,0,1.4,0L12.8,3c0.1-0.4,0.5-0.7,0.9-0.6c0.4,0.1,0.7,0.5,0.6,0.9L14.2,4c0.4,0.1,0.9,0.3,1.3,0.5l0.4-0.7
		c0.2-0.4,0.7-0.5,1-0.3c0.4,0.2,0.5,0.7,0.3,1l-0.4,0.7c0.4,0.3,0.7,0.6,1.1,0.9l0.6-0.5c0.3-0.3,0.8-0.2,1.1,0.1
		c0.3,0.3,0.2,0.8-0.1,1.1l-0.6,0.5c0.3,0.4,0.5,0.8,0.7,1.2l0.7-0.3c0.4-0.1,0.8,0.1,1,0.4c0.1,0.4-0.1,0.8-0.4,1L20,9.9
		c0.1,0.4,0.2,0.9,0.2,1.4H21c0.4,0,0.8,0.3,0.8,0.8s-0.3,0.8-0.8,0.8h-0.8c0,0.5-0.1,0.9-0.2,1.4l0.7,0.3c0.4,0.1,0.6,0.6,0.4,1
		c-0.1,0.4-0.6,0.6-1,0.4l-0.7-0.3c-0.2,0.4-0.4,0.8-0.7,1.2l0.6,0.5c0.3,0.3,0.4,0.7,0.1,1.1c-0.3,0.3-0.7,0.4-1.1,0.1l-0.6-0.5
		c-0.3,0.3-0.7,0.6-1.1,0.9l0.4,0.7c0.2,0.4,0.1,0.8-0.3,1c-0.4,0.2-0.8,0.1-1-0.3l-0.4-0.7c-0.4,0.2-0.8,0.3-1.3,0.5l0.1,0.8
		c0.1,0.4-0.2,0.8-0.6,0.9C13.6,21.6,13.6,21.6,13.6,21.6z M10.8,18.6c0.8,0.1,1.6,0.1,2.3,0c0,0,0,0,0,0c2.4-0.4,4.3-2.1,5.2-4.3
		c0,0,0,0,0,0c0,0,0,0,0,0c0.2-0.5,0.3-1,0.4-1.5h-6.3l-3.1,5.4C9.8,18.4,10.3,18.6,10.8,18.6C10.8,18.6,10.8,18.6,10.8,18.6z
		 M5.7,14.3c0.5,1.3,1.3,2.3,2.3,3.1l3.1-5.4L8,6.6C6.9,7.3,6.1,8.4,5.7,9.7c0,0,0,0,0,0c0,0,0,0,0,0c-0.3,0.7-0.4,1.5-0.4,2.3
		C5.3,12.8,5.4,13.6,5.7,14.3C5.7,14.3,5.7,14.3,5.7,14.3C5.7,14.3,5.7,14.3,5.7,14.3z M12.4,11.2h6.3c-0.1-0.5-0.2-1-0.4-1.5
		c0,0,0,0,0,0c0,0,0,0,0,0c-0.8-2.2-2.8-3.9-5.1-4.3c0,0,0,0,0,0c0,0,0,0,0,0c-0.7-0.1-1.5-0.1-2.3,0c0,0,0,0,0,0c0,0,0,0,0,0
		c-0.5,0.1-1,0.2-1.5,0.5L12.4,11.2z"/>
</g>
</svg>
