<?xml version="1.0" encoding="utf-8"?>
<!-- Generator: Adobe Illustrator 28.4.1, SVG Export Plug-In . SVG Version: 6.00 Build 0)  -->
<svg version="1.1" id="Layer_1" xmlns="http://www.w3.org/2000/svg" xmlns:xlink="http://www.w3.org/1999/xlink" x="0px" y="0px"
	 viewBox="0 0 24 24" style="enable-background:new 0 0 24 24;" xml:space="preserve">
<style type="text/css">
	.st0{fill:#0F172A;}
</style>
<g>
	<path class="st0" d="M18.8,20.3c-0.2,0-0.4-0.1-0.5-0.2l-7.5-7.5c-0.3-0.3-0.3-0.8,0-1.1L18.2,4c0.3-0.3,0.8-0.3,1.1,0
		s0.3,0.8,0,1.1l-7,7l7,7c0.3,0.3,0.3,0.8,0,1.1C19.1,20.2,18.9,20.3,18.8,20.3z M12.8,20.3c-0.2,0-0.4-0.1-0.5-0.2l-7.5-7.5
		c-0.3-0.3-0.3-0.8,0-1.1L12.2,4c0.3-0.3,0.8-0.3,1.1,0s0.3,0.8,0,1.1l-7,7l7,7c0.3,0.3,0.3,0.8,0,1.1
		C13.1,20.2,12.9,20.3,12.8,20.3z"/>
</g>
</svg>
