<?xml version="1.0" encoding="utf-8"?>
<!-- Generator: Adobe Illustrator 28.4.1, SVG Export Plug-In . SVG Version: 6.00 Build 0)  -->
<svg version="1.1" id="Layer_1" xmlns="http://www.w3.org/2000/svg" xmlns:xlink="http://www.w3.org/1999/xlink" x="0px" y="0px"
	 viewBox="0 0 24 25" style="enable-background:new 0 0 24 25;" xml:space="preserve">
<style type="text/css">
	.st0{fill:#0F172A;}
</style>
<g>
	<path class="st0" d="M16.8,22.5H7.2c-0.5,0-1-0.2-1.4-0.6c-0.4-0.4-0.5-0.9-0.5-1.4l0.2-1.7H5.2c-1.7,0-3-1.3-3-3V9.5
		c0-1.5,1-2.7,2.5-2.9C5.1,6.5,5.6,6.4,6,6.4v-3c0-1,0.8-1.9,1.9-1.9h8.2c1,0,1.9,0.8,1.9,1.9v3c0.4,0.1,0.9,0.1,1.3,0.2
		c1.4,0.2,2.5,1.4,2.5,2.9v6.3c0,1.7-1.3,3-3,3h-0.3l0.2,1.7c0,0.5-0.1,1-0.5,1.4S17.3,22.5,16.8,22.5z M7.1,18.1l-0.2,2.5
		c0,0.1,0.1,0.2,0.1,0.3c0,0,0.1,0.1,0.3,0.1h9.5c0.1,0,0.2-0.1,0.3-0.1s0.1-0.1,0.1-0.3l-0.2-2.5c0,0,0,0,0,0l-0.3-3.6
		c-3-0.3-6.1-0.3-9.2,0L7.1,18.1C7.1,18.1,7.1,18.1,7.1,18.1z M18.3,17.3h0.4c0.8,0,1.5-0.7,1.5-1.5V9.5c0-0.7-0.5-1.3-1.2-1.4
		c-0.6-0.1-1.2-0.2-1.9-0.2c0,0,0,0,0,0c-3.4-0.4-6.9-0.4-10.3,0c0,0,0,0,0,0C6.2,7.9,5.6,7.9,4.9,8C4.3,8.1,3.8,8.7,3.8,9.5v6.3
		c0,0.8,0.7,1.5,1.5,1.5h0.4l0.2-2.6c-0.3,0-0.6-0.3-0.6-0.6c-0.1-0.4,0.2-0.8,0.6-0.8c0.2,0,0.5-0.1,0.7-0.1c0,0,0,0,0,0
		c3.5-0.4,7.2-0.4,10.7,0c0,0,0,0,0,0c0.2,0,0.5,0.1,0.7,0.1c0.4,0.1,0.7,0.4,0.6,0.8c0,0.3-0.3,0.6-0.6,0.6L18.3,17.3z M12,6
		c1.5,0,3,0.1,4.5,0.2V3.4c0-0.2-0.2-0.4-0.4-0.4H7.9C7.7,3,7.5,3.2,7.5,3.4v2.8C9,6.1,10.5,6,12,6z M18,11.3
		c-0.4,0-0.8-0.3-0.8-0.8s0.3-0.8,0.8-0.8h0c0.4,0,0.8,0.3,0.8,0.8S18.4,11.3,18,11.3z M15,11.3c-0.4,0-0.8-0.3-0.8-0.8
		s0.3-0.8,0.8-0.8h0c0.4,0,0.8,0.3,0.8,0.8S15.4,11.3,15,11.3z"/>
</g>
</svg>
