<?xml version="1.0" encoding="utf-8"?>
<!-- Generator: Adobe Illustrator 28.4.1, SVG Export Plug-In . SVG Version: 6.00 Build 0)  -->
<svg version="1.1" id="Layer_1" xmlns="http://www.w3.org/2000/svg" xmlns:xlink="http://www.w3.org/1999/xlink" x="0px" y="0px"
	 viewBox="0 0 24 24" style="enable-background:new 0 0 24 24;" xml:space="preserve">
<style type="text/css">
	.st0{fill:#0F172A;}
</style>
<g>
	<path class="st0" d="M14.6,22.5H4.9c-1,0-1.9-0.8-1.9-1.9V7.9C3,6.8,3.8,6,4.9,6h1.9C7,6,7.3,6,7.5,6V3.4c0-1,0.8-1.9,1.9-1.9h1.9
		c0.5,0,1.1,0,1.6,0.1c4.7,0.8,8.1,4.8,8.1,9.6v4.9c0,1-0.8,1.9-1.9,1.9h-2.6v2.6C16.5,21.7,15.7,22.5,14.6,22.5z M4.9,7.5
		c-0.2,0-0.4,0.2-0.4,0.4v12.8c0,0.2,0.2,0.4,0.4,0.4h9.8c0.2,0,0.4-0.2,0.4-0.4V18H9.4c-1,0-1.9-0.8-1.9-1.9V7.5
		c-0.2,0-0.5,0-0.8,0H4.9z M15.8,16.5h3.4c0.2,0,0.4-0.2,0.4-0.4v-4.5c0-1.4-1.2-2.6-2.6-2.6h-1.5c-1,0-1.9-0.8-1.9-1.9V5.6
		c0-1.4-1.2-2.6-2.6-2.6H9.4C9.2,3,9,3.2,9,3.4v3.5c0,0,0,0,0,0v9.2c0,0.2,0.2,0.4,0.4,0.4H15.8z M14.5,3.7c0.3,0.6,0.5,1.3,0.5,2
		v1.5c0,0.2,0.2,0.4,0.4,0.4h1.5c0.7,0,1.4,0.2,2,0.5C18,6.1,16.5,4.5,14.5,3.7z"/>
</g>
</svg>
