<?xml version="1.0" encoding="utf-8"?>
<!-- Generator: Adobe Illustrator 28.4.1, SVG Export Plug-In . SVG Version: 6.00 Build 0)  -->
<svg version="1.1" id="Layer_1" xmlns="http://www.w3.org/2000/svg" xmlns:xlink="http://www.w3.org/1999/xlink" x="0px" y="0px"
	 viewBox="0 0 24 24" style="enable-background:new 0 0 24 24;" xml:space="preserve">
<style type="text/css">
	.st0{fill:#0F172A;}
</style>
<g>
	<path class="st0" d="M15,21.8h-3c-0.4,0-0.8-0.3-0.8-0.8s0.3-0.8,0.8-0.8h3c2.9,0,5.2-2.4,5.2-5.2c0-2.9-2.4-5.3-5.2-5.3H4.8
		l4.7,4.7c0.3,0.3,0.3,0.8,0,1.1s-0.8,0.3-1.1,0l-6-6c0,0,0,0,0,0h0c0,0,0,0,0,0c0,0,0,0,0,0l0,0l0,0c0,0,0,0,0,0l0,0c0,0,0,0,0,0
		l0,0c0,0,0,0,0,0c0,0,0,0,0,0l0,0C2.4,9.5,2.3,9.4,2.3,9.3c0-0.1-0.1-0.2-0.1-0.3s0-0.2,0.1-0.3c0-0.1,0.1-0.2,0.1-0.2c0,0,0,0,0,0
		c0,0,0,0,0,0v0c0,0,0,0,0,0h0c0,0,0,0,0,0l0,0c0,0,0,0,0,0c0,0,0,0,0,0c0,0,0,0,0,0c0,0,0,0,0,0c0,0,0,0,0,0c0,0,0,0,0,0
		c0,0,0,0,0,0l6-6c0.3-0.3,0.8-0.3,1.1,0s0.3,0.8,0,1.1L4.8,8.2H15c3.7,0,6.8,3,6.8,6.8C21.8,18.7,18.7,21.8,15,21.8z"/>
</g>
</svg>
