<?xml version="1.0" encoding="utf-8"?>
<!-- Generator: Adobe Illustrator 28.4.1, SVG Export Plug-In . SVG Version: 6.00 Build 0)  -->
<svg version="1.1" id="Layer_1" xmlns="http://www.w3.org/2000/svg" xmlns:xlink="http://www.w3.org/1999/xlink" x="0px" y="0px"
	 viewBox="0 0 24 24" style="enable-background:new 0 0 24 24;" xml:space="preserve">
<style type="text/css">
	.st0{fill:#0F172A;}
</style>
<g>
	<path class="st0" d="M9,20.3c-1,0-1.8-0.6-2.1-1.5H3.8C3.3,18.8,3,18.4,3,18s0.3-0.8,0.8-0.8h3.1C7.2,16.4,8,15.8,9,15.8
		s1.8,0.6,2.1,1.5h9.1c0.4,0,0.8,0.3,0.8,0.8s-0.3,0.8-0.8,0.8h-9.1C10.8,19.6,10,20.3,9,20.3z M8.2,18c0,0.4,0.3,0.8,0.8,0.8
		s0.8-0.3,0.8-0.8S9.4,17.3,9,17.3S8.2,17.6,8.2,18z M15,14.3c-1,0-1.8-0.6-2.1-1.5H3.8C3.3,12.7,3,12.4,3,12s0.3-0.8,0.8-0.8h9.1
		c0.3-0.9,1.1-1.5,2.1-1.5s1.8,0.6,2.1,1.5h3.1c0.4,0,0.8,0.3,0.8,0.8s-0.3,0.8-0.8,0.8h-3.1C16.8,13.6,16,14.3,15,14.3z M14.2,12
		c0,0.4,0.3,0.8,0.8,0.8s0.8-0.3,0.8-0.8s-0.3-0.8-0.8-0.8S14.2,11.6,14.2,12z M9,8.2c-1,0-1.8-0.6-2.1-1.5H3.8C3.3,6.7,3,6.4,3,6
		s0.3-0.8,0.8-0.8h3.1C7.2,4.4,8,3.7,9,3.7s1.8,0.6,2.1,1.5h9.1C20.7,5.2,21,5.6,21,6s-0.3,0.8-0.8,0.8h-9.1C10.8,7.6,10,8.2,9,8.2z
		 M8.2,6c0,0.4,0.3,0.8,0.8,0.8S9.8,6.4,9.8,6S9.4,5.2,9,5.2S8.2,5.6,8.2,6z"/>
</g>
</svg>
