<?xml version="1.0" encoding="utf-8"?>
<!-- Generator: Adobe Illustrator 28.4.1, SVG Export Plug-In . SVG Version: 6.00 Build 0)  -->
<svg version="1.1" id="Layer_1" xmlns="http://www.w3.org/2000/svg" xmlns:xlink="http://www.w3.org/1999/xlink" x="0px" y="0px"
	 viewBox="0 0 24 24" style="enable-background:new 0 0 24 24;" xml:space="preserve">
<style type="text/css">
	.st0{fill:#0F172A;}
</style>
<g>
	<path class="st0" d="M13.5,19.5h-9c-1.7,0-3-1.3-3-3v-9c0-1.7,1.3-3,3-3h9c1.7,0,3,1.3,3,3v1.2l3.4-3.4c0.4-0.4,1.1-0.6,1.6-0.3
		c0.6,0.2,0.9,0.8,0.9,1.4v11.4c0,0.6-0.4,1.2-0.9,1.4c-0.6,0.2-1.2,0.1-1.6-0.3l-3.4-3.4v1.2C16.5,18.2,15.2,19.5,13.5,19.5z
		 M4.5,6C3.7,6,3,6.7,3,7.5v9C3,17.3,3.7,18,4.5,18h9c0.8,0,1.5-0.7,1.5-1.5v-9C15,6.7,14.3,6,13.5,6H4.5z M16.5,13.2l4.5,4.5V6.3
		l-4.5,4.5V13.2z"/>
</g>
</svg>
