<?xml version="1.0" encoding="utf-8"?>
<!-- Generator: Adobe Illustrator 28.4.1, SVG Export Plug-In . SVG Version: 6.00 Build 0)  -->
<svg version="1.1" id="Layer_1" xmlns="http://www.w3.org/2000/svg" xmlns:xlink="http://www.w3.org/1999/xlink" x="0px" y="0px"
	 viewBox="0 0 24 24" style="enable-background:new 0 0 24 24;" xml:space="preserve">
<style type="text/css">
	.st0{fill:#0F172A;}
</style>
<g>
	<path class="st0" d="M12,21.8c-0.1,0-0.2,0-0.3-0.1c-0.1,0-0.2-0.1-0.2-0.2L4,14c-0.3-0.3-0.3-0.8,0-1.1s0.8-0.3,1.1,0l6.2,6.2V3
		c0-0.4,0.3-0.8,0.8-0.8s0.8,0.3,0.8,0.8v16.2L19,13c0.3-0.3,0.8-0.3,1.1,0s0.3,0.8,0,1.1l-7.5,7.5c-0.1,0.1-0.2,0.1-0.2,0.2
		C12.2,21.7,12.1,21.8,12,21.8z"/>
</g>
</svg>
