<?xml version="1.0" encoding="utf-8"?>
<!-- Generator: Adobe Illustrator 28.4.1, SVG Export Plug-In . SVG Version: 6.00 Build 0)  -->
<svg version="1.1" id="Layer_1" xmlns="http://www.w3.org/2000/svg" xmlns:xlink="http://www.w3.org/1999/xlink" x="0px" y="0px"
	 viewBox="0 0 24 24" style="enable-background:new 0 0 24 24;" xml:space="preserve">
<style type="text/css">
	.st0{fill:#0F172A;}
</style>
<g>
	<path class="st0" d="M18.8,22.5c-1.7,0-3-1.3-3-3c0-0.3,0-0.5,0.1-0.8l-8.4-4.7C6.9,14.7,6.1,15,5.2,15c-1.7,0-3-1.3-3-3
		c0-1.7,1.3-3,3-3c0.8,0,1.6,0.3,2.2,0.9l8.4-4.7c-0.1-0.2-0.1-0.5-0.1-0.8c0-1.7,1.3-3,3-3s3,1.3,3,3s-1.3,3-3,3
		c-0.8,0-1.6-0.3-2.2-0.9l-8.4,4.7c0.1,0.2,0.1,0.5,0.1,0.8s0,0.5-0.1,0.8l8.4,4.7c0.6-0.6,1.3-0.9,2.2-0.9c1.7,0,3,1.3,3,3
		S20.4,22.5,18.8,22.5z M17.4,18.8L17.4,18.8c-0.1,0.2-0.2,0.5-0.2,0.7c0,0.8,0.7,1.5,1.5,1.5s1.5-0.7,1.5-1.5S19.6,18,18.8,18
		C18.2,18,17.7,18.3,17.4,18.8C17.4,18.8,17.4,18.8,17.4,18.8C17.4,18.8,17.4,18.8,17.4,18.8z M5.2,10.5c-0.8,0-1.5,0.7-1.5,1.5
		s0.7,1.5,1.5,1.5c0.5,0,1-0.3,1.3-0.8c0,0,0,0,0,0c0.1-0.2,0.2-0.5,0.2-0.7c0-0.3-0.1-0.5-0.2-0.7c0,0,0,0,0,0
		C6.3,10.8,5.8,10.5,5.2,10.5z M17.4,5.2C17.7,5.7,18.2,6,18.8,6c0.8,0,1.5-0.7,1.5-1.5S19.6,3,18.8,3s-1.5,0.7-1.5,1.5
		C17.2,4.8,17.3,5,17.4,5.2C17.4,5.2,17.4,5.2,17.4,5.2L17.4,5.2C17.4,5.2,17.4,5.2,17.4,5.2z"/>
</g>
</svg>
