<?xml version="1.0" encoding="utf-8"?>
<!-- Generator: Adobe Illustrator 28.4.1, SVG Export Plug-In . SVG Version: 6.00 Build 0)  -->
<svg version="1.1" id="Layer_1" xmlns="http://www.w3.org/2000/svg" xmlns:xlink="http://www.w3.org/1999/xlink" x="0px" y="0px"
	 viewBox="0 0 24 24" style="enable-background:new 0 0 24 24;" xml:space="preserve">
<style type="text/css">
	.st0{fill:#0F172A;}
</style>
<g>
	<path class="st0" d="M9,21.8c-0.1,0-0.2,0-0.3-0.1c-0.1,0-0.2-0.1-0.2-0.2l-6-6c-0.3-0.3-0.3-0.8,0-1.1s0.8-0.3,1.1,0l4.7,4.7V9
		c0-3.7,3-6.8,6.8-6.8c3.7,0,6.8,3,6.8,6.8v3c0,0.4-0.3,0.8-0.8,0.8s-0.8-0.3-0.8-0.8V9c0-2.9-2.4-5.2-5.2-5.2
		c-2.9,0-5.2,2.4-5.2,5.2v10.2l4.7-4.7c0.3-0.3,0.8-0.3,1.1,0s0.3,0.8,0,1.1l-6,6c-0.1,0.1-0.2,0.1-0.2,0.2
		C9.2,21.7,9.1,21.8,9,21.8z"/>
</g>
</svg>
