<?xml version="1.0" encoding="utf-8"?>
<!-- Generator: Adobe Illustrator 28.4.1, SVG Export Plug-In . SVG Version: 6.00 Build 0)  -->
<svg version="1.1" id="Layer_1" xmlns="http://www.w3.org/2000/svg" xmlns:xlink="http://www.w3.org/1999/xlink" x="0px" y="0px"
	 viewBox="0 0 24 24" style="enable-background:new 0 0 24 24;" xml:space="preserve">
<style type="text/css">
	.st0{fill:#0F172A;}
</style>
<g>
	<path class="st0" d="M18.8,21H5.2c-2.1,0-3.8-1.7-3.8-3.8c0-1.2,0.6-2.3,1.5-3c-0.9-0.7-1.5-1.8-1.5-3c0-1.1,0.4-2.2,1-3.1l2.6-3.5
		c0.8-1,2-1.6,3.3-1.6h7.1c1.3,0,2.5,0.6,3.3,1.6l2.6,3.5c0.7,0.9,1.1,2,1.1,3.1c0,1.2-0.6,2.3-1.5,3c0.9,0.7,1.5,1.8,1.5,3
		C22.5,19.3,20.8,21,18.8,21z M5.2,15C4,15,3,16,3,17.3s1,2.2,2.2,2.2h13.5c1.2,0,2.2-1,2.2-2.2S20,15,18.8,15H5.2z M5.2,13.5h13.5
		c1.2,0,2.2-1,2.2-2.3S20,9,18.8,9H5.2C4,9,3,10,3,11.2S4,13.5,5.2,13.5z M8.4,4.5c-0.8,0-1.6,0.4-2.1,1.1l-1.5,2c0.1,0,0.3,0,0.4,0
		h13.5c0.1,0,0.3,0,0.4,0l-1.5-2c-0.5-0.7-1.3-1-2.1-1H8.4z M18.8,18c-0.4,0-0.8-0.3-0.8-0.8s0.3-0.8,0.8-0.8h0
		c0.4,0,0.8,0.3,0.8,0.8S19.2,18,18.8,18z M15.8,18c-0.4,0-0.8-0.3-0.8-0.8s0.3-0.8,0.8-0.8h0c0.4,0,0.8,0.3,0.8,0.8
		S16.2,18,15.8,18z M18.8,12c-0.4,0-0.8-0.3-0.8-0.8s0.3-0.8,0.8-0.8h0c0.4,0,0.8,0.3,0.8,0.8S19.2,12,18.8,12z M15.8,12
		c-0.4,0-0.8-0.3-0.8-0.8s0.3-0.8,0.8-0.8h0c0.4,0,0.8,0.3,0.8,0.8S16.2,12,15.8,12z"/>
</g>
</svg>
