<?xml version="1.0" encoding="utf-8"?>
<!-- Generator: Adobe Illustrator 28.4.1, SVG Export Plug-In . SVG Version: 6.00 Build 0)  -->
<svg version="1.1" id="Layer_1" xmlns="http://www.w3.org/2000/svg" xmlns:xlink="http://www.w3.org/1999/xlink" x="0px" y="0px"
	 viewBox="0 0 24 24" style="enable-background:new 0 0 24 24;" xml:space="preserve">
<style type="text/css">
	.st0{fill:#0F172A;}
</style>
<g>
	<path class="st0" d="M18.8,21.8H5.2c-1.7,0-3-1.3-3-3v-2.2c0-0.4,0.3-0.7,0.8-0.7s0.8,0.3,0.8,0.7v2.2c0,0.8,0.7,1.5,1.5,1.5h13.5
		c0.8,0,1.5-0.7,1.5-1.5v-2.2c0-0.4,0.3-0.7,0.8-0.7s0.8,0.3,0.8,0.7v2.2C21.8,20.4,20.4,21.8,18.8,21.8z M12,17.3L12,17.3
		C12,17.3,12,17.3,12,17.3C12,17.3,12,17.3,12,17.3C12,17.3,12,17.3,12,17.3L12,17.3C12,17.3,12,17.3,12,17.3L12,17.3
		c-0.1,0-0.2,0-0.3-0.1c-0.1,0-0.2-0.1-0.2-0.2l0,0c0,0,0,0,0,0l0,0c0,0,0,0,0,0c0,0,0,0,0,0l0,0c0,0,0,0,0,0l0,0l0,0L7,12.5
		c-0.3-0.3-0.3-0.8,0-1.1s0.8-0.3,1.1,0l3.2,3.2V3c0-0.4,0.3-0.8,0.8-0.8s0.8,0.3,0.8,0.8v11.7l3.2-3.2c0.3-0.3,0.8-0.3,1.1,0
		s0.3,0.8,0,1.1L12.5,17l0,0l0,0l0,0c0,0,0,0,0,0c0,0,0,0,0,0h0c0,0,0,0,0,0c0,0,0,0,0,0c0,0,0,0,0,0l0,0c-0.1,0.1-0.1,0.1-0.2,0.2
		c0,0,0,0,0,0l0,0C12.2,17.2,12.1,17.2,12,17.3L12,17.3C12,17.3,12,17.3,12,17.3C12,17.3,12,17.3,12,17.3C12,17.3,12,17.3,12,17.3z"
		/>
</g>
</svg>
