<?xml version="1.0" encoding="utf-8"?>
<!-- Generator: Adobe Illustrator 28.4.1, SVG Export Plug-In . SVG Version: 6.00 Build 0)  -->
<svg version="1.1" id="Layer_1" xmlns="http://www.w3.org/2000/svg" xmlns:xlink="http://www.w3.org/1999/xlink" x="0px" y="0px"
	 viewBox="0 0 24 24" style="enable-background:new 0 0 24 24;" xml:space="preserve">
<style type="text/css">
	.st0{fill:#0F172A;}
</style>
<g>
	<path class="st0" d="M16.5,21.8c-0.1,0-0.2,0-0.3-0.1c-0.1,0-0.2-0.1-0.2-0.2L11.5,17c-0.3-0.3-0.3-0.8,0-1.1
		c0.3-0.3,0.8-0.3,1.1,0l3.2,3.2V7.5c0-0.4,0.3-0.8,0.8-0.8s0.8,0.3,0.8,0.8v11.7l3.2-3.2c0.3-0.3,0.8-0.3,1.1,0
		c0.3,0.3,0.3,0.8,0,1.1L17,21.5c-0.1,0.1-0.2,0.1-0.2,0.2C16.7,21.7,16.6,21.8,16.5,21.8z M7.5,17.3c-0.4,0-0.8-0.3-0.8-0.8V4.8
		L3.5,8C3.2,8.3,2.8,8.3,2.5,8C2.2,7.7,2.2,7.3,2.5,7L7,2.5C7,2.4,7.1,2.3,7.2,2.3c0.2-0.1,0.4-0.1,0.6,0C7.9,2.3,8,2.4,8,2.5
		L12.5,7c0.3,0.3,0.3,0.8,0,1.1c-0.3,0.3-0.8,0.3-1.1,0L8.2,4.8v11.7C8.2,16.9,7.9,17.3,7.5,17.3z"/>
</g>
</svg>
