<?xml version="1.0" encoding="utf-8"?>
<!-- Generator: Adobe Illustrator 28.4.1, SVG Export Plug-In . SVG Version: 6.00 Build 0)  -->
<svg version="1.1" id="Layer_1" xmlns="http://www.w3.org/2000/svg" xmlns:xlink="http://www.w3.org/1999/xlink" x="0px" y="0px"
	 viewBox="0 0 24 24" style="enable-background:new 0 0 24 24;" xml:space="preserve">
<style type="text/css">
	.st0{fill:#0F172A;}
</style>
<g>
	<path class="st0" d="M12,21.8c-5.4,0-9.8-4.4-9.8-9.8c0-4.1,2.6-7.8,6.4-9.2c0,0,0,0,0,0c1-0.4,2.2-0.6,3.3-0.6
		c5.4,0,9.8,4.4,9.8,9.8c0,0.5,0,1-0.1,1.5c0,0,0,0,0,0C20.9,18.3,16.8,21.8,12,21.8z M7.2,5.3c-2.1,1.5-3.5,4-3.5,6.7
		c0,4.5,3.7,8.3,8.2,8.3c3.9,0,7.3-2.8,8.1-6.6l-0.9-0.9c-0.2-0.2-0.4-0.5-0.6-0.8l-0.9-1.8c-0.4,0.2-0.8,0.2-1.2,0.1L15.3,10
		c0,0-0.1,0-0.1,0c0,0-0.1,0-0.1,0.1c0,0.1,0,0.1,0.1,0.2l0.6,0.4c0.5,0.3,0.8,0.8,0.8,1.4c0.1,0.6-0.1,1.1-0.5,1.5l-0.2,0.2
		c-0.1,0.1-0.1,0.2-0.1,0.3v0.4c0,0.5-0.1,1.1-0.4,1.5L14,18.1c-0.5,0.9-1.5,1.4-2.5,1.4c-1,0-1.8-0.8-1.8-1.8v-1.2
		c0-0.6-0.4-1.2-0.9-1.4l-0.7-0.3c-1.3-0.5-2.1-1.9-1.8-3.3c0.1-0.4,0.2-0.8,0.4-1.1l0.1-0.1C7.4,9.3,8.7,8.7,10,9l1.2,0.2
		c0.2,0,0.4-0.1,0.4-0.3l0.2-0.7c0-0.2,0-0.4-0.2-0.4l-0.2-0.1C10.9,8,10.2,8.2,9.6,8.2H9.4c0,0-0.1,0-0.1,0.1
		C8.7,8.8,8,8.9,7.3,8.6C6.9,8.4,6.6,8,6.5,7.6C6.3,7.1,6.4,6.7,6.6,6.3L7.2,5.3z M9.4,10.4c-0.5,0-1,0.3-1.3,0.7L8,11.3
		c-0.1,0.2-0.2,0.3-0.2,0.5c-0.1,0.7,0.3,1.4,0.9,1.7l0.7,0.3c1.1,0.5,1.9,1.6,1.9,2.8v1.2c0,0.2,0.1,0.3,0.3,0.3
		c0.5,0,0.9-0.3,1.2-0.7l1.3-2.2c0.1-0.2,0.2-0.5,0.2-0.8V14c0-0.5,0.2-1,0.5-1.3l0.2-0.2c0.1-0.1,0.1-0.2,0.1-0.3
		c0-0.1,0-0.2-0.2-0.3l-0.6-0.4c-0.6-0.4-0.8-1.1-0.7-1.8c0.1-0.4,0.4-0.8,0.8-1s0.8-0.3,1.3-0.2L17,8.9c0.3-0.3,0.7-0.4,1.1-0.3
		c0.4,0.1,0.7,0.3,0.9,0.6l1.1,2.2c0.1,0.1,0.1,0.2,0.2,0.3c-0.2-4.4-3.8-7.9-8.2-7.9c-0.8,0-1.6,0.1-2.4,0.4
		C9.5,4.3,9.4,4.5,9.3,4.7L7.9,7c0,0.1,0,0.1,0,0.1s0,0.1,0.1,0.1c0.1,0,0.2,0,0.2,0c0.3-0.3,0.7-0.5,1.2-0.5h0.2
		c0.4,0,0.8-0.2,1.1-0.4l0.1-0.1c0.2-0.2,0.6-0.3,0.9-0.1l0.7,0.3c0.8,0.4,1.2,1.3,1,2.2L13,9.3c-0.3,0.9-1.2,1.5-2.2,1.3l-1.2-0.2
		C9.6,10.4,9.5,10.4,9.4,10.4z"/>
</g>
</svg>
