<?xml version="1.0" encoding="utf-8"?>
<!-- Generator: Adobe Illustrator 28.4.1, SVG Export Plug-In . SVG Version: 6.00 Build 0)  -->
<svg version="1.1" id="Layer_1" xmlns="http://www.w3.org/2000/svg" xmlns:xlink="http://www.w3.org/1999/xlink" x="0px" y="0px"
	 viewBox="0 0 24 24" style="enable-background:new 0 0 24 24;" xml:space="preserve">
<style type="text/css">
	.st0{fill:#0F172A;}
</style>
<g>
	<path class="st0" d="M12,22.5c-0.1,0-0.2,0-0.4-0.1l-9.8-5.2c-0.2-0.1-0.4-0.4-0.4-0.7s0.2-0.5,0.4-0.7l3-1.6l-3-1.6
		c-0.2-0.1-0.4-0.4-0.4-0.7s0.2-0.5,0.4-0.7l3-1.6l-3-1.6C1.7,8,1.5,7.8,1.5,7.5S1.7,7,1.9,6.8l9.8-5.2c0.2-0.1,0.5-0.1,0.7,0
		l9.8,5.2c0.2,0.1,0.4,0.4,0.4,0.7S22.3,8,22.1,8.2l-3,1.6l3,1.6c0.2,0.1,0.4,0.4,0.4,0.7s-0.2,0.5-0.4,0.7l-3,1.6l3,1.6
		c0.2,0.1,0.4,0.4,0.4,0.7s-0.2,0.5-0.4,0.7l-9.8,5.2C12.2,22.5,12.1,22.5,12,22.5z M3.8,16.5l8.2,4.4l8.2-4.4l-2.6-1.4l-5.2,2.8
		c-0.2,0.1-0.5,0.1-0.7,0l-5.2-2.8L3.8,16.5z M6.8,13.6l5.2,2.8l5.2-2.8c0,0,0,0,0,0l2.9-1.6l-2.6-1.4l-5.2,2.8
		c-0.2,0.1-0.5,0.1-0.7,0l-5.2-2.8L3.8,12L6.8,13.6C6.8,13.6,6.8,13.6,6.8,13.6z M6.8,9.1l5.2,2.8l5.2-2.8c0,0,0,0,0,0l2.9-1.6
		L12,3.1L3.8,7.5L6.8,9.1C6.8,9.1,6.8,9.1,6.8,9.1z"/>
</g>
</svg>
