<?xml version="1.0" encoding="utf-8"?>
<!-- Generator: Adobe Illustrator 28.4.1, SVG Export Plug-In . SVG Version: 6.00 Build 0)  -->
<svg version="1.1" id="Layer_1" xmlns="http://www.w3.org/2000/svg" xmlns:xlink="http://www.w3.org/1999/xlink" x="0px" y="0px"
	 viewBox="0 0 24 24" style="enable-background:new 0 0 24 24;" xml:space="preserve">
<style type="text/css">
	.st0{fill:#0F172A;}
</style>
<g>
	<path class="st0" d="M16.5,21.8h-6c-1.7,0-3-1.3-3-3V15c0-0.4,0.3-0.8,0.8-0.8S9,14.6,9,15v3.7c0,0.8,0.7,1.5,1.5,1.5h6
		c0.8,0,1.5-0.7,1.5-1.5V5.2c0-0.8-0.7-1.5-1.5-1.5h-6C9.7,3.7,9,4.4,9,5.2V9c0,0.4-0.3,0.8-0.8,0.8S7.5,9.4,7.5,9V5.2
		c0-1.7,1.3-3,3-3h6c1.7,0,3,1.3,3,3v13.5C19.5,20.4,18.2,21.8,16.5,21.8z M12,15.8c-0.2,0-0.4-0.1-0.5-0.2c-0.3-0.3-0.3-0.8,0-1.1
		l1.7-1.7H2.2c-0.4,0-0.8-0.3-0.8-0.8s0.3-0.8,0.8-0.8h10.9l-1.7-1.7c-0.3-0.3-0.3-0.8,0-1.1s0.8-0.3,1.1,0l3,3c0,0,0,0,0,0l0,0
		c0,0,0,0,0,0c0,0,0,0,0,0c0,0,0,0,0,0c0,0,0,0,0,0v0c0,0,0,0,0,0c0,0,0,0,0,0l0,0c0,0,0,0,0,0l0,0c0.1,0.1,0.1,0.1,0.1,0.2
		c0,0.1,0.1,0.2,0.1,0.3s0,0.2-0.1,0.3c0,0,0,0,0,0c0,0,0,0,0,0c0,0.1-0.1,0.2-0.2,0.2v0c0,0,0,0,0,0c0,0,0,0,0,0c0,0,0,0,0,0h0l0,0
		c0,0,0,0,0,0c0,0,0,0,0,0l-3,3C12.4,15.7,12.2,15.8,12,15.8z"/>
</g>
</svg>
