<?xml version="1.0" encoding="utf-8"?>
<!-- Generator: Adobe Illustrator 28.4.1, SVG Export Plug-In . SVG Version: 6.00 Build 0)  -->
<svg version="1.1" id="Layer_1" xmlns="http://www.w3.org/2000/svg" xmlns:xlink="http://www.w3.org/1999/xlink" x="0px" y="0px"
	 viewBox="0 0 24 24" style="enable-background:new 0 0 24 24;" xml:space="preserve">
<style type="text/css">
	.st0{fill:#0F172A;}
</style>
<g>
	<path class="st0" d="M18.4,18.5C18.3,18.5,18.3,18.5,18.4,18.5c-0.2,0-0.3,0-0.4-0.1c0,0,0,0,0,0l-5.5-3.2c-0.4-0.2-0.5-0.7-0.3-1
		c0.2-0.4,0.7-0.5,1-0.3l3.9,2.3l-0.3-1.1c-0.6-2.2-1.8-4.1-3.5-5.6l-3.8,3.8c-0.3,0.3-0.8,0.3-1.1,0L1.7,6.5
		c-0.3-0.3-0.3-0.8,0-1.1s0.8-0.3,1.1,0L9,11.7l3.8-3.8c0.3-0.3,0.7-0.3,1-0.1c2.3,1.7,3.8,4.1,4.6,6.8l0.3,1.1l2.3-3.9
		c0.2-0.4,0.7-0.5,1-0.3c0.4,0.2,0.5,0.7,0.3,1L19,18.2c0,0,0,0,0,0c-0.1,0.1-0.1,0.2-0.2,0.2s-0.2,0.1-0.3,0.1
		C18.5,18.5,18.4,18.5,18.4,18.5z"/>
</g>
</svg>
