<?xml version="1.0" encoding="utf-8"?>
<!-- Generator: Adobe Illustrator 28.4.1, SVG Export Plug-In . SVG Version: 6.00 Build 0)  -->
<svg version="1.1" id="Layer_1" xmlns="http://www.w3.org/2000/svg" xmlns:xlink="http://www.w3.org/1999/xlink" x="0px" y="0px"
	 viewBox="0 0 24 25" style="enable-background:new 0 0 24 25;" xml:space="preserve">
<style type="text/css">
	.st0{fill:#0F172A;}
</style>
<g>
	<path class="st0" d="M19.5,22.5h-2.2c-8.7,0-15.8-7.1-15.8-15.8V4.5c0-1.7,1.3-3,3-3h1.4c0.9,0,1.6,0.6,1.8,1.4l1.1,4.4
		c0.2,0.7-0.1,1.5-0.7,2l-1.3,1c-0.1,0.1-0.2,0.2-0.1,0.4c1.1,3.1,3.6,5.6,6.7,6.7c0.1,0,0.3,0,0.4-0.1l1-1.3c0.5-0.6,1.2-0.9,2-0.7
		l4.4,1.1c0.8,0.2,1.4,1,1.4,1.8v1.4C22.5,21.2,21.2,22.5,19.5,22.5z M4.5,3C3.7,3,3,3.7,3,4.5v2.2C3,14.6,9.4,21,17.2,21h2.2
		c0.8,0,1.5-0.7,1.5-1.5v-1.4c0-0.2-0.1-0.3-0.3-0.4l-4.4-1.1c-0.1,0-0.3,0-0.4,0.1l-1,1.3c-0.5,0.7-1.3,0.9-2.1,0.6
		c-3.5-1.3-6.3-4.1-7.6-7.6c-0.3-0.7,0-1.6,0.6-2.1l1.3-1C7.3,8,7.4,7.9,7.3,7.7L6.2,3.3C6.2,3.1,6,3,5.9,3H4.5z M14.2,10.5
		c-0.2,0-0.4-0.1-0.5-0.2c-0.3-0.3-0.3-0.8,0-1.1l4.7-4.7h-2.7c-0.4,0-0.8-0.3-0.8-0.7S15.3,3,15.8,3h4.5c0.1,0,0.2,0,0.3,0.1
		c0.1,0,0.2,0.1,0.2,0.2s0.1,0.2,0.2,0.2C21,3.6,21,3.7,21,3.8v4.5C21,8.7,20.7,9,20.2,9s-0.8-0.3-0.8-0.8V5.6l-4.7,4.7
		C14.6,10.4,14.4,10.5,14.2,10.5z"/>
</g>
</svg>
