<?xml version="1.0" encoding="utf-8"?>
<!-- Generator: Adobe Illustrator 28.4.1, SVG Export Plug-In . SVG Version: 6.00 Build 0)  -->
<svg version="1.1" id="Layer_1" xmlns="http://www.w3.org/2000/svg" xmlns:xlink="http://www.w3.org/1999/xlink" x="0px" y="0px"
	 viewBox="0 0 24 24" style="enable-background:new 0 0 24 24;" xml:space="preserve">
<style type="text/css">
	.st0{fill:#0F172A;}
</style>
<g>
	<path class="st0" d="M7.8,21.8c-0.3,0-0.6-0.2-0.7-0.5c-0.1-0.4,0.1-0.8,0.4-1c1.2-0.4,2.4-0.7,3.7-0.8V5.3c-1.7,0-3.4,0.1-5.1,0.3
		l2.4,9.9c0.2,0.9-0.2,1.8-1.1,2.1c-1.5,0.5-3.1,0.5-4.6,0c-0.8-0.3-1.3-1.2-1.1-2.1l2.4-9.6C3.6,6,3,6.1,2.4,6.2
		C2,6.3,1.6,6,1.5,5.6C1.4,5.2,1.7,4.8,2.1,4.8c1-0.2,2-0.4,3-0.5c0,0,0,0,0,0c2-0.3,4.1-0.4,6.1-0.5V3c0-0.4,0.3-0.8,0.8-0.8
		s0.8,0.3,0.8,0.8v0.8c2,0,4.1,0.2,6.1,0.5c0,0,0,0,0,0c1,0.1,2,0.3,3,0.5c0.4,0.1,0.7,0.5,0.6,0.9C22.4,6,22,6.3,21.6,6.2
		C21,6.1,20.4,6,19.7,5.9l2.4,9.6c0.2,0.9-0.2,1.8-1.1,2.1c-1.5,0.5-3.1,0.5-4.6,0c-0.8-0.3-1.3-1.2-1.1-2.1l2.4-9.9
		c-1.7-0.2-3.4-0.3-5.1-0.3v14.3c1.3,0.1,2.5,0.3,3.7,0.8c0.4,0.1,0.6,0.6,0.4,1c-0.1,0.4-0.6,0.6-1,0.4c-2.5-0.9-5.3-0.9-7.8,0
		C8,21.7,7.9,21.8,7.8,21.8z M18.8,8.1l-1.9,7.7c0,0.1,0,0.3,0.1,0.3c1.1,0.4,2.4,0.4,3.6,0c0.1,0,0.1-0.2,0.1-0.3L18.8,8.1z
		 M5.2,8.1l-1.9,7.7c0,0.1,0,0.3,0.1,0.3c1.1,0.4,2.4,0.4,3.6,0c0.1,0,0.1-0.2,0.1-0.3L5.2,8.1z"/>
</g>
</svg>
