<?xml version="1.0" encoding="utf-8"?>
<!-- Generator: Adobe Illustrator 28.4.1, SVG Export Plug-In . SVG Version: 6.00 Build 0)  -->
<svg version="1.1" id="Layer_1" xmlns="http://www.w3.org/2000/svg" xmlns:xlink="http://www.w3.org/1999/xlink" x="0px" y="0px"
	 viewBox="0 0 24 24" style="enable-background:new 0 0 24 24;" xml:space="preserve">
<style type="text/css">
	.st0{fill:#0F172A;}
</style>
<g>
	<path class="st0" d="M17.5,20.8h-4c-0.6,0-1.1-0.1-1.7-0.3l-3.1-1c-0.4-0.1-0.8-0.2-1.2-0.2H7c0,0.3,0,0.6-0.2,0.9
		c-0.2,0.4-0.7,0.6-1.1,0.6H4.7c-1.3,0-2.3-0.8-2.7-1.9c-0.4-1.2-0.6-2.5-0.6-3.7c0-1.6,0.3-3.2,0.9-4.7c0.4-1,1.4-1.7,2.6-1.7h1.1
		c0.5,0,0.9,0.2,1.1,0.6C7.5,9.3,7.8,9,8.1,8.7c0.8-1.1,1.9-2,3.1-2.6c0.5-0.2,1-0.7,1.3-1.3c0.2-0.4,0.3-0.9,0.3-1.4V2.7
		c0-0.8,0.7-1.5,1.5-1.5c1.7,0,3,1.3,3,3c0,1.2-0.3,2.4-0.8,3.5c0,0,0,0.1,0,0.1c0.1,0,0.2,0,0.3,0.1h2.9c1.5,0,2.7,1,2.8,2.4
		c0,0.5,0.1,0.9,0.1,1.4c0,2.9-1,5.7-2.8,8C19.2,20.4,18.4,20.8,17.5,20.8z M6.4,17.8h1.1c0.6,0,1.1,0.1,1.7,0.3l3.1,1
		c0.4,0.1,0.8,0.2,1.2,0.2h4c0.4,0,0.8-0.2,1-0.4c1.6-2,2.5-4.5,2.5-7.1c0-0.4,0-0.8-0.1-1.2c-0.1-0.6-0.6-1-1.3-1h-5.4
		c-0.4,0-0.8-0.3-0.8-0.8S13.8,8,14.2,8h0.7c0-0.3,0-0.6,0.2-0.9c0.4-0.9,0.7-1.9,0.7-2.9c0-0.8-0.7-1.5-1.5-1.5v0.6
		c0,0.7-0.1,1.3-0.4,2c-0.3,0.9-1,1.6-2,2.1C10.9,8,10,8.7,9.3,9.6c-0.6,0.7-1.3,1.2-2.1,1.3C6.4,12.2,6,13.7,6,15.1
		C6,16,6.1,16.9,6.4,17.8z M5,10.2c-0.6,0-1,0.3-1.2,0.8C3.3,12.3,3,13.7,3,15.1c0,1.1,0.2,2.2,0.5,3.3c0.2,0.5,0.7,0.8,1.3,0.8h0.7
		c-0.1-0.1-0.1-0.3-0.2-0.5c0,0,0,0,0,0c-0.5-1.2-0.7-2.4-0.7-3.6c0-1.7,0.5-3.4,1.3-4.9H5z"/>
</g>
</svg>
