<?xml version="1.0" encoding="utf-8"?>
<!-- Generator: Adobe Illustrator 28.4.1, SVG Export Plug-In . SVG Version: 6.00 Build 0)  -->
<svg version="1.1" id="Layer_1" xmlns="http://www.w3.org/2000/svg" xmlns:xlink="http://www.w3.org/1999/xlink" x="0px" y="0px"
	 viewBox="0 0 24 24" style="enable-background:new 0 0 24 24;" xml:space="preserve">
<style type="text/css">
	.st0{fill:#0F172A;}
</style>
<g>
	<path class="st0" d="M16.5,22.5h-9c-1.7,0-3-1.3-3-3v-9c0-1.7,1.3-3,3-3H9c0.4,0,0.8,0.3,0.8,0.8C9.8,8.7,9.4,9,9,9H7.5
		C6.7,9,6,9.7,6,10.5v9C6,20.3,6.7,21,7.5,21h9c0.8,0,1.5-0.7,1.5-1.5v-9C18,9.7,17.3,9,16.5,9H15c-0.4,0-0.8-0.3-0.8-0.8
		c0-0.4,0.3-0.8,0.8-0.8h1.5c1.7,0,3,1.3,3,3v9C19.5,21.2,18.2,22.5,16.5,22.5z M12,15.8c-0.4,0-0.8-0.3-0.8-0.8V4.1L9.5,5.8
		c-0.3,0.3-0.8,0.3-1.1,0S8.2,5,8.5,4.7l3-3c0.1-0.1,0.2-0.1,0.2-0.2c0.2-0.1,0.4-0.1,0.6,0c0.1,0,0.2,0.1,0.2,0.2l3,3
		c0.3,0.3,0.3,0.8,0,1.1s-0.8,0.3-1.1,0l-1.7-1.7V15C12.8,15.4,12.4,15.8,12,15.8z"/>
</g>
</svg>
