<?xml version="1.0" encoding="utf-8"?>
<!-- Generator: Adobe Illustrator 28.4.1, SVG Export Plug-In . SVG Version: 6.00 Build 0)  -->
<svg version="1.1" id="Layer_1" xmlns="http://www.w3.org/2000/svg" xmlns:xlink="http://www.w3.org/1999/xlink" x="0px" y="0px"
	 viewBox="0 0 24 24" style="enable-background:new 0 0 24 24;" xml:space="preserve">
<style type="text/css">
	.st0{fill:#0F172A;}
</style>
<g>
	<path class="st0" d="M12,21.8c-5.4,0-9.8-4.4-9.8-9.8c0-5.4,4.4-9.8,9.8-9.8s9.8,4.4,9.8,9.8C21.8,17.4,17.4,21.8,12,21.8z M12,3.7
		c-4.5,0-8.2,3.7-8.2,8.2c0,4.5,3.7,8.3,8.2,8.3s8.2-3.7,8.2-8.3C20.2,7.5,16.5,3.7,12,3.7z M14.2,15c-0.2,0-0.4-0.1-0.5-0.2
		L12,13.1l-1.7,1.7c-0.3,0.3-0.8,0.3-1.1,0s-0.3-0.8,0-1.1l1.7-1.7l-1.7-1.7c-0.3-0.3-0.3-0.8,0-1.1s0.8-0.3,1.1,0l1.7,1.7l1.7-1.7
		c0.3-0.3,0.8-0.3,1.1,0s0.3,0.8,0,1.1L13.1,12l1.7,1.7c0.3,0.3,0.3,0.8,0,1.1C14.6,14.9,14.4,15,14.2,15z"/>
</g>
</svg>
