<?xml version="1.0" encoding="utf-8"?>
<!-- Generator: Adobe Illustrator 28.4.1, SVG Export Plug-In . SVG Version: 6.00 Build 0)  -->
<svg version="1.1" id="Layer_1" xmlns="http://www.w3.org/2000/svg" xmlns:xlink="http://www.w3.org/1999/xlink" x="0px" y="0px"
	 viewBox="0 0 24 24" style="enable-background:new 0 0 24 24;" xml:space="preserve">
<style type="text/css">
	.st0{fill:#0F172A;}
</style>
<g>
	<path class="st0" d="M12,21.8c-2.1,0-3.8-1.7-3.8-3.8c0-0.1,0-0.2,0-0.3c-1.6-0.2-3.3-0.7-4.8-1.2C3.2,16.4,3,16.2,3,16
		c-0.1-0.2,0-0.5,0.2-0.7c1.4-1.5,2.1-3.5,2.1-5.5V9c0-3.7,3-6.8,6.8-6.8c3.7,0,6.8,3,6.8,6.8v0.8c0,2,0.8,4,2.1,5.5
		c0.2,0.2,0.2,0.4,0.2,0.7c-0.1,0.2-0.2,0.4-0.5,0.5c-1.6,0.6-3.2,1-4.8,1.2c0,0.1,0,0.2,0,0.3C15.8,20.1,14.1,21.8,12,21.8z
		 M9.8,17.9c0,0,0,0.1,0,0.1c0,1.2,1,2.2,2.2,2.2c1.2,0,2.2-1,2.2-2.2c0,0,0-0.1,0-0.1C12.8,18,11.2,18,9.8,17.9z M9.2,16.3
		c1.8,0.2,3.7,0.2,5.5,0c0,0,0,0,0,0c1.5-0.2,2.9-0.5,4.3-0.9c-1.2-1.6-1.8-3.6-1.8-5.7V9c0-2.9-2.4-5.3-5.2-5.3
		C9.1,3.7,6.8,6.1,6.8,9v0.8c0,2-0.6,4-1.8,5.7C6.3,15.9,7.8,16.2,9.2,16.3C9.2,16.3,9.2,16.3,9.2,16.3z M20.9,8.2
		c-0.4,0-0.7-0.3-0.7-0.6c-0.3-1.5-0.9-3-2-4.1c-0.3-0.3-0.2-0.8,0.1-1.1c0.3-0.3,0.8-0.3,1.1,0.1c1.2,1.4,2,3.1,2.3,4.9
		c0.1,0.4-0.2,0.8-0.6,0.9C21,8.2,20.9,8.2,20.9,8.2z M3.1,8.2c0,0-0.1,0-0.1,0C2.6,8.2,2.3,7.8,2.4,7.4c0.3-1.8,1.1-3.5,2.3-4.9
		C5,2.2,5.5,2.2,5.8,2.4c0.3,0.3,0.3,0.8,0.1,1.1c-1,1.2-1.7,2.6-2,4.1C3.8,8,3.5,8.2,3.1,8.2z"/>
</g>
</svg>
