<?xml version="1.0" encoding="utf-8"?>
<!-- Generator: Adobe Illustrator 28.4.1, SVG Export Plug-In . SVG Version: 6.00 Build 0)  -->
<svg version="1.1" id="Layer_1" xmlns="http://www.w3.org/2000/svg" xmlns:xlink="http://www.w3.org/1999/xlink" x="0px" y="0px"
	 viewBox="0 0 24 24" style="enable-background:new 0 0 24 24;" xml:space="preserve">
<style type="text/css">
	.st0{fill:#0F172A;}
</style>
<g>
	<path class="st0" d="M7.5,21.8c-0.2,0-0.4-0.1-0.5-0.2L2.5,17c0,0,0,0,0,0c0,0,0,0,0,0c0,0,0,0,0,0h0c0,0,0,0,0,0c0,0,0,0,0,0h0
		c0,0,0,0,0,0v0c0,0,0,0,0,0c0,0,0,0,0,0h0c0,0,0,0,0,0l0,0c0,0,0,0,0,0c0,0,0,0,0,0c0,0,0,0,0-0.1h0c0,0,0,0,0,0c0,0,0,0,0,0l0,0
		c0,0,0,0,0,0l0,0c0,0,0,0,0,0l0,0c0,0,0,0,0,0c0,0,0,0,0,0c0,0,0,0,0,0c0,0,0,0,0,0l0,0c0,0,0,0,0,0c0,0,0,0,0,0c0,0,0,0,0,0
		c0,0,0,0,0,0c0,0,0,0,0,0c0,0,0,0,0,0c0,0,0,0,0,0c0,0,0,0,0,0h0c0,0,0,0,0,0c0,0,0,0,0,0c0,0,0,0,0,0c0,0,0,0,0,0
		c0,0-0.1-0.1-0.1-0.1c0-0.1-0.1-0.2-0.1-0.3c0,0,0,0,0,0v0c0,0,0,0,0,0l0,0c0,0,0,0,0,0l0,0c0,0,0,0,0,0v0c0,0,0,0,0,0c0,0,0,0,0,0
		l0,0c0-0.1,0-0.2,0.1-0.3c0-0.1,0.1-0.2,0.2-0.2l0,0c0,0,0,0,0,0c0,0,0,0,0,0s0,0,0,0h0c0,0,0,0,0,0c0,0,0,0,0,0c0,0,0,0,0,0
		L7,11.5c0.3-0.3,0.8-0.3,1.1,0s0.3,0.8,0,1.1l-3.2,3.2h11.7c0.4,0,0.8,0.3,0.8,0.7s-0.3,0.8-0.8,0.8H4.8L8,20.5
		c0.3,0.3,0.3,0.8,0,1.1C7.9,21.7,7.7,21.8,7.5,21.8z M16.5,12.7c-0.2,0-0.4-0.1-0.5-0.2c-0.3-0.3-0.3-0.8,0-1.1l3.2-3.2H7.5
		c-0.4,0-0.8-0.3-0.8-0.8s0.3-0.8,0.8-0.8h11.7L16,3.5c-0.3-0.3-0.3-0.8,0-1.1s0.8-0.3,1.1,0L21.5,7c0.1,0.1,0.1,0.2,0.2,0.2
		c0,0.1,0.1,0.2,0.1,0.3s0,0.2-0.1,0.3c0,0,0,0,0,0c0,0,0,0,0,0c0,0.1-0.1,0.2-0.2,0.2v0c0,0,0,0,0,0c0,0,0,0,0,0c0,0,0,0,0,0
		c0,0,0,0,0,0L17,12.5C16.9,12.7,16.7,12.7,16.5,12.7z"/>
</g>
</svg>
