<?xml version="1.0" encoding="utf-8"?>
<!-- Generator: Adobe Illustrator 28.4.1, SVG Export Plug-In . SVG Version: 6.00 Build 0)  -->
<svg version="1.1" id="Layer_1" xmlns="http://www.w3.org/2000/svg" xmlns:xlink="http://www.w3.org/1999/xlink" x="0px" y="0px"
	 viewBox="0 0 24 24" style="enable-background:new 0 0 24 24;" xml:space="preserve">
<style type="text/css">
	.st0{fill:#0F172A;}
</style>
<g>
	<path class="st0" d="M3,22.5c-0.2,0-0.4-0.1-0.5-0.2l-0.8-0.8c-0.3-0.3-0.3-0.8,0-1.1l1-1C2.9,19.3,3,19,3,18.8
		c0-0.7,0.3-1.3,0.8-1.8L11.7,9l-1-1c-0.3-0.3-0.3-0.8,0-1.1l0.8-0.8C11.6,6.1,11.8,6,12,6h2.7l0.5-1.7c0.2-0.6,0.5-1.2,1-1.7
		c1.4-1.4,3.9-1.4,5.3,0c0.7,0.7,1.1,1.6,1.1,2.7s-0.4,1.9-1.1,2.7c-0.5,0.5-1,0.8-1.7,1L18,9.3V12c0,0.2-0.1,0.4-0.2,0.5L17,13.3
		c-0.3,0.3-0.8,0.3-1.1,0l-1-1l-7.9,7.9C6.6,20.7,5.9,21,5.2,21c-0.3,0-0.6,0.1-0.7,0.3l-1,1C3.4,22.4,3.2,22.5,3,22.5z M12.8,10.1
		L4.8,18c-0.2,0.2-0.3,0.5-0.3,0.8c0,0.3-0.1,0.6-0.2,0.9c0.3-0.1,0.6-0.2,0.9-0.2c0.3,0,0.6-0.1,0.8-0.3l7.9-7.9L12.8,10.1z
		 M15.5,10.7l1,1V8.8c0-0.3,0.2-0.6,0.6-0.7l2.3-0.6c0.4-0.1,0.7-0.3,1-0.6c0.4-0.4,0.7-1,0.7-1.6s-0.2-1.2-0.7-1.6
		c-0.9-0.9-2.3-0.9-3.2,0c-0.3,0.3-0.5,0.6-0.6,1L16,6.9c-0.1,0.3-0.4,0.6-0.7,0.6h-2.9L15.5,10.7z"/>
</g>
</svg>
