<?xml version="1.0" encoding="utf-8"?>
<!-- Generator: Adobe Illustrator 28.4.1, SVG Export Plug-In . SVG Version: 6.00 Build 0)  -->
<svg version="1.1" id="Layer_1" xmlns="http://www.w3.org/2000/svg" xmlns:xlink="http://www.w3.org/1999/xlink" x="0px" y="0px"
	 viewBox="0 0 24 25" style="enable-background:new 0 0 24 25;" xml:space="preserve">
<style type="text/css">
	.st0{fill:#0F172A;}
</style>
<g>
	<path class="st0" d="M5.5,22.7c-0.5,0-1.1-0.2-1.5-0.5c-0.6-0.5-1-1.2-1-2C3,19,3.8,18,4.9,17.7L7.2,17c0.6-0.2,1.1-0.8,1.1-1.4V9
		c0,0,0,0,0,0V5.3c0-0.3,0.2-0.6,0.5-0.7l10.5-3c0.2-0.1,0.5,0,0.7,0.1c0.2,0.1,0.3,0.4,0.3,0.6V6c0,0,0,0,0,0v10.3
		c0,1.3-0.9,2.5-2.2,2.9l-1.3,0.4c-0.8,0.2-1.6,0.1-2.2-0.4c-0.6-0.5-1-1.2-1-2c0-1.1,0.8-2.1,1.9-2.5l2.3-0.7
		c0.6-0.2,1.1-0.8,1.1-1.4V7l-9,2.6v9.7c0,1.3-0.9,2.5-2.2,2.9l-1.3,0.4C6,22.6,5.8,22.7,5.5,22.7z M8.2,18.2
		c-0.2,0.1-0.4,0.2-0.7,0.3l-2.3,0.7c-0.4,0.1-0.8,0.5-0.8,1c0,0.3,0.2,0.6,0.4,0.8c0.3,0.2,0.6,0.3,0.9,0.2l1.3-0.4
		c0.6-0.2,1.1-0.8,1.1-1.4V18.2z M18.8,15.2c-0.2,0.1-0.4,0.2-0.7,0.3l-2.3,0.7c-0.5,0.1-0.8,0.5-0.8,1c0,0.3,0.2,0.6,0.4,0.8
		c0.3,0.2,0.6,0.3,0.9,0.2l1.3-0.4c0.6-0.2,1.1-0.8,1.1-1.4V15.2z M9.8,5.8V8l9-2.6V3.3L9.8,5.8z"/>
</g>
</svg>
