<?xml version="1.0" encoding="utf-8"?>
<!-- Generator: Adobe Illustrator 28.4.1, SVG Export Plug-In . SVG Version: 6.00 Build 0)  -->
<svg version="1.1" id="Layer_1" xmlns="http://www.w3.org/2000/svg" xmlns:xlink="http://www.w3.org/1999/xlink" x="0px" y="0px"
	 viewBox="0 0 24 24" style="enable-background:new 0 0 24 24;" xml:space="preserve">
<style type="text/css">
	.st0{fill:#0F172A;}
</style>
<g>
	<path class="st0" d="M21.8,21.8H2.2c-0.4,0-0.8-0.3-0.8-0.8s0.3-0.8,0.8-0.8H3V9.5L2.5,9.7c-0.4,0.1-0.8-0.1-1-0.4
		C1.4,8.9,1.6,8.4,2,8.3l1-0.4V3c0-0.4,0.3-0.8,0.8-0.8h3c0.4,0,0.8,0.3,0.8,0.8v3.3L17,2.8c0,0,0,0,0,0l1.5-0.5
		c0.4-0.1,0.8,0.1,1,0.4c0.1,0.4-0.1,0.8-0.4,1l-1,0.4v5.1l2.5,0.8c0,0,0,0,0,0l1.5,0.5c0.4,0.1,0.6,0.6,0.5,0.9
		c-0.1,0.4-0.6,0.6-0.9,0.5L21,11.8v8.5h0.8c0.4,0,0.8,0.3,0.8,0.8S22.2,21.8,21.8,21.8z M18,20.3h1.5v-9L18,10.8V20.3z M13.5,20.3
		h3V9.8c0,0,0,0,0,0V4.6L7,8.1c0,0,0,0,0,0L4.5,9v11.3h3v-4.1c0-1,0.8-1.9,1.9-1.9h2.2c1,0,1.9,0.8,1.9,1.9V20.3z M9,20.3h3v-4.1
		c0-0.2-0.2-0.4-0.4-0.4H9.4c-0.2,0-0.4,0.2-0.4,0.4V20.3z M4.5,3.7v3.6L6,6.8V3.7H4.5z"/>
</g>
</svg>
