<?xml version="1.0" encoding="utf-8"?>
<!-- Generator: Adobe Illustrator 28.4.1, SVG Export Plug-In . SVG Version: 6.00 Build 0)  -->
<svg version="1.1" id="Layer_1" xmlns="http://www.w3.org/2000/svg" xmlns:xlink="http://www.w3.org/1999/xlink" x="0px" y="0px"
	 viewBox="0 0 24 25" style="enable-background:new 0 0 24 25;" xml:space="preserve">
<style type="text/css">
	.st0{fill:#0F172A;}
</style>
<g>
	<path class="st0" d="M10.6,21.7C10.6,21.7,10.6,21.7,10.6,21.7c-1.6,0-3.2-0.2-4.7-0.4c-0.2,0-0.4-0.1-0.5-0.3
		c-0.1-0.2-0.2-0.4-0.1-0.6c0.3-1.5,0.5-3.1,0.6-4.7c-0.1,0-0.2,0.1-0.3,0.2c-0.4,0.3-0.9,0.5-1.5,0.5c-1.4,0-2.6-1.3-2.6-3
		c0-1.7,1.2-3,2.6-3c0.5,0,1,0.2,1.5,0.5c0.2,0.1,0.3,0.2,0.4,0.2c0-1.6-0.1-3.2-0.3-4.7c0-0.2,0.1-0.5,0.2-0.6
		c0.2-0.2,0.4-0.2,0.6-0.2C7.8,5.9,9.2,6,10.5,6c0-0.1-0.1-0.2-0.2-0.4C9.9,5.2,9.8,4.7,9.8,4.1c0-1.4,1.3-2.6,3-2.6s3,1.2,3,2.6
		c0,0.5-0.2,1-0.5,1.5c-0.1,0.1-0.2,0.2-0.2,0.3c1.8-0.1,3.7-0.3,5.4-0.7c0.2,0,0.4,0,0.6,0.1c0.2,0.1,0.3,0.3,0.3,0.5
		c0.2,1.8,0.4,3.6,0.4,5.4c0,0.4-0.1,0.7-0.4,1c-0.3,0.3-0.6,0.4-1,0.4c-0.6,0-1.1-0.3-1.4-0.6c-0.2-0.1-0.4-0.2-0.5-0.2
		c-0.6,0-1.1,0.7-1.1,1.5s0.5,1.5,1.1,1.5c0.2,0,0.4-0.1,0.5-0.2c0.3-0.2,0.8-0.6,1.4-0.6c0.4,0,0.7,0.2,0.9,0.4
		c0.2,0.3,0.4,0.6,0.3,1c-0.1,1.6-0.3,3.2-0.6,4.8C21,20.7,20.7,21,20.4,21c-1.8,0.3-3.7,0.5-5.5,0.6c-0.4,0-0.7-0.1-1-0.4
		c-0.3-0.2-0.4-0.6-0.4-1c0-0.6,0.3-1.1,0.6-1.4c0.1-0.2,0.2-0.4,0.2-0.5c0-0.6-0.7-1.1-1.5-1.1c-0.8,0-1.5,0.5-1.5,1.1
		c0,0.2,0.1,0.4,0.2,0.5c0.2,0.3,0.6,0.8,0.6,1.4c0,0.4-0.2,0.7-0.4,1C11.3,21.6,11,21.7,10.6,21.7z M6.9,20
		c1.2,0.1,2.4,0.2,3.6,0.3c0-0.1-0.1-0.2-0.2-0.4c-0.3-0.4-0.5-0.9-0.5-1.5c0-1.4,1.3-2.6,3-2.6s3,1.2,3,2.6c0,0.5-0.2,1-0.5,1.5
		c-0.1,0.1-0.2,0.2-0.2,0.3c1.5-0.1,3.1-0.3,4.6-0.5c0.2-1.3,0.4-2.5,0.5-3.8c-0.1,0-0.2,0.1-0.3,0.2c-0.4,0.3-0.9,0.5-1.5,0.5
		c-1.4,0-2.6-1.3-2.6-3c0-1.7,1.2-3,2.6-3c0.5,0,1,0.2,1.5,0.5c0.2,0.1,0.3,0.2,0.4,0.2c0-1.5-0.1-2.9-0.3-4.4
		c-1.7,0.3-3.4,0.5-5.1,0.6c-0.4,0-0.7-0.1-1-0.4c-0.3-0.3-0.4-0.6-0.4-1c0-0.6,0.3-1.1,0.6-1.4c0.1-0.2,0.2-0.4,0.2-0.5
		c0-0.6-0.7-1.1-1.5-1.1c-0.8,0-1.5,0.5-1.5,1.1c0,0.2,0.1,0.4,0.2,0.5C11.7,5,12,5.5,12,6.1c0,0.4-0.2,0.7-0.4,1
		c-0.3,0.3-0.6,0.4-1,0.4c-1.1,0-2.2-0.1-3.3-0.2c0.1,1.3,0.2,2.7,0.2,4.1c0,0.4-0.1,0.7-0.4,1c-0.3,0.3-0.6,0.4-1,0.4
		c-0.6,0-1.1-0.3-1.4-0.6C4.5,12.1,4.3,12,4.1,12C3.5,12,3,12.7,3,13.5S3.5,15,4.1,15c0.2,0,0.4-0.1,0.5-0.2
		c0.3-0.2,0.8-0.6,1.4-0.6c0.4,0,0.7,0.1,0.9,0.4c0.2,0.3,0.4,0.6,0.3,1C7.3,17.1,7.1,18.6,6.9,20z"/>
</g>
</svg>
