<?xml version="1.0" encoding="utf-8"?>
<!-- Generator: Adobe Illustrator 28.4.1, SVG Export Plug-In . SVG Version: 6.00 Build 0)  -->
<svg version="1.1" id="Layer_1" xmlns="http://www.w3.org/2000/svg" xmlns:xlink="http://www.w3.org/1999/xlink" x="0px" y="0px"
	 viewBox="0 0 24 24" style="enable-background:new 0 0 24 24;" xml:space="preserve">
<style type="text/css">
	.st0{fill:#0F172A;}
</style>
<g>
	<path class="st0" d="M12,22.5L12,22.5L12,22.5c-0.1,0-0.1,0-0.2,0c-0.1,0-0.1,0-0.2-0.1c0,0,0,0,0,0l-9-5.2
		c-0.2-0.1-0.4-0.4-0.4-0.6v-9c0,0,0,0,0,0c0-0.1,0-0.1,0-0.2c0,0,0,0,0,0l0,0c0-0.1,0-0.1,0.1-0.2C2.4,7.1,2.4,7,2.5,7
		s0.1-0.1,0.2-0.1c0,0,0,0,0,0l9-5.2c0.2-0.1,0.5-0.1,0.8,0l9,5.2c0,0,0,0,0,0c0.1,0,0.1,0.1,0.2,0.1c0,0,0.1,0.1,0.1,0.2
		c0,0.1,0.1,0.1,0.1,0.2l0,0c0,0,0,0,0,0c0,0.1,0,0.1,0,0.2c0,0,0,0,0,0v9c0,0.3-0.1,0.5-0.4,0.6l-9,5.2c0,0,0,0,0,0
		c-0.1,0-0.1,0.1-0.2,0.1C12.1,22.5,12.1,22.5,12,22.5z M12.8,13.2v7.3l7.5-4.4V8.8L12.8,13.2z M3.8,16.1l7.5,4.4v-7.3L3.8,8.8V16.1
		z M4.5,7.5l7.5,4.4l7.5-4.4L12,3.1L4.5,7.5z"/>
</g>
</svg>
