<?xml version="1.0" encoding="utf-8"?>
<!-- Generator: Adobe Illustrator 28.4.1, SVG Export Plug-In . SVG Version: 6.00 Build 0)  -->
<svg version="1.1" id="Layer_1" xmlns="http://www.w3.org/2000/svg" xmlns:xlink="http://www.w3.org/1999/xlink" x="0px" y="0px"
	 viewBox="0 0 24 24" style="enable-background:new 0 0 24 24;" xml:space="preserve">
<style type="text/css">
	.st0{fill:#0F172A;}
</style>
<g>
	<path class="st0" d="M17.2,23.3H9.8c-1.7,0-3-1.3-3-3c-1.7,0-3-1.3-3-3V9.7c0-1.7,1.3-3,3-3h0.8c0.4,0,0.8,0.3,0.8,0.8
		S7.9,8.2,7.5,8.2H6.8c-0.8,0-1.5,0.7-1.5,1.5v7.5c0,0.8,0.7,1.5,1.5,1.5h7.5c0.8,0,1.5-0.7,1.5-1.5V9.7c0-0.8-0.7-1.5-1.5-1.5h-0.8
		c-0.4,0-0.8-0.3-0.8-0.8s0.3-0.8,0.8-0.8h0.8c1.7,0,3,1.3,3,3c1.7,0,3,1.3,3,3v7.5C20.2,21.9,18.9,23.3,17.2,23.3z M8.2,20.3
		c0,0.8,0.7,1.5,1.5,1.5h7.5c0.8,0,1.5-0.7,1.5-1.5v-7.5c0-0.8-0.7-1.5-1.5-1.5v6c0,1.7-1.3,3-3,3H8.2z M10.5,13.5
		c-0.4,0-0.8-0.3-0.8-0.7V3.3L8,5C7.7,5.3,7.3,5.3,7,5S6.7,4.3,7,4l3-3c0.1-0.1,0.2-0.1,0.2-0.2c0.2-0.1,0.4-0.1,0.6,0
		C10.9,0.8,11,0.9,11,1l3,3c0.3,0.3,0.3,0.8,0,1.1S13.3,5.3,13,5l-1.7-1.7v9.4C11.2,13.2,10.9,13.5,10.5,13.5z"/>
</g>
</svg>
