<?xml version="1.0" encoding="utf-8"?>
<!-- Generator: Adobe Illustrator 28.4.1, SVG Export Plug-In . SVG Version: 6.00 Build 0)  -->
<svg version="1.1" id="Layer_1" xmlns="http://www.w3.org/2000/svg" xmlns:xlink="http://www.w3.org/1999/xlink" x="0px" y="0px"
	 viewBox="0 0 24 25" style="enable-background:new 0 0 24 25;" xml:space="preserve">
<style type="text/css">
	.st0{fill:#0F172A;}
</style>
<g>
	<path class="st0" d="M3.3,21.6c-0.2,0-0.4-0.1-0.5-0.2c-0.2-0.2-0.3-0.5-0.2-0.7L5.2,12L2.6,3.4c-0.1-0.3,0-0.6,0.2-0.7
		c0.2-0.2,0.5-0.3,0.7-0.2c6.6,1.9,12.8,4.9,18.4,9c0.2,0.1,0.3,0.4,0.3,0.6s-0.1,0.5-0.3,0.6c-5.6,4-11.8,7.1-18.4,9
		C3.4,21.6,3.3,21.6,3.3,21.6z M6.6,12.8l-2.2,7C10,18,15.3,15.4,20.2,12C15.3,8.6,10,6,4.4,4.3l2.2,7h6.9c0.4,0,0.8,0.3,0.8,0.8
		s-0.3,0.8-0.8,0.8H6.6z"/>
</g>
</svg>
