<?xml version="1.0" encoding="utf-8"?>
<!-- Generator: Adobe Illustrator 28.4.1, SVG Export Plug-In . SVG Version: 6.00 Build 0)  -->
<svg version="1.1" id="Layer_1" xmlns="http://www.w3.org/2000/svg" xmlns:xlink="http://www.w3.org/1999/xlink" x="0px" y="0px"
	 viewBox="0 0 24 24" style="enable-background:new 0 0 24 24;" xml:space="preserve">
<style type="text/css">
	.st0{fill:#0F172A;}
</style>
<g>
	<path class="st0" d="M18.8,21H5.2c-2.1,0-3.8-1.7-3.8-3.8V17c0-0.4,0-0.8,0.1-1.2l2.3-9.6C4.3,4.3,6,3,7.9,3h8.2
		c1.9,0,3.6,1.3,4,3.2l2.3,9.6c0.1,0.4,0.1,0.8,0.1,1.2v0.2C22.5,19.3,20.8,21,18.8,21z M3,17.3c0,1.2,1,2.2,2.2,2.2h13.5
		c1.2,0,2.2-1,2.2-2.2S20,15,18.8,15H5.2C4,15,3,16,3,17.3z M5.2,13.5h13.5c0.6,0,1.1,0.1,1.6,0.4l-1.7-7.3c-0.3-1.2-1.3-2-2.6-2
		H7.9c-1.2,0-2.3,0.8-2.6,2l-1.7,7.3C4.1,13.6,4.7,13.5,5.2,13.5z M18.8,18c-0.4,0-0.8-0.3-0.8-0.8s0.3-0.8,0.8-0.8h0
		c0.4,0,0.8,0.3,0.8,0.8S19.2,18,18.8,18z M15.8,18c-0.4,0-0.8-0.3-0.8-0.8s0.3-0.8,0.8-0.8h0c0.4,0,0.8,0.3,0.8,0.8
		S16.2,18,15.8,18z"/>
</g>
</svg>
