<?xml version="1.0" encoding="utf-8"?>
<!-- Generator: Adobe Illustrator 28.4.1, SVG Export Plug-In . SVG Version: 6.00 Build 0)  -->
<svg version="1.1" id="Layer_1" xmlns="http://www.w3.org/2000/svg" xmlns:xlink="http://www.w3.org/1999/xlink" x="0px" y="0px"
	 viewBox="0 0 24 24" style="enable-background:new 0 0 24 24;" xml:space="preserve">
<style type="text/css">
	.st0{fill:#0F172A;}
</style>
<g>
	<path class="st0" d="M19.4,20.3H4.6c-1.1,0-2.1-0.6-2.6-1.5c-0.5-0.9-0.5-2.1,0-3c0,0,0,0,0,0L9.4,3c0.5-0.9,1.5-1.5,2.6-1.5
		c0,0,0,0,0,0c1.1,0,2.1,0.6,2.6,1.5L22,15.8c0.5,0.9,0.5,2.1,0,3C21.4,19.7,20.4,20.3,19.4,20.3z M3.3,16.5c-0.3,0.5-0.3,1,0,1.5
		c0.3,0.5,0.8,0.8,1.3,0.8h14.7c0.5,0,1-0.3,1.3-0.7c0.3-0.5,0.3-1,0-1.5L13.3,3.8C13,3.3,12.5,3,12,3h0c-0.5,0-1,0.3-1.3,0.8
		L3.3,16.5z M12,16.5c-0.4,0-0.8-0.3-0.8-0.7c0-0.4,0.3-0.8,0.8-0.8h0c0.4,0,0.8,0.3,0.8,0.8C12.8,16.2,12.4,16.5,12,16.5z M12,13.5
		c-0.4,0-0.8-0.3-0.8-0.8V9c0-0.4,0.3-0.8,0.8-0.8s0.8,0.3,0.8,0.8v3.8C12.8,13.2,12.4,13.5,12,13.5z"/>
</g>
</svg>
