<?xml version="1.0" encoding="utf-8"?>
<!-- Generator: Adobe Illustrator 28.4.1, SVG Export Plug-In . SVG Version: 6.00 Build 0)  -->
<svg version="1.1" id="Layer_1" xmlns="http://www.w3.org/2000/svg" xmlns:xlink="http://www.w3.org/1999/xlink" x="0px" y="0px"
	 viewBox="0 0 24 24" style="enable-background:new 0 0 24 24;" xml:space="preserve">
<style type="text/css">
	.st0{fill:#0F172A;}
</style>
<g>
	<path class="st0" d="M19.5,19.5c-0.2,0-0.4-0.1-0.5-0.2l-7-7l-7,7c-0.3,0.3-0.8,0.3-1.1,0s-0.3-0.8,0-1.1l7.5-7.5
		c0.3-0.3,0.8-0.3,1.1,0l7.5,7.5c0.3,0.3,0.3,0.8,0,1.1C19.9,19.4,19.7,19.5,19.5,19.5z"/>
</g>
<g>
	<path class="st0" d="M19.5,13.5c-0.2,0-0.4-0.1-0.5-0.2l-7-7l-7,7c-0.3,0.3-0.8,0.3-1.1,0s-0.3-0.8,0-1.1l7.5-7.5
		c0.3-0.3,0.8-0.3,1.1,0l7.5,7.5c0.3,0.3,0.3,0.8,0,1.1C19.9,13.4,19.7,13.5,19.5,13.5z"/>
</g>
</svg>
