<?xml version="1.0" encoding="utf-8"?>
<!-- Generator: Adobe Illustrator 28.4.1, SVG Export Plug-In . SVG Version: 6.00 Build 0)  -->
<svg version="1.1" id="Layer_1" xmlns="http://www.w3.org/2000/svg" xmlns:xlink="http://www.w3.org/1999/xlink" x="0px" y="0px"
	 viewBox="0 0 24 24" style="enable-background:new 0 0 24 24;" xml:space="preserve">
<style type="text/css">
	.st0{fill:#0F172A;}
</style>
<g>
	<path class="st0" d="M6.8,21.8c-0.1,0-0.2,0-0.3-0.1C6.2,21.6,6,21.3,6,21v-4c-0.4,0-0.7-0.1-1.1-0.1c-1.9-0.3-3.4-2-3.4-4V6.6
		c0-2,1.5-3.7,3.4-4c4.2-0.5,8.5-0.5,12.7,0c1.9,0.3,3.4,2,3.4,4V8c0.9,0.5,1.5,1.5,1.5,2.6v4.3c0,1.6-1.1,2.8-2.7,2.9
		c-0.1,0-0.2,0-0.3,0v2.4c0,0.3-0.2,0.6-0.5,0.7c-0.3,0.1-0.6,0.1-0.8-0.2L15.4,18c-1.3,0-2.5-0.1-3.8-0.2c-0.2,0-0.4-0.1-0.6-0.1
		l-3.8,3.8C7.1,21.7,6.9,21.8,6.8,21.8z M11.3,3.7c-2.1,0-4.1,0.1-6.1,0.4C3.9,4.3,3,5.4,3,6.6v6.2c0,1.3,0.9,2.3,2.1,2.5
		c0.6,0.1,1.1,0.1,1.7,0.2c0.4,0,0.7,0.4,0.7,0.7v2.9l2.3-2.3c-0.5-0.5-0.8-1.3-0.8-2v-4.3c0-1.5,1.1-2.8,2.7-2.9
		c2.6-0.2,5.2-0.2,7.8,0v-1c0-1.3-0.9-2.3-2.1-2.5C15.4,3.9,13.3,3.7,11.3,3.7z M11.3,16.2c0.2,0.1,0.3,0.1,0.5,0.1
		c1.3,0.1,2.6,0.2,4,0.2c0.2,0,0.4,0.1,0.5,0.2l1.7,1.7v-1.3c0-0.4,0.3-0.7,0.7-0.7c0.3,0,0.7,0,1-0.1c0.7-0.1,1.3-0.7,1.3-1.4v-4.3
		c0-0.6-0.4-1.2-1-1.4c0,0,0,0,0,0c-0.1,0-0.2,0-0.3-0.1c-2.6-0.2-5.3-0.2-7.9,0c-0.7,0.1-1.3,0.7-1.3,1.4v4.3
		C10.5,15.4,10.8,15.9,11.3,16.2C11.3,16.2,11.3,16.2,11.3,16.2z"/>
</g>
</svg>
