<?xml version="1.0" encoding="utf-8"?>
<!-- Generator: Adobe Illustrator 28.4.1, SVG Export Plug-In . SVG Version: 6.00 Build 0)  -->
<svg version="1.1" id="Layer_1" xmlns="http://www.w3.org/2000/svg" xmlns:xlink="http://www.w3.org/1999/xlink" x="0px" y="0px"
	 viewBox="0 0 24 24" style="enable-background:new 0 0 24 24;" xml:space="preserve">
<style type="text/css">
	.st0{fill:#0F172A;}
</style>
<g>
	<path class="st0" d="M15.8,23.3H8.2c-1.7,0-3-1.3-3-3V3.7c0-1.7,1.3-3,3-3h7.5c1.7,0,3,1.3,3,3v16.5C18.8,21.9,17.4,23.3,15.8,23.3
		z M8.2,2.2c-0.8,0-1.5,0.7-1.5,1.5v16.5c0,0.8,0.7,1.5,1.5,1.5h7.5c0.8,0,1.5-0.7,1.5-1.5V3.7c0-0.8-0.7-1.5-1.5-1.5h-1.5V3
		c0,0.4-0.3,0.8-0.8,0.8h-3c-0.4,0-0.8-0.3-0.8-0.8V2.2H8.2z M11.2,2.2h1.5H11.2z M13.5,21h-3c-0.4,0-0.8-0.3-0.8-0.8
		s0.3-0.8,0.8-0.8h3c0.4,0,0.8,0.3,0.8,0.8S13.9,21,13.5,21z"/>
</g>
</svg>
