<?xml version="1.0" encoding="utf-8"?>
<!-- Generator: Adobe Illustrator 28.4.1, SVG Export Plug-In . SVG Version: 6.00 Build 0)  -->
<svg version="1.1" id="Layer_1" xmlns="http://www.w3.org/2000/svg" xmlns:xlink="http://www.w3.org/1999/xlink" x="0px" y="0px"
	 viewBox="0 0 24 24" style="enable-background:new 0 0 24 24;" xml:space="preserve">
<style type="text/css">
	.st0{fill:#0F172A;}
</style>
<g>
	<path class="st0" d="M19.5,21h-15c-1.7,0-3-1.3-3-3v-2.6c0-0.6,0.3-1.1,0.7-1.5c-0.4-0.5-0.7-1.2-0.7-1.9V9.8
		c0-0.4,0.1-0.7,0.2-1.1c0,0,0,0,0,0C1.8,8.4,2,8.1,2.2,7.9L5.5,4c0.6-0.7,1.4-1,2.3-1h8.4c0.9,0,1.7,0.4,2.3,1l3.3,3.8
		c0.2,0.2,0.4,0.5,0.5,0.8c0,0,0,0,0,0c0.1,0.3,0.2,0.7,0.2,1.1V12c0,0.7-0.3,1.4-0.7,1.9c0.4,0.3,0.7,0.9,0.7,1.5V18
		C22.5,19.7,21.2,21,19.5,21z M3.4,15C3.2,15,3,15.2,3,15.4V18c0,0.8,0.7,1.5,1.5,1.5h15c0.8,0,1.5-0.7,1.5-1.5v-2.6
		c0-0.2-0.2-0.4-0.4-0.4h-4.1l-1,1.6C15,17.5,14,18,13,18h-2c-1,0-2-0.5-2.5-1.4l-1-1.6H3.4z M9.2,15l0.5,0.8
		c0.3,0.4,0.8,0.7,1.3,0.7h2c0.5,0,1-0.3,1.3-0.7l0.5-0.8H9.2z M16.1,13.5h3.4c0.8,0,1.5-0.7,1.5-1.5V9.8c0,0,0-0.1,0-0.1h-4
		c-0.5,0-1,0.2-1.2,0.7l-0.2,0.2C15,11.5,14.1,12,13,12H11c-1,0-1.9-0.5-2.5-1.3l-0.2-0.2C8,10,7.5,9.7,7,9.7H3c0,0,0,0.1,0,0.1V12
		c0,0.8,0.7,1.5,1.5,1.5h3.4c0,0,0,0,0,0H16.1C16.1,13.5,16.1,13.5,16.1,13.5z M3.9,8.2H7c1,0,1.9,0.5,2.5,1.3l0.2,0.2
		c0.3,0.4,0.7,0.7,1.2,0.7H13c0.5,0,1-0.2,1.2-0.7l0.2-0.2C15,8.7,15.9,8.2,17,8.2h3.2L17.4,5c-0.3-0.3-0.7-0.5-1.1-0.5H7.8
		C7.3,4.5,6.9,4.7,6.6,5L3.9,8.2z"/>
</g>
</svg>
