<?xml version="1.0" encoding="utf-8"?>
<!-- Generator: Adobe Illustrator 28.4.1, SVG Export Plug-In . SVG Version: 6.00 Build 0)  -->
<svg version="1.1" id="Layer_1" xmlns="http://www.w3.org/2000/svg" xmlns:xlink="http://www.w3.org/1999/xlink" x="0px" y="0px"
	 viewBox="0 0 24 24" style="enable-background:new 0 0 24 24;" xml:space="preserve">
<style type="text/css">
	.st0{fill:#0F172A;}
</style>
<g>
	<path class="st0" d="M17.3,21.4c-0.2,0-0.5-0.1-0.7-0.2L12,18.4l-4.6,2.8c-0.5,0.3-1,0.3-1.5-0.1c-0.4-0.3-0.6-0.8-0.5-1.4l1.3-5.3
		L2.6,11C2.1,10.6,2,10.1,2.2,9.6C2.3,9,2.8,8.7,3.3,8.6l5.4-0.4l2.1-5l0,0C11,2.7,11.5,2.4,12,2.4s1,0.3,1.2,0.8l2.1,5l5.4,0.4
		c0.5,0,1,0.4,1.1,0.9c0.2,0.5,0,1.1-0.4,1.4l-4.1,3.5l1.3,5.3c0.1,0.5-0.1,1.1-0.5,1.4C17.9,21.3,17.6,21.4,17.3,21.4z M3.9,10.1
		l3.9,3.3c0.4,0.3,0.5,0.8,0.4,1.3L7,19.7l4.3-2.7c0.4-0.3,0.9-0.3,1.4,0l4.3,2.7l-1.2-4.9c-0.1-0.5,0-1,0.4-1.3l3.9-3.3l-5.1-0.4
		c-0.5,0-0.9-0.3-1.1-0.8l-2-4.7l-2,4.7C9.9,9.4,9.4,9.7,8.9,9.7L3.9,10.1z"/>
</g>
</svg>
