<?xml version="1.0" encoding="utf-8"?>
<!-- Generator: Adobe Illustrator 28.4.1, SVG Export Plug-In . SVG Version: 6.00 Build 0)  -->
<svg version="1.1" id="Layer_1" xmlns="http://www.w3.org/2000/svg" xmlns:xlink="http://www.w3.org/1999/xlink" x="0px" y="0px"
	 viewBox="0 0 24 24" style="enable-background:new 0 0 24 24;" xml:space="preserve">
<style type="text/css">
	.st0{fill:#0F172A;}
</style>
<g>
	<path class="st0" d="M12,19.5c-0.2,0-0.4-0.1-0.5-0.2l-3.8-3.7c-0.3-0.3-0.3-0.8,0-1.1s0.8-0.3,1.1,0l3.2,3.2l3.2-3.2
		c0.3-0.3,0.8-0.3,1.1,0s0.3,0.8,0,1.1l-3.8,3.7C12.4,19.4,12.2,19.5,12,19.5z M15.8,9.7c-0.2,0-0.4-0.1-0.5-0.2L12,6.3L8.8,9.5
		C8.5,9.8,8,9.8,7.7,9.5s-0.3-0.8,0-1.1l3.8-3.8c0.3-0.3,0.8-0.3,1.1,0l3.8,3.8c0.3,0.3,0.3,0.8,0,1.1C16.1,9.7,15.9,9.7,15.8,9.7z"
		/>
</g>
</svg>
