<?xml version="1.0" encoding="utf-8"?>
<!-- Generator: Adobe Illustrator 28.4.1, SVG Export Plug-In . SVG Version: 6.00 Build 0)  -->
<svg version="1.1" id="Layer_1" xmlns="http://www.w3.org/2000/svg" xmlns:xlink="http://www.w3.org/1999/xlink" x="0px" y="0px"
	 viewBox="0 0 24 25" style="enable-background:new 0 0 24 25;" xml:space="preserve">
<style type="text/css">
	.st0{fill:#0F172A;}
</style>
<g>
	<path class="st0" d="M12,21.8c-5.4,0-9.8-4.4-9.8-9.8c0-5.4,4.4-9.8,9.8-9.8s9.8,4.4,9.8,9.8C21.8,17.4,17.4,21.8,12,21.8z M12,3.8
		c-4.5,0-8.2,3.7-8.2,8.2c0,4.5,3.7,8.3,8.2,8.3s8.2-3.7,8.2-8.3C20.2,7.5,16.5,3.8,12,3.8z"/>
</g>
<g>
	<path class="st0" d="M10.1,16.3c-0.2,0-0.4-0.1-0.6-0.2c-0.3-0.2-0.6-0.6-0.6-1V8.9c0-0.4,0.2-0.8,0.6-1c0.3-0.2,0.8-0.2,1.1,0
		l5.6,3.1c0.4,0.2,0.6,0.6,0.6,1c0,0.4-0.2,0.8-0.6,1l-5.6,3.1C10.5,16.2,10.3,16.3,10.1,16.3z M10.5,9.5v5L15,12L10.5,9.5z
		 M15.5,12.3C15.5,12.3,15.5,12.3,15.5,12.3L15.5,12.3L15.5,12.3z"/>
</g>
</svg>
