<?xml version="1.0" encoding="utf-8"?>
<!-- Generator: Adobe Illustrator 28.4.1, SVG Export Plug-In . SVG Version: 6.00 Build 0)  -->
<svg version="1.1" id="Layer_1" xmlns="http://www.w3.org/2000/svg" xmlns:xlink="http://www.w3.org/1999/xlink" x="0px" y="0px"
	 viewBox="0 0 24 24" style="enable-background:new 0 0 24 24;" xml:space="preserve">
<style type="text/css">
	.st0{fill:#0F172A;}
</style>
<g>
	<path class="st0" d="M19.5,20.3h-15c-1.7,0-3-1.3-3-3V6.7c0-1.7,1.3-3,3-3h15c1.7,0,3,1.3,3,3v10.5C22.5,18.9,21.2,20.3,19.5,20.3z
		 M4.5,5.2C3.7,5.2,3,5.9,3,6.7v10.5c0,0.8,0.7,1.5,1.5,1.5h15c0.8,0,1.5-0.7,1.5-1.5V6.7c0-0.8-0.7-1.5-1.5-1.5H4.5z M8.6,17.3
		c-1.2,0-2.4-0.3-3.5-0.9c-0.3-0.2-0.5-0.6-0.4-0.9c0.6-1.6,2.2-2.7,3.9-2.7s3.3,1.1,3.9,2.7c0.1,0.4,0,0.7-0.4,0.9
		C11.1,16.9,9.9,17.3,8.6,17.3z M6.5,15.4c1.4,0.5,2.9,0.5,4.3,0c-0.5-0.7-1.3-1.1-2.1-1.1C7.8,14.3,7,14.7,6.5,15.4z M18.8,15.8H15
		c-0.4,0-0.8-0.3-0.8-0.8s0.3-0.8,0.8-0.8h3.8c0.4,0,0.8,0.3,0.8,0.8S19.2,15.8,18.8,15.8z M18.8,12.7H15c-0.4,0-0.8-0.3-0.8-0.8
		s0.3-0.8,0.8-0.8h3.8c0.4,0,0.8,0.3,0.8,0.8S19.2,12.7,18.8,12.7z M8.6,12C7.2,12,6,10.8,6,9.4s1.2-2.6,2.6-2.6s2.6,1.2,2.6,2.6
		S10.1,12,8.6,12z M8.6,8.2C8,8.2,7.5,8.8,7.5,9.4s0.5,1.1,1.1,1.1S9.8,10,9.8,9.4S9.2,8.2,8.6,8.2z M18.8,9.7H15
		c-0.4,0-0.8-0.3-0.8-0.8s0.3-0.8,0.8-0.8h3.8c0.4,0,0.8,0.3,0.8,0.8S19.2,9.7,18.8,9.7z"/>
</g>
</svg>
