<?xml version="1.0" encoding="utf-8"?>
<!-- Generator: Adobe Illustrator 28.4.1, SVG Export Plug-In . SVG Version: 6.00 Build 0)  -->
<svg version="1.1" id="Layer_1" xmlns="http://www.w3.org/2000/svg" xmlns:xlink="http://www.w3.org/1999/xlink" x="0px" y="0px"
	 viewBox="0 0 24 24" style="enable-background:new 0 0 24 24;" xml:space="preserve">
<style type="text/css">
	.st0{fill:#0F172A;}
</style>
<g>
	<path class="st0" d="M12,21.7c-0.1,0-0.3,0-0.4-0.1c-1.5-1-3.1-2-4.8-2.8c-0.3,0.7-0.8,1.3-1.3,1.8c-0.3,0.3-0.8,0.3-1.1,0
		s-0.3-0.8,0-1.1c0.4-0.4,0.8-0.9,1-1.4c-0.7-0.3-1.3-0.6-2-0.9C3.2,17.1,3,16.8,3,16.5c0-1.9,0.2-3.9,0.4-5.8
		c-0.7-0.2-1.4-0.4-2-0.6C1.1,10,0.9,9.7,0.9,9.5c0-0.3,0.1-0.6,0.3-0.7C4.5,6.4,8,4.4,11.7,2.8c0.2-0.1,0.4-0.1,0.6,0
		c3.7,1.6,7.2,3.6,10.5,5.9c0.2,0.2,0.4,0.5,0.3,0.7c0,0.3-0.3,0.5-0.5,0.6c-0.7,0.2-1.4,0.4-2,0.6c0.2,1.9,0.4,3.9,0.4,5.8
		c0,0.3-0.2,0.6-0.5,0.7c-2.8,1.2-5.5,2.6-8.1,4.3C12.3,21.6,12.1,21.7,12,21.7z M7.3,17.3C8.9,18.1,10.5,19,12,20
		c2.4-1.5,4.9-2.9,7.5-4c-0.1-1.6-0.2-3.2-0.4-4.8c-2.3,0.8-4.6,1.8-6.8,3c-0.2,0.1-0.5,0.1-0.7,0c-1.3-0.7-2.7-1.4-4.1-2V13
		c0.4,0.3,0.8,0.7,0.8,1.3s-0.3,1-0.8,1.3v0.2C7.5,16.3,7.4,16.8,7.3,17.3z M4.5,16c0.5,0.2,0.9,0.4,1.4,0.6C6,16.3,6,16,6,15.8
		v-0.2c-0.4-0.3-0.8-0.7-0.8-1.3s0.3-1,0.8-1.3v-1.4c-0.4-0.1-0.7-0.3-1.1-0.4C4.7,12.8,4.6,14.4,4.5,16z M8.7,11
		c1.1,0.5,2.2,1,3.3,1.6c2.4-1.3,4.9-2.3,7.5-3.2c0,0,0,0,0,0c0.4-0.1,0.8-0.3,1.2-0.4C17.9,7.2,15,5.6,12,4.3
		C9,5.6,6.1,7.2,3.3,9.1c0.4,0.1,0.8,0.2,1.1,0.4c0,0,0,0,0,0c0.8,0.3,1.6,0.6,2.4,0.9c1.5-0.9,3.1-1.8,4.7-2.6c0.4-0.2,0.8,0,1,0.4
		c0.2,0.4,0,0.8-0.4,1C11.1,9.7,9.9,10.4,8.7,11z"/>
</g>
</svg>
