<?xml version="1.0" encoding="utf-8"?>
<!-- Generator: Adobe Illustrator 28.4.1, SVG Export Plug-In . SVG Version: 6.00 Build 0)  -->
<svg version="1.1" id="Layer_1" xmlns="http://www.w3.org/2000/svg" xmlns:xlink="http://www.w3.org/1999/xlink" x="0px" y="0px"
	 viewBox="0 0 24 24" style="enable-background:new 0 0 24 24;" xml:space="preserve">
<style type="text/css">
	.st0{fill:#0F172A;}
</style>
<g>
	<path class="st0" d="M12,10.5c-2.5,0-4.5-2-4.5-4.5s2-4.5,4.5-4.5s4.5,2,4.5,4.5S14.5,10.5,12,10.5z M12,3c-1.7,0-3,1.3-3,3
		s1.3,3,3,3s3-1.3,3-3S13.7,3,12,3z"/>
</g>
<g>
	<path class="st0" d="M12,22.5c-2.7,0-5.4-0.6-7.8-1.7c-0.3-0.1-0.4-0.4-0.4-0.7C3.8,15.6,7.5,12,12,12s8.2,3.6,8.2,8.1
		c0,0.3-0.2,0.6-0.4,0.7C17.4,21.9,14.7,22.5,12,22.5z M5.3,19.6c4.3,1.8,9.2,1.8,13.4,0c-0.3-3.4-3.2-6.1-6.7-6.1
		C8.5,13.5,5.6,16.2,5.3,19.6z"/>
</g>
</svg>
