<?xml version="1.0" encoding="utf-8"?>
<!-- Generator: Adobe Illustrator 28.4.1, SVG Export Plug-In . SVG Version: 6.00 Build 0)  -->
<svg version="1.1" id="Layer_1" xmlns="http://www.w3.org/2000/svg" xmlns:xlink="http://www.w3.org/1999/xlink" x="0px" y="0px"
	 viewBox="0 0 24 24" style="enable-background:new 0 0 24 24;" xml:space="preserve">
<style type="text/css">
	.st0{fill:#0F172A;}
</style>
<g>
	<path class="st0" d="M17.2,22.5H6.8c-1.7,0-3-1.3-3-3V4.8c0-1.5,1.1-2.8,2.6-2.9c3.7-0.4,7.6-0.4,11.4,0c1.5,0.2,2.6,1.4,2.6,2.9
		v14.7C20.2,21.2,18.9,22.5,17.2,22.5z M12,3c-1.8,0-3.7,0.1-5.5,0.3C5.8,3.4,5.2,4,5.2,4.8v14.7c0,0.8,0.7,1.5,1.5,1.5h10.5
		c0.8,0,1.5-0.7,1.5-1.5V4.8c0-0.7-0.5-1.4-1.2-1.4C15.7,3.1,13.8,3,12,3z M13.3,18.8c-0.4,0-0.8-0.3-0.8-0.8s0.3-0.8,0.8-0.8h0
		c0.4,0,0.8,0.3,0.8,0.8S13.7,18.8,13.3,18.8z M10.8,18.8c-0.4,0-0.8-0.3-0.8-0.8s0.3-0.8,0.8-0.8h0c0.4,0,0.8,0.3,0.8,0.8
		S11.2,18.8,10.8,18.8z M8.3,18.8c-0.4,0-0.8-0.3-0.8-0.8s0.3-0.8,0.8-0.8h0C8.7,17.3,9,17.6,9,18S8.7,18.8,8.3,18.8z M15.8,18.8
		c-0.4,0-0.8-0.3-0.8-0.8v-2.2c0-0.4,0.3-0.8,0.8-0.8s0.8,0.3,0.8,0.8V18C16.5,18.4,16.2,18.8,15.8,18.8z M13.3,16.5
		c-0.4,0-0.8-0.3-0.8-0.7c0-0.4,0.3-0.8,0.8-0.8h0c0.4,0,0.8,0.3,0.8,0.8C14,16.2,13.7,16.5,13.3,16.5z M10.8,16.5
		c-0.4,0-0.8-0.3-0.8-0.7c0-0.4,0.3-0.8,0.8-0.8h0c0.4,0,0.8,0.3,0.8,0.8C11.5,16.2,11.2,16.5,10.8,16.5z M8.3,16.5
		c-0.4,0-0.8-0.3-0.8-0.7c0-0.4,0.3-0.8,0.8-0.8h0C8.7,15,9,15.3,9,15.8C9,16.2,8.7,16.5,8.3,16.5z M15.8,14.3
		c-0.4,0-0.8-0.3-0.8-0.8s0.3-0.8,0.8-0.8h0c0.4,0,0.8,0.3,0.8,0.8S16.2,14.3,15.8,14.3z M13.3,14.3c-0.4,0-0.8-0.3-0.8-0.8
		s0.3-0.8,0.8-0.8h0c0.4,0,0.8,0.3,0.8,0.8S13.7,14.3,13.3,14.3z M10.8,14.3c-0.4,0-0.8-0.3-0.8-0.8s0.3-0.8,0.8-0.8h0
		c0.4,0,0.8,0.3,0.8,0.8S11.2,14.3,10.8,14.3z M8.3,14.3c-0.4,0-0.8-0.3-0.8-0.8s0.3-0.8,0.8-0.8h0c0.4,0,0.8,0.3,0.8,0.8
		S8.7,14.3,8.3,14.3z M15.8,12c-0.4,0-0.8-0.3-0.8-0.8s0.3-0.8,0.8-0.8h0c0.4,0,0.8,0.3,0.8,0.8S16.2,12,15.8,12z M13.3,12
		c-0.4,0-0.8-0.3-0.8-0.8s0.3-0.8,0.8-0.8h0c0.4,0,0.8,0.3,0.8,0.8S13.7,12,13.3,12z M10.8,12c-0.4,0-0.8-0.3-0.8-0.8
		s0.3-0.8,0.8-0.8h0c0.4,0,0.8,0.3,0.8,0.8S11.2,12,10.8,12z M8.3,12c-0.4,0-0.8-0.3-0.8-0.8s0.3-0.8,0.8-0.8h0
		c0.4,0,0.8,0.3,0.8,0.8S8.7,12,8.3,12z M15.8,9H8.2C7.8,9,7.5,8.7,7.5,8.2V6c0-0.4,0.3-0.8,0.8-0.8h7.5c0.4,0,0.8,0.3,0.8,0.8v2.3
		C16.5,8.7,16.2,9,15.8,9z M9,7.5h6V6.7H9V7.5z"/>
</g>
</svg>
