<?xml version="1.0" encoding="utf-8"?>
<!-- Generator: Adobe Illustrator 28.4.1, SVG Export Plug-In . SVG Version: 6.00 Build 0)  -->
<svg version="1.1" id="Layer_1" xmlns="http://www.w3.org/2000/svg" xmlns:xlink="http://www.w3.org/1999/xlink" x="0px" y="0px"
	 viewBox="0 0 24 24" style="enable-background:new 0 0 24 24;" xml:space="preserve">
<style type="text/css">
	.st0{fill:#0F172A;}
</style>
<g>
	<path class="st0" d="M19.5,20.3h-15c-1.7,0-3-1.3-3-3V6.7c0-1.7,1.3-3,3-3h15c1.7,0,3,1.3,3,3v10.5C22.5,18.9,21.2,20.3,19.5,20.3z
		 M3,9.6v7.7c0,0.8,0.7,1.5,1.5,1.5h15c0.8,0,1.5-0.7,1.5-1.5V9.6l-7.4,4.6c-1,0.6-2.2,0.6-3.1,0L3,9.6z M3,7c0,0.5,0.3,1,0.7,1.3
		l7.5,4.6c0.5,0.3,1.1,0.3,1.6,0l7.5-4.6C20.7,8,21,7.5,21,7V6.7c0-0.8-0.7-1.5-1.5-1.5h-15C3.7,5.2,3,5.9,3,6.7V7z"/>
</g>
</svg>
