<?xml version="1.0" encoding="utf-8"?>
<!-- Generator: Adobe Illustrator 28.4.1, SVG Export Plug-In . SVG Version: 6.00 Build 0)  -->
<svg version="1.1" id="Layer_1" xmlns="http://www.w3.org/2000/svg" xmlns:xlink="http://www.w3.org/1999/xlink" x="0px" y="0px"
	 viewBox="0 0 24 24" style="enable-background:new 0 0 24 24;" xml:space="preserve">
<style type="text/css">
	.st0{fill:#0F172A;}
</style>
<g>
	<path class="st0" d="M17.4,21H6.6c-1.6,0-2.9-1.2-3-2.8L3,8.2C2.2,8.1,1.5,7.3,1.5,6.4V4.9c0-1,0.8-1.9,1.9-1.9h17.2
		c1,0,1.9,0.8,1.9,1.9v1.5c0,0.9-0.7,1.7-1.5,1.8l-0.6,10C20.3,19.8,19,21,17.4,21z M4.5,8.2l0.6,9.8c0,0.8,0.7,1.4,1.5,1.4h10.8
		c0.8,0,1.5-0.6,1.5-1.4l0.6-9.8H4.5z M20.3,6.7h0.4c0.2,0,0.4-0.2,0.4-0.4V4.9c0-0.2-0.2-0.4-0.4-0.4H3.4C3.2,4.5,3,4.7,3,4.9v1.5
		c0,0.2,0.2,0.4,0.4,0.4h0.4c0,0,0,0,0,0H20.3C20.2,6.7,20.2,6.7,20.3,6.7z M12,18c-0.1,0-0.2,0-0.3-0.1c-0.1,0-0.2-0.1-0.2-0.2
		l-3-3c-0.3-0.3-0.3-0.8,0-1.1s0.8-0.3,1.1,0l1.7,1.7v-4.9c0-0.4,0.3-0.8,0.8-0.8s0.8,0.3,0.8,0.8v4.9l1.7-1.7
		c0.3-0.3,0.8-0.3,1.1,0s0.3,0.8,0,1.1l-3,3c-0.1,0.1-0.2,0.1-0.2,0.2C12.2,18,12.1,18,12,18z"/>
</g>
</svg>
