<?xml version="1.0" encoding="utf-8"?>
<!-- Generator: Adobe Illustrator 28.4.1, SVG Export Plug-In . SVG Version: 6.00 Build 0)  -->
<svg version="1.1" id="Layer_1" xmlns="http://www.w3.org/2000/svg" xmlns:xlink="http://www.w3.org/1999/xlink" x="0px" y="0px"
	 viewBox="0 0 24 24" style="enable-background:new 0 0 24 24;" xml:space="preserve">
<style type="text/css">
	.st0{fill:#0F172A;}
</style>
<g>
	<path class="st0" d="M12,20.3c-4.9,0-9.1-3.1-10.7-7.7c-0.1-0.4-0.1-0.8,0-1.1C2.9,6.8,7.1,3.7,12,3.7c4.9,0,9.1,3.1,10.7,7.7
		c0.1,0.4,0.1,0.8,0,1.1C21.1,17.2,16.9,20.3,12,20.3z M12,5.2c-4.2,0-7.9,2.7-9.3,6.7c0,0.1,0,0.1,0,0.2c0,0,0,0,0,0
		c1.3,4,5,6.7,9.3,6.7c4.2,0,7.9-2.7,9.3-6.7c0-0.1,0-0.1,0-0.2C19.9,7.9,16.2,5.2,12,5.2z"/>
</g>
<g>
	<path class="st0" d="M12,15.8c-2.1,0-3.8-1.7-3.8-3.8S9.9,8.2,12,8.2c2.1,0,3.8,1.7,3.8,3.8S14.1,15.8,12,15.8z M12,9.7
		c-1.2,0-2.2,1-2.2,2.2s1,2.3,2.2,2.3c1.2,0,2.2-1,2.2-2.3S13.2,9.7,12,9.7z"/>
</g>
</svg>
