<?xml version="1.0" encoding="utf-8"?>
<!-- Generator: Adobe Illustrator 28.4.1, SVG Export Plug-In . SVG Version: 6.00 Build 0)  -->
<svg version="1.1" id="Layer_1" xmlns="http://www.w3.org/2000/svg" xmlns:xlink="http://www.w3.org/1999/xlink" x="0px" y="0px"
	 viewBox="0 0 24 24" style="enable-background:new 0 0 24 24;" xml:space="preserve">
<style type="text/css">
	.st0{fill:#0F172A;}
</style>
<g>
	<path class="st0" d="M4.1,18.7c-0.3,0-0.6-0.1-0.9-0.3c-0.6-0.3-0.9-0.9-0.9-1.6V8.7c0-0.7,0.3-1.3,0.9-1.6c0.6-0.3,1.3-0.3,1.9,0
		l7.1,4.1c0.6,0.3,0.9,0.9,0.9,1.6c0,0.7-0.4,1.3-0.9,1.6l-7.1,4.1C4.8,18.6,4.4,18.7,4.1,18.7z M4.1,8.3C4,8.3,4,8.3,3.9,8.4
		c-0.1,0-0.2,0.1-0.2,0.3v8.1c0,0.2,0.1,0.3,0.2,0.3c0.1,0,0.2,0.1,0.4,0l7.1-4.1c0.2-0.1,0.2-0.3,0.2-0.3s0-0.2-0.2-0.3L4.3,8.4
		C4.2,8.3,4.2,8.3,4.1,8.3z"/>
</g>
<g>
	<path class="st0" d="M13.9,18.7c-0.3,0-0.6-0.1-0.9-0.3c-0.6-0.3-0.9-0.9-0.9-1.6V8.7c0-0.7,0.3-1.3,0.9-1.6c0.6-0.3,1.3-0.3,1.9,0
		l7.1,4.1c0.6,0.3,0.9,0.9,0.9,1.6c0,0.7-0.4,1.3-0.9,1.6l-7.1,4.1C14.5,18.6,14.2,18.7,13.9,18.7z M13.9,8.3c-0.1,0-0.2,0-0.2,0.1
		c-0.1,0-0.2,0.1-0.2,0.3v8.1c0,0.2,0.1,0.3,0.2,0.3c0.1,0,0.2,0.1,0.4,0l7.1-4.1c0.2-0.1,0.2-0.3,0.2-0.3c0-0.1,0-0.2-0.2-0.3
		l-7.1-4.1C14,8.3,13.9,8.3,13.9,8.3z"/>
</g>
</svg>
