<?xml version="1.0" encoding="utf-8"?>
<!-- Generator: Adobe Illustrator 28.4.1, SVG Export Plug-In . SVG Version: 6.00 Build 0)  -->
<svg version="1.1" id="Layer_1" xmlns="http://www.w3.org/2000/svg" xmlns:xlink="http://www.w3.org/1999/xlink" x="0px" y="0px"
	 viewBox="0 0 24 25" style="enable-background:new 0 0 24 25;" xml:space="preserve">
<style type="text/css">
	.st0{fill:#0F172A;}
</style>
<g>
	<path class="st0" d="M7.5,22.5c-1.3,0-2.7-0.5-3.7-1.5c-2-2-2-5.4,0-7.4L14.7,2.6c1.5-1.5,3.8-1.5,5.3,0c0.7,0.7,1.1,1.6,1.1,2.7
		S20.7,7.2,20,7.9L9.1,18.9c0,0,0,0,0,0c-0.9,0.9-2.3,0.9-3.2,0C5,18,5,16.6,5.9,15.7l7.8-7.8c0.3-0.3,0.8-0.3,1.1,0
		c0.3,0.3,0.3,0.8,0,1.1L7,16.7c-0.1,0.1-0.2,0.3-0.2,0.5c0,0.2,0.1,0.4,0.2,0.5c0.3,0.3,0.8,0.3,1.1,0L19,6.9
		c0.4-0.4,0.7-1,0.7-1.6S19.4,4.1,19,3.7c-0.9-0.9-2.3-0.9-3.2,0L4.8,14.6c-1.5,1.5-1.5,3.8,0,5.3c1.5,1.5,3.8,1.5,5.3,0l7.7-7.7
		c0.3-0.3,0.8-0.3,1.1,0s0.3,0.8,0,1.1L11.2,21C10.2,22,8.8,22.5,7.5,22.5z"/>
</g>
</svg>
