<?xml version="1.0" encoding="utf-8"?>
<!-- Generator: Adobe Illustrator 28.4.1, SVG Export Plug-In . SVG Version: 6.00 Build 0)  -->
<svg version="1.1" id="Layer_1" xmlns="http://www.w3.org/2000/svg" xmlns:xlink="http://www.w3.org/1999/xlink" x="0px" y="0px"
	 viewBox="0 0 24 24" style="enable-background:new 0 0 24 24;" xml:space="preserve">
<style type="text/css">
	.st0{fill:#0F172A;}
</style>
<g>
	<path class="st0" d="M20.2,21H3.8c-1.2,0-2.2-1-2.2-2.2V5.2C1.5,4,2.5,3,3.8,3h16.5c1.2,0,2.2,1,2.2,2.2v13.5
		C22.5,20,21.5,21,20.2,21z M12.8,19.5h7.5c0.4,0,0.8-0.3,0.8-0.8v-6h-7.5c0.2,2.1,2,3.8,4.1,3.8c0.4,0,0.8,0.3,0.8,0.8
		S18,18,17.6,18c-2.1,0-3.9-1.1-4.9-2.8V19.5z M3,12.7v6c0,0.4,0.3,0.8,0.8,0.8h7.5v-4.3c-1,1.7-2.8,2.8-4.9,2.8
		c-0.4,0-0.8-0.3-0.8-0.8s0.3-0.8,0.8-0.8c2.1,0,3.9-1.7,4.1-3.8H3z M17,11.2h4v-6c0-0.4-0.3-0.8-0.8-0.8h-7.5V7
		c1.2-1.1,3-1.1,4.2,0.1c0.6,0.6,0.9,1.3,0.9,2.1C17.8,10,17.5,10.7,17,11.2z M3,11.2h4c-1.1-1.2-1.1-3,0.1-4.2C8.2,6,10.1,6,11.2,7
		V4.5H3.8C3.3,4.5,3,4.8,3,5.2V11.2z M9.2,7.7c-0.4,0-0.8,0.2-1.1,0.4c-0.6,0.6-0.6,1.5,0,2.1c0.7,0.7,2.1,0.9,3,0.9
		c0-0.9-0.1-2.3-0.9-3l0,0C10,7.9,9.6,7.7,9.2,7.7z M12.8,11.2c0.9,0,2.3-0.1,3-0.9c0.3-0.3,0.4-0.7,0.4-1.1c0-0.4-0.2-0.8-0.4-1.1
		c-0.6-0.6-1.5-0.6-2.1,0C13,8.9,12.8,10.3,12.8,11.2z M16.4,10.8L16.4,10.8L16.4,10.8z"/>
</g>
</svg>
