<?xml version="1.0" encoding="utf-8"?>
<!-- Generator: Adobe Illustrator 28.4.1, SVG Export Plug-In . SVG Version: 6.00 Build 0)  -->
<svg version="1.1" id="Layer_1" xmlns="http://www.w3.org/2000/svg" xmlns:xlink="http://www.w3.org/1999/xlink" x="0px" y="0px"
	 viewBox="0 0 24 24" style="enable-background:new 0 0 24 24;" xml:space="preserve">
<style type="text/css">
	.st0{fill:#0F172A;}
</style>
<g>
	<path class="st0" d="M12.5,21.8h-1.1c-0.9,0-1.7-0.7-1.8-1.6l-0.1-0.9c0-0.1-0.2-0.3-0.3-0.4c-0.2-0.1-0.4-0.1-0.5,0l-0.7,0.5
		c-0.8,0.5-1.8,0.5-2.4-0.2l-0.8-0.8c-0.7-0.7-0.7-1.7-0.2-2.4L5,15.4c0.1-0.1,0.1-0.3,0-0.5c-0.1-0.2-0.2-0.3-0.4-0.3l-0.9-0.2
		c-0.9-0.2-1.6-0.9-1.6-1.8v-1.1c0-0.9,0.7-1.7,1.6-1.8l0.9-0.1c0.1,0,0.3-0.2,0.4-0.3C5.1,9,5.1,8.8,5,8.6L4.5,7.9
		C4,7.2,4.1,6.1,4.7,5.5l0.8-0.8C6.1,4.1,7.2,4,7.9,4.5L8.6,5c0.1,0.1,0.3,0.1,0.5,0C9.3,5,9.4,4.9,9.5,4.7l0.1-0.9
		c0.2-0.9,0.9-1.6,1.8-1.6h1.1c0.9,0,1.7,0.7,1.8,1.6l0.1,0.9c0,0.1,0.2,0.3,0.3,0.4c0.2,0.1,0.4,0.1,0.5,0l0.7-0.5
		c0.8-0.5,1.8-0.5,2.4,0.2l0.8,0.8c0.7,0.7,0.7,1.7,0.2,2.4L19,8.6c-0.1,0.1-0.1,0.3,0,0.5c0.1,0.2,0.2,0.3,0.4,0.3l0.9,0.1
		c0.9,0.2,1.6,0.9,1.6,1.8v1.1c0,0.9-0.7,1.7-1.6,1.8l-0.9,0.2c-0.1,0-0.3,0.1-0.4,0.3c-0.1,0.2-0.1,0.4,0,0.5l0.5,0.7
		c0.5,0.8,0.5,1.8-0.2,2.4l-0.8,0.8c-0.6,0.7-1.7,0.7-2.4,0.2L15.4,19c-0.1-0.1-0.3-0.1-0.5,0c-0.2,0.1-0.3,0.2-0.3,0.4l-0.1,0.9
		C14.2,21.1,13.5,21.8,12.5,21.8z M8.9,17.4c0.3,0,0.5,0.1,0.8,0.2c0.7,0.3,1.1,0.8,1.2,1.5l0.1,0.9c0,0.2,0.2,0.3,0.4,0.3h1.1
		c0.2,0,0.3-0.1,0.4-0.3l0.1-0.9c0.1-0.7,0.6-1.2,1.2-1.5s1.4-0.2,1.9,0.2l0.7,0.5c0.2,0.1,0.4,0.1,0.5,0l0.8-0.8
		c0.1-0.1,0.1-0.3,0-0.5l-0.5-0.7c-0.4-0.5-0.5-1.3-0.2-1.9c0.3-0.7,0.8-1.1,1.5-1.2l0.9-0.1c0.2,0,0.3-0.2,0.3-0.4v-1.1
		c0-0.2-0.1-0.3-0.3-0.4L19,10.9c-0.7-0.1-1.2-0.6-1.5-1.2c-0.3-0.7-0.2-1.4,0.2-1.9L18.3,7c0.1-0.1,0.1-0.4,0-0.5l-0.8-0.8
		c-0.1-0.1-0.3-0.1-0.5,0l-0.7,0.5c-0.6,0.4-1.3,0.5-1.9,0.2c-0.7-0.3-1.1-0.8-1.2-1.5l-0.1-0.9c0-0.2-0.2-0.3-0.4-0.3h-1.1
		c-0.2,0-0.3,0.1-0.4,0.3c0,0,0,0,0,0L10.9,5c-0.1,0.7-0.6,1.2-1.2,1.5C9,6.7,8.3,6.7,7.8,6.3L7,5.7c-0.1-0.1-0.4-0.1-0.5,0L5.8,6.6
		C5.6,6.7,5.6,6.9,5.7,7l0.5,0.7C6.7,8.3,6.7,9,6.5,9.7c-0.3,0.7-0.8,1.1-1.5,1.2l-0.9,0.1c-0.2,0-0.3,0.2-0.3,0.4v1.1
		c0,0.2,0.1,0.3,0.3,0.4L5,13.1c0.7,0.1,1.2,0.6,1.5,1.2c0.3,0.7,0.2,1.4-0.2,1.9L5.7,17c-0.1,0.2-0.1,0.4,0,0.5l0.8,0.8
		c0.1,0.1,0.3,0.1,0.5,0l0.7-0.5C8.1,17.5,8.5,17.4,8.9,17.4z M10.3,3.9L10.3,3.9L10.3,3.9z"/>
</g>
<g>
	<path class="st0" d="M12,15.8c-2.1,0-3.8-1.7-3.8-3.8S9.9,8.2,12,8.2c2.1,0,3.8,1.7,3.8,3.8S14.1,15.8,12,15.8z M12,9.7
		c-1.2,0-2.2,1-2.2,2.2s1,2.3,2.2,2.3c1.2,0,2.2-1,2.2-2.3S13.2,9.7,12,9.7z"/>
</g>
</svg>
