<?xml version="1.0" encoding="utf-8"?>
<!-- Generator: Adobe Illustrator 28.4.1, SVG Export Plug-In . SVG Version: 6.00 Build 0)  -->
<svg version="1.1" id="Layer_1" xmlns="http://www.w3.org/2000/svg" xmlns:xlink="http://www.w3.org/1999/xlink" x="0px" y="0px"
	 viewBox="0 0 24 24" style="enable-background:new 0 0 24 24;" xml:space="preserve">
<style type="text/css">
	.st0{fill:#0F172A;}
</style>
<g>
	<path class="st0" d="M12,23.3c-0.5,0-1.1,0-1.6-0.1c-0.4,0-0.7-0.4-0.7-0.8c0-0.4,0.4-0.7,0.8-0.7c0.9,0.1,1.9,0.1,2.8,0
		c0.4,0,0.8,0.3,0.8,0.7c0,0.4-0.3,0.8-0.7,0.8C13.1,23.2,12.5,23.3,12,23.3z M12,21c-0.8,0-1.6-0.1-2.4-0.2
		c-0.4-0.1-0.7-0.5-0.6-0.9c0.1-0.4,0.5-0.7,0.9-0.6c1.4,0.3,2.8,0.3,4.2,0c0.4-0.1,0.8,0.2,0.9,0.6s-0.2,0.8-0.6,0.9
		C13.6,20.9,12.8,21,12,21z M14.2,18.8c-0.4,0-0.8-0.3-0.8-0.8v-0.2c0-1.2,0.7-2.3,1.9-3c2.1-1.2,3.4-3.4,3.4-5.8
		c0-3.7-3-6.8-6.8-6.8c-3.7,0-6.8,3-6.8,6.8c0,2.4,1.3,4.6,3.4,5.8c1.2,0.7,1.9,1.8,1.9,3V18c0,0.4-0.3,0.8-0.8,0.8S9,18.4,9,18
		v-0.2c0-0.6-0.4-1.3-1.1-1.7C5.3,14.7,3.8,11.9,3.8,9c0-4.5,3.7-8.2,8.2-8.2s8.2,3.7,8.2,8.2c0,2.9-1.6,5.7-4.1,7.1
		c-0.7,0.4-1.1,1-1.1,1.7V18C15,18.4,14.7,18.8,14.2,18.8z M12,18.8c-0.4,0-0.8-0.3-0.8-0.8v-4.5c-0.3,0-0.6-0.1-0.9-0.2
		c-0.4-0.1-0.6-0.5-0.5-0.9c0.1-0.4,0.5-0.6,0.9-0.5c0.9,0.2,1.8,0.2,2.6,0c0.4-0.1,0.8,0.1,0.9,0.5c0.1,0.4-0.1,0.8-0.5,0.9
		c-0.3,0.1-0.6,0.1-0.9,0.2V18C12.8,18.4,12.4,18.8,12,18.8z"/>
</g>
</svg>
