<?xml version="1.0" encoding="utf-8"?>
<!-- Generator: Adobe Illustrator 28.4.1, SVG Export Plug-In . SVG Version: 6.00 Build 0)  -->
<svg version="1.1" id="Layer_1" xmlns="http://www.w3.org/2000/svg" xmlns:xlink="http://www.w3.org/1999/xlink" x="0px" y="0px"
	 viewBox="0 0 24 24" style="enable-background:new 0 0 24 24;" xml:space="preserve">
<style type="text/css">
	.st0{fill:#0F172A;}
</style>
<g>
	<path class="st0" d="M9.8,22.8c-1.7,0-3-1.3-3-3c0-1.2,0.3-2.4,0.8-3.5c0,0,0-0.1,0-0.1c-0.1,0-0.2,0-0.3-0.1H4.4
		c-1.5,0-2.7-1-2.8-2.4c0-0.5-0.1-0.9-0.1-1.4c0-2.9,1-5.7,2.8-8c0.5-0.6,1.3-1,2.2-1h4c0.6,0,1.1,0.1,1.7,0.3l3.1,1
		c0.4,0.1,0.8,0.2,1.2,0.2h0.7c0-0.1,0.1-0.2,0.2-0.3C17.6,4.2,18,4,18.3,4h0.9c1.3,0,2.3,0.8,2.7,1.9c0.4,1.2,0.6,2.5,0.6,3.7
		c0,1.6-0.3,3.2-0.9,4.7c-0.4,1-1.4,1.7-2.6,1.7h-1.1c-0.5,0-0.9-0.3-1.2-0.7c-0.1-0.2-0.2-0.4-0.2-0.6c-0.2,0.1-0.5,0.3-0.7,0.6
		c-0.8,1.1-1.9,2-3.1,2.6c-0.5,0.2-1,0.7-1.3,1.3c-0.2,0.4-0.3,0.9-0.3,1.4v0.6C11.2,22.1,10.6,22.8,9.8,22.8z M9.1,16
		c0,0.3,0,0.6-0.2,0.9c-0.4,0.9-0.7,1.9-0.7,2.9c0,0.8,0.7,1.5,1.5,1.5v-0.6c0-0.7,0.1-1.3,0.4-1.9c0.3-0.9,1-1.6,2-2.1
		c1-0.5,1.9-1.3,2.6-2.2c0.7-0.8,1.6-1.3,2.5-1.4c0.5-1.1,0.7-2.2,0.7-3.4c0-1.2-0.2-2.3-0.7-3.4h-0.8c-0.6,0-1.1-0.1-1.7-0.3
		l-3.1-1c-0.4-0.1-0.8-0.2-1.2-0.2h-4c-0.4,0-0.8,0.2-1,0.4C3.9,7.2,3,9.7,3,12.2c0,0.4,0,0.8,0.1,1.2c0.1,0.6,0.6,1,1.3,1h5.3
		c0.4,0,0.8,0.3,0.8,0.8S10.1,16,9.7,16H9.1z M18.2,14.5H19c0.6,0,1-0.3,1.2-0.8C20.7,12.4,21,11,21,9.6c0-1.1-0.2-2.2-0.5-3.3
		c-0.2-0.5-0.7-0.8-1.3-0.8h-0.7c0.6,1.3,0.9,2.7,0.9,4.1c0,1.5-0.4,3.1-1.1,4.5c0,0,0,0,0,0C18.3,14.2,18.3,14.4,18.2,14.5z"/>
</g>
</svg>
