<?xml version="1.0" encoding="utf-8"?>
<!-- Generator: Adobe Illustrator 28.4.1, SVG Export Plug-In . SVG Version: 6.00 Build 0)  -->
<svg version="1.1" id="Layer_1" xmlns="http://www.w3.org/2000/svg" xmlns:xlink="http://www.w3.org/1999/xlink" x="0px" y="0px"
	 viewBox="0 0 24 24" style="enable-background:new 0 0 24 24;" xml:space="preserve">
<style type="text/css">
	.st0{fill:#0F172A;}
</style>
<g>
	<path class="st0" d="M20.6,20.3H3.4c-1,0-1.9-0.8-1.9-1.9V5.6c0-1,0.8-1.9,1.9-1.9h17.2c1,0,1.9,0.8,1.9,1.9v12.8
		C22.5,19.4,21.7,20.3,20.6,20.3z M12.8,18.4c0,0.2,0.2,0.4,0.4,0.4h7.5c0.2,0,0.4-0.2,0.4-0.4v-1.5c0-0.2-0.2-0.4-0.4-0.4h-7.5
		c-0.2,0-0.4,0.2-0.4,0.4V18.4z M3.4,18.8h7.5c0.2,0,0.4-0.2,0.4-0.4v-1.5c0-0.2-0.2-0.4-0.4-0.4H3.4c-0.2,0-0.4,0.2-0.4,0.4v1.5
		C3,18.6,3.2,18.8,3.4,18.8z M13.1,15h7.5c0.2,0,0.4-0.2,0.4-0.4v-1.5c0-0.2-0.2-0.4-0.4-0.4h-7.5c-0.2,0-0.4,0.2-0.4,0.4v1.5
		C12.8,14.8,12.9,15,13.1,15z M3.4,15h7.5c0.2,0,0.4-0.2,0.4-0.4v-1.5c0-0.2-0.2-0.4-0.4-0.4H3.4c-0.2,0-0.4,0.2-0.4,0.4v1.5
		C3,14.8,3.2,15,3.4,15z M20.6,11.2c0.2,0,0.4-0.2,0.4-0.4V9.4C21,9.2,20.8,9,20.6,9h-7.5c-0.2,0-0.4,0.2-0.4,0.4v1.5
		c0,0.2,0.2,0.4,0.4,0.4H20.6z M3.4,11.2h7.5c0.2,0,0.4-0.2,0.4-0.4V9.4c0-0.2-0.2-0.4-0.4-0.4H3.4C3.2,9,3,9.2,3,9.4v1.5
		C3,11.1,3.2,11.2,3.4,11.2z M20.6,7.5c0.2,0,0.4-0.2,0.4-0.4V5.6c0-0.2-0.2-0.4-0.4-0.4H3.4C3.2,5.2,3,5.4,3,5.6v1.5
		c0,0.2,0.2,0.4,0.4,0.4H20.6z"/>
</g>
</svg>
