<?xml version="1.0" encoding="utf-8"?>
<!-- Generator: Adobe Illustrator 28.4.1, SVG Export Plug-In . SVG Version: 6.00 Build 0)  -->
<svg version="1.1" id="Layer_1" xmlns="http://www.w3.org/2000/svg" xmlns:xlink="http://www.w3.org/1999/xlink" x="0px" y="0px"
	 viewBox="0 0 24 24" style="enable-background:new 0 0 24 24;" xml:space="preserve">
<style type="text/css">
	.st0{fill:#0F172A;}
</style>
<g>
	<path class="st0" d="M12,21C12,21,12,21,12,21C11.9,21,11.9,21,12,21C11.9,21,11.9,21,12,21c-0.1,0-0.2,0-0.3,0c0,0,0,0,0,0
		c0,0,0,0,0,0c0,0,0,0-0.1,0c-0.1,0-0.1-0.1-0.2-0.1C10,19.5,8,18.8,6,18.8c-0.9,0-1.9,0.2-2.8,0.5c-0.2,0.1-0.5,0-0.7-0.1
		c-0.2-0.1-0.3-0.4-0.3-0.6V4.3c0-0.3,0.2-0.6,0.5-0.7C5.8,2.5,9.4,3,12,5.1c2.6-2,6.2-2.6,9.2-1.5c0.3,0.1,0.5,0.4,0.5,0.7v14.2
		c0,0.2-0.1,0.5-0.3,0.6s-0.5,0.2-0.7,0.1c-0.9-0.3-1.8-0.5-2.8-0.5c-2,0-4,0.7-5.5,2.1c-0.1,0.1-0.1,0.1-0.2,0.1c0,0,0,0,0,0h0
		c0,0,0,0,0,0C12.2,21,12.1,21,12,21C12,21,12,21,12,21L12,21C12,21,12,21,12,21z M12.8,6.4v12.4c2.2-1.4,5-1.9,7.5-1.3V4.8
		C17.7,4.1,14.8,4.7,12.8,6.4z M6,17.3c1.9,0,3.7,0.5,5.2,1.5V6.4C9.2,4.7,6.3,4.1,3.8,4.8v12.7C4.5,17.3,5.2,17.3,6,17.3z"/>
</g>
</svg>
