<?xml version="1.0" encoding="utf-8"?>
<!-- Generator: Adobe Illustrator 28.4.1, SVG Export Plug-In . SVG Version: 6.00 Build 0)  -->
<svg version="1.1" id="Layer_1" xmlns="http://www.w3.org/2000/svg" xmlns:xlink="http://www.w3.org/1999/xlink" x="0px" y="0px"
	 viewBox="0 0 24 24" style="enable-background:new 0 0 24 24;" xml:space="preserve">
<style type="text/css">
	.st0{fill:#0F172A;}
</style>
<g>
	<path class="st0" d="M19,21H5c-1.5,0-2.8-1.1-3-2.6l-0.9-6C0.9,11,1.7,9.7,3,9.2V6c0-1.7,1.3-3,3-3h3.9c0.6,0,1.2,0.2,1.6,0.7
		l2.1,2.1C13.7,5.9,13.9,6,14.1,6H18c1.7,0,3,1.3,3,3v0.2c1.3,0.5,2.1,1.8,1.9,3.2l-0.9,6C21.8,19.9,20.5,21,19,21z M3.9,10.5
		c-0.8,0.1-1.4,0.9-1.2,1.7l0.9,6c0.1,0.7,0.7,1.3,1.5,1.3H19c0.7,0,1.4-0.6,1.5-1.3l0.9-6c0.1-0.8-0.4-1.6-1.2-1.7c0,0,0,0,0,0
		c-0.1,0-0.1,0-0.2,0H4.1C4,10.5,3.9,10.5,3.9,10.5C3.9,10.5,3.9,10.5,3.9,10.5z M4.5,9h15c0-0.8-0.7-1.5-1.5-1.5h-3.9
		c-0.6,0-1.2-0.2-1.6-0.7l-2.1-2.1c-0.1-0.1-0.3-0.2-0.5-0.2H6C5.2,4.5,4.5,5.2,4.5,6V9z"/>
</g>
</svg>
