<?xml version="1.0" encoding="utf-8"?>
<!-- Generator: Adobe Illustrator 28.4.1, SVG Export Plug-In . SVG Version: 6.00 Build 0)  -->
<svg version="1.1" id="Layer_1" xmlns="http://www.w3.org/2000/svg" xmlns:xlink="http://www.w3.org/1999/xlink" x="0px" y="0px"
	 viewBox="0 0 24 24" style="enable-background:new 0 0 24 24;" xml:space="preserve">
<style type="text/css">
	.st0{fill:#0F172A;}
</style>
<g>
	<path class="st0" d="M9,21.8c-3.7,0-6.8-3-6.8-6.7v-3c0-0.4,0.3-0.8,0.8-0.8s0.8,0.3,0.8,0.8v3c0,2.9,2.4,5.2,5.2,5.2
		s5.2-2.4,5.2-5.2V4.8L9.5,9.5c-0.3,0.3-0.8,0.3-1.1,0s-0.3-0.8,0-1.1l6-6c0.1-0.1,0.2-0.1,0.2-0.2c0.2-0.1,0.4-0.1,0.6,0
		c0.1,0,0.2,0.1,0.2,0.2l6,6c0.3,0.3,0.3,0.8,0,1.1s-0.8,0.3-1.1,0l-4.7-4.7V15C15.8,18.7,12.7,21.8,9,21.8z"/>
</g>
</svg>
