<?xml version="1.0" encoding="utf-8"?>
<!-- Generator: Adobe Illustrator 28.4.1, SVG Export Plug-In . SVG Version: 6.00 Build 0)  -->
<svg version="1.1" id="Layer_1" xmlns="http://www.w3.org/2000/svg" xmlns:xlink="http://www.w3.org/1999/xlink" x="0px" y="0px"
	 viewBox="0 0 24 24" style="enable-background:new 0 0 24 24;" xml:space="preserve">
<style type="text/css">
	.st0{fill:#0F172A;}
</style>
<g>
	<path class="st0" d="M19.5,20.3h-15c-1.7,0-3-1.3-3-3V6.7c0-1.7,1.3-3,3-3h15c1.7,0,3,1.3,3,3v10.5C22.5,18.9,21.2,20.3,19.5,20.3z
		 M4.5,5.2C3.7,5.2,3,5.9,3,6.7v10.5c0,0.8,0.7,1.5,1.5,1.5h15c0.8,0,1.5-0.7,1.5-1.5V6.7c0-0.8-0.7-1.5-1.5-1.5H4.5z M15.8,16.5
		c-0.4,0-0.8-0.3-0.8-0.7V8.2c0-0.4,0.3-0.8,0.8-0.8h3c0.4,0,0.8,0.3,0.8,0.8c0,0.4-0.3,0.8-0.8,0.8h-2.2v2.2H18
		c0.4,0,0.8,0.3,0.8,0.8s-0.3,0.8-0.8,0.8h-1.5v3C16.5,16.2,16.2,16.5,15.8,16.5z M12.8,16.5c-0.4,0-0.8-0.3-0.8-0.7V8.2
		c0-0.4,0.3-0.8,0.8-0.8s0.8,0.3,0.8,0.8v7.5C13.5,16.2,13.2,16.5,12.8,16.5z M7.9,16.5c-0.9,0-1.8-0.5-2.5-1.4
		c-1.2-1.7-1.2-4.4,0-6.2C6,8,6.9,7.5,7.9,7.5l0,0c0.9,0,1.8,0.5,2.5,1.4c0.2,0.3,0.2,0.8-0.2,1c-0.3,0.2-0.8,0.2-1-0.2
		C8.8,9.3,8.3,9,7.9,9l0,0C7.4,9,7,9.3,6.6,9.8c-0.8,1.2-0.8,3.2,0,4.4c0.7,0.9,1.7,1,2.4,0.2v-1.6H8.2c-0.4,0-0.8-0.3-0.8-0.8
		s0.3-0.8,0.8-0.8h1.5c0.4,0,0.8,0.3,0.8,0.8v2.7c0,0.2,0,0.3-0.1,0.4C9.7,16,8.8,16.5,7.9,16.5z"/>
</g>
</svg>
