<?xml version="1.0" encoding="utf-8"?>
<!-- Generator: Adobe Illustrator 28.4.1, SVG Export Plug-In . SVG Version: 6.00 Build 0)  -->
<svg version="1.1" id="Layer_1" xmlns="http://www.w3.org/2000/svg" xmlns:xlink="http://www.w3.org/1999/xlink" x="0px" y="0px"
	 viewBox="0 0 24 24" style="enable-background:new 0 0 24 24;" xml:space="preserve">
<style type="text/css">
	.st0{fill:#0F172A;}
</style>
<g>
	<path class="st0" d="M12,21.7c-2.5,0-5-1-6.9-2.9c-1.8-1.8-2.9-4.3-2.9-6.9c0-2.6,1-5.1,2.9-6.9c3.8-3.8,10-3.8,13.8,0
		c1.8,1.8,2.9,4.3,2.9,6.9c0,2.1-1.3,3.8-3,3.8c-0.9,0-1.6-0.5-2.2-1.2c-0.9,1.6-2.6,2.7-4.6,2.7c-2.9,0-5.2-2.4-5.2-5.3
		S9.1,6.7,12,6.7c1.5,0,2.8,0.6,3.8,1.6V8.2c0-0.4,0.3-0.8,0.8-0.8s0.8,0.3,0.8,0.8V12c0,1.2,0.7,2.3,1.5,2.3s1.5-1,1.5-2.3
		c0-2.2-0.9-4.3-2.4-5.8C14.6,2.9,9.4,3,6.2,6.2C4.6,7.7,3.8,9.8,3.8,12s0.9,4.3,2.4,5.8c3.2,3.2,8.5,3.2,11.7,0
		c0.3-0.3,0.8-0.3,1.1,0s0.3,0.8,0,1.1C17,20.8,14.5,21.7,12,21.7z M12,8.2c-2.1,0-3.8,1.7-3.8,3.8s1.7,3.8,3.8,3.8
		c2.1,0,3.8-1.7,3.8-3.8S14.1,8.2,12,8.2z"/>
</g>
</svg>
