<?xml version="1.0" encoding="utf-8"?>
<!-- Generator: Adobe Illustrator 28.4.1, SVG Export Plug-In . SVG Version: 6.00 Build 0)  -->
<svg version="1.1" id="Layer_1" xmlns="http://www.w3.org/2000/svg" xmlns:xlink="http://www.w3.org/1999/xlink" x="0px" y="0px"
	 viewBox="0 0 24 24" style="enable-background:new 0 0 24 24;" xml:space="preserve">
<style type="text/css">
	.st0{fill:#0F172A;}
</style>
<g>
	<path class="st0" d="M12,21.8c-5.4,0-9.8-4.4-9.8-9.8c0-5.4,4.4-9.8,9.8-9.8s9.8,4.4,9.8,9.8C21.8,17.4,17.4,21.8,12,21.8z M12,3.7
		c-4.5,0-8.2,3.7-8.2,8.2c0,4.5,3.7,8.3,8.2,8.3s8.2-3.7,8.2-8.3C20.2,7.5,16.5,3.7,12,3.7z M12,18c-0.4,0-0.8-0.3-0.8-0.8
		s0.3-0.8,0.8-0.8h0c0.4,0,0.8,0.3,0.8,0.8S12.4,18,12,18z M12,15c-0.4,0-0.8-0.3-0.8-0.8v-0.8c0-1,0.7-1.9,1.9-2.5
		c0.2-0.1,0.4-0.2,0.5-0.3c0.4-0.4,0.6-0.8,0.6-1.3c0-0.5-0.2-0.9-0.6-1.3c-0.9-0.8-2.4-0.8-3.3,0C10.1,8.4,9.6,8.3,9.3,8
		C9,7.7,9.1,7.2,9.4,7c1.4-1.3,3.8-1.3,5.2,0c0.7,0.6,1.1,1.5,1.1,2.4c0,0.9-0.4,1.8-1.1,2.4c-0.2,0.2-0.5,0.4-0.8,0.6
		c-0.5,0.2-1,0.7-1,1.2v0.8C12.8,14.7,12.4,15,12,15z"/>
</g>
</svg>
