<?xml version="1.0" encoding="utf-8"?>
<!-- Generator: Adobe Illustrator 28.4.1, SVG Export Plug-In . SVG Version: 6.00 Build 0)  -->
<svg version="1.1" id="Layer_1" xmlns="http://www.w3.org/2000/svg" xmlns:xlink="http://www.w3.org/1999/xlink" x="0px" y="0px"
	 viewBox="0 0 24 24" style="enable-background:new 0 0 24 24;" xml:space="preserve">
<style type="text/css">
	.st0{fill:#0F172A;}
</style>
<g>
	<path class="st0" d="M12,20.3c-1.2,0-2.5,0-3.7-0.1c-2.4-0.2-4.2-2-4.4-4.4c0-0.6-0.1-1.3-0.1-1.9L2,15.5c-0.3,0.3-0.8,0.3-1.1,0
		s-0.3-0.8,0-1.1l3-3l0,0l0,0c0,0,0,0,0,0c0,0,0,0,0,0c0,0,0,0,0,0c0,0,0,0,0,0c0,0,0,0,0,0c0,0,0,0,0,0c0,0,0,0,0,0c0,0,0,0,0,0
		c0,0,0,0,0,0c0,0,0,0,0,0c0,0,0,0,0,0c0,0,0,0,0,0c0,0,0,0,0,0c0,0,0,0,0,0c0,0,0,0,0,0c0,0,0,0,0,0c0,0,0,0,0,0c0,0,0,0,0,0
		c0,0,0,0,0,0c0,0,0,0,0,0c0,0,0,0,0,0l0,0c0.1-0.1,0.1-0.1,0.2-0.1c0.2-0.1,0.4-0.1,0.6,0c0.1,0,0.2,0.1,0.2,0.1l0,0c0,0,0,0,0,0
		c0,0,0,0,0,0c0,0,0,0,0,0l0,0c0,0,0,0,0,0c0,0,0,0,0,0c0,0,0,0,0,0c0,0,0,0,0,0c0,0,0,0,0,0c0,0,0,0,0,0c0,0,0,0,0,0l0,0
		c0,0,0,0,0,0c0,0,0,0,0,0c0,0,0,0,0,0c0,0,0,0,0,0c0,0,0,0,0,0c0,0,0,0,0,0c0,0,0,0,0,0l0,0l0,0l3,3c0.3,0.3,0.3,0.8,0,1.1
		s-0.8,0.3-1.1,0l-1.7-1.7c0,0.6,0.1,1.2,0.1,1.8c0.1,1.6,1.4,2.9,3,3c2.4,0.2,4.8,0.2,7.2,0c1.6-0.1,2.9-1.4,3-3l0-0.7
		c0-0.4,0.4-0.7,0.8-0.7c0.4,0,0.7,0.4,0.7,0.8l0,0.7c-0.2,2.4-2,4.2-4.4,4.4C14.5,20.2,13.2,20.3,12,20.3z M19.5,12.7
		C19.5,12.7,19.5,12.7,19.5,12.7L19.5,12.7L19.5,12.7c-0.1,0-0.2,0-0.3-0.1c0,0,0,0,0,0c0,0,0,0,0,0c-0.1,0-0.2-0.1-0.2-0.2
		c0,0,0,0,0,0c0,0,0,0,0,0c0,0,0,0,0,0c0,0,0,0,0,0l-3-3c-0.3-0.3-0.3-0.8,0-1.1s0.8-0.3,1.1,0l1.7,1.7c0-0.6-0.1-1.2-0.1-1.8
		c-0.1-1.6-1.4-2.9-3-3c-2.4-0.2-4.8-0.2-7.2,0c-1.6,0.1-2.9,1.4-3,3l0,0.7c0,0.4-0.4,0.7-0.8,0.7C4.1,9.7,3.8,9.4,3.8,9l0-0.7
		c0.2-2.4,2-4.2,4.4-4.4c2.5-0.2,5-0.2,7.4,0c2.4,0.2,4.2,2,4.4,4.4c0,0.6,0.1,1.3,0.1,1.9L22,8.5c0.3-0.3,0.8-0.3,1.1,0
		s0.3,0.8,0,1.1l-3,3c0,0,0,0,0,0c0,0,0,0,0,0c0,0,0,0,0,0c0,0,0,0,0,0c-0.1,0.1-0.2,0.1-0.2,0.2c0,0,0,0,0,0c0,0,0,0,0,0
		C19.7,12.7,19.6,12.7,19.5,12.7L19.5,12.7L19.5,12.7C19.5,12.7,19.5,12.7,19.5,12.7z"/>
</g>
</svg>
