<?xml version="1.0" encoding="utf-8"?>
<!-- Generator: Adobe Illustrator 28.4.1, SVG Export Plug-In . SVG Version: 6.00 Build 0)  -->
<svg version="1.1" id="Layer_1" xmlns="http://www.w3.org/2000/svg" xmlns:xlink="http://www.w3.org/1999/xlink" x="0px" y="0px"
	 viewBox="0 0 24 25" style="enable-background:new 0 0 24 25;" xml:space="preserve">
<style type="text/css">
	.st0{fill:#0F172A;}
</style>
<g>
	<path class="st0" d="M9.4,11.3H4.9c-1,0-1.9-0.8-1.9-1.9V4.9C3,3.9,3.8,3,4.9,3h4.5c1,0,1.9,0.8,1.9,1.9v4.5
		C11.2,10.4,10.4,11.3,9.4,11.3z M4.9,4.5c-0.2,0-0.4,0.2-0.4,0.4v4.5c0,0.2,0.2,0.4,0.4,0.4h4.5c0.2,0,0.4-0.2,0.4-0.4V4.9
		c0-0.2-0.2-0.4-0.4-0.4H4.9z"/>
</g>
<g>
	<path class="st0" d="M9.4,21H4.9c-1,0-1.9-0.8-1.9-1.9v-4.5c0-1,0.8-1.9,1.9-1.9h4.5c1,0,1.9,0.8,1.9,1.9v4.5
		C11.2,20.2,10.4,21,9.4,21z M4.9,14.3c-0.2,0-0.4,0.2-0.4,0.4v4.5c0,0.2,0.2,0.4,0.4,0.4h4.5c0.2,0,0.4-0.2,0.4-0.4v-4.5
		c0-0.2-0.2-0.4-0.4-0.4H4.9z"/>
</g>
<g>
	<path class="st0" d="M19.1,11.3h-4.5c-1,0-1.9-0.8-1.9-1.9V4.9c0-1,0.8-1.9,1.9-1.9h4.5c1,0,1.9,0.8,1.9,1.9v4.5
		C21,10.4,20.2,11.3,19.1,11.3z M14.6,4.5c-0.2,0-0.4,0.2-0.4,0.4v4.5c0,0.2,0.2,0.4,0.4,0.4h4.5c0.2,0,0.4-0.2,0.4-0.4V4.9
		c0-0.2-0.2-0.4-0.4-0.4H14.6z"/>
</g>
<g>
	<path class="st0" d="M7.5,8.3H6.8C6.3,8.3,6,7.9,6,7.5V6.8C6,6.4,6.3,6,6.8,6h0.8c0.4,0,0.8,0.3,0.8,0.8v0.8
		C8.2,7.9,7.9,8.3,7.5,8.3z"/>
</g>
<g>
	<path class="st0" d="M7.5,18H6.8C6.3,18,6,17.7,6,17.3v-0.8c0-0.4,0.3-0.7,0.8-0.7h0.8c0.4,0,0.8,0.3,0.8,0.7v0.8
		C8.2,17.7,7.9,18,7.5,18z"/>
</g>
<g>
	<path class="st0" d="M17.2,8.3h-0.8c-0.4,0-0.8-0.3-0.8-0.8V6.8c0-0.4,0.3-0.8,0.8-0.8h0.8C17.7,6,18,6.4,18,6.8v0.8
		C18,7.9,17.7,8.3,17.2,8.3z"/>
</g>
<g>
	<path class="st0" d="M14.2,15h-0.8c-0.4,0-0.8-0.3-0.8-0.8v-0.8c0-0.4,0.3-0.8,0.8-0.8h0.8c0.4,0,0.8,0.3,0.8,0.8v0.8
		C15,14.7,14.7,15,14.2,15z"/>
</g>
<g>
	<path class="st0" d="M14.2,21h-0.8c-0.4,0-0.8-0.3-0.8-0.8v-0.8c0-0.4,0.3-0.8,0.8-0.8h0.8c0.4,0,0.8,0.3,0.8,0.8v0.8
		C15,20.7,14.7,21,14.2,21z"/>
</g>
<g>
	<path class="st0" d="M20.2,15h-0.8c-0.4,0-0.8-0.3-0.8-0.8v-0.8c0-0.4,0.3-0.8,0.8-0.8h0.8c0.4,0,0.8,0.3,0.8,0.8v0.8
		C21,14.7,20.7,15,20.2,15z"/>
</g>
<g>
	<path class="st0" d="M20.2,21h-0.8c-0.4,0-0.8-0.3-0.8-0.8v-0.8c0-0.4,0.3-0.8,0.8-0.8h0.8c0.4,0,0.8,0.3,0.8,0.8v0.8
		C21,20.7,20.7,21,20.2,21z"/>
</g>
<g>
	<path class="st0" d="M17.2,18h-0.8c-0.4,0-0.8-0.3-0.8-0.8v-0.8c0-0.4,0.3-0.7,0.8-0.7h0.8c0.4,0,0.8,0.3,0.8,0.7v0.8
		C18,17.7,17.7,18,17.2,18z"/>
</g>
</svg>
