<?xml version="1.0" encoding="utf-8"?>
<!-- Generator: Adobe Illustrator 28.4.1, SVG Export Plug-In . SVG Version: 6.00 Build 0)  -->
<svg version="1.1" id="Layer_1" xmlns="http://www.w3.org/2000/svg" xmlns:xlink="http://www.w3.org/1999/xlink" x="0px" y="0px"
	 viewBox="0 0 24 24" style="enable-background:new 0 0 24 24;" xml:space="preserve">
<style type="text/css">
	.st0{fill:#0F172A;}
</style>
<g>
	<path class="st0" d="M19.8,22.5H4.2c-0.5,0-1-0.2-1.4-0.6c-0.4-0.4-0.5-0.9-0.5-1.5l1.3-12c0.1-1,0.9-1.7,1.9-1.7h2V6
		c0-2.5,2-4.5,4.5-4.5s4.5,2,4.5,4.5v0.8h2c1,0,1.8,0.7,1.9,1.7l0,0l1.3,12c0.1,0.5-0.1,1.1-0.5,1.5C20.8,22.3,20.3,22.5,19.8,22.5z
		 M5.5,8.2c-0.2,0-0.4,0.1-0.4,0.3l-1.3,12c0,0.1,0.1,0.2,0.1,0.3c0,0,0.1,0.1,0.3,0.1h15.5c0.1,0,0.2-0.1,0.3-0.1
		c0,0,0.1-0.1,0.1-0.3l-1.3-12c0-0.2-0.2-0.3-0.4-0.3h-2v1.4c0.2,0.2,0.4,0.5,0.4,0.8c0,0.6-0.5,1.1-1.1,1.1s-1.1-0.5-1.1-1.1
		c0-0.3,0.1-0.6,0.4-0.8V8.2H9v1.4c0.2,0.2,0.4,0.5,0.4,0.8c0,0.6-0.5,1.1-1.1,1.1s-1.1-0.5-1.1-1.1c0-0.3,0.1-0.6,0.4-0.8V8.2H5.5z
		 M9,6.7h6V6c0-1.7-1.3-3-3-3S9,4.3,9,6V6.7z"/>
</g>
</svg>
