<?xml version="1.0" encoding="utf-8"?>
<!-- Generator: Adobe Illustrator 28.4.1, SVG Export Plug-In . SVG Version: 6.00 Build 0)  -->
<svg version="1.1" id="Layer_1" xmlns="http://www.w3.org/2000/svg" xmlns:xlink="http://www.w3.org/1999/xlink" x="0px" y="0px"
	 viewBox="0 0 24 25" style="enable-background:new 0 0 24 25;" xml:space="preserve">
<g>
	<path d="M11.1,20.6c0.7,0.8,1.4,0.4,1.7,0c1.2-1.2,3.1-3.1,4-3.9c0,0,0.5-0.6-0.1-1.2c-0.6-0.6-1.2-0.1-1.2-0.1l-2.5,2.5v-6.3
		c0.2-2.2,1.9-6.5,7.3-6.6c0,0,0.7-0.2,0.7-0.9c0-0.7-0.7-1-0.7-1c-1.8-0.1-6.1,0.7-8.3,5c-1.3-2.3-3.9-5-8.3-5
		c-1.3,0.6-0.5,1.9,0,1.8c2.2,0,6.7,1.2,7.3,6.6v6.3l-2.5-2.5c-1.3-0.6-1.8,0.7-1.3,1.3L11.1,20.6z"/>
	<path d="M12,21.5c-0.4,0-0.8-0.2-1.2-0.6L6.8,17c-0.4-0.5-0.4-1.3,0-1.8c0.4-0.5,1.1-0.7,1.9-0.3l0.1,0.1l1.7,1.7v-5.1
		C10,6.6,5.9,5.4,3.8,5.4c0,0-0.1,0-0.1,0c-0.5,0-1-0.5-1.2-1.1c-0.2-0.7,0.2-1.3,1-1.7l0.2,0c4.5,0,7.1,2.7,8.3,4.5
		c2.4-3.8,6.4-4.6,8.3-4.5l0.1,0c0.4,0.1,1.1,0.6,1.1,1.4c0,0.9-0.7,1.3-1.1,1.4l-0.1,0c-5.1,0.1-6.7,4.1-6.8,6.2l0,5.1l1.7-1.7
		c0.4-0.3,1.2-0.6,1.9,0.1c0.7,0.7,0.4,1.5,0.1,1.9c-0.9,0.9-2.8,2.8-4,4C12.9,21.3,12.5,21.5,12,21.5C12,21.5,12,21.5,12,21.5z
		 M7.9,15.6c-0.1,0-0.2,0-0.3,0.1c-0.1,0.1-0.1,0.4,0,0.5l3.9,3.9c0.1,0.1,0.3,0.3,0.5,0.3c0.1,0,0.3-0.1,0.4-0.3
		c1.2-1.2,3.2-3.2,4-4c0-0.1,0.1-0.3-0.1-0.5c-0.3-0.2-0.5-0.1-0.6-0.1L12.4,19v-7.6c0.2-2.4,2-7,7.8-7.1c0.1,0,0.3-0.1,0.3-0.4
		c0-0.3-0.2-0.4-0.3-0.5c-1.8-0.1-5.7,0.8-7.7,4.7L12,9l-0.5-0.8c-0.8-1.4-3.1-4.7-7.7-4.7C3.6,3.6,3.5,3.8,3.5,4
		c0,0.2,0.2,0.4,0.2,0.4c2.4,0,7.1,1.4,7.8,7.1l0,7.6l-3.3-3.3C8.2,15.7,8,15.6,7.9,15.6z"/>
</g>
</svg>
