<?xml version="1.0" encoding="utf-8"?>
<!-- Generator: Adobe Illustrator 28.4.1, SVG Export Plug-In . SVG Version: 6.00 Build 0)  -->
<svg version="1.1" id="Layer_1" xmlns="http://www.w3.org/2000/svg" xmlns:xlink="http://www.w3.org/1999/xlink" x="0px" y="0px"
	 viewBox="0 0 24 24" style="enable-background:new 0 0 24 24;" xml:space="preserve">
<style type="text/css">
	.st0{fill:#0F172A;}
</style>
<g>
	<path class="st0" d="M12,21.8c-2.1,0-3.8-1.7-3.8-3.8c0-0.1,0-0.2,0-0.3c-1.6-0.2-3.3-0.7-4.8-1.2C3.2,16.4,3,16.2,3,16
		c-0.1-0.2,0-0.5,0.2-0.7c1.3-1.4,2-3.2,2.1-5.1c0-0.4,0.3-0.7,0.8-0.7c0.4,0,0.7,0.4,0.7,0.8c-0.1,1.8-0.7,3.6-1.8,5.1
		c1.4,0.4,2.8,0.8,4.3,0.9c0,0,0,0,0,0c1.2,0.1,2.5,0.2,3.7,0.1c0.4,0,0.8,0.3,0.8,0.7S13.4,18,13,18c-1.1,0-2.2,0-3.3-0.1
		c0,0,0,0.1,0,0.1c0,1.2,1,2.2,2.2,2.2c0.9,0,1.8-0.6,2.1-1.5c0.1-0.4,0.6-0.6,1-0.4c0.4,0.1,0.6,0.6,0.4,1
		C15,20.8,13.6,21.8,12,21.8z M21,21.8c-0.2,0-0.4-0.1-0.5-0.2l-4.2-4.2c0,0,0,0,0,0L6,7.1c0,0,0,0,0,0L2.5,3.5
		c-0.3-0.3-0.3-0.8,0-1.1s0.8-0.3,1.1,0l2.8,2.8c1.2-1.9,3.4-3,5.6-3c3.7,0,6.8,3,6.8,6.8v0.8c0,2,0.8,4,2.1,5.5
		c0.2,0.2,0.2,0.4,0.2,0.7c-0.1,0.2-0.2,0.4-0.5,0.5c-0.8,0.3-1.5,0.5-2.3,0.7l3.3,3.3c0.3,0.3,0.3,0.8,0,1.1
		C21.4,21.7,21.2,21.8,21,21.8z M7.4,6.4L17,16c0.7-0.2,1.4-0.3,2-0.5c-1.2-1.6-1.8-3.6-1.8-5.7V9c0-2.9-2.4-5.3-5.2-5.3
		C10.1,3.7,8.4,4.8,7.4,6.4z"/>
</g>
</svg>
