<?xml version="1.0" encoding="utf-8"?>
<!-- Generator: Adobe Illustrator 28.4.1, SVG Export Plug-In . SVG Version: 6.00 Build 0)  -->
<svg version="1.1" id="Layer_1" xmlns="http://www.w3.org/2000/svg" xmlns:xlink="http://www.w3.org/1999/xlink" x="0px" y="0px"
	 viewBox="0 0 24 24" style="enable-background:new 0 0 24 24;" xml:space="preserve">
<style type="text/css">
	.st0{fill:#0F172A;}
</style>
<g>
	<path class="st0" d="M20.6,19.5H3.4c-1,0-1.9-0.8-1.9-1.9v-3c0-0.3,0.1-0.5,0.4-0.6C2.6,13.5,3,12.8,3,12s-0.4-1.5-1.1-1.9
		C1.6,9.9,1.5,9.7,1.5,9.4v-3c0-1,0.8-1.9,1.9-1.9h17.2c1,0,1.9,0.8,1.9,1.9v3c0,0.3-0.1,0.5-0.4,0.6C21.4,10.5,21,11.2,21,12
		s0.4,1.5,1.1,2c0.2,0.1,0.4,0.4,0.4,0.6v3C22.5,18.7,21.7,19.5,20.6,19.5z M17.2,18h3.4c0.2,0,0.4-0.2,0.4-0.4V15
		c-0.9-0.7-1.5-1.8-1.5-3c0-1.2,0.6-2.3,1.5-3V6.4C21,6.2,20.8,6,20.6,6h-3.4v0.8c0,0.4-0.3,0.8-0.8,0.8s-0.8-0.3-0.8-0.8V6H3.4
		C3.2,6,3,6.2,3,6.4V9c0.9,0.7,1.5,1.8,1.5,3c0,1.2-0.6,2.3-1.5,3v2.6C3,17.8,3.2,18,3.4,18h12.4v-0.8c0-0.4,0.3-0.8,0.8-0.8
		s0.8,0.3,0.8,0.8V18z M21.8,9.4L21.8,9.4L21.8,9.4z M10.5,15.8h-3c-0.4,0-0.8-0.3-0.8-0.8s0.3-0.8,0.8-0.8h3c0.4,0,0.8,0.3,0.8,0.8
		S10.9,15.8,10.5,15.8z M16.5,15c-0.4,0-0.8-0.3-0.8-0.8v-0.8c0-0.4,0.3-0.8,0.8-0.8s0.8,0.3,0.8,0.8v0.8C17.2,14.7,16.9,15,16.5,15
		z M12.8,13.5H7.5c-0.4,0-0.8-0.3-0.8-0.7c0-0.4,0.3-0.8,0.8-0.8h5.2c0.4,0,0.8,0.3,0.8,0.8C13.5,13.2,13.2,13.5,12.8,13.5z
		 M16.5,11.2c-0.4,0-0.8-0.3-0.8-0.8V9.7c0-0.4,0.3-0.8,0.8-0.8s0.8,0.3,0.8,0.8v0.8C17.2,10.9,16.9,11.2,16.5,11.2z"/>
</g>
</svg>
