<?xml version="1.0" encoding="utf-8"?>
<!-- Generator: Adobe Illustrator 28.4.1, SVG Export Plug-In . SVG Version: 6.00 Build 0)  -->
<svg version="1.1" id="Layer_1" xmlns="http://www.w3.org/2000/svg" xmlns:xlink="http://www.w3.org/1999/xlink" x="0px" y="0px"
	 viewBox="0 0 24 24" style="enable-background:new 0 0 24 24;" xml:space="preserve">
<style type="text/css">
	.st0{fill:#0F172A;}
</style>
<g>
	<path class="st0" d="M17.2,22.5H6.8c-1.7,0-3-1.3-3-3v-15c0-1.7,1.3-3,3-3h10.5c1.7,0,3,1.3,3,3v15C20.2,21.2,18.9,22.5,17.2,22.5z
		 M6.8,3C5.9,3,5.2,3.7,5.2,4.5v15c0,0.8,0.7,1.5,1.5,1.5h10.5c0.8,0,1.5-0.7,1.5-1.5v-15c0-0.8-0.7-1.5-1.5-1.5H6.8z M13.5,20.3h-3
		c-0.4,0-0.8-0.3-0.8-0.8s0.3-0.8,0.8-0.8h3c0.4,0,0.8,0.3,0.8,0.8S13.9,20.3,13.5,20.3z"/>
</g>
</svg>
