<?xml version="1.0" encoding="utf-8"?>
<!-- Generator: Adobe Illustrator 28.4.1, SVG Export Plug-In . SVG Version: 6.00 Build 0)  -->
<svg version="1.1" id="Layer_1" xmlns="http://www.w3.org/2000/svg" xmlns:xlink="http://www.w3.org/1999/xlink" x="0px" y="0px"
	 viewBox="0 0 24 24" style="enable-background:new 0 0 24 24;" xml:space="preserve">
<style type="text/css">
	.st0{fill:#0F172A;}
</style>
<g>
	<path class="st0" d="M6.8,22.5C5.4,22.5,4.1,22,3,21c-2-2-2-5.4,0-7.4l1.8-1.8c0.3-0.3,0.8-0.3,1.1,0s0.3,0.8,0,1.1l-1.8,1.8
		c-1.5,1.5-1.5,3.8,0,5.3c1.5,1.5,3.8,1.5,5.3,0l4.5-4.5c0.7-0.7,1.1-1.7,1.1-2.7s-0.4-1.9-1.1-2.7c-0.3-0.3-0.7-0.6-1-0.7
		c-0.4-0.2-0.5-0.6-0.4-1c0.2-0.4,0.6-0.5,1-0.4c0.5,0.3,1,0.6,1.4,1c1,1,1.5,2.3,1.5,3.7c0,1.4-0.5,2.7-1.5,3.7L10.5,21
		C9.4,22,8.1,22.5,6.8,22.5z M10.8,16.1c-0.1,0-0.2,0-0.3-0.1c-0.5-0.3-1-0.6-1.4-1c-2-2-2-5.4,0-7.4L13.5,3c1-1,2.3-1.5,3.7-1.5
		S20,2,21,3c1,1,1.5,2.3,1.5,3.7c0,1.4-0.5,2.7-1.5,3.7l-1.8,1.8c-0.3,0.3-0.8,0.3-1.1,0s-0.3-0.8,0-1.1l1.8-1.8
		C20.6,8.7,21,7.8,21,6.7c0-1-0.4-1.9-1.1-2.7c-1.4-1.4-3.9-1.4-5.3,0l-4.5,4.5c-1.5,1.5-1.5,3.8,0,5.3c0.3,0.3,0.7,0.5,1,0.7
		c0.4,0.2,0.5,0.6,0.4,1C11.4,15.9,11.1,16.1,10.8,16.1z"/>
</g>
</svg>
