<?xml version="1.0" encoding="utf-8"?>
<!-- Generator: Adobe Illustrator 28.4.1, SVG Export Plug-In . SVG Version: 6.00 Build 0)  -->
<svg version="1.1" id="Layer_1" xmlns="http://www.w3.org/2000/svg" xmlns:xlink="http://www.w3.org/1999/xlink" x="0px" y="0px"
	 viewBox="0 0 24 24" style="enable-background:new 0 0 24 24;" xml:space="preserve">
<style type="text/css">
	.st0{fill:#0F172A;}
</style>
<g>
	<path class="st0" d="M18.8,21H5.2c-1.7,0-3-1.3-3-3V6c0-1.7,1.3-3,3-3h13.5c1.7,0,3,1.3,3,3v12C21.8,19.7,20.4,21,18.8,21z M3.8,12
		v6c0,0.8,0.7,1.5,1.5,1.5h13.5c0.8,0,1.5-0.7,1.5-1.5v-6c0-0.8-0.7-1.5-1.5-1.5h-3.1c-0.3,1.7-1.9,3-3.7,3c-1.8,0-3.3-1.3-3.7-3
		H5.2C4.4,10.5,3.8,11.2,3.8,12z M5.2,9H9c0.4,0,0.8,0.3,0.8,0.8c0,1.2,1,2.2,2.2,2.2c1.2,0,2.2-1,2.2-2.2C14.2,9.3,14.6,9,15,9h3.8
		c0.5,0,1.1,0.1,1.5,0.4V9c0-0.8-0.7-1.5-1.5-1.5H5.2C4.4,7.5,3.8,8.2,3.8,9v0.4C4.2,9.1,4.7,9,5.2,9z M5.2,6h13.5
		c0.5,0,1.1,0.1,1.5,0.4V6c0-0.8-0.7-1.5-1.5-1.5H5.2C4.4,4.5,3.8,5.2,3.8,6v0.4C4.2,6.1,4.7,6,5.2,6z"/>
</g>
</svg>
