<?xml version="1.0" encoding="utf-8"?>
<!-- Generator: Adobe Illustrator 28.4.1, SVG Export Plug-In . SVG Version: 6.00 Build 0)  -->
<svg version="1.1" id="Layer_1" xmlns="http://www.w3.org/2000/svg" xmlns:xlink="http://www.w3.org/1999/xlink" x="0px" y="0px"
	 viewBox="0 0 24 24" style="enable-background:new 0 0 24 24;" xml:space="preserve">
<style type="text/css">
	.st0{fill:#0F172A;}
</style>
<g>
	<path class="st0" d="M10.4,21.8c-2.4,0-4.7-0.6-6.8-1.9c-0.2-0.1-0.4-0.4-0.4-0.6l0.8,0l-0.8,0l0-0.1c0-3.9,3.2-7.1,7.1-7.1
		s7.1,3.2,7.1,7.1l0,0.1c0,0.3-0.1,0.5-0.4,0.6C15.1,21.1,12.8,21.8,10.4,21.8z M4.8,18.8c3.4,1.9,7.8,1.9,11.2,0
		c-0.2-3-2.6-5.3-5.6-5.3C7.4,13.5,4.9,15.9,4.8,18.8z M22,11.2h-6c-0.4,0-0.8-0.3-0.8-0.8s0.3-0.8,0.8-0.8h6c0.4,0,0.8,0.3,0.8,0.8
		S22.4,11.2,22,11.2z M10.4,10.5c-2.3,0-4.1-1.9-4.1-4.1s1.9-4.1,4.1-4.1s4.1,1.9,4.1,4.1S12.6,10.5,10.4,10.5z M10.4,3.7
		c-1.4,0-2.6,1.2-2.6,2.6S8.9,9,10.4,9S13,7.8,13,6.4S11.8,3.7,10.4,3.7z"/>
</g>
</svg>
