<?xml version="1.0" encoding="utf-8"?>
<!-- Generator: Adobe Illustrator 28.4.1, SVG Export Plug-In . SVG Version: 6.00 Build 0)  -->
<svg version="1.1" id="Layer_1" xmlns="http://www.w3.org/2000/svg" xmlns:xlink="http://www.w3.org/1999/xlink" x="0px" y="0px"
	 viewBox="0 0 24 24" style="enable-background:new 0 0 24 24;" xml:space="preserve">
<style type="text/css">
	.st0{fill:#0F172A;}
</style>
<g>
	<path class="st0" d="M15,21.6c-0.3,0-0.6-0.1-0.8-0.2l-5-2.5c-0.1-0.1-0.2-0.1-0.3,0L5,20.9c-0.6,0.3-1.3,0.3-1.8-0.1
		c-0.6-0.3-0.9-0.9-0.9-1.6V6.7c0-0.7,0.4-1.4,1-1.7l4.9-2.4c0.5-0.3,1.2-0.3,1.7,0l5,2.5c0.1,0.1,0.2,0.1,0.3,0L19,3.1
		c0.6-0.3,1.3-0.3,1.8,0.1c0.6,0.3,0.9,0.9,0.9,1.6v12.5c0,0.7-0.4,1.4-1,1.7l-4.9,2.4C15.6,21.6,15.3,21.6,15,21.6z M9,17.4
		c0.3,0,0.6,0.1,0.8,0.2l5,2.5c0.1,0.1,0.2,0.1,0.3,0l4.9-2.4c0.1-0.1,0.2-0.2,0.2-0.3V4.8c0-0.2-0.1-0.3-0.2-0.3s-0.2-0.1-0.4,0
		l-3.9,1.9c-0.5,0.3-1.2,0.3-1.7,0l-5-2.5c-0.1-0.1-0.2-0.1-0.3,0L4,6.4C3.8,6.4,3.8,6.6,3.8,6.7v12.5c0,0.2,0.1,0.3,0.2,0.3
		c0.1,0,0.2,0.1,0.4,0l3.9-1.9C8.4,17.4,8.7,17.4,9,17.4z M15,18c-0.4,0-0.8-0.3-0.8-0.8V9c0-0.4,0.3-0.8,0.8-0.8s0.8,0.3,0.8,0.8
		v8.3C15.8,17.7,15.4,18,15,18z M9,15.8c-0.4,0-0.8-0.3-0.8-0.8V6.7C8.2,6.3,8.6,6,9,6s0.8,0.3,0.8,0.8V15C9.8,15.4,9.4,15.8,9,15.8
		z"/>
</g>
</svg>
