<?xml version="1.0" encoding="utf-8"?>
<!-- Generator: Adobe Illustrator 28.4.1, SVG Export Plug-In . SVG Version: 6.00 Build 0)  -->
<svg version="1.1" id="Layer_1" xmlns="http://www.w3.org/2000/svg" xmlns:xlink="http://www.w3.org/1999/xlink" x="0px" y="0px"
	 viewBox="0 0 24 24" style="enable-background:new 0 0 24 24;" xml:space="preserve">
<style type="text/css">
	.st0{fill:#0F172A;}
</style>
<g>
	<path class="st0" d="M12,21.8c-5.4,0-9.8-4.4-9.8-9.8c0-5.4,4.4-9.8,9.8-9.8s9.8,4.4,9.8,9.8C21.8,17.4,17.4,21.8,12,21.8z M12,3.7
		c-4.5,0-8.2,3.7-8.2,8.2c0,4.5,3.7,8.3,8.2,8.3s8.2-3.7,8.2-8.3C20.2,7.5,16.5,3.7,12,3.7z M12,16.5c-0.1,0-0.2,0-0.3-0.1
		c-0.1,0-0.2-0.1-0.2-0.1c0,0,0,0,0,0l0,0c0,0,0,0,0,0c0,0,0,0,0,0h0c0,0,0,0,0,0c0,0,0,0,0,0c0,0,0,0,0,0c0,0,0,0,0,0c0,0,0,0,0,0
		c0,0,0,0,0,0c0,0,0,0,0,0c0,0,0,0,0,0l0,0c0,0,0,0,0,0c0,0,0,0,0,0c0,0,0,0,0,0c0,0,0,0,0,0c0,0,0,0,0,0c0,0,0,0,0,0c0,0,0,0,0,0
		l0,0c0,0,0,0,0,0l0,0l0,0l-3-3c-0.3-0.3-0.3-0.8,0-1.1s0.8-0.3,1.1,0l1.7,1.7V8.2c0-0.4,0.3-0.8,0.8-0.8s0.8,0.3,0.8,0.8v5.7
		l1.7-1.7c0.3-0.3,0.8-0.3,1.1,0s0.3,0.8,0,1.1l-3,3l0,0l0,0c0,0,0,0,0,0l0,0c0,0,0,0,0,0h0c0,0,0,0,0,0c0,0,0,0,0,0c0,0,0,0,0,0
		c0,0,0,0,0,0c0,0,0,0,0,0c0,0,0,0,0,0l0,0c0,0,0,0,0,0c0,0,0,0,0,0c0,0,0,0,0,0h0c0,0,0,0,0,0c0,0,0,0,0,0c0,0,0,0,0,0c0,0,0,0,0,0
		c0,0,0,0,0,0h0c0,0,0,0,0,0c0,0,0,0,0,0c0,0,0,0,0,0c0,0,0,0,0,0h0c0,0,0,0,0,0s0,0,0,0c0,0,0,0,0,0l0,0c-0.1,0.1-0.1,0.1-0.2,0.1
		C12.2,16.5,12.1,16.5,12,16.5z"/>
</g>
</svg>
