<?xml version="1.0" encoding="utf-8"?>
<!-- Generator: Adobe Illustrator 28.4.1, SVG Export Plug-In . SVG Version: 6.00 Build 0)  -->
<svg version="1.1" id="Layer_1" xmlns="http://www.w3.org/2000/svg" xmlns:xlink="http://www.w3.org/1999/xlink" x="0px" y="0px"
	 viewBox="0 0 24 25" style="enable-background:new 0 0 24 25;" xml:space="preserve">
<style type="text/css">
	.st0{fill:#0F172A;}
</style>
<g>
	<path class="st0" d="M6.4,20.2c-0.3,0-0.7-0.1-1-0.3c-0.6-0.3-0.9-0.9-0.9-1.6V5.7c0-0.7,0.3-1.3,0.9-1.6C6,3.7,6.7,3.7,7.3,4
		l11.5,6.3c0.6,0.3,1,1,1,1.6c0,0.7-0.4,1.3-1,1.6L7.3,20C7,20.2,6.7,20.2,6.4,20.2z M6.4,5.3c-0.1,0-0.2,0-0.2,0.1
		C6.1,5.4,6,5.5,6,5.7v12.7c0,0.2,0.1,0.3,0.2,0.3c0.1,0,0.2,0.1,0.4,0l11.5-6.3c0.2-0.1,0.2-0.3,0.2-0.3c0-0.1,0-0.2-0.2-0.3
		L6.6,5.3C6.5,5.3,6.4,5.3,6.4,5.3z"/>
</g>
</svg>
