<?xml version="1.0" encoding="utf-8"?>
<!-- Generator: Adobe Illustrator 28.4.1, SVG Export Plug-In . SVG Version: 6.00 Build 0)  -->
<svg version="1.1" id="Layer_1" xmlns="http://www.w3.org/2000/svg" xmlns:xlink="http://www.w3.org/1999/xlink" x="0px" y="0px"
	 viewBox="0 0 24 24" style="enable-background:new 0 0 24 24;" xml:space="preserve">
<style type="text/css">
	.st0{fill:#0F172A;}
</style>
<g>
	<path class="st0" d="M19.5,22.5h-15c-1.7,0-3-1.3-3-3V8.8c0-1.1,0.6-2.1,1.6-2.6l7.5-4c0.9-0.5,2-0.5,2.8,0l7.5,4
		c1,0.5,1.6,1.5,1.6,2.6v10.7C22.5,21.2,21.2,22.5,19.5,22.5z M3,12.5v7C3,20.3,3.7,21,4.5,21h15c0.8,0,1.5-0.7,1.5-1.5v-7
		c0,0-0.1,0-0.1,0l-5.3,2.8l3.4,1.8c0.4,0.2,0.5,0.7,0.3,1c-0.2,0.4-0.6,0.5-1,0.3L13.7,16c0,0,0,0,0,0l-1-0.5c-0.4-0.2-1-0.2-1.4,0
		l-1,0.5c0,0,0,0,0,0l-4.7,2.5c-0.4,0.2-0.8,0.1-1-0.3c-0.2-0.4-0.1-0.8,0.3-1l3.4-1.8L3,12.5C3.1,12.5,3,12.5,3,12.5z M12,13.8
		c0.5,0,1,0.1,1.4,0.4l0.7,0.4l6.1-3.3C20.7,11,21,10.5,21,9.9V8.8c0-0.6-0.3-1.1-0.8-1.3l-7.5-4c-0.4-0.2-1-0.2-1.4,0l-7.5,4
		C3.3,7.8,3,8.3,3,8.8v1.1c0,0.6,0.3,1.1,0.8,1.3l6.1,3.3l0.7-0.4C11,13.9,11.5,13.8,12,13.8z"/>
</g>
</svg>
