<?xml version="1.0" encoding="utf-8"?>
<!-- Generator: Adobe Illustrator 28.4.1, SVG Export Plug-In . SVG Version: 6.00 Build 0)  -->
<svg version="1.1" id="Layer_1" xmlns="http://www.w3.org/2000/svg" xmlns:xlink="http://www.w3.org/1999/xlink" x="0px" y="0px"
	 viewBox="0 0 24 24" style="enable-background:new 0 0 24 24;" xml:space="preserve">
<style type="text/css">
	.st0{fill:#0F172A;}
</style>
<g>
	<path class="st0" d="M12,21.8c-5.4,0-9.8-4.4-9.8-9.8c0-5.4,4.4-9.8,9.8-9.8s9.8,4.4,9.8,9.8C21.8,17.4,17.4,21.8,12,21.8z M12,3.7
		c-4.5,0-8.2,3.7-8.2,8.2c0,4.5,3.7,8.3,8.2,8.3s8.2-3.7,8.2-8.3C20.2,7.5,16.5,3.7,12,3.7z M12,18c-0.2,0-0.4-0.1-0.5-0.2l-3-3
		c-0.2-0.2-0.3-0.5-0.2-0.8s0.4-0.5,0.7-0.5h1.5c1,0,1.8-0.6,2.1-1.5H9c-0.4,0-0.8-0.3-0.8-0.8s0.3-0.8,0.8-0.8h3.6
		C12.3,9.6,11.5,9,10.5,9H9C8.6,9,8.2,8.7,8.2,8.2c0-0.4,0.3-0.8,0.8-0.8h6c0.4,0,0.8,0.3,0.8,0.8C15.8,8.7,15.4,9,15,9h-1.5
		c0.3,0.4,0.6,0.9,0.7,1.5H15c0.4,0,0.8,0.3,0.8,0.8S15.4,12,15,12h-0.8c-0.3,1.6-1.7,2.9-3.4,3l1.7,1.7c0.3,0.3,0.3,0.8,0,1.1
		C12.4,17.9,12.2,18,12,18z"/>
</g>
</svg>
