<?xml version="1.0" encoding="utf-8"?>
<!-- Generator: Adobe Illustrator 28.4.1, SVG Export Plug-In . SVG Version: 6.00 Build 0)  -->
<svg version="1.1" id="Layer_1" xmlns="http://www.w3.org/2000/svg" xmlns:xlink="http://www.w3.org/1999/xlink" x="0px" y="0px"
	 viewBox="0 0 24 24" style="enable-background:new 0 0 24 24;" xml:space="preserve">
<style type="text/css">
	.st0{fill:#0F172A;}
</style>
<g>
	<path class="st0" d="M18.8,21H5.2c-1.7,0-3-1.3-3-3v-6c0-1.1,0.6-2.1,1.5-2.6V9c0-1.1,0.6-2.1,1.5-2.6V6c0-1.7,1.3-3,3-3h7.5
		c1.7,0,3,1.3,3,3v0.4c0.9,0.5,1.5,1.5,1.5,2.6v0.4c0.9,0.5,1.5,1.5,1.5,2.6v6C21.8,19.7,20.4,21,18.8,21z M4.7,10.6
		c-0.6,0.2-1,0.8-1,1.4v6c0,0.8,0.7,1.5,1.5,1.5h13.5c0.8,0,1.5-0.7,1.5-1.5v-6c0-0.6-0.4-1.2-1-1.4c0,0,0,0,0,0
		c-0.2-0.1-0.3-0.1-0.5-0.1H5.2C5.1,10.5,4.9,10.5,4.7,10.6C4.8,10.6,4.7,10.6,4.7,10.6z M5.2,9h13.5c0-0.6-0.4-1.2-1-1.4
		c0,0,0,0,0,0c-0.2-0.1-0.3-0.1-0.5-0.1H6.8c-0.2,0-0.3,0-0.5,0.1c0,0,0,0,0,0C5.6,7.8,5.2,8.4,5.2,9z M6.8,6h10.5
		c0-0.8-0.7-1.5-1.5-1.5H8.2C7.4,4.5,6.8,5.2,6.8,6z"/>
</g>
</svg>
