<?xml version="1.0" encoding="utf-8"?>
<!-- Generator: Adobe Illustrator 28.4.1, SVG Export Plug-In . SVG Version: 6.00 Build 0)  -->
<svg version="1.1" id="Layer_1" xmlns="http://www.w3.org/2000/svg" xmlns:xlink="http://www.w3.org/1999/xlink" x="0px" y="0px"
	 viewBox="0 0 24 24" style="enable-background:new 0 0 24 24;" xml:space="preserve">
<style type="text/css">
	.st0{fill:#0F172A;}
</style>
<g>
	<path class="st0" d="M20.2,19.5H3.8c-0.4,0-0.8-0.3-0.8-0.8S3.3,18,3.8,18h16.5c0.4,0,0.8,0.3,0.8,0.8S20.7,19.5,20.2,19.5z
		 M20.2,15H3.8C3.3,15,3,14.7,3,14.3s0.3-0.8,0.8-0.8h16.5c0.4,0,0.8,0.3,0.8,0.8S20.7,15,20.2,15z M20.2,10.5H3.8
		C3.3,10.5,3,10.2,3,9.7S3.3,9,3.8,9h16.5C20.7,9,21,9.3,21,9.7S20.7,10.5,20.2,10.5z M20.2,6H3.8C3.3,6,3,5.7,3,5.2
		s0.3-0.8,0.8-0.8h16.5c0.4,0,0.8,0.3,0.8,0.8S20.7,6,20.2,6z"/>
</g>
</svg>
