<?xml version="1.0" encoding="utf-8"?>
<!-- Generator: Adobe Illustrator 28.4.1, SVG Export Plug-In . SVG Version: 6.00 Build 0)  -->
<svg version="1.1" id="Layer_1" xmlns="http://www.w3.org/2000/svg" xmlns:xlink="http://www.w3.org/1999/xlink" x="0px" y="0px"
	 viewBox="0 0 24 24" style="enable-background:new 0 0 24 24;" xml:space="preserve">
<style type="text/css">
	.st0{fill:#0F172A;}
</style>
<g>
	<path class="st0" d="M5.3,21C4,21,2.7,20.3,2,19.1C1,17.3,1.6,15,3.4,14c0.9-0.5,1.9-0.6,2.8-0.4c0.7,0.2,1.4,0.6,1.8,1.1l1-0.5
		c0,0,0,0,0,0C9.4,14,9.7,13.5,9.7,13c0-0.3,0-0.7,0.1-1c-0.1-0.3-0.1-0.7-0.1-1c0-0.5-0.3-1-0.7-1.2l0,0c0,0,0,0,0,0L8.1,9.2
		c-0.5,0.5-1.1,0.9-1.8,1.1c-1,0.3-2,0.1-2.8-0.4C1.6,9,1,6.7,2,4.9c1-1.8,3.3-2.4,5.1-1.4C8,4,8.6,4.8,8.9,5.8
		C9.1,6.5,9,7.2,8.8,7.9l1,0.5c0,0,0,0,0,0l1.6,0.9c0.6-0.5,1.2-0.9,2-1.2l5.3-1.6c0.9-0.3,1.9-0.3,2.9-0.1l0.8,0.2
		c0.3,0.1,0.5,0.3,0.5,0.6c0,0.3-0.1,0.6-0.4,0.7L15.8,12l6.7,3.9c0.3,0.2,0.4,0.4,0.4,0.7c0,0.3-0.3,0.5-0.5,0.6l-0.8,0.2
		c-1,0.3-2,0.2-2.9-0.1l-5.3-1.6c-0.7-0.2-1.4-0.6-2-1.2l-1.6,0.9c0,0,0,0,0,0l-1,0.5c0.2,0.7,0.3,1.4,0.1,2.2
		c-0.3,1-0.9,1.8-1.7,2.3C6.5,20.8,5.9,21,5.3,21z M5.2,15c-0.4,0-0.8,0.1-1.1,0.3c-1.1,0.6-1.4,2-0.8,3.1c0.6,1.1,2,1.4,3.1,0.8
		c0.5-0.3,0.9-0.8,1-1.4c0.2-0.6,0.1-1.2-0.2-1.7c0,0,0,0,0,0c-0.3-0.5-0.8-0.9-1.4-1C5.6,15,5.4,15,5.2,15z M12.7,13.8
		c0.3,0.2,0.7,0.4,1,0.5l5.3,1.6c0.3,0.1,0.6,0.1,0.9,0.2l-5.6-3.2L12.7,13.8z M11.3,12.2c-0.1,0.2-0.1,0.5-0.1,0.7l2.7-1.6
		c0,0,0,0,0,0l6-3.5c-0.3,0-0.6,0.1-0.9,0.2l-5.3,1.6c-0.7,0.2-1.3,0.6-1.7,1.1c0,0,0,0,0,0C11.7,11.2,11.5,11.7,11.3,12.2
		C11.3,12.2,11.3,12.2,11.3,12.2z M5.3,4.5c-0.8,0-1.5,0.4-2,1.1C2.7,6.7,3.1,8.1,4.1,8.7C4.6,9,5.3,9.1,5.8,8.9
		c0.6-0.2,1.1-0.5,1.4-1l0,0c0.3-0.5,0.4-1.1,0.2-1.7c-0.2-0.6-0.5-1.1-1-1.4C6,4.6,5.6,4.5,5.3,4.5z"/>
</g>
</svg>
