<?xml version="1.0" encoding="utf-8"?>
<!-- Generator: Adobe Illustrator 28.4.1, SVG Export Plug-In . SVG Version: 6.00 Build 0)  -->
<svg version="1.1" id="Layer_1" xmlns="http://www.w3.org/2000/svg" xmlns:xlink="http://www.w3.org/1999/xlink" x="0px" y="0px"
	 viewBox="0 0 24 24" style="enable-background:new 0 0 24 24;" xml:space="preserve">
<style type="text/css">
	.st0{fill:#0F172A;}
</style>
<g>
	<path class="st0" d="M12,22.5L12,22.5L12,22.5c-0.1,0-0.1,0-0.2,0c-0.1,0-0.1,0-0.2-0.1c0,0,0,0,0,0l-2.2-1.3
		c-0.4-0.2-0.5-0.7-0.3-1c0.2-0.4,0.7-0.5,1-0.3l1.1,0.7v-0.9c0-0.4,0.3-0.8,0.8-0.8s0.8,0.3,0.8,0.8v0.9l1.1-0.7
		c0.4-0.2,0.8-0.1,1,0.3c0.2,0.4,0.1,0.8-0.3,1l-2.2,1.3c0,0,0,0,0,0c-0.1,0-0.1,0.1-0.2,0.1C12.1,22.5,12.1,22.5,12,22.5z
		 M18.8,18.6c-0.3,0-0.5-0.1-0.6-0.4c-0.2-0.4-0.1-0.8,0.3-1l1.9-1.1v-1.8c0-0.4,0.3-0.8,0.8-0.8s0.8,0.3,0.8,0.8v2.2
		c0,0.3-0.1,0.5-0.4,0.6l-2.2,1.3C19,18.5,18.9,18.6,18.8,18.6z M5.2,18.6c-0.1,0-0.3,0-0.4-0.1l-2.2-1.3c-0.2-0.1-0.4-0.4-0.4-0.6
		v-2.2c0-0.4,0.3-0.8,0.8-0.8s0.8,0.3,0.8,0.8v1.8l1.9,1.1c0.4,0.2,0.5,0.7,0.3,1C5.8,18.4,5.5,18.6,5.2,18.6z M12,15.8
		c-0.4,0-0.8-0.3-0.8-0.8v-1.8l-1.9-1.1c-0.4-0.2-0.5-0.7-0.3-1c0.2-0.4,0.7-0.5,1-0.3l1.9,1.1l1.9-1.1c0.4-0.2,0.8-0.1,1,0.3
		c0.2,0.4,0.1,0.8-0.3,1l-1.9,1.1V15C12.8,15.4,12.4,15.8,12,15.8z M21,10.5c-0.4,0-0.8-0.3-0.8-0.8V8.8l-1.1,0.7
		c-0.4,0.2-0.8,0.1-1-0.3c-0.2-0.4-0.1-0.8,0.3-1l1.1-0.7l-1.1-0.7c-0.4-0.2-0.5-0.7-0.3-1c0.2-0.4,0.7-0.5,1-0.3l2.2,1.3
		c0,0,0,0,0,0c0.1,0,0.1,0.1,0.2,0.1c0,0,0.1,0.1,0.1,0.2c0,0.1,0.1,0.1,0.1,0.2l0,0c0,0,0,0,0,0c0,0.1,0,0.1,0,0.2c0,0,0,0,0,0v2.2
		C21.8,10.2,21.4,10.5,21,10.5z M3,10.5c-0.4,0-0.8-0.3-0.8-0.8V7.5c0,0,0,0,0,0c0-0.1,0-0.1,0-0.2c0,0,0,0,0,0l0,0
		c0-0.1,0-0.1,0.1-0.2C2.4,7.1,2.4,7,2.5,7s0.1-0.1,0.2-0.1c0,0,0,0,0,0l2.2-1.3c0.4-0.2,0.8-0.1,1,0.3c0.2,0.4,0.1,0.8-0.3,1
		L4.5,7.5l1.1,0.7c0.4,0.2,0.5,0.7,0.3,1c-0.2,0.4-0.7,0.5-1,0.3L3.8,8.8v0.9C3.8,10.2,3.4,10.5,3,10.5z M14.2,4.3
		c-0.1,0-0.3,0-0.4-0.1L12,3.1l-1.9,1.1c-0.4,0.2-0.8,0.1-1-0.3C8.9,3.6,9,3.1,9.4,2.9l2.2-1.3c0.2-0.1,0.5-0.1,0.8,0l2.2,1.3
		c0.4,0.2,0.5,0.7,0.3,1C14.8,4.2,14.5,4.3,14.2,4.3z"/>
</g>
</svg>
