<?xml version="1.0" encoding="utf-8"?>
<!-- Generator: Adobe Illustrator 28.4.1, SVG Export Plug-In . SVG Version: 6.00 Build 0)  -->
<svg version="1.1" id="Layer_1" xmlns="http://www.w3.org/2000/svg" xmlns:xlink="http://www.w3.org/1999/xlink" x="0px" y="0px"
	 viewBox="0 0 24 24" style="enable-background:new 0 0 24 24;" xml:space="preserve">
<style type="text/css">
	.st0{fill:#0F172A;}
</style>
<g>
	<path class="st0" d="M21,21.8c-0.2,0-0.4-0.1-0.5-0.2l-3.2-3.2c0,0,0,0,0,0l-3.6-3.6l0,0l0,0l-4.2-4.2l0,0L5.7,6.8c0,0,0,0,0,0
		L2.5,3.5c-0.3-0.3-0.3-0.8,0-1.1s0.8-0.3,1.1,0l2.8,2.8c1.7-1,3.7-1.5,5.7-1.5c4.9,0,9.4,3.3,10.8,8c0,0.1,0,0.3,0,0.4
		c-0.7,2.2-2,4.2-3.9,5.7l2.6,2.6c0.3,0.3,0.3,0.8,0,1.1C21.4,21.7,21.2,21.8,21,21.8z M15.1,14.1l2.7,2.7c1.6-1.2,2.8-2.9,3.4-4.8
		C20,8,16.2,5.2,12,5.2c-1.6,0-3.2,0.4-4.6,1.1l2.5,2.5c0.6-0.4,1.3-0.6,2.1-0.6c2.1,0,3.8,1.7,3.8,3.8
		C15.8,12.7,15.5,13.5,15.1,14.1z M11,10l3,3c0.1-0.3,0.2-0.6,0.2-1c0-1.2-1-2.2-2.2-2.2C11.7,9.7,11.3,9.8,11,10z M12,20.3
		c-4.9,0-9.4-3.3-10.8-8c0-0.1,0-0.3,0-0.4c0.4-1.5,1.2-2.9,2.2-4c0.3-0.3,0.7-0.4,1.1-0.1c0.3,0.3,0.4,0.7,0.1,1.1
		c-0.8,1-1.4,2.1-1.8,3.3c1.3,4,5.1,6.7,9.3,6.7c0.9,0,1.8-0.1,2.7-0.4c0.4-0.1,0.8,0.1,0.9,0.5c0.1,0.4-0.1,0.8-0.5,0.9
		C14.1,20.1,13,20.3,12,20.3z"/>
</g>
</svg>
