<?xml version="1.0" encoding="utf-8"?>
<!-- Generator: Adobe Illustrator 28.4.1, SVG Export Plug-In . SVG Version: 6.00 Build 0)  -->
<svg version="1.1" id="Layer_1" xmlns="http://www.w3.org/2000/svg" xmlns:xlink="http://www.w3.org/1999/xlink" x="0px" y="0px"
	 viewBox="0 0 24 24" style="enable-background:new 0 0 24 24;" xml:space="preserve">
<style type="text/css">
	.st0{fill:#0F172A;}
</style>
<g>
	<path class="st0" d="M6.8,16.5c-0.2,0-0.4-0.1-0.5-0.2l-3.7-3.7c0,0,0,0,0,0c0,0,0,0,0,0c0,0,0,0,0,0l0,0c0,0,0,0,0,0c0,0,0,0,0,0
		c-0.1-0.1-0.1-0.1-0.1-0.2c0,0,0,0,0,0c0,0,0,0,0,0c0,0,0,0,0,0c0,0,0,0,0,0s0,0,0,0c0,0,0,0,0,0v0c0,0,0,0,0,0l0,0c0,0,0,0,0,0
		c0-0.1-0.1-0.2-0.1-0.3v0c0,0,0,0,0,0c0,0,0,0,0,0c0,0,0,0,0,0c0,0,0,0,0,0c0,0,0,0,0,0v0c0,0,0,0,0,0l0,0c0-0.1,0-0.2,0.1-0.3
		c0-0.1,0.1-0.2,0.2-0.2l0,0c0,0,0,0,0,0c0,0,0,0,0,0c0,0,0,0,0,0l3.8-3.8c0.3-0.3,0.8-0.3,1.1,0c0.3,0.3,0.3,0.8,0,1.1l-2.5,2.5H21
		c0.4,0,0.8,0.3,0.8,0.8s-0.3,0.8-0.8,0.8H4.8l2.5,2.5c0.3,0.3,0.3,0.8,0,1.1C7.1,16.4,6.9,16.5,6.8,16.5z"/>
</g>
</svg>
