<?xml version="1.0" encoding="utf-8"?>
<!-- Generator: Adobe Illustrator 28.4.1, SVG Export Plug-In . SVG Version: 6.00 Build 0)  -->
<svg version="1.1" id="Layer_1" xmlns="http://www.w3.org/2000/svg" xmlns:xlink="http://www.w3.org/1999/xlink" x="0px" y="0px"
	 viewBox="0 0 24 24" style="enable-background:new 0 0 24 24;" xml:space="preserve">
<style type="text/css">
	.st0{fill:#0F172A;}
</style>
<g>
	<path class="st0" d="M16.5,21.8h-9c-0.3,0-0.6-0.2-0.7-0.5S6.8,20.7,7,20.5l0.6-0.6c0.4-0.4,0.7-1,0.7-1.6V18h-3c-1.7,0-3-1.3-3-3
		V5.2c0-1.7,1.3-3,3-3h13.5c1.7,0,3,1.3,3,3V15c0,1.7-1.3,3-3,3h-3v0.3c0,0.6,0.2,1.2,0.7,1.6l0.6,0.6c0.2,0.2,0.3,0.5,0.2,0.8
		S16.8,21.8,16.5,21.8z M9.2,20.3h5.6c-0.4-0.6-0.6-1.3-0.6-2V18H9.8v0.3C9.8,19,9.6,19.7,9.2,20.3z M3.8,14.6V15
		c0,0.8,0.7,1.5,1.5,1.5h13.5c0.8,0,1.5-0.7,1.5-1.5v-0.4c-0.4,0.3-1,0.4-1.5,0.4H5.2C4.7,15,4.2,14.9,3.8,14.6z M3.8,12
		c0,0.8,0.7,1.5,1.5,1.5h13.5c0.8,0,1.5-0.7,1.5-1.5V5.2c0-0.8-0.7-1.5-1.5-1.5H5.2c-0.8,0-1.5,0.7-1.5,1.5V12z"/>
</g>
</svg>
