<?xml version="1.0" encoding="utf-8"?>
<!-- Generator: Adobe Illustrator 28.4.1, SVG Export Plug-In . SVG Version: 6.00 Build 0)  -->
<svg version="1.1" id="Layer_1" xmlns="http://www.w3.org/2000/svg" xmlns:xlink="http://www.w3.org/1999/xlink" x="0px" y="0px"
	 viewBox="0 0 24 24" style="enable-background:new 0 0 24 24;" xml:space="preserve">
<style type="text/css">
	.st0{fill:#0F172A;}
</style>
<g>
	<path class="st0" d="M19.1,22.5c-0.9,0-1.8-0.4-2.4-1l-5.2-5.2l-4.1,5c-0.6,0.8-1.6,1.2-2.5,1.2c-1.8,0-3.3-1.5-3.3-3.3
		c0-1,0.4-1.9,1.2-2.5l6.2-5.1L5.6,8.2H4.5C4.2,8.2,4,8.1,3.9,7.9L1.6,4.1C1.4,3.8,1.5,3.5,1.7,3.2l1.5-1.5c0.2-0.2,0.6-0.3,0.9-0.1
		l3.8,2.2C8.1,4,8.2,4.2,8.2,4.5v1.1l3.5,3.5c0.3-0.6,0.3-1.4,0.3-1.9c0-0.1,0-0.3,0-0.4c0-2.9,2.4-5.2,5.2-5.2
		c0.8,0,1.5,0.2,2.2,0.5c0.2,0.1,0.4,0.3,0.4,0.5c0,0.2,0,0.5-0.2,0.7l-3,3c0.2,0.5,0.7,1,1.2,1.2l3-3c0.2-0.2,0.4-0.3,0.7-0.2
		c0.2,0,0.4,0.2,0.5,0.4c0.3,0.7,0.5,1.4,0.5,2.2c0,2.9-2.4,5.3-5.2,5.3c-0.2,0-0.3,0-0.4,0c0,0,0,0,0,0l4.7,4.7
		c1.3,1.3,1.3,3.5,0,4.8C20.9,22.2,20,22.5,19.1,22.5z M12.4,15.1l5.3,5.3c0.7,0.7,1.9,0.7,2.7,0c0.7-0.7,0.7-1.9,0-2.7l-5.5-5.5
		c-0.2,0.1-0.3,0.2-0.4,0.4L12.4,15.1z M10.5,12.2l-6.8,5.6C3.2,18.2,3,18.7,3,19.2c0,1,0.8,1.8,1.8,1.8c0.5,0,1-0.2,1.4-0.7
		l4.6-5.6c0,0,0,0,0,0l2.5-3c0.4-0.5,0.9-0.8,1.6-1c0,0,0,0,0,0c0.6-0.2,1.3-0.2,2-0.2c0.1,0,0.2,0,0.3,0c2.1,0,3.8-1.7,3.8-3.8
		c0-0.1,0-0.3,0-0.4l-2.4,2.4c-0.2,0.2-0.4,0.3-0.7,0.2c-1.4-0.3-2.5-1.4-2.8-2.8c-0.1-0.3,0-0.5,0.2-0.7L17.7,3c-0.1,0-0.3,0-0.4,0
		c-2.1,0-3.8,1.7-3.8,3.7c0,0.1,0,0.2,0,0.3c0.1,1.6-0.3,2.8-1.2,3.6l-0.1,0.1c0,0,0,0,0,0L10.5,12.2C10.5,12.2,10.5,12.2,10.5,12.2
		z M4.9,6.7h1c0.2,0,0.4,0.1,0.5,0.2l3.6,3.6l0.6-0.5L7,6.4C6.8,6.3,6.8,6.1,6.8,5.9v-1L3.9,3.2L3.2,3.9L4.9,6.7z M4.9,19.9
		c-0.4,0-0.8-0.3-0.8-0.8s0.3-0.8,0.8-0.8h0c0.4,0,0.8,0.3,0.8,0.8S5.3,19.9,4.9,19.9z M18.4,19.1c-0.2,0-0.4-0.1-0.5-0.2l-2.6-2.6
		c-0.3-0.3-0.3-0.8,0-1.1s0.8-0.3,1.1,0l2.6,2.6c0.3,0.3,0.3,0.8,0,1.1C18.8,19.1,18.6,19.1,18.4,19.1z"/>
</g>
</svg>
