<?xml version="1.0" encoding="utf-8"?>
<!-- Generator: Adobe Illustrator 28.4.1, SVG Export Plug-In . SVG Version: 6.00 Build 0)  -->
<svg version="1.1" id="Layer_1" xmlns="http://www.w3.org/2000/svg" xmlns:xlink="http://www.w3.org/1999/xlink" x="0px" y="0px"
	 viewBox="0 0 24 24" style="enable-background:new 0 0 24 24;" xml:space="preserve">
<style type="text/css">
	.st0{fill:#0F172A;}
</style>
<g>
	<path class="st0" d="M14.6,22.5H4.9c-1,0-1.9-0.8-1.9-1.9V9.4c0-1,0.8-1.9,1.9-1.9h2.6V6.1c0-1.5,1.1-2.8,2.7-2.9
		c0.2,0,0.4,0,0.7-0.1c0.5-1,1.5-1.6,2.7-1.6H15c1.1,0,2.2,0.6,2.7,1.6c0.2,0,0.4,0,0.7,0.1C19.9,3.3,21,4.6,21,6.1v10.4
		c0,1.7-1.3,3-3,3h-1.5v1.1C16.5,21.7,15.7,22.5,14.6,22.5z M4.9,9C4.7,9,4.5,9.2,4.5,9.4v11.3c0,0.2,0.2,0.4,0.4,0.4h9.8
		c0.2,0,0.4-0.2,0.4-0.4V9.4C15,9.2,14.8,9,14.6,9H4.9z M16.5,18H18c0.8,0,1.5-0.7,1.5-1.5V6.1c0-0.8-0.6-1.4-1.3-1.4
		c-0.1,0-0.1,0-0.2,0C17.9,5.4,17.3,6,16.5,6H12c-0.8,0-1.4-0.6-1.5-1.4c-0.1,0-0.1,0-0.2,0C9.6,4.7,9,5.3,9,6.1v1.4h5.6
		c1,0,1.9,0.8,1.9,1.9V18z M12.1,4.1C12,4.2,12,4.4,12,4.5h4.5c0-0.1,0-0.3-0.1-0.4c0,0,0,0,0,0c-0.2-0.6-0.8-1-1.4-1h-1.5
		C12.8,3,12.3,3.4,12.1,4.1C12.1,4.1,12.1,4.1,12.1,4.1z M9,18c-0.2,0-0.4-0.1-0.5-0.2L7,16.3c-0.3-0.3-0.3-0.8,0-1.1s0.8-0.3,1.1,0
		l0.9,0.9l2.5-3.1c0.3-0.3,0.7-0.4,1.1-0.1c0.3,0.3,0.4,0.7,0.1,1.1l-3,3.7C9.5,17.9,9.3,18,9,18C9,18,9,18,9,18z"/>
</g>
</svg>
