<?xml version="1.0" encoding="utf-8"?>
<!-- Generator: Adobe Illustrator 28.4.1, SVG Export Plug-In . SVG Version: 6.00 Build 0)  -->
<svg version="1.1" id="Layer_1" xmlns="http://www.w3.org/2000/svg" xmlns:xlink="http://www.w3.org/1999/xlink" x="0px" y="0px"
	 viewBox="0 0 24 24" style="enable-background:new 0 0 24 24;" xml:space="preserve">
<style type="text/css">
	.st0{fill:#0F172A;}
</style>
<g>
	<path class="st0" d="M12,19.5c-0.2,0-0.4-0.1-0.5-0.2L4,11.8c-0.3-0.3-0.3-0.8,0-1.1s0.8-0.3,1.1,0l7,7l7-7c0.3-0.3,0.8-0.3,1.1,0
		s0.3,0.8,0,1.1l-7.5,7.5C12.4,19.4,12.2,19.5,12,19.5z M12,13.5c-0.2,0-0.4-0.1-0.5-0.2L4,5.8C3.7,5.5,3.7,5,4,4.7s0.8-0.3,1.1,0
		l7,7l7-7c0.3-0.3,0.8-0.3,1.1,0s0.3,0.8,0,1.1l-7.5,7.5C12.4,13.4,12.2,13.5,12,13.5z"/>
</g>
</svg>
