<?xml version="1.0" encoding="utf-8"?>
<!-- Generator: Adobe Illustrator 28.4.1, SVG Export Plug-In . SVG Version: 6.00 Build 0)  -->
<svg version="1.1" id="Layer_1" xmlns="http://www.w3.org/2000/svg" xmlns:xlink="http://www.w3.org/1999/xlink" x="0px" y="0px"
	 viewBox="0 0 24 24" style="enable-background:new 0 0 24 24;" xml:space="preserve">
<style type="text/css">
	.st0{fill:#0F172A;}
</style>
<g>
	<path class="st0" d="M18,21c-1,0-1.8-0.6-2.1-1.5h-7C8.6,20.4,7.7,21,6.8,21s-1.8-0.6-2.1-1.5H3.4c-1,0-1.9-0.8-1.9-1.9v-11
		c0-1,0.7-1.8,1.7-1.9c3.4-0.3,6.8-0.3,10.2,0C14.3,4.9,15,5.7,15,6.6v0.2h1.9c0.9,0,1.7,0.5,2.2,1.2c2,2.8,3.1,6.1,3.3,9.6
		c0,0.5-0.1,1-0.5,1.3c-0.3,0.4-0.8,0.6-1.4,0.6h-0.5C19.8,20.4,19,21,18,21z M17.2,18.8c0,0.4,0.3,0.8,0.8,0.8s0.8-0.3,0.8-0.8
		S18.4,18,18,18S17.2,18.3,17.2,18.8z M6,18.8c0,0.4,0.3,0.8,0.8,0.8s0.8-0.3,0.8-0.8S7.2,18,6.8,18S6,18.3,6,18.8z M20.1,18h0.5
		c0.1,0,0.2,0,0.3-0.1c0,0,0.1-0.1,0.1-0.2c-0.2-3.2-1.3-6.2-3.1-8.8c-0.2-0.3-0.6-0.5-1-0.5l-1.9,0V18h0.9c0.3-0.9,1.1-1.5,2.1-1.5
		S19.8,17.1,20.1,18z M8.9,18h4.6v-3H3v2.6C3,17.8,3.2,18,3.4,18h1.3c0.3-0.9,1.1-1.5,2.1-1.5S8.6,17.1,8.9,18z M3,13.5h10.5V6.6
		c0-0.2-0.1-0.3-0.3-0.4c-3.3-0.3-6.6-0.3-9.9,0C3.1,6.3,3,6.4,3,6.6V13.5z"/>
</g>
</svg>
