<?xml version="1.0" encoding="utf-8"?>
<!-- Generator: Adobe Illustrator 28.4.1, SVG Export Plug-In . SVG Version: 6.00 Build 0)  -->
<svg version="1.1" id="Layer_1" xmlns="http://www.w3.org/2000/svg" xmlns:xlink="http://www.w3.org/1999/xlink" x="0px" y="0px"
	 viewBox="0 0 24 24" style="enable-background:new 0 0 24 24;" xml:space="preserve">
<style type="text/css">
	.st0{fill:#0F172A;}
</style>
<g>
	<path class="st0" d="M4.8,22.5c-1.8,0-3.3-1.5-3.3-3.3c0-1,0.4-1.9,1.2-2.5l8.7-7.2C12.1,9,12.1,7.8,12,7.2c0-0.1,0-0.3,0-0.4
		c0-2.9,2.4-5.2,5.2-5.2c0.8,0,1.5,0.2,2.2,0.5c0.2,0.1,0.4,0.3,0.4,0.5c0,0.2,0,0.5-0.2,0.7l-3,3c0.2,0.5,0.7,1,1.2,1.2l3-3
		c0.2-0.2,0.4-0.3,0.7-0.2c0.2,0,0.4,0.2,0.5,0.4c0.3,0.7,0.5,1.4,0.5,2.2c0,2.9-2.4,5.3-5.2,5.3c-0.2,0-0.3,0-0.4,0
		c-0.8-0.1-1.8,0-2.3,0.6l-7.2,8.7C6.7,22.1,5.8,22.5,4.8,22.5z M17.2,3c-2.1,0-3.8,1.7-3.8,3.7c0,0.1,0,0.2,0,0.3
		c0.1,1.6-0.3,2.8-1.2,3.6l-8.7,7.2C3.2,18.2,3,18.7,3,19.2c0,1,0.8,1.8,1.8,1.8c0.5,0,1-0.2,1.4-0.7l7.2-8.7c0.7-0.9,2-1.3,3.6-1.2
		c0.1,0,0.2,0,0.3,0c2.1,0,3.8-1.7,3.8-3.8c0-0.1,0-0.3,0-0.4l-2.4,2.4c-0.2,0.2-0.4,0.3-0.7,0.2c-1.4-0.3-2.5-1.4-2.8-2.8
		c-0.1-0.3,0-0.5,0.2-0.7L17.7,3C17.5,3,17.4,3,17.2,3z"/>
</g>
<g>
	<path class="st0" d="M4.9,19.9c-0.4,0-0.8-0.3-0.8-0.8s0.3-0.8,0.8-0.8h0c0.4,0,0.8,0.3,0.8,0.8S5.3,19.9,4.9,19.9z"/>
</g>
</svg>
