<?xml version="1.0" encoding="utf-8"?>
<!-- Generator: Adobe Illustrator 28.4.1, SVG Export Plug-In . SVG Version: 6.00 Build 0)  -->
<svg version="1.1" id="Layer_1" xmlns="http://www.w3.org/2000/svg" xmlns:xlink="http://www.w3.org/1999/xlink" x="0px" y="0px"
	 viewBox="0 0 24 24" style="enable-background:new 0 0 24 24;" xml:space="preserve">
<style type="text/css">
	.st0{fill:#0F172A;}
</style>
<g>
	<path class="st0" d="M19.5,21h-15c-1.7,0-3-1.3-3-3v-4.2c0-0.1,0-0.2,0-0.2c0,0,0-0.1,0-0.1c0-0.1,0-0.2,0.1-0.3
		c0-0.1,0-0.1,0.1-0.2L4,5.1C4.4,3.9,5.6,3,6.9,3h10.2c1.3,0,2.5,0.9,2.9,2.1l2.4,7.8c0,0.1,0,0.1,0.1,0.2c0,0.1,0.1,0.2,0.1,0.3
		c0,0,0,0.1,0,0.1c0,0.1,0,0.2,0,0.2V18C22.5,19.7,21.2,21,19.5,21z M3,14.3V18c0,0.8,0.7,1.5,1.5,1.5h15c0.8,0,1.5-0.7,1.5-1.5
		v-3.7h-3.1c-0.6,0-1.1,0.3-1.3,0.8l-0.3,0.5c-0.5,1-1.5,1.7-2.7,1.7h-3.2c-1.1,0-2.2-0.6-2.7-1.7l-0.3-0.5
		c-0.3-0.5-0.8-0.8-1.3-0.8H3z M3.3,12.8h2.8c1.1,0,2.2,0.6,2.7,1.7L9,14.9c0.3,0.5,0.8,0.8,1.3,0.8h3.2c0.6,0,1.1-0.3,1.3-0.8
		l0.3-0.5c0.5-1,1.5-1.7,2.7-1.7h2.8l-2.2-7.2c-0.2-0.6-0.8-1.1-1.4-1.1H6.9c-0.7,0-1.2,0.4-1.4,1.1L3.3,12.8z"/>
</g>
</svg>
