<?xml version="1.0" encoding="utf-8"?>
<!-- Generator: Adobe Illustrator 28.4.1, SVG Export Plug-In . SVG Version: 6.00 Build 0)  -->
<svg version="1.1" id="Layer_1" xmlns="http://www.w3.org/2000/svg" xmlns:xlink="http://www.w3.org/1999/xlink" x="0px" y="0px"
	 viewBox="0 0 24 24" style="enable-background:new 0 0 24 24;" xml:space="preserve">
<style type="text/css">
	.st0{fill:#0F172A;}
</style>
<g>
	<path class="st0" d="M17.2,22.5H6.8c-1.7,0-3-1.3-3-3V6.3c0-1.5,1.1-2.8,2.6-2.9c0.5-0.1,1-0.1,1.5-0.1c0.5-1,1.5-1.7,2.7-1.7h3
		c1.2,0,2.2,0.7,2.7,1.7c0.5,0,1,0.1,1.5,0.1c1.5,0.2,2.6,1.4,2.6,2.9v13.2C20.2,21.2,18.9,22.5,17.2,22.5z M7.5,4.7
		c-0.3,0-0.7,0.1-1,0.1C5.8,4.9,5.2,5.5,5.2,6.3v13.2c0,0.8,0.7,1.5,1.5,1.5h10.5c0.8,0,1.5-0.7,1.5-1.5V6.3c0-0.7-0.5-1.4-1.2-1.4
		c-0.3,0-0.7-0.1-1-0.1C16.4,5.4,15.8,6,15,6H9C8.2,6,7.6,5.4,7.5,4.7z M9.1,4.1C9,4.2,9,4.4,9,4.5h6c0-0.1,0-0.3-0.1-0.4
		c0,0,0,0,0,0C14.8,3.4,14.2,3,13.5,3h-3C9.8,3,9.2,3.4,9.1,4.1C9.1,4.1,9.1,4.1,9.1,4.1z"/>
</g>
</svg>
