<?xml version="1.0" encoding="utf-8"?>
<!-- Generator: Adobe Illustrator 28.4.1, SVG Export Plug-In . SVG Version: 6.00 Build 0)  -->
<svg version="1.1" id="Layer_1" xmlns="http://www.w3.org/2000/svg" xmlns:xlink="http://www.w3.org/1999/xlink" x="0px" y="0px"
	 viewBox="0 0 24 24" style="enable-background:new 0 0 24 24;" xml:space="preserve">
<style type="text/css">
	.st0{fill:#0F172A;}
</style>
<g>
	<path class="st0" d="M18.4,22.5H5.6c-1,0-1.9-0.8-1.9-1.9V3.4c0-1,0.8-1.9,1.9-1.9h4.9c5.4,0,9.8,4.4,9.8,9.8v9.4
		C20.2,21.7,19.4,22.5,18.4,22.5z M5.6,3C5.4,3,5.2,3.2,5.2,3.4v17.3c0,0.2,0.2,0.4,0.4,0.4h12.8c0.2,0,0.4-0.2,0.4-0.4v-9
		c0-1.4-1.2-2.6-2.6-2.6h-1.5c-1,0-1.9-0.8-1.9-1.9V5.6c0-1.4-1.2-2.6-2.6-2.6H5.6z M13.8,3.7c0.3,0.6,0.5,1.2,0.5,2v1.5
		c0,0.2,0.2,0.4,0.4,0.4h1.5c0.7,0,1.4,0.2,2,0.5C17.2,6.1,15.7,4.5,13.8,3.7z M15,15H9c-0.4,0-0.8-0.3-0.8-0.8s0.3-0.8,0.8-0.8h6
		c0.4,0,0.8,0.3,0.8,0.8S15.4,15,15,15z"/>
</g>
</svg>
