<?xml version="1.0" encoding="utf-8"?>
<!-- Generator: Adobe Illustrator 28.4.1, SVG Export Plug-In . SVG Version: 6.00 Build 0)  -->
<svg version="1.1" id="Layer_1" xmlns="http://www.w3.org/2000/svg" xmlns:xlink="http://www.w3.org/1999/xlink" x="0px" y="0px"
	 viewBox="0 0 24 24" style="enable-background:new 0 0 24 24;" xml:space="preserve">
<style type="text/css">
	.st0{fill:#0F172A;}
</style>
<g>
	<path class="st0" d="M18.4,21.8H5.6c-1,0-1.9-0.8-1.9-1.9v-8.3l-1,1c-0.3,0.3-0.8,0.3-1.1,0s-0.3-0.8,0-1.1L4,9.2c0,0,0,0,0,0
		l6.7-6.7c0.7-0.7,1.9-0.7,2.7,0l9,9c0.3,0.3,0.3,0.8,0,1.1s-0.8,0.3-1.1,0l-1-1v8.3C20.2,20.9,19.4,21.8,18.4,21.8z M16.5,20.3h1.9
		c0.2,0,0.4-0.2,0.4-0.4v-9.8l-6.5-6.5c-0.1-0.1-0.4-0.1-0.5,0l-6.5,6.5v9.8c0,0.2,0.2,0.4,0.4,0.4H9v-4.1c0-1,0.8-1.9,1.9-1.9h2.2
		c1,0,1.9,0.8,1.9,1.9v4.1H16.5z M10.5,20.3h3v-4.1c0-0.2-0.2-0.4-0.4-0.4h-2.2c-0.2,0-0.4,0.2-0.4,0.4V20.3z"/>
</g>
</svg>
