<?xml version="1.0" encoding="utf-8"?>
<!-- Generator: Adobe Illustrator 28.4.1, SVG Export Plug-In . SVG Version: 6.00 Build 0)  -->
<svg version="1.1" id="Layer_1" xmlns="http://www.w3.org/2000/svg" xmlns:xlink="http://www.w3.org/1999/xlink" x="0px" y="0px"
	 viewBox="0 0 24 24" style="enable-background:new 0 0 24 24;" xml:space="preserve">
<style type="text/css">
	.st0{fill:#0F172A;}
</style>
<g>
	<path class="st0" d="M21,21.8H3c-0.4,0-0.8-0.3-0.8-0.8s0.3-0.8,0.8-0.8h0.8v-9.9C3.8,10,4,9.6,4.4,9.6c5-0.8,10.2-0.8,15.2,0
		c0.4,0.1,0.6,0.4,0.6,0.7v9.9H21c0.4,0,0.8,0.3,0.8,0.8S21.4,21.8,21,21.8z M16.5,20.3h2.2V11c-4.4-0.6-9.1-0.6-13.5,0v9.3h2.2
		v-7.5c0-0.4,0.3-0.8,0.8-0.8S9,12.3,9,12.7v7.5h2.2v-7.5c0-0.4,0.3-0.8,0.8-0.8s0.8,0.3,0.8,0.8v7.5H15v-7.5c0-0.4,0.3-0.8,0.8-0.8
		s0.8,0.3,0.8,0.8V20.3z M21,9.7c-0.1,0-0.3,0-0.4-0.1L12,3.9L3.4,9.6c-0.3,0.2-0.8,0.1-1-0.2c-0.2-0.3-0.1-0.8,0.2-1l9-6
		c0.3-0.2,0.6-0.2,0.8,0l9,6c0.3,0.2,0.4,0.7,0.2,1C21.5,9.6,21.2,9.7,21,9.7z M12,7.5c-0.4,0-0.8-0.3-0.8-0.8S11.6,6,12,6h0
		c0.4,0,0.8,0.3,0.8,0.8S12.4,7.5,12,7.5z"/>
</g>
</svg>
