<?xml version="1.0" encoding="utf-8"?>
<!-- Generator: Adobe Illustrator 28.4.1, SVG Export Plug-In . SVG Version: 6.00 Build 0)  -->
<svg version="1.1" id="Layer_1" xmlns="http://www.w3.org/2000/svg" xmlns:xlink="http://www.w3.org/1999/xlink" x="0px" y="0px"
	 viewBox="0 0 24 25" style="enable-background:new 0 0 24 25;" xml:space="preserve">
<style type="text/css">
	.st0{fill:#0F172A;}
</style>
<g>
	<path class="st0" d="M12,21.8c-2.5,0-5-1-6.9-2.9c-1.8-1.8-2.9-4.3-2.9-6.9s1-5.1,2.9-6.9c0.3-0.3,0.8-0.3,1.1,0s0.3,0.8,0,1.1
		C4.6,7.7,3.8,9.8,3.8,12s0.9,4.3,2.4,5.8c3.2,3.2,8.5,3.2,11.7,0s3.2-8.5,0-11.7c-0.3-0.3-0.3-0.8,0-1.1s0.8-0.3,1.1,0
		c3.8,3.8,3.8,10,0,13.8C17,20.8,14.5,21.8,12,21.8z M12,12.8c-0.4,0-0.8-0.3-0.8-0.8V3c0-0.4,0.3-0.8,0.8-0.8s0.8,0.3,0.8,0.8v9
		C12.8,12.4,12.4,12.8,12,12.8z"/>
</g>
</svg>
