<?xml version="1.0" encoding="utf-8"?>
<!-- Generator: Adobe Illustrator 28.4.1, SVG Export Plug-In . SVG Version: 6.00 Build 0)  -->
<svg version="1.1" id="Layer_1" xmlns="http://www.w3.org/2000/svg" xmlns:xlink="http://www.w3.org/1999/xlink" x="0px" y="0px"
	 viewBox="0 0 24 24" style="enable-background:new 0 0 24 24;" xml:space="preserve">
<style type="text/css">
	.st0{fill:#0F172A;}
</style>
<g>
	<path class="st0" d="M12,21.8c-2.4,0-4.7-0.9-6.5-2.5c0,0,0,0,0,0c-2.1-1.8-3.3-4.5-3.3-7.3c0-5.4,4.4-9.8,9.8-9.8s9.8,4.4,9.8,9.8
		c0,2.8-1.2,5.4-3.3,7.3c0,0,0,0,0,0C16.7,20.9,14.4,21.8,12,21.8z M7.1,18.6c1.4,1.1,3.1,1.6,4.9,1.6s3.5-0.6,4.9-1.6
		c-1.3-1.4-3-2.1-4.9-2.1S8.4,17.3,7.1,18.6z M12,15c2.3,0,4.5,0.9,6,2.6c1.4-1.5,2.2-3.5,2.2-5.6c0-4.5-3.7-8.2-8.2-8.2
		S3.8,7.5,3.8,12c0,2.1,0.8,4.1,2.2,5.6C7.5,15.9,9.7,15,12,15z M12,13.5c-2.1,0-3.8-1.7-3.8-3.7S9.9,6,12,6c2.1,0,3.8,1.7,3.8,3.8
		S14.1,13.5,12,13.5z M12,7.5c-1.2,0-2.2,1-2.2,2.3s1,2.2,2.2,2.2c1.2,0,2.2-1,2.2-2.2S13.2,7.5,12,7.5z"/>
</g>
</svg>
