<?xml version="1.0" encoding="utf-8"?>
<!-- Generator: Adobe Illustrator 28.4.1, SVG Export Plug-In . SVG Version: 6.00 Build 0)  -->
<svg version="1.1" id="Layer_1" xmlns="http://www.w3.org/2000/svg" xmlns:xlink="http://www.w3.org/1999/xlink" x="0px" y="0px"
	 viewBox="0 0 24 24" style="enable-background:new 0 0 24 24;" xml:space="preserve">
<style type="text/css">
	.st0{fill:#0F172A;}
</style>
<g>
	<path class="st0" d="M18,18.8c-0.2,0-0.4-0.1-0.5-0.2L12,13.1l-5.5,5.5c-0.3,0.3-0.8,0.3-1.1,0s-0.3-0.8,0-1.1l5.5-5.5L5.5,6.5
		c-0.3-0.3-0.3-0.8,0-1.1s0.8-0.3,1.1,0l5.5,5.5l5.5-5.5c0.3-0.3,0.8-0.3,1.1,0s0.3,0.8,0,1.1L13.1,12l5.5,5.5
		c0.3,0.3,0.3,0.8,0,1.1C18.4,18.7,18.2,18.8,18,18.8z"/>
</g>
</svg>
