<?xml version="1.0" encoding="utf-8"?>
<!-- Generator: Adobe Illustrator 28.4.1, SVG Export Plug-In . SVG Version: 6.00 Build 0)  -->
<svg version="1.1" id="Layer_1" xmlns="http://www.w3.org/2000/svg" xmlns:xlink="http://www.w3.org/1999/xlink" x="0px" y="0px"
	 viewBox="0 0 24 24" style="enable-background:new 0 0 24 24;" xml:space="preserve">
<style type="text/css">
	.st0{fill:#0F172A;}
</style>
<g>
	<path class="st0" d="M21,21.8c-0.3,0-0.6-0.2-0.7-0.4l-1.2-2.6h-6.7l-1.2,2.6c-0.2,0.4-0.6,0.5-1,0.4c-0.4-0.2-0.5-0.6-0.4-1
		l5.2-11.3c0.2-0.5,1.1-0.5,1.4,0l5.2,11.3c0.2,0.4,0,0.8-0.4,1C21.2,21.7,21.1,21.8,21,21.8z M13.1,17.3h5.3l-2.7-5.7L13.1,17.3z
		 M3,18.3c-0.3,0-0.5-0.1-0.7-0.4c-0.2-0.4,0-0.8,0.3-1c2.1-1.1,3.9-2.6,5.4-4.3C7.2,11.3,6.5,10,5.9,8.6c-0.2-0.4,0-0.8,0.4-1
		c0.4-0.2,0.8,0,1,0.4c0.5,1.1,1,2.2,1.7,3.2c1.1-1.6,1.9-3.3,2.4-5.2C8.6,5.9,5.8,6,3.1,6.4C2.7,6.4,2.3,6.1,2.3,5.7
		s0.2-0.8,0.7-0.8c1.8-0.2,3.6-0.3,5.3-0.4V3c0-0.4,0.3-0.8,0.8-0.8S9.8,2.6,9.8,3v1.5c0.9,0,1.8,0,2.6,0.1c0,0,0,0,0,0
		c0.9,0.1,1.8,0.1,2.7,0.3c0.4,0.1,0.7,0.4,0.7,0.8c-0.1,0.4-0.4,0.7-0.8,0.7c-0.7-0.1-1.3-0.2-2-0.2c-0.6,2.3-1.6,4.4-3,6.3
		c0.3,0.4,0.6,0.7,1,1.1c0.3,0.3,0.3,0.8,0,1.1c-0.3,0.3-0.8,0.3-1.1,0C9.6,14.3,9.3,14,9,13.7c-1.6,1.8-3.5,3.3-5.7,4.5
		C3.2,18.2,3.1,18.3,3,18.3z"/>
</g>
</svg>
