<?xml version="1.0" encoding="utf-8"?>
<!-- Generator: Adobe Illustrator 28.4.1, SVG Export Plug-In . SVG Version: 6.00 Build 0)  -->
<svg version="1.1" id="Layer_1" xmlns="http://www.w3.org/2000/svg" xmlns:xlink="http://www.w3.org/1999/xlink" x="0px" y="0px"
	 viewBox="0 0 24 24" style="enable-background:new 0 0 24 24;" xml:space="preserve">
<style type="text/css">
	.st0{fill:#0F172A;}
</style>
<g>
	<path class="st0" d="M15.8,21.8H5.2c-1.7,0-3-1.3-3-3V8.2c0-1.7,1.3-3,3-3h8.2c0.4,0,0.8,0.3,0.8,0.8s-0.3,0.8-0.8,0.8H5.2
		c-0.8,0-1.5,0.7-1.5,1.5v10.5c0,0.8,0.7,1.5,1.5,1.5h10.5c0.8,0,1.5-0.7,1.5-1.5v-8.3c0-0.4,0.3-0.8,0.8-0.8s0.8,0.3,0.8,0.8v8.3
		C18.8,20.4,17.4,21.8,15.8,21.8z M7.5,17.3c-0.2,0-0.4-0.1-0.5-0.2c-0.3-0.3-0.3-0.8,0-1.1L19.2,3.7h-3.4C15.3,3.7,15,3.4,15,3
		s0.3-0.8,0.8-0.8H21h0c0,0,0,0,0,0l0,0c0,0,0,0,0,0h0c0,0,0,0,0,0c0.1,0,0.2,0,0.3,0.1c0,0,0,0,0,0c0,0,0,0,0,0
		c0.1,0,0.2,0.1,0.2,0.2c0.1,0.1,0.1,0.2,0.2,0.2c0,0.1,0.1,0.2,0.1,0.3v0c0,0,0,0,0,0c0,0,0,0,0,0c0,0,0,0,0,0v5.2
		C21.8,8.7,21.4,9,21,9s-0.8-0.3-0.8-0.8V4.8L8,17C7.9,17.2,7.7,17.3,7.5,17.3z"/>
</g>
</svg>
