<?xml version="1.0" encoding="utf-8"?>
<!-- Generator: Adobe Illustrator 28.4.1, SVG Export Plug-In . SVG Version: 6.00 Build 0)  -->
<svg version="1.1" id="Layer_1" xmlns="http://www.w3.org/2000/svg" xmlns:xlink="http://www.w3.org/1999/xlink" x="0px" y="0px"
	 viewBox="0 0 24 24" style="enable-background:new 0 0 24 24;" xml:space="preserve">
<style type="text/css">
	.st0{fill:#0F172A;}
</style>
<g>
	<path class="st0" d="M18.8,21H5.2c-1.7,0-3-1.3-3-3V6c0-1.7,1.3-3,3-3h13.5c1.7,0,3,1.3,3,3v12C21.8,19.7,20.4,21,18.8,21z M3.8,9
		v9c0,0.8,0.7,1.5,1.5,1.5h13.5c0.8,0,1.5-0.7,1.5-1.5V9H3.8z M3.8,7.5h16.5V6c0-0.8-0.7-1.5-1.5-1.5H5.2C4.4,4.5,3.8,5.2,3.8,6V7.5
		z M9.8,6.8C9.3,6.8,9,6.4,9,6s0.3-0.8,0.8-0.8h0c0.4,0,0.8,0.3,0.8,0.8S10.2,6.8,9.8,6.8z M7.5,6.8C7.1,6.8,6.8,6.4,6.8,6
		s0.3-0.8,0.8-0.8h0c0.4,0,0.8,0.3,0.8,0.8S7.9,6.8,7.5,6.8z M5.3,6.8C4.8,6.8,4.5,6.4,4.5,6s0.3-0.8,0.8-0.8h0C5.7,5.2,6,5.6,6,6
		S5.7,6.8,5.3,6.8z"/>
</g>
</svg>
