<?xml version="1.0" encoding="utf-8"?>
<!-- Generator: Adobe Illustrator 28.4.1, SVG Export Plug-In . SVG Version: 6.00 Build 0)  -->
<svg version="1.1" id="Layer_1" xmlns="http://www.w3.org/2000/svg" xmlns:xlink="http://www.w3.org/1999/xlink" x="0px" y="0px"
	 viewBox="0 0 24 24" style="enable-background:new 0 0 24 24;" xml:space="preserve">
<style type="text/css">
	.st0{fill:#0F172A;}
</style>
<g>
	<path class="st0" d="M12,21.8c-4.5,0-8.3-3-9.4-7.3c0,0,0,0,0,0c-0.2-0.8-0.3-1.6-0.3-2.4c0-1.7,0.4-3.3,1.2-4.8c0,0,0,0,0,0
		c1.7-3.1,5-5,8.5-5c3.5,0,6.8,1.9,8.5,5c0,0,0,0,0,0c0.8,1.4,1.2,3.1,1.2,4.8c0,0.8-0.1,1.6-0.3,2.4c0,0,0,0,0,0
		C20.3,18.7,16.5,21.8,12,21.8z M9.1,17c0.7,2,1.9,3.2,2.9,3.2s2.2-1.2,2.9-3.2C13,17.3,11,17.3,9.1,17z M16.6,16.7
		c-0.3,1.1-0.7,2.1-1.3,2.9c1.7-0.8,3.1-2.1,4-3.8C18.5,16.1,17.6,16.4,16.6,16.7z M4.6,15.8c0.9,1.7,2.3,3,4,3.8
		c-0.5-0.8-0.9-1.8-1.3-2.9C6.4,16.4,5.5,16.1,4.6,15.8z M8.6,15.4c2.2,0.4,4.6,0.4,6.8,0c0.2-1,0.4-2.2,0.4-3.4c0-0.4,0-0.9,0-1.3
		c-2.4,0.7-5,0.7-7.4,0c0,0.4,0,0.9,0,1.3C8.2,13.2,8.4,14.4,8.6,15.4z M17.2,10.2c0.1,0.6,0.1,1.2,0.1,1.8c0,1.1-0.1,2.1-0.2,3
		c1.1-0.3,2.1-0.7,3.1-1.3c0.1-0.6,0.2-1.2,0.2-1.8c0-1.1-0.2-2.2-0.7-3.3C18.8,9.3,18,9.8,17.2,10.2z M3.9,13.8
		c1,0.5,2,0.9,3.1,1.3c-0.2-0.9-0.2-2-0.2-3c0-0.6,0-1.2,0.1-1.8C6,9.8,5.2,9.3,4.4,8.7C4,9.8,3.8,10.9,3.8,12
		C3.8,12.6,3.8,13.2,3.9,13.8z M8.5,9.2c2.3,0.7,4.8,0.7,7,0c-0.6-3.3-2.1-5.4-3.5-5.4S9.1,5.9,8.5,9.2z M5.1,7.4
		c0.6,0.5,1.2,0.9,1.9,1.2C7.4,7,7.9,5.6,8.6,4.5C7.2,5.1,6,6.1,5.1,7.4z M15.4,4.5c0.7,1.1,1.2,2.5,1.6,4.1
		c0.7-0.3,1.3-0.7,1.9-1.2C18,6.1,16.8,5.1,15.4,4.5z"/>
</g>
</svg>
