<?xml version="1.0" encoding="utf-8"?>
<!-- Generator: Adobe Illustrator 28.4.1, SVG Export Plug-In . SVG Version: 6.00 Build 0)  -->
<svg version="1.1" id="Layer_1" xmlns="http://www.w3.org/2000/svg" xmlns:xlink="http://www.w3.org/1999/xlink" x="0px" y="0px"
	 viewBox="0 0 24 24" style="enable-background:new 0 0 24 24;" xml:space="preserve">
<style type="text/css">
	.st0{fill:#0F172A;}
</style>
<g>
	<path class="st0" d="M20.2,21h-4.5c-0.4,0-0.8-0.3-0.8-0.8s0.3-0.8,0.8-0.8h2.7l-4-4c-0.3-0.3-0.3-0.8,0-1.1s0.8-0.3,1.1,0l4,4
		v-2.7c0-0.4,0.3-0.8,0.8-0.8s0.8,0.3,0.8,0.8v4.5c0,0.1,0,0.2-0.1,0.3c0,0.1-0.1,0.2-0.2,0.2s-0.2,0.1-0.2,0.2
		C20.4,21,20.4,21,20.2,21z M8.2,21H3.8c-0.1,0-0.2,0-0.3-0.1c-0.1,0-0.2-0.1-0.2-0.2s-0.1-0.2-0.2-0.2C3,20.4,3,20.4,3,20.3v-4.5
		C3,15.3,3.3,15,3.8,15s0.8,0.3,0.8,0.8v2.7l4-4c0.3-0.3,0.8-0.3,1.1,0s0.3,0.8,0,1.1l-4,4h2.7c0.4,0,0.8,0.3,0.8,0.8S8.7,21,8.2,21
		z M15,9.7c-0.2,0-0.4-0.1-0.5-0.2c-0.3-0.3-0.3-0.8,0-1.1l4-4h-2.7c-0.4,0-0.8-0.3-0.8-0.7S15.3,3,15.8,3h4.5c0.1,0,0.2,0,0.3,0.1
		c0.1,0,0.2,0.1,0.2,0.2s0.1,0.2,0.2,0.2C21,3.6,21,3.6,21,3.7v4.5C21,8.7,20.7,9,20.2,9s-0.8-0.3-0.8-0.8V5.6l-4,4
		C15.4,9.7,15.2,9.7,15,9.7z M9,9.7c-0.2,0-0.4-0.1-0.5-0.2l-4-4v2.7C4.5,8.7,4.2,9,3.8,9S3,8.7,3,8.2V3.7c0-0.1,0-0.2,0.1-0.3
		c0-0.1,0.1-0.2,0.2-0.2s0.2-0.1,0.2-0.2C3.6,3,3.6,3,3.8,3h4.5C8.7,3,9,3.3,9,3.7S8.7,4.5,8.2,4.5H5.6l4,4c0.3,0.3,0.3,0.8,0,1.1
		C9.4,9.7,9.2,9.7,9,9.7z"/>
</g>
</svg>
