<?xml version="1.0" encoding="utf-8"?>
<!-- Generator: Adobe Illustrator 28.4.1, SVG Export Plug-In . SVG Version: 6.00 Build 0)  -->
<svg version="1.1" id="Layer_1" xmlns="http://www.w3.org/2000/svg" xmlns:xlink="http://www.w3.org/1999/xlink" x="0px" y="0px"
	 viewBox="0 0 24 24" style="enable-background:new 0 0 24 24;" xml:space="preserve">
<style type="text/css">
	.st0{fill:#0F172A;}
</style>
<g>
	<path class="st0" d="M19.5,21.8c-0.1,0-0.2,0-0.3-0.1L12,18.1l-7.2,3.6c-0.2,0.1-0.5,0.1-0.7,0c-0.2-0.1-0.4-0.4-0.4-0.6V5.5
		c0-1.5,1.1-2.8,2.6-2.9c3.7-0.4,7.6-0.4,11.4,0l0,0c1.5,0.2,2.6,1.4,2.6,2.9V21c0,0.3-0.1,0.5-0.4,0.6
		C19.8,21.7,19.6,21.8,19.5,21.8z M12,16.5c0.1,0,0.2,0,0.3,0.1l6.4,3.2V5.5c0-0.7-0.5-1.4-1.2-1.4h0c-3.6-0.4-7.4-0.4-11,0
		C5.8,4.1,5.2,4.8,5.2,5.5v14.3l6.4-3.2C11.8,16.5,11.9,16.5,12,16.5z"/>
</g>
</svg>
