<?xml version="1.0" encoding="utf-8"?>
<!-- Generator: Adobe Illustrator 28.4.1, SVG Export Plug-In . SVG Version: 6.00 Build 0)  -->
<svg version="1.1" id="Layer_1" xmlns="http://www.w3.org/2000/svg" xmlns:xlink="http://www.w3.org/1999/xlink" x="0px" y="0px"
	 viewBox="0 0 24 24" style="enable-background:new 0 0 24 24;" xml:space="preserve">
<style type="text/css">
	.st0{fill:#0F172A;}
</style>
<g>
	<path class="st0" d="M19.5,21.8c-0.1,0-0.2,0-0.2,0c-0.4-0.1-0.6-0.6-0.5-1c1-2.8,1.5-5.7,1.5-8.8c0-3-0.5-6-1.5-8.8
		c-0.1-0.4,0.1-0.8,0.5-1c0.4-0.1,0.8,0.1,1,0.5c1,2.9,1.5,6,1.5,9.2s-0.5,6.3-1.5,9.2C20.1,21.6,19.8,21.8,19.5,21.8z M4.7,21.8
		c-0.3,0-0.6-0.2-0.7-0.5c-1.2-2.9-1.8-6.1-1.8-9.3c0-3.2,0.6-6.3,1.8-9.3c0.2-0.4,0.6-0.6,1-0.4c0.4,0.2,0.6,0.6,0.4,1
		C4.3,6.1,3.8,9,3.8,12s0.6,5.9,1.7,8.7c0.2,0.4,0,0.8-0.4,1C4.9,21.7,4.8,21.8,4.7,21.8z M13.9,16.9c-0.2,0-0.3,0-0.5-0.1
		c-0.4-0.2-0.8-0.5-0.9-0.9l-0.7-2.1l-1.4,2.1c-0.6,1-1.9,1.4-3,0.9l-0.2-0.1c-0.4-0.2-0.6-0.6-0.4-1c0.2-0.4,0.6-0.6,1-0.4L8,15.3
		c0.4,0.2,0.9,0,1.1-0.3l2-3l-1.1-3.3L8.6,9.5c-0.4,0.2-0.8,0.1-1-0.2c-0.2-0.4-0.1-0.8,0.2-1l1.4-0.9c0.4-0.2,0.9-0.3,1.3-0.1
		c0.4,0.2,0.8,0.5,0.9,0.9l0.7,2.1l1.4-2.1c0.6-1,1.9-1.3,3-0.9l0.2,0.1c0.4,0.2,0.6,0.6,0.4,1c-0.2,0.4-0.6,0.6-1,0.4L16,8.7
		c-0.4-0.2-0.9,0-1.1,0.3l-2,3l1.1,3.3l1.4-0.9c0.4-0.2,0.8-0.1,1,0.2s0.1,0.8-0.2,1l-1.4,0.9C14.5,16.8,14.2,16.9,13.9,16.9z"/>
</g>
</svg>
