<?xml version="1.0" encoding="utf-8"?>
<!-- Generator: Adobe Illustrator 28.4.1, SVG Export Plug-In . SVG Version: 6.00 Build 0)  -->
<svg version="1.1" id="Layer_1" xmlns="http://www.w3.org/2000/svg" xmlns:xlink="http://www.w3.org/1999/xlink" x="0px" y="0px"
	 viewBox="0 0 24 24" style="enable-background:new 0 0 24 24;" xml:space="preserve">
<style type="text/css">
	.st0{fill:#0F172A;}
</style>
<g>
	<path class="st0" d="M15.8,21.8c-0.4,0-0.8-0.3-0.8-0.8v-0.8h-2.2V21c0,0.4-0.3,0.8-0.8,0.8s-0.8-0.3-0.8-0.8v-0.8H9V21
		c0,0.4-0.3,0.8-0.8,0.8S7.5,21.4,7.5,21v-0.8H6.8c-1.7,0-3-1.3-3-3v-0.8H3c-0.4,0-0.8-0.3-0.8-0.7C2.2,15.3,2.6,15,3,15h0.8v-2.3H3
		c-0.4,0-0.8-0.3-0.8-0.8s0.3-0.8,0.8-0.8h0.8V9H3C2.6,9,2.2,8.7,2.2,8.2c0-0.4,0.3-0.8,0.8-0.8h0.8V6.7c0-1.7,1.3-3,3-3h0.8V3
		c0-0.4,0.3-0.8,0.8-0.8S9,2.6,9,3v0.8h2.2V3c0-0.4,0.3-0.8,0.8-0.8s0.8,0.3,0.8,0.8v0.8H15V3c0-0.4,0.3-0.8,0.8-0.8
		s0.8,0.3,0.8,0.8v0.8h0.8c1.7,0,3,1.3,3,3v0.8H21c0.4,0,0.8,0.3,0.8,0.8C21.8,8.7,21.4,9,21,9h-0.8v2.2H21c0.4,0,0.8,0.3,0.8,0.8
		s-0.3,0.8-0.8,0.8h-0.8V15H21c0.4,0,0.8,0.3,0.8,0.8c0,0.4-0.3,0.7-0.8,0.7h-0.8v0.8c0,1.7-1.3,3-3,3h-0.8V21
		C16.5,21.4,16.2,21.8,15.8,21.8z M5.2,15.8v1.5c0,0.8,0.7,1.5,1.5,1.5h10.5c0.8,0,1.5-0.7,1.5-1.5V6.7c0-0.8-0.7-1.5-1.5-1.5H6.8
		c-0.8,0-1.5,0.7-1.5,1.5V15.8z M16.5,17.3h-9c-0.4,0-0.8-0.3-0.8-0.8v-9c0-0.4,0.3-0.8,0.8-0.8h9c0.4,0,0.8,0.3,0.8,0.8v9
		C17.2,16.9,16.9,17.3,16.5,17.3z M8.2,15.8h7.5V8.2H8.2V15.8z"/>
</g>
</svg>
