<svg width="20" height="21" viewBox="0 0 20 21" fill="none" xmlns="http://www.w3.org/2000/svg">
<path d="M5.75 3.01758C5.33579 3.01758 5 3.35336 5 3.76758V16.2676C5 16.6818 5.33579 17.0176 5.75 17.0176H7.25C7.66421 17.0176 8 16.6818 8 16.2676V3.76758C8 3.35336 7.66421 3.01758 7.25 3.01758H5.75Z" fill="#0F172A"/>
<path d="M12.75 3.01758C12.3358 3.01758 12 3.35336 12 3.76758V16.2676C12 16.6818 12.3358 17.0176 12.75 17.0176H14.25C14.6642 17.0176 15 16.6818 15 16.2676V3.76758C15 3.35336 14.6642 3.01758 14.25 3.01758H12.75Z" fill="#0F172A"/>
</svg>
