<svg width="20" height="21" viewBox="0 0 20 21" fill="none" xmlns="http://www.w3.org/2000/svg">
<path fill-rule="evenodd" clip-rule="evenodd" d="M2 3.51758C2 2.68915 2.67157 2.01758 3.5 2.01758H4.64837C5.35142 2.01758 5.96014 2.50588 6.11265 3.19218L6.82887 6.41515C7.00105 7.18995 6.53984 7.96478 5.77667 8.18283L4.84388 8.44934C4.4331 8.5667 4.20107 9.00423 4.36396 9.39917C5.53001 12.2263 7.79126 14.4876 10.6184 15.6536C11.0134 15.8165 11.4509 15.5845 11.5682 15.1737L11.8348 14.2409C12.0528 13.4777 12.8276 13.0165 13.6024 13.1887L16.8254 13.9049C17.5117 14.0574 18 14.6662 18 15.3692V16.5176C18 17.346 17.3284 18.0176 16.5 18.0176H15C13.8514 18.0176 12.7366 17.8684 11.6742 17.5881C7.16665 16.3985 3.61908 12.8509 2.42949 8.34334C2.14913 7.28099 2 6.16613 2 5.01758V3.51758Z" fill="#0F172A"/>
</svg>
