<svg width="20" height="21" viewBox="0 0 20 21" fill="none" xmlns="http://www.w3.org/2000/svg">
<path d="M7 4.01758C7 2.36072 8.34315 1.01758 10 1.01758C11.6569 1.01758 13 2.36072 13 4.01758V10.0176C13 11.6744 11.6569 13.0176 10 13.0176C8.34315 13.0176 7 11.6744 7 10.0176V4.01758Z" fill="#0F172A"/>
<path d="M5.5 9.6604C5.5 9.24619 5.16421 8.9104 4.75 8.9104C4.33579 8.9104 4 9.24619 4 9.6604V10.0175C4 13.0773 6.29027 15.602 9.25 15.9711V17.5176H7.75C7.33579 17.5176 7 17.8534 7 18.2676C7 18.6818 7.33579 19.0176 7.75 19.0176H12.25C12.6642 19.0176 13 18.6818 13 18.2676C13 17.8534 12.6642 17.5176 12.25 17.5176H10.75V15.9711C13.7097 15.602 16 13.0773 16 10.0175V9.6604C16 9.24619 15.6642 8.9104 15.25 8.9104C14.8358 8.9104 14.5 9.24619 14.5 9.6604V10.0175C14.5 12.5028 12.4853 14.5175 10 14.5175C7.51472 14.5175 5.5 12.5028 5.5 10.0175V9.6604Z" fill="#0F172A"/>
</svg>
