<svg width="20" height="21" viewBox="0 0 20 21" fill="none" xmlns="http://www.w3.org/2000/svg">
<path fill-rule="evenodd" clip-rule="evenodd" d="M10 18.0176C14.4183 18.0176 18 14.4359 18 10.0176C18 5.5993 14.4183 2.01758 10 2.01758C5.58172 2.01758 2 5.5993 2 10.0176C2 14.4359 5.58172 18.0176 10 18.0176ZM10.75 6.76758C10.75 6.35336 10.4142 6.01758 10 6.01758C9.58579 6.01758 9.25 6.35336 9.25 6.76758V9.26758H6.75C6.33579 9.26758 6 9.60336 6 10.0176C6 10.4318 6.33579 10.7676 6.75 10.7676H9.25V13.2676C9.25 13.6818 9.58579 14.0176 10 14.0176C10.4142 14.0176 10.75 13.6818 10.75 13.2676V10.7676H13.25C13.6642 10.7676 14 10.4318 14 10.0176C14 9.60336 13.6642 9.26758 13.25 9.26758H10.75V6.76758Z" fill="#0F172A"/>
</svg>
