<svg width="20" height="21" viewBox="0 0 20 21" fill="none" xmlns="http://www.w3.org/2000/svg">
<path fill-rule="evenodd" clip-rule="evenodd" d="M15.6213 4.39626C14.4497 3.22468 12.5503 3.22468 11.3787 4.39626L4.37868 11.3963C3.20711 12.5678 3.20711 14.4673 4.37868 15.6389C5.54995 16.8102 7.44878 16.8105 8.62042 15.6398C8.62072 15.6395 8.62102 15.6392 8.62132 15.6389L9.11792 15.139C9.40985 14.8451 9.88472 14.8436 10.1786 15.1355C10.4724 15.4274 10.474 15.9023 10.1821 16.1962L9.68373 16.6978L9.68198 16.6996C7.92462 18.4569 5.07538 18.4569 3.31802 16.6996C1.56066 14.9422 1.56066 12.093 3.31802 10.3356L10.318 3.3356C12.0754 1.57824 14.9246 1.57824 16.682 3.3356C18.438 5.09165 18.4393 7.93796 16.6859 9.69563L13.2312 13.2488C12.2061 14.2739 10.544 14.2739 9.51885 13.2488C8.49372 12.2236 8.49372 10.5616 9.51885 9.53644L12.9697 6.08562C13.2626 5.79273 13.7374 5.79273 14.0303 6.08562C14.3232 6.37851 14.3232 6.85339 14.0303 7.14628L10.5795 10.5971C10.1402 11.0364 10.1402 11.7488 10.5795 12.1881C11.0178 12.6263 11.7276 12.6274 12.1672 12.1914L15.6213 8.63885C16.7928 7.46727 16.7929 5.56783 15.6213 4.39626Z" fill="#0F172A"/>
</svg>
