<svg width="20" height="21" viewBox="0 0 20 21" fill="none" xmlns="http://www.w3.org/2000/svg">
<path fill-rule="evenodd" clip-rule="evenodd" d="M17.721 1.61627C17.8974 1.75866 18 1.97322 18 2.19996V13.4896C18 14.549 17.261 15.4649 16.2255 15.6888L14.1848 16.13C12.804 16.4286 11.5 15.3764 11.5 13.9637C11.5 12.9205 12.2275 12.0185 13.247 11.7976L15.9088 11.2208C16.2538 11.146 16.5 10.8408 16.5 10.4878V6.12945L8.5 7.85918V15.5437C8.5 16.6031 7.76097 17.519 6.7255 17.7429L4.68397 18.1843C3.30357 18.4827 2 17.4309 2 16.0186C2 14.9748 2.72854 14.0725 3.74894 13.8526L6.408 13.2796C6.7534 13.2051 7 12.8997 7 12.5464V4.25401C7 3.90088 7.24634 3.59558 7.5915 3.52095L17.0915 1.4669C17.3131 1.41898 17.5445 1.47389 17.721 1.61627Z" fill="#0F172A"/>
</svg>
