<svg width="20" height="21" viewBox="0 0 20 21" fill="none" xmlns="http://www.w3.org/2000/svg">
<path d="M9.23619 17.6065C9.8745 18.3138 10.4438 17.9688 10.7371 17.6065C11.7722 16.5714 13.5146 14.8405 14.2564 14.1044C14.2564 14.1044 14.6877 13.5351 14.1701 13.0348C13.6526 12.5345 13.0833 12.9313 13.0833 12.9313L10.8233 15.1912V9.54997C10.9671 7.62929 12.4726 3.76033 17.3444 3.64992C17.3444 3.64992 18 3.49466 18 2.85635C18 2.21804 17.3444 2.01102 17.3444 2.01102C15.7055 1.90751 11.9412 2.64588 9.99522 6.42743C8.87387 4.40899 6.5449 2.01102 2.64604 2.01102C1.47293 2.54582 2.16299 3.65858 2.64604 3.64992C4.57247 3.61542 8.57369 4.74713 9.16715 9.54997L9.16715 15.1912L6.92447 12.9313C5.73411 12.3965 5.32004 13.5696 5.73411 14.1044L9.23619 17.6065Z" fill="black" stroke="black"/>
</svg>
