<svg width="20" height="21" viewBox="0 0 20 21" fill="none" xmlns="http://www.w3.org/2000/svg">
<path fill-rule="evenodd" clip-rule="evenodd" d="M2 10.0176C2 5.5993 5.58172 2.01758 10 2.01758C14.4183 2.01758 18 5.5993 18 10.0176C18 14.4359 14.4183 18.0176 10 18.0176C5.58172 18.0176 2 14.4359 2 10.0176ZM8.39061 7.10929C8.63141 6.97783 8.92479 6.98834 9.15557 7.13669L12.6556 9.38669C12.8702 9.52469 13 9.76238 13 10.0176C13 10.2728 12.8702 10.5105 12.6556 10.6485L9.15557 12.8985C8.92479 13.0468 8.63141 13.0573 8.39061 12.9259C8.1498 12.7944 8 12.5419 8 12.2676V7.76758C8 7.49322 8.1498 7.24076 8.39061 7.10929Z" fill="#0F172A"/>
</svg>
