<?xml version="1.0" encoding="utf-8"?>
<!-- Generator: Adobe Illustrator 28.4.1, SVG Export Plug-In . SVG Version: 6.00 Build 0)  -->
<svg version="1.1" id="Layer_1" xmlns="http://www.w3.org/2000/svg" xmlns:xlink="http://www.w3.org/1999/xlink" x="0px" y="0px"
	 viewBox="0 0 20 20" style="enable-background:new 0 0 20 20;" xml:space="preserve">
<style type="text/css">
	.st0{fill:#0F172A;}
</style>
<g>
	<path class="st0" d="M15,17.5H8.8c-1.4,0-2.5-1.1-2.5-2.5v-0.6H5c-1.4,0-2.5-1.1-2.5-2.5V5c0-1.4,1.1-2.5,2.5-2.5h6.9
		c1.4,0,2.5,1.1,2.5,2.5v1.2H15c1.4,0,2.5,1.1,2.5,2.5V15C17.5,16.4,16.4,17.5,15,17.5z M7.5,13.8V15c0,0.7,0.6,1.2,1.2,1.2H15
		c0.7,0,1.2-0.6,1.2-1.2V8.7c0-0.7-0.6-1.3-1.2-1.3H8.8c-0.7,0-1.2,0.6-1.2,1.3V13.8z M5,3.7C4.3,3.7,3.8,4.3,3.8,5v6.9
		c0,0.7,0.6,1.2,1.2,1.2h1.2V8.7c0-1.4,1.1-2.5,2.5-2.5h4.4V5c0-0.7-0.6-1.2-1.2-1.2H5z"/>
</g>
</svg>
