<svg width="20" height="21" viewBox="0 0 20 21" fill="none" xmlns="http://www.w3.org/2000/svg">
<path d="M10.75 4.76758C10.75 4.35336 10.4142 4.01758 10 4.01758C9.58579 4.01758 9.25 4.35336 9.25 4.76758V9.26758H4.75C4.33579 9.26758 4 9.60336 4 10.0176C4 10.4318 4.33579 10.7676 4.75 10.7676L9.25 10.7676V15.2676C9.25 15.6818 9.58579 16.0176 10 16.0176C10.4142 16.0176 10.75 15.6818 10.75 15.2676V10.7676L15.25 10.7676C15.6642 10.7676 16 10.4318 16 10.0176C16 9.60337 15.6642 9.26758 15.25 9.26758H10.75V4.76758Z" fill="#0F172A"/>
</svg>
