<svg width="20" height="21" viewBox="0 0 20 21" fill="none" xmlns="http://www.w3.org/2000/svg">
<path fill-rule="evenodd" clip-rule="evenodd" d="M3.5 2.01758C2.67157 2.01758 2 2.68915 2 3.51758V5.01758C2 6.16613 2.14913 7.28099 2.42949 8.34334C3.61908 12.8509 7.16665 16.3985 11.6742 17.5881C12.7366 17.8684 13.8514 18.0176 15 18.0176H16.5C17.3284 18.0176 18 17.346 18 16.5176V15.3692C18 14.6662 17.5117 14.0574 16.8254 13.9049L13.6024 13.1887C12.8276 13.0165 12.0528 13.4777 11.8348 14.2409L11.5682 15.1737C11.4509 15.5845 11.0134 15.8165 10.6184 15.6536C7.79126 14.4876 5.53001 12.2263 4.36396 9.39917C4.20107 9.00423 4.4331 8.5667 4.84388 8.44934L5.77667 8.18283C6.53984 7.96478 7.00105 7.18995 6.82887 6.41515L6.11265 3.19218C5.96014 2.50588 5.35142 2.01758 4.64837 2.01758H3.5ZM13.2803 2.23725C12.9874 1.94435 12.5126 1.94435 12.2197 2.23725C11.9268 2.53014 11.9268 3.00502 12.2197 3.29791L13.9393 5.01758L12.2197 6.73725C11.9268 7.03014 11.9268 7.50501 12.2197 7.79791C12.5126 8.0908 12.9874 8.0908 13.2803 7.79791L15 6.07824L16.7197 7.79791C17.0126 8.0908 17.4874 8.0908 17.7803 7.79791C18.0732 7.50501 18.0732 7.03014 17.7803 6.73725L16.0607 5.01758L17.7803 3.29791C18.0732 3.00502 18.0732 2.53014 17.7803 2.23725C17.4874 1.94435 17.0126 1.94435 16.7197 2.23725L15 3.95692L13.2803 2.23725Z" fill="#0F172A"/>
</svg>
