<svg width="20" height="21" viewBox="0 0 20 21" fill="none" xmlns="http://www.w3.org/2000/svg">
<path fill-rule="evenodd" clip-rule="evenodd" d="M2 3.51758C2 2.68915 2.67157 2.01758 3.5 2.01758H12.5C13.3284 2.01758 14 2.68915 14 3.51758V15.2676C14 16.7864 15.2312 18.0176 16.75 18.0176H4.75C3.23122 18.0176 2 16.7864 2 15.2676V3.51758ZM5.75 10.5176C5.33579 10.5176 5 10.8534 5 11.2676C5 11.6818 5.33579 12.0176 5.75 12.0176H10.25C10.6642 12.0176 11 11.6818 11 11.2676C11 10.8534 10.6642 10.5176 10.25 10.5176H5.75ZM5.75 13.5176C5.33579 13.5176 5 13.8534 5 14.2676C5 14.6818 5.33579 15.0176 5.75 15.0176H10.25C10.6642 15.0176 11 14.6818 11 14.2676C11 13.8534 10.6642 13.5176 10.25 13.5176H5.75ZM5 5.76758C5 5.35336 5.33579 5.01758 5.75 5.01758H10.25C10.6642 5.01758 11 5.35336 11 5.76758V8.26758C11 8.68179 10.6642 9.01758 10.25 9.01758H5.75C5.33579 9.01758 5 8.68179 5 8.26758V5.76758Z" fill="#0F172A"/>
<path d="M16.5 6.51758H15.5V15.2676C15.5 15.9579 16.0596 16.5176 16.75 16.5176C17.4404 16.5176 18 15.9579 18 15.2676V8.01758C18 7.18915 17.3284 6.51758 16.5 6.51758Z" fill="#0F172A"/>
</svg>
