<svg width="20" height="21" viewBox="0 0 20 21" fill="none" xmlns="http://www.w3.org/2000/svg">
<path fill-rule="evenodd" clip-rule="evenodd" d="M1 2.76758C1 2.35336 1.33579 2.01758 1.75 2.01758H18.25C18.6642 2.01758 19 2.35336 19 2.76758C19 3.18179 18.6642 3.51758 18.25 3.51758H18V12.2676C18 13.7864 16.7688 15.0176 15.25 15.0176H14.1775L14.9759 18.0782C15.0805 18.479 14.8403 18.8887 14.4395 18.9932C14.0387 19.0978 13.629 18.8576 13.5245 18.4568L13.4099 18.0175H6.5905L6.4759 18.4568C6.37134 18.8576 5.96167 19.0978 5.56087 18.9932C5.16007 18.8887 4.91991 18.479 5.02447 18.0782L5.82289 15.0176H4.75C3.23122 15.0176 2 13.7864 2 12.2676V3.51758H1.75C1.33579 3.51758 1 3.18179 1 2.76758ZM7.37309 15.0176L6.9818 16.5175H13.0186L12.6273 15.0176H7.37309ZM14.8625 6.08637C15.1031 6.42356 15.0248 6.89193 14.6876 7.13251C13.4276 8.03148 12.2896 9.07469 11.2905 10.231C11.1542 10.3887 10.9585 10.4825 10.7503 10.4901C10.542 10.4977 10.34 10.4183 10.1927 10.271L8.5 8.5783L6.28033 10.798C5.98744 11.0909 5.51256 11.0909 5.21967 10.798C4.92678 10.5051 4.92678 10.0302 5.21967 9.73731L7.96967 6.98731C8.26256 6.69442 8.73744 6.69442 9.03033 6.98731L10.6938 8.65083C11.6347 7.64272 12.679 6.72291 13.8164 5.91144C14.1536 5.67086 14.6219 5.74918 14.8625 6.08637Z" fill="#0F172A"/>
</svg>
