<svg width="20" height="21" viewBox="0 0 20 21" fill="none" xmlns="http://www.w3.org/2000/svg">
<path d="M12.75 4.01758C12.3358 4.01758 12 4.35336 12 4.76758V15.2676C12 15.6818 12.3358 16.0176 12.75 16.0176H13.25C13.6642 16.0176 14 15.6818 14 15.2676V4.76758C14 4.35336 13.6642 4.01758 13.25 4.01758H12.75Z" fill="#0F172A"/>
<path d="M17.75 4.01758C17.3358 4.01758 17 4.35336 17 4.76758V15.2676C17 15.6818 17.3358 16.0176 17.75 16.0176H18.25C18.6642 16.0176 19 15.6818 19 15.2676V4.76758C19 4.35336 18.6642 4.01758 18.25 4.01758H17.75Z" fill="#0F172A"/>
<path d="M3.28824 4.83616C2.28891 4.21893 1 4.93778 1 6.11236V13.9228C1 15.0974 2.2889 15.8163 3.28824 15.199L9.61101 11.2938C10.56 10.7076 10.56 9.32756 9.61101 8.7414L3.28824 4.83616Z" fill="#0F172A"/>
</svg>
