<svg width="20" height="21" viewBox="0 0 20 21" fill="none" xmlns="http://www.w3.org/2000/svg">
<path fill-rule="evenodd" clip-rule="evenodd" d="M1 2.76758C1 2.35336 1.33579 2.01758 1.75 2.01758H18.25C18.6642 2.01758 19 2.35336 19 2.76758C19 3.18179 18.6642 3.51758 18.25 3.51758H18V12.2676C18 13.7864 16.7688 15.0176 15.25 15.0176H14.1775L14.9759 18.0782C15.0805 18.479 14.8403 18.8887 14.4395 18.9932C14.0387 19.0978 13.629 18.8576 13.5245 18.4568L13.4099 18.0175H6.5905L6.4759 18.4568C6.37134 18.8576 5.96167 19.0978 5.56087 18.9932C5.16007 18.8887 4.91991 18.479 5.02447 18.0782L5.82289 15.0176H4.75C3.23122 15.0176 2 13.7864 2 12.2676V3.51758H1.75C1.33579 3.51758 1 3.18179 1 2.76758ZM7.37309 15.0176L6.9818 16.5175H13.0186L12.6273 15.0176H7.37309ZM13.25 5.01758C13.6642 5.01758 14 5.35336 14 5.76758V11.2676C14 11.6818 13.6642 12.0176 13.25 12.0176C12.8358 12.0176 12.5 11.6818 12.5 11.2676V5.76758C12.5 5.35336 12.8358 5.01758 13.25 5.01758ZM6.75 9.01758C7.16421 9.01758 7.5 9.35336 7.5 9.76758V11.2676C7.5 11.6818 7.16421 12.0176 6.75 12.0176C6.33579 12.0176 6 11.6818 6 11.2676V9.76758C6 9.35336 6.33579 9.01758 6.75 9.01758ZM10.75 7.76758C10.75 7.35336 10.4142 7.01758 10 7.01758C9.58579 7.01758 9.25 7.35336 9.25 7.76758V11.2676C9.25 11.6818 9.58579 12.0176 10 12.0176C10.4142 12.0176 10.75 11.6818 10.75 11.2676V7.76758Z" fill="#0F172A"/>
</svg>
