<svg width="20" height="21" viewBox="0 0 20 21" fill="none" xmlns="http://www.w3.org/2000/svg">
<path fill-rule="evenodd" clip-rule="evenodd" d="M1 5.26758C1 4.02494 2.00736 3.01758 3.25 3.01758H16.75C17.9926 3.01758 19 4.02494 19 5.26758V14.7676C19 16.0102 17.9926 17.0176 16.75 17.0176H3.25C2.00736 17.0176 1 16.0102 1 14.7676V5.26758ZM2.5 11.0782V14.7676C2.5 15.1818 2.83579 15.5176 3.25 15.5176H16.75C17.1642 15.5176 17.5 15.1818 17.5 14.7676V12.0782L15.2803 9.85857C14.9874 9.56567 14.5126 9.56567 14.2197 9.85857L12.3107 11.7676L12.7803 12.2372C13.0732 12.5301 13.0732 13.005 12.7803 13.2979C12.4874 13.5908 12.0126 13.5908 11.7197 13.2979L6.53033 8.10857C6.23744 7.81568 5.76256 7.81568 5.46967 8.10857L2.5 11.0782ZM12 7.01758C12 7.56986 11.5523 8.01758 11 8.01758C10.4477 8.01758 10 7.56986 10 7.01758C10 6.46529 10.4477 6.01758 11 6.01758C11.5523 6.01758 12 6.46529 12 7.01758Z" fill="#0F172A"/>
</svg>
