<svg width="20" height="21" viewBox="0 0 20 21" fill="none" xmlns="http://www.w3.org/2000/svg">
<path fill-rule="evenodd" clip-rule="evenodd" d="M5 2.76758C5 1.80108 5.7835 1.01758 6.75 1.01758H13.25C14.2165 1.01758 15 1.80108 15 2.76758V6.26758C15 6.2849 14.9997 6.30217 14.9992 6.31938C15.3765 6.36525 15.7522 6.41625 16.1263 6.4723C17.2246 6.63688 18 7.58896 18 8.67055V12.7676C18 14.0102 16.9926 15.0176 15.75 15.0176H15.5086L15.8138 17.0015C15.9769 18.0616 15.1567 19.0176 14.0842 19.0176H5.91541C4.84287 19.0176 4.02268 18.0616 4.18576 17.0015L4.49098 15.0176H4.25C3.00736 15.0176 2 14.0102 2 12.7676V8.67055C2 7.58896 2.77538 6.63688 3.87368 6.4723C4.24776 6.41625 4.62347 6.36525 5.00075 6.31938C5.00025 6.30217 5 6.2849 5 6.26758V2.76758ZM13.5 6.16492C12.3461 6.06735 11.1788 6.01758 10 6.01758C8.82119 6.01758 7.65386 6.06735 6.5 6.16492V2.76758C6.5 2.62951 6.61193 2.51758 6.75 2.51758H13.25C13.3881 2.51758 13.5 2.62951 13.5 2.76758V6.16492ZM6.60772 12.5176C6.48433 12.5176 6.37939 12.6076 6.36063 12.7296L5.66832 17.2296C5.64502 17.381 5.76219 17.5176 5.91541 17.5176H14.0842C14.2374 17.5176 14.3546 17.381 14.3313 17.2296L13.639 12.7296C13.6202 12.6076 13.5153 12.5176 13.3919 12.5176H6.60772Z" fill="#0F172A"/>
</svg>
