<svg width="20" height="21" viewBox="0 0 20 21" fill="none" xmlns="http://www.w3.org/2000/svg">
<path d="M15.9932 1.40226C16.3195 1.15276 16.7188 1.01758 17.1295 1.01758C18.1626 1.01758 19.0002 1.85509 19.0002 2.88821C19.0002 3.29894 18.865 3.69825 18.6155 4.02452L14.5856 9.29432C13.4464 10.7841 11.9978 11.9975 10.349 12.8566C9.93563 11.3044 8.71335 10.0821 7.16113 9.66877C8.02023 8.01994 9.23359 6.57138 10.7234 5.4321L15.9932 1.40226Z" fill="#0F172A"/>
<path d="M5.99977 11.0176C4.34292 11.0176 2.99977 12.3607 2.99977 14.0176C2.99977 14.2937 2.77591 14.5176 2.49977 14.5176C2.41931 14.5176 2.3453 14.4991 2.2798 14.4669C2.00461 14.3315 1.67475 14.3774 1.44686 14.5826C1.21898 14.7878 1.139 15.1111 1.2449 15.3989C1.80692 16.9262 3.27495 18.0176 4.99977 18.0176C7.20742 18.0176 8.99735 16.2289 8.99977 14.0218L8.99977 14.0176C8.99977 13.5375 8.88647 13.0818 8.68446 12.6777C8.39396 12.0965 7.92089 11.6234 7.33969 11.3329C6.93554 11.1309 6.47981 11.0176 5.99977 11.0176Z" fill="#0F172A"/>
</svg>
