<svg width="20" height="21" viewBox="0 0 20 21" fill="none" xmlns="http://www.w3.org/2000/svg">
<path fill-rule="evenodd" clip-rule="evenodd" d="M2 10.0176C2 5.5993 5.58172 2.01758 10 2.01758C14.4183 2.01758 18 5.5993 18 10.0176C18 14.4359 14.4183 18.0176 10 18.0176C5.58172 18.0176 2 14.4359 2 10.0176ZM7 7.76758C7 7.35336 7.33579 7.01758 7.75 7.01758H8.25C8.66421 7.01758 9 7.35336 9 7.76758V12.2676C9 12.6818 8.66421 13.0176 8.25 13.0176H7.75C7.33579 13.0176 7 12.6818 7 12.2676V7.76758ZM11 7.76758C11 7.35336 11.3358 7.01758 11.75 7.01758H12.25C12.6642 7.01758 13 7.35336 13 7.76758V12.2676C13 12.6818 12.6642 13.0176 12.25 13.0176H11.75C11.3358 13.0176 11 12.6818 11 12.2676V7.76758Z" fill="#0F172A"/>
</svg>
