<svg width="20" height="21" viewBox="0 0 20 21" fill="none" xmlns="http://www.w3.org/2000/svg">
<path fill-rule="evenodd" clip-rule="evenodd" d="M10 2.01758C10.4142 2.01758 10.75 2.35336 10.75 2.76758V10.2676C10.75 10.6818 10.4142 11.0176 10 11.0176C9.58579 11.0176 9.25 10.6818 9.25 10.2676V2.76758C9.25 2.35336 9.58579 2.01758 10 2.01758ZM5.40381 4.36072C5.6967 4.65362 5.6967 5.12849 5.40381 5.42138C2.8654 7.95979 2.8654 12.0754 5.40381 14.6138C7.94221 17.1522 12.0578 17.1522 14.5962 14.6138C17.1346 12.0754 17.1346 7.95979 14.5962 5.42138C14.3033 5.12849 14.3033 4.65362 14.5962 4.36072C14.8891 4.06783 15.364 4.06783 15.6569 4.36072C18.781 7.48492 18.781 12.5502 15.6569 15.6744C12.5327 18.7986 7.46734 18.7986 4.34315 15.6744C1.21895 12.5502 1.21895 7.48492 4.34315 4.36072C4.63604 4.06783 5.11091 4.06783 5.40381 4.36072Z" fill="#0F172A"/>
</svg>
