<svg width="20" height="21" viewBox="0 0 20 21" fill="none" xmlns="http://www.w3.org/2000/svg">
<path d="M3.10526 2.30602C2.85362 2.27035 2.60104 2.36455 2.43421 2.55628C2.26738 2.74801 2.209 3.01119 2.27911 3.25548L3.69276 8.18135C3.87733 8.82446 4.4655 9.26758 5.13456 9.26758H11.25C11.6642 9.26758 12 9.60337 12 10.0176C12 10.4318 11.6642 10.7676 11.25 10.7676H5.13457C4.4655 10.7676 3.87733 11.2107 3.69277 11.8538L2.27911 16.7797C2.209 17.024 2.26738 17.2872 2.43421 17.4789C2.60104 17.6706 2.85362 17.7648 3.10526 17.7292C8.94303 16.9018 14.221 14.3363 18.3983 10.5749C18.5563 10.4327 18.6465 10.2301 18.6465 10.0176C18.6465 9.80504 18.5563 9.60247 18.3983 9.46024C14.221 5.69887 8.94303 3.13343 3.10526 2.30602Z" fill="#0F172A"/>
</svg>
