<svg width="20" height="21" viewBox="0 0 20 21" fill="none" xmlns="http://www.w3.org/2000/svg">
<path fill-rule="evenodd" clip-rule="evenodd" d="M7.45519 2.02153C7.68518 2.20522 7.78646 2.50648 7.71414 2.79181C7.57443 3.34304 7.5 3.92106 7.5 4.51754C7.5 8.38353 10.634 11.5175 14.5 11.5175C15.6435 11.5175 16.721 11.2439 17.6724 10.7592C17.9347 10.6256 18.2509 10.6578 18.4809 10.8415C18.7109 11.0252 18.8122 11.3265 18.7399 11.6118C17.8069 15.2931 14.4725 18.0175 10.5 18.0175C5.80558 18.0175 2 14.212 2 9.51754C2 6.20897 3.89048 3.34325 6.64671 1.93926C6.909 1.80565 7.22519 1.83783 7.45519 2.02153Z" fill="#0F172A"/>
</svg>
