<svg width="20" height="21" viewBox="0 0 20 21" fill="none" xmlns="http://www.w3.org/2000/svg">
<path fill-rule="evenodd" clip-rule="evenodd" d="M3.75 2.01758C2.7835 2.01758 2 2.80108 2 3.76758V7.26758C2 8.23408 2.7835 9.01758 3.75 9.01758H7.25C8.2165 9.01758 9 8.23408 9 7.26758V3.76758C9 2.80108 8.2165 2.01758 7.25 2.01758H3.75ZM3.5 3.76758C3.5 3.62951 3.61193 3.51758 3.75 3.51758H7.25C7.38807 3.51758 7.5 3.62951 7.5 3.76758V7.26758C7.5 7.40565 7.38807 7.51758 7.25 7.51758H3.75C3.61193 7.51758 3.5 7.40565 3.5 7.26758V3.76758ZM3.75 11.0176C2.7835 11.0176 2 11.8011 2 12.7676V16.2676C2 17.2341 2.7835 18.0176 3.75 18.0176H7.25C8.2165 18.0176 9 17.2341 9 16.2676V12.7676C9 11.8011 8.2165 11.0176 7.25 11.0176H3.75ZM3.5 12.7676C3.5 12.6295 3.61193 12.5176 3.75 12.5176H7.25C7.38807 12.5176 7.5 12.6295 7.5 12.7676V16.2676C7.5 16.4056 7.38807 16.5176 7.25 16.5176H3.75C3.61193 16.5176 3.5 16.4056 3.5 16.2676V12.7676ZM11 3.76758C11 2.80108 11.7835 2.01758 12.75 2.01758H16.25C17.2165 2.01758 18 2.80108 18 3.76758V7.26758C18 8.23408 17.2165 9.01758 16.25 9.01758H12.75C11.7835 9.01758 11 8.23408 11 7.26758V3.76758ZM12.75 3.51758C12.6119 3.51758 12.5 3.62951 12.5 3.76758V7.26758C12.5 7.40565 12.6119 7.51758 12.75 7.51758H16.25C16.3881 7.51758 16.5 7.40565 16.5 7.26758V3.76758C16.5 3.62951 16.3881 3.51758 16.25 3.51758H12.75ZM5.49023 4.51758C4.93795 4.51758 4.49023 4.96529 4.49023 5.51758V5.52758C4.49023 6.07986 4.93795 6.52758 5.49023 6.52758H5.50023C6.05252 6.52758 6.50023 6.07986 6.50023 5.52758V5.51758C6.50023 4.96529 6.05252 4.51758 5.50023 4.51758H5.49023ZM14.4902 4.51758C13.9379 4.51758 13.4902 4.96529 13.4902 5.51758V5.52758C13.4902 6.07986 13.9379 6.52758 14.4902 6.52758H14.5002C15.0525 6.52758 15.5002 6.07986 15.5002 5.52758V5.51758C15.5002 4.96529 15.0525 4.51758 14.5002 4.51758H14.4902ZM5.49023 13.5176C4.93795 13.5176 4.49023 13.9653 4.49023 14.5176V14.5276C4.49023 15.0799 4.93795 15.5276 5.49023 15.5276H5.50023C6.05252 15.5276 6.50023 15.0799 6.50023 14.5276V14.5176C6.50023 13.9653 6.05252 13.5176 5.50023 13.5176H5.49023ZM14.4902 13.5176C13.9379 13.5176 13.4902 13.9653 13.4902 14.5176V14.5276C13.4902 15.0799 13.9379 15.5276 14.4902 15.5276H14.5002C15.0525 15.5276 15.5002 15.0799 15.5002 14.5276V14.5176C15.5002 13.9653 15.0525 13.5176 14.5002 13.5176H14.4902ZM10.9902 12.0176C10.9902 11.4653 11.4379 11.0176 11.9902 11.0176H12.0002C12.5525 11.0176 13.0002 11.4653 13.0002 12.0176V12.0276C13.0002 12.5799 12.5525 13.0276 12.0002 13.0276H11.9902C11.4379 13.0276 10.9902 12.5799 10.9902 12.0276V12.0176ZM16.9902 11.0176C16.4379 11.0176 15.9902 11.4653 15.9902 12.0176V12.0276C15.9902 12.5799 16.4379 13.0276 16.9902 13.0276H17.0002C17.5525 13.0276 18.0002 12.5799 18.0002 12.0276V12.0176C18.0002 11.4653 17.5525 11.0176 17.0002 11.0176H16.9902ZM15.9902 17.0176C15.9902 16.4653 16.4379 16.0176 16.9902 16.0176H17.0002C17.5525 16.0176 18.0002 16.4653 18.0002 17.0176V17.0276C18.0002 17.5799 17.5525 18.0276 17.0002 18.0276H16.9902C16.4379 18.0276 15.9902 17.5799 15.9902 17.0276V17.0176ZM11.9902 16.0176C11.4379 16.0176 10.9902 16.4653 10.9902 17.0176V17.0276C10.9902 17.5799 11.4379 18.0276 11.9902 18.0276H12.0002C12.5525 18.0276 13.0002 17.5799 13.0002 17.0276V17.0176C13.0002 16.4653 12.5525 16.0176 12.0002 16.0176H11.9902Z" fill="#0F172A"/>
</svg>
