<svg width="20" height="21" viewBox="0 0 20 21" fill="none" xmlns="http://www.w3.org/2000/svg">
<path fill-rule="evenodd" clip-rule="evenodd" d="M5.96461 4.92153L15.096 14.053C15.9755 12.9441 16.5 11.5426 16.5 10.0176C16.5 6.42773 13.5899 3.51758 10 3.51758C8.475 3.51758 7.07353 4.04204 5.96461 4.92153ZM14.0354 15.1136L4.90395 5.98219C4.02446 7.0911 3.5 8.49258 3.5 10.0176C3.5 13.6074 6.41015 16.5176 10 16.5176C11.525 16.5176 12.9265 15.9931 14.0354 15.1136ZM4.34315 4.36072C5.79004 2.91383 7.79107 2.01758 10 2.01758C14.4183 2.01758 18 5.5993 18 10.0176C18 12.2265 17.1037 14.2275 15.6569 15.6744C14.21 17.1213 12.2089 18.0176 10 18.0176C5.58172 18.0176 2 14.4359 2 10.0176C2 7.80865 2.89625 5.80762 4.34315 4.36072Z" fill="#0F172A"/>
</svg>
