<svg width="20" height="21" viewBox="0 0 20 21" fill="none" xmlns="http://www.w3.org/2000/svg">
<path d="M5.43306 13.9343L6.69485 10.7799C6.89603 10.2769 7.19728 9.82007 7.58033 9.43702L14.4995 2.51829C15.3279 1.68986 16.6711 1.68987 17.4995 2.51829C18.3279 3.34672 18.3279 4.68987 17.4995 5.51829L10.5803 12.437C10.1973 12.8201 9.74042 13.1213 9.23746 13.3225L6.08299 14.5843C5.67484 14.7475 5.2698 14.3425 5.43306 13.9343Z" fill="#0F172A"/>
<path d="M3.5 5.76758C3.5 5.07722 4.05964 4.51758 4.75 4.51758H10C10.4142 4.51758 10.75 4.18179 10.75 3.76758C10.75 3.35336 10.4142 3.01758 10 3.01758H4.75C3.23122 3.01758 2 4.2488 2 5.76758V15.2676C2 16.7864 3.23122 18.0176 4.75 18.0176H14.25C15.7688 18.0176 17 16.7864 17 15.2676V10.0176C17 9.60336 16.6642 9.26758 16.25 9.26758C15.8358 9.26758 15.5 9.60336 15.5 10.0176V15.2676C15.5 15.9579 14.9404 16.5176 14.25 16.5176H4.75C4.05964 16.5176 3.5 15.9579 3.5 15.2676V5.76758Z" fill="#0F172A"/>
</svg>
