<svg width="20" height="21" viewBox="0 0 20 21" fill="none" xmlns="http://www.w3.org/2000/svg">
<path d="M12 4.48449C12 4.07917 12.2623 3.73374 12.5588 3.45743C12.8348 3.20027 13 2.87339 13 2.51758C13 1.68915 12.1046 1.01758 11 1.01758C9.89543 1.01758 9 1.68915 9 2.51758C9 2.87958 9.17098 3.21164 9.45568 3.47079C9.74658 3.73558 10 4.07143 10 4.4648C10 5.02453 9.53506 5.47354 8.97644 5.43833C7.96056 5.3743 6.95522 5.27188 5.96183 5.13252C5.72871 5.09982 5.49377 5.17847 5.32731 5.34492C5.16086 5.51138 5.08221 5.74632 5.11492 5.97944C5.25427 6.97282 5.35669 7.97816 5.42072 8.99404C5.45593 9.55265 5.00693 10.0176 4.44721 10.0176C4.05385 10.0176 3.718 9.76416 3.45322 9.47327C3.19406 9.18856 2.86201 9.01758 2.5 9.01758C1.67157 9.01758 1 9.91301 1 11.0176C1 12.1221 1.67157 13.0176 2.5 13.0176C2.85582 13.0176 3.1827 12.8524 3.43986 12.5764C3.71616 12.2799 4.06159 12.0176 4.4669 12.0176C5.03368 12.0176 5.4925 12.4809 5.47094 13.0472C5.42294 14.3082 5.31585 15.5539 5.1524 16.7816C5.09796 17.1904 5.38386 17.5665 5.79236 17.6234C6.84158 17.7696 7.90341 17.876 8.97626 17.9412C9.53523 17.9751 10 17.5257 10 16.9657C10 16.5718 9.74616 16.2355 9.45499 15.9702C9.17071 15.7111 9 15.3793 9 15.0176C9 14.1892 9.89543 13.5176 11 13.5176C12.1046 13.5176 13 14.1892 13 15.0176C13 15.3733 12.8349 15.7001 12.559 15.9573C12.2624 16.2337 12 16.5793 12 16.9847C12 17.5515 12.4632 18.0104 13.0296 17.9896C14.3674 17.9405 15.689 17.8273 16.9915 17.6529C17.3267 17.6081 17.5905 17.3443 17.6353 17.0091C17.8097 15.7066 17.9229 14.385 17.972 13.0472C17.9928 12.4807 17.5339 12.0176 16.9671 12.0176C16.5617 12.0176 16.2161 12.28 15.9397 12.5766C15.6826 12.8525 15.3557 13.0176 15 13.0176C14.1716 13.0176 13.5 12.1221 13.5 11.0176C13.5 9.91301 14.1716 9.01758 15 9.01758C15.3617 9.01758 15.6935 9.18829 15.9526 9.47258C16.2179 9.76374 16.5542 10.0176 16.9481 10.0176C17.5081 10.0176 17.9575 9.55282 17.9236 8.99386C17.8584 7.92101 17.752 6.85919 17.6058 5.80997C17.5489 5.40147 17.1728 5.11557 16.764 5.17C15.5363 5.33346 14.2907 5.44055 13.0297 5.48855C12.4633 5.51011 12 5.05128 12 4.48449Z" fill="#0F172A"/>
</svg>
