<svg width="24" height="24" viewBox="0 0 24 24" fill="none" xmlns="http://www.w3.org/2000/svg">
<path d="M17.0039 10.4068C17.1423 10.8418 16.7882 11.2493 16.3317 11.2493H12.8667C12.5988 11.2493 12.3512 11.1063 12.2172 10.8743L10.4845 7.87336C10.2561 7.47777 10.4321 6.96723 10.8784 6.87009C11.2398 6.79145 11.6151 6.75002 12 6.75002C14.344 6.75002 16.3293 8.28622 17.0039 10.4068Z" fill="#0F172A"/>
<path d="M8.11938 8.46397C8.42728 8.12627 8.95767 8.2289 9.18619 8.62466L10.9182 11.6243C11.0522 11.8563 11.0522 12.1422 10.9182 12.3743L9.18577 15.3749C8.95726 15.7707 8.42679 15.8733 8.11891 15.5356C7.26853 14.6026 6.75 13.3619 6.75 12C6.75 10.6379 7.26872 9.39699 8.11938 8.46397Z" fill="#0F172A"/>
<path d="M10.8778 17.1298C10.4315 17.0326 10.2555 16.5221 10.4839 16.1266L12.2172 13.1243C12.3512 12.8922 12.5988 12.7493 12.8668 12.7493H16.3322C16.7886 12.7493 17.1426 13.1566 17.0044 13.5915C16.3304 15.713 14.3447 17.25 12 17.25C11.6148 17.25 11.2393 17.2085 10.8778 17.1298Z" fill="#0F172A"/>
<path fill-rule="evenodd" clip-rule="evenodd" d="M21.0007 12.7493C21.4149 12.7493 21.7507 12.4135 21.7507 11.9993C21.7507 11.585 21.4149 11.2493 21.0007 11.2493H20.2171C20.1753 10.7851 20.095 10.3321 19.9795 9.89328L20.7143 9.62585C21.1035 9.48418 21.3042 9.0538 21.1625 8.66456C21.0209 8.27533 20.5905 8.07464 20.2012 8.21631L19.4664 8.48378C19.2695 8.06635 19.0386 7.6681 18.7773 7.2926L19.3771 6.78932C19.6944 6.52307 19.7358 6.05001 19.4695 5.7327C19.2033 5.41539 18.7302 5.37401 18.4129 5.64026L17.8126 6.14396C17.4869 5.82069 17.1344 5.5244 16.7588 5.25872L17.1502 4.5808C17.3573 4.22208 17.2344 3.76339 16.8756 3.55629C16.5169 3.34918 16.0582 3.47209 15.8511 3.8308L15.4604 4.50753C15.0465 4.31606 14.614 4.15789 14.1664 4.03644L14.3021 3.26696C14.374 2.85904 14.1016 2.47004 13.6937 2.39812C13.2858 2.32619 12.8968 2.59857 12.8249 3.00649L12.6889 3.77755C12.462 3.75881 12.2325 3.74926 12.0007 3.74926C11.769 3.74926 11.5394 3.75883 11.3124 3.7776L11.1764 3.00653C11.1045 2.59861 10.7155 2.32623 10.3076 2.39816C9.89966 2.47008 9.62728 2.85908 9.69921 3.267L9.83492 4.03667C9.38749 4.15812 8.95506 4.31626 8.54113 4.5077L8.15018 3.83062C7.94306 3.47191 7.48436 3.34902 7.12565 3.55615C6.76694 3.76327 6.64405 4.22196 6.85117 4.58068L7.24273 5.25881C6.86722 5.52435 6.51483 5.82054 6.18921 6.14374L5.58845 5.63964C5.27114 5.37339 4.79807 5.41477 4.53182 5.73208C4.26557 6.04939 4.30696 6.52245 4.62426 6.7887L5.22448 7.29235C4.96309 7.66796 4.73209 8.06637 4.53509 8.48399L3.80006 8.21646C3.41082 8.07479 2.98044 8.27548 2.83877 8.66472C2.6971 9.05395 2.89779 9.48433 3.28703 9.626L4.02196 9.8935C3.90647 10.3322 3.8262 10.7852 3.78437 11.2493H3.00073C2.58652 11.2493 2.25073 11.585 2.25073 11.9993C2.25073 12.4135 2.58652 12.7493 3.00073 12.7493H3.78437C3.82619 13.2134 3.90644 13.6664 4.02192 14.1051L3.28678 14.3727C2.89755 14.5143 2.69685 14.9447 2.83852 15.334C2.98019 15.7232 3.41058 15.9239 3.79981 15.7822L4.53502 15.5146C4.73205 15.9323 4.9631 16.3308 5.22461 16.7066L4.62411 17.2104C4.30681 17.4767 4.26542 17.9498 4.53167 18.2671C4.79792 18.5844 5.27099 18.6258 5.58829 18.3595L6.1894 17.8551C6.51507 18.1783 6.86754 18.4745 7.2432 18.7402L6.85112 19.4193C6.64401 19.778 6.76692 20.2367 7.12564 20.4438C7.48436 20.6509 7.94305 20.528 8.15016 20.1693L8.54161 19.4912C8.9554 19.6826 9.38772 19.8407 9.83514 19.9621L9.6992 20.733C9.62727 21.1409 9.89965 21.5299 10.3076 21.6019C10.7155 21.6738 11.1045 21.4014 11.1764 20.9935L11.3126 20.221C11.5395 20.2397 11.769 20.2493 12.0007 20.2493C12.2324 20.2493 12.4618 20.2397 12.6887 20.221L12.8249 20.9935C12.8968 21.4015 13.2858 21.6738 13.6937 21.6019C14.1016 21.53 14.374 21.141 14.3021 20.7331L14.1662 19.9621C14.6136 19.8407 15.046 19.6826 15.4598 19.4913L15.8512 20.1691C16.0583 20.5278 16.517 20.6507 16.8757 20.4436C17.2344 20.2365 17.3573 19.7778 17.1502 19.4191L16.7582 18.7402C17.134 18.4745 17.4866 18.1782 17.8123 17.8548L18.4131 18.3589C18.7304 18.6251 19.2034 18.5837 19.4697 18.2664C19.7359 17.9491 19.6946 17.4761 19.3772 17.2098L18.7771 16.7062C19.0385 16.3307 19.2694 15.9323 19.4664 15.5148L20.2015 15.7824C20.5907 15.924 21.0211 15.7233 21.1628 15.3341C21.3044 14.9449 21.1038 14.5145 20.7145 14.3728L19.9795 14.1053C20.095 13.6665 20.1753 13.2134 20.2171 12.7493H21.0007ZM18.3435 9.69062C18.3374 9.674 18.332 9.65729 18.3272 9.64054C18.0593 8.92249 17.6728 8.26231 17.1913 7.68387C17.1846 7.67643 17.1779 7.66883 17.1714 7.66106C17.165 7.65346 17.1588 7.64576 17.1528 7.63798C16.6625 7.05942 16.0766 6.56453 15.4194 6.17775C15.4046 6.17048 15.3901 6.16269 15.3756 6.15436C15.3608 6.14581 15.3464 6.13682 15.3324 6.12744C14.6882 5.76112 13.9778 5.49776 13.2236 5.35975C13.2067 5.35793 13.1897 5.35553 13.1728 5.35254C13.1563 5.34964 13.1401 5.34623 13.1241 5.34231C12.7588 5.28111 12.3835 5.24926 12.0007 5.24926C11.6183 5.24926 11.2435 5.28099 10.8788 5.34196C10.8623 5.34604 10.8455 5.34958 10.8285 5.35258C10.8109 5.35568 10.7934 5.35814 10.7759 5.35998C10.005 5.50118 9.28044 5.7733 8.62548 6.15229C7.94757 6.54456 7.34445 7.05104 6.84231 7.64533C6.83827 7.6504 6.83415 7.65544 6.82995 7.66044C6.82783 7.66298 6.82568 7.6655 6.82353 7.668C6.82127 7.67062 6.819 7.67323 6.81671 7.67581C6.33198 8.25638 5.94308 8.91949 5.67409 9.6409C5.66929 9.65758 5.66388 9.67422 5.65785 9.69078C5.65182 9.70734 5.64527 9.72357 5.63822 9.73944C5.38727 10.4461 5.25073 11.2068 5.25073 11.9993C5.25073 12.7936 5.38795 13.5559 5.63997 14.2638C5.64626 14.2782 5.65215 14.2929 5.6576 14.3079C5.66305 14.3229 5.66799 14.3379 5.67243 14.3529C6.21997 15.8245 7.26613 17.0535 8.60555 17.8345C8.60934 17.8365 8.61311 17.8386 8.61688 17.8407C8.6198 17.8424 8.62272 17.844 8.62564 17.8457C8.63265 17.8498 8.63958 17.8539 8.64641 17.8581C9.3043 18.2356 10.0318 18.5055 10.8049 18.6437C10.8128 18.6448 10.8207 18.6461 10.8285 18.6474C10.8358 18.6487 10.8431 18.6501 10.8504 18.6516C11.2242 18.7158 11.6086 18.7493 12.0007 18.7493C12.3929 18.7493 12.7773 18.7158 13.1512 18.6516C13.1584 18.6501 13.1655 18.6488 13.1728 18.6475C13.1805 18.6461 13.1883 18.6449 13.1961 18.6437C13.9675 18.5059 14.6935 18.237 15.3503 17.8609C15.3586 17.8556 15.3671 17.8505 15.3757 17.8456C15.3839 17.8408 15.3922 17.8362 15.4006 17.8318C16.07 17.4407 16.666 16.9378 17.163 16.3485L17.1716 16.3381L17.1808 16.3273C17.6679 15.7449 18.0587 15.0791 18.3285 14.3544C18.333 14.3389 18.3381 14.3235 18.3437 14.3081C18.3493 14.2926 18.3554 14.2775 18.3619 14.2626C18.6137 13.5551 18.7507 12.7932 18.7507 11.9993C18.7507 11.2067 18.6141 10.4461 18.3632 9.73957C18.3561 9.72361 18.3495 9.70729 18.3435 9.69062Z" fill="#0F172A"/>
</svg>
