<svg width="24" height="25" viewBox="0 0 24 25" fill="none" xmlns="http://www.w3.org/2000/svg">
<path d="M11.1407 20.5551C11.8588 21.3508 12.4993 20.9627 12.8292 20.5551C13.9937 19.3906 15.9539 17.4433 16.7884 16.6153C16.7884 16.6153 17.2736 15.9748 16.6914 15.412C16.1091 14.8491 15.4687 15.2955 15.4687 15.2955L12.9262 17.838L12.9262 11.4915C13.088 9.33076 14.7817 4.97819 20.2625 4.85398C20.2625 4.85398 21 4.6793 21 3.9612C21 3.24311 20.2625 3.01021 20.2625 3.01021C18.4187 2.89376 14.1839 3.72443 11.9946 7.97867C10.7331 5.70793 8.11301 3.01021 3.7268 3.01021C2.40705 3.61186 3.18337 4.86371 3.7268 4.85398C5.89403 4.81516 10.3954 6.08833 11.063 11.4915L11.063 17.838L8.54003 15.2955C7.20088 14.6939 6.73504 16.0136 7.20088 16.6153L11.1407 20.5551Z" fill="black" stroke="black"/>
</svg>
