<svg width="24" height="25" viewBox="0 0 24 25" fill="none" xmlns="http://www.w3.org/2000/svg">
<g clip-path="url(#clip0_158_2896)">
<path d="M8.25 4.51758C8.25 2.44651 9.92893 0.767578 12 0.767578C14.0711 0.767578 15.75 2.44651 15.75 4.51758V12.7676C15.75 14.8386 14.0711 16.5176 12 16.5176C9.92893 16.5176 8.25 14.8386 8.25 12.7676V4.51758Z" fill="#0F172A"/>
<path d="M6 10.5176C6.41421 10.5176 6.75 10.8534 6.75 11.2676V12.7676C6.75 15.6671 9.1005 18.0176 12 18.0176C14.8995 18.0176 17.25 15.6671 17.25 12.7676V11.2676C17.25 10.8534 17.5858 10.5176 18 10.5176C18.4142 10.5176 18.75 10.8534 18.75 11.2676V12.7676C18.75 16.242 16.125 19.1033 12.75 19.4764V21.7676H15.75C16.1642 21.7676 16.5 22.1034 16.5 22.5176C16.5 22.9318 16.1642 23.2676 15.75 23.2676H8.25C7.83579 23.2676 7.5 22.9318 7.5 22.5176C7.5 22.1034 7.83579 21.7676 8.25 21.7676H11.25V19.4764C7.87504 19.1033 5.25 16.242 5.25 12.7676V11.2676C5.25 10.8534 5.58579 10.5176 6 10.5176Z" fill="#0F172A"/>
</g>
<defs>
<clipPath id="clip0_158_2896">
<rect width="24" height="24" fill="white" transform="translate(0 0.0175781)"/>
</clipPath>
</defs>
</svg>
