<svg width="24" height="25" viewBox="0 0 24 25" fill="none" xmlns="http://www.w3.org/2000/svg">
<path fill-rule="evenodd" clip-rule="evenodd" d="M9.52839 1.73544C9.74339 1.95044 9.80731 2.27398 9.69021 2.55459C9.2458 3.61962 9 4.78901 9 6.01771C9 10.9883 13.0294 15.0177 18 15.0177C19.2287 15.0177 20.3981 14.7719 21.4631 14.3275C21.7437 14.2104 22.0673 14.2743 22.2823 14.4893C22.4973 14.7043 22.5612 15.0279 22.4441 15.3085C20.8618 19.1004 17.1183 21.7677 12.75 21.7677C6.95101 21.7677 2.25 17.0667 2.25 11.2677C2.25 6.89942 4.91735 3.15587 8.70924 1.57361C8.98985 1.45652 9.31338 1.52044 9.52839 1.73544Z" fill="#0F172A"/>
</svg>
