<svg width="24" height="25" viewBox="0 0 24 25" fill="none" xmlns="http://www.w3.org/2000/svg">
<path fill-rule="evenodd" clip-rule="evenodd" d="M19.9516 1.66882C20.1395 1.81055 20.25 2.03224 20.25 2.26758V6.00102C20.2503 6.01234 20.2503 6.02364 20.25 6.0349V16.3204C20.25 17.6598 19.3621 18.837 18.0742 19.205L16.7542 19.5821C15.1234 20.0481 13.5 18.8235 13.5 17.1275C13.5 15.9877 14.2556 14.986 15.3515 14.6729L17.6621 14.0127C18.306 13.8287 18.75 13.2401 18.75 12.5704V7.01188L9.75 9.58331V19.3204C9.75 20.6598 8.86207 21.837 7.57416 22.205L6.25418 22.5821C4.62337 23.0481 3 21.8235 3 20.1275C3 18.9877 3.75559 17.986 4.85153 17.6729L7.16208 17.0127C7.80603 16.8287 8.25 16.2401 8.25 15.5704V9.03417C8.24974 9.02283 8.24974 9.01153 8.25 9.00026V5.26758C8.25 4.93272 8.47198 4.63843 8.79396 4.54644L19.294 1.54644C19.5202 1.48179 19.7638 1.5271 19.9516 1.66882Z" fill="#0F172A"/>
</svg>
