<svg width="24" height="25" viewBox="0 0 24 25" fill="none" xmlns="http://www.w3.org/2000/svg">
<path fill-rule="evenodd" clip-rule="evenodd" d="M4.125 3.01758C3.08947 3.01758 2.25 3.85704 2.25 4.89258V18.0176C2.25 19.6744 3.59315 21.0176 5.25 21.0176H20.25C18.5931 21.0176 17.25 19.6744 17.25 18.0176V4.89258C17.25 3.85704 16.4105 3.01758 15.375 3.01758H4.125ZM12 9.76758C11.5858 9.76758 11.25 10.1034 11.25 10.5176C11.25 10.9318 11.5858 11.2676 12 11.2676H13.5C13.9142 11.2676 14.25 10.9318 14.25 10.5176C14.25 10.1034 13.9142 9.76758 13.5 9.76758H12ZM11.25 7.51758C11.25 7.10336 11.5858 6.76758 12 6.76758H13.5C13.9142 6.76758 14.25 7.10336 14.25 7.51758C14.25 7.93179 13.9142 8.26758 13.5 8.26758H12C11.5858 8.26758 11.25 7.93179 11.25 7.51758ZM6 12.7676C5.58579 12.7676 5.25 13.1034 5.25 13.5176C5.25 13.9318 5.58579 14.2676 6 14.2676H13.5C13.9142 14.2676 14.25 13.9318 14.25 13.5176C14.25 13.1034 13.9142 12.7676 13.5 12.7676H6ZM5.25 16.5176C5.25 16.1034 5.58579 15.7676 6 15.7676H13.5C13.9142 15.7676 14.25 16.1034 14.25 16.5176C14.25 16.9318 13.9142 17.2676 13.5 17.2676H6C5.58579 17.2676 5.25 16.9318 5.25 16.5176ZM6 6.76758C5.58579 6.76758 5.25 7.10336 5.25 7.51758V10.5176C5.25 10.9318 5.58579 11.2676 6 11.2676H9C9.41421 11.2676 9.75 10.9318 9.75 10.5176V7.51758C9.75 7.10336 9.41421 6.76758 9 6.76758H6Z" fill="#0F172A"/>
<path d="M18.75 6.76758H20.625C21.2463 6.76758 21.75 7.27126 21.75 7.89258V18.0176C21.75 18.846 21.0784 19.5176 20.25 19.5176C19.4216 19.5176 18.75 18.846 18.75 18.0176V6.76758Z" fill="#0F172A"/>
</svg>
