<svg width="24" height="25" viewBox="0 0 24 25" fill="none" xmlns="http://www.w3.org/2000/svg">
<path fill-rule="evenodd" clip-rule="evenodd" d="M6.72048 5.6774L18.3402 17.2971C21.0455 14.0559 20.8767 9.227 17.8336 6.18395C14.7906 3.14089 9.96171 2.97204 6.72048 5.6774ZM17.2795 18.3578L5.65982 6.73806C2.95446 9.97929 3.12331 14.8082 6.16637 17.8512C9.20943 20.8943 14.0383 21.0631 17.2795 18.3578ZM5.10571 5.12329C8.91332 1.31568 15.0867 1.31568 18.8943 5.12329C22.7019 8.9309 22.7019 15.1043 18.8943 18.9119C15.0867 22.7195 8.91332 22.7195 5.10571 18.9119C1.2981 15.1043 1.2981 8.9309 5.10571 5.12329Z" fill="#0F172A"/>
</svg>
