<svg width="24" height="25" viewBox="0 0 24 25" fill="none" xmlns="http://www.w3.org/2000/svg">
<path fill-rule="evenodd" clip-rule="evenodd" d="M20.5986 1.51758C20.2232 1.51758 19.8562 1.62869 19.5439 1.83692L14.4649 5.22291C13.1853 6.07593 12.0203 7.07998 10.993 8.20976C13.1064 9.20148 14.8161 10.9111 15.8078 13.0246C16.9376 11.9973 17.9416 10.8322 18.7946 9.55265L22.1806 4.47367C22.3888 4.16133 22.5 3.79435 22.5 3.41897C22.5 2.36886 21.6487 1.51758 20.5986 1.51758ZM12.2995 15.5425C12.9568 15.1773 13.5898 14.7739 14.1954 14.3351C13.3836 12.2756 11.742 10.634 9.68246 9.82214C9.24361 10.4278 8.84023 11.0607 8.47506 11.718L8.19653 12.2194C9.93302 12.7161 11.3015 14.0845 11.7981 15.821L12.2995 15.5425ZM6.74995 13.5176C4.67886 13.5176 2.99995 15.1965 2.99995 17.2676C2.99995 18.096 2.32839 18.7676 1.49995 18.7676C1.46599 18.7676 1.43219 18.7664 1.3986 18.7642C1.12245 18.746 0.858681 18.8813 0.712418 19.1162C0.566154 19.3512 0.561166 19.6476 0.699441 19.8873C1.60524 21.4578 3.30337 22.5176 5.24995 22.5176C8.14946 22.5176 10.5 20.1671 10.5 17.2676C10.5 15.1965 8.82104 13.5176 6.74995 13.5176Z" fill="#0F172A"/>
</svg>
