<svg width="24" height="25" viewBox="0 0 24 25" fill="none" xmlns="http://www.w3.org/2000/svg">
<path d="M3.47804 2.42188C3.2133 2.34498 2.92771 2.41951 2.73432 2.61598C2.54093 2.81245 2.47091 3.09918 2.55198 3.36267L4.98426 11.2676H13.5C13.9142 11.2676 14.25 11.6034 14.25 12.0176C14.25 12.4318 13.9142 12.7676 13.5 12.7676H4.98427L2.55207 20.6722C2.471 20.9357 2.54102 21.2224 2.73441 21.4189C2.92781 21.6154 3.2134 21.6899 3.47814 21.613C10.1767 19.667 16.3974 16.599 21.9233 12.6263C22.1193 12.4854 22.2355 12.2587 22.2355 12.0173C22.2355 11.7759 22.1193 11.5493 21.9233 11.4084C16.3974 7.43575 10.1767 4.36779 3.47804 2.42188Z" fill="#0F172A"/>
</svg>
