<svg width="24" height="25" viewBox="0 0 24 25" fill="none" xmlns="http://www.w3.org/2000/svg">
<path fill-rule="evenodd" clip-rule="evenodd" d="M18.9696 3.67659C18.0909 2.79791 16.6663 2.79791 15.7876 3.67659L4.84835 14.6159C3.38388 16.0804 3.38388 18.4548 4.84835 19.9192C6.31282 21.3837 8.68718 21.3837 10.1517 19.9192L17.8446 12.2262C18.1375 11.9333 18.6124 11.9333 18.9053 12.2262C19.1982 12.5191 19.1982 12.994 18.9053 13.2869L11.2123 20.9799C9.16206 23.0301 5.83794 23.0301 3.78769 20.9799C1.73744 18.9296 1.73744 15.6055 3.78769 13.5553L14.7269 2.61593C16.1914 1.15146 18.5658 1.15146 20.0302 2.61593C21.4947 4.08039 21.4947 6.45476 20.0302 7.91923L9.09735 18.8521C9.09452 18.855 9.09167 18.8579 9.08878 18.8608L9.08191 18.8676L9.07971 18.8698L9.07747 18.872C8.19765 19.7372 6.78319 19.7327 5.90901 18.8586C5.03033 17.9799 5.03033 16.5553 5.90901 15.6766L13.7195 7.8659C14.0124 7.57301 14.4873 7.573 14.7802 7.86589C15.0731 8.15878 15.0731 8.63366 14.7802 8.92655L6.96968 16.7372C6.67678 17.0301 6.67678 17.505 6.96967 17.7979C7.26041 18.0886 7.73056 18.0908 8.02383 17.8043L18.9696 6.85857C19.8483 5.97989 19.8483 4.55527 18.9696 3.67659Z" fill="#0F172A"/>
</svg>
