<svg width="24" height="25" viewBox="0 0 24 25" fill="none" xmlns="http://www.w3.org/2000/svg">
<path fill-rule="evenodd" clip-rule="evenodd" d="M2.25 12.0176C2.25 6.6328 6.61522 2.26758 12 2.26758C17.3848 2.26758 21.75 6.6328 21.75 12.0176C21.75 17.4024 17.3848 21.7676 12 21.7676C6.61522 21.7676 2.25 17.4024 2.25 12.0176ZM9 8.26758C8.58579 8.26758 8.25 8.60336 8.25 9.01758V15.0176C8.25 15.4318 8.58579 15.7676 9 15.7676H9.75C10.1642 15.7676 10.5 15.4318 10.5 15.0176V9.01758C10.5 8.60336 10.1642 8.26758 9.75 8.26758H9ZM14.25 8.26758C13.8358 8.26758 13.5 8.60336 13.5 9.01758V15.0176C13.5 15.4318 13.8358 15.7676 14.25 15.7676H15C15.4142 15.7676 15.75 15.4318 15.75 15.0176V9.01758C15.75 8.60336 15.4142 8.26758 15 8.26758H14.25Z" fill="#0F172A"/>
</svg>
