<svg width="24" height="25" viewBox="0 0 24 25" fill="none" xmlns="http://www.w3.org/2000/svg">
<path fill-rule="evenodd" clip-rule="evenodd" d="M6.75 5.26758C6.75 4.85336 7.08579 4.51758 7.5 4.51758H9C9.41421 4.51758 9.75 4.85336 9.75 5.26758V18.7676C9.75 19.1818 9.41421 19.5176 9 19.5176H7.5C7.30109 19.5176 7.11032 19.4386 6.96967 19.2979C6.82902 19.1573 6.75 18.9665 6.75 18.7676L6.75 5.26758ZM14.25 5.26758C14.25 4.85336 14.5858 4.51758 15 4.51758H16.5C16.6989 4.51758 16.8897 4.5966 17.0303 4.73725C17.171 4.8779 17.25 5.06867 17.25 5.26758V18.7676C17.25 19.1818 16.9142 19.5176 16.5 19.5176H15C14.5858 19.5176 14.25 19.1818 14.25 18.7676V5.26758Z" fill="#0F172A"/>
</svg>
