<svg width="24" height="25" viewBox="0 0 24 25" fill="none" xmlns="http://www.w3.org/2000/svg">
<path d="M21.7312 2.28642C20.706 1.2613 19.044 1.2613 18.0188 2.28642L16.8617 3.44357L20.574 7.15588L21.7312 5.99873C22.7563 4.97361 22.7563 3.31155 21.7312 2.28642Z" fill="#0F172A"/>
<path d="M19.5133 8.21654L15.801 4.50423L7.40019 12.9051C6.78341 13.5219 6.33002 14.2826 6.081 15.1186L5.28122 17.8035C5.2026 18.0674 5.27494 18.3532 5.46967 18.5479C5.6644 18.7426 5.95019 18.815 6.21412 18.7364L8.89901 17.9366C9.73498 17.6875 10.4957 17.2342 11.1125 16.6174L19.5133 8.21654Z" fill="#0F172A"/>
<path d="M5.25 5.26757C3.59315 5.26757 2.25 6.61071 2.25 8.26757V18.7676C2.25 20.4244 3.59315 21.7676 5.25 21.7676H15.75C17.4069 21.7676 18.75 20.4244 18.75 18.7676V13.5176C18.75 13.1034 18.4142 12.7676 18 12.7676C17.5858 12.7676 17.25 13.1034 17.25 13.5176V18.7676C17.25 19.596 16.5784 20.2676 15.75 20.2676H5.25C4.42157 20.2676 3.75 19.596 3.75 18.7676V8.26757C3.75 7.43914 4.42157 6.76757 5.25 6.76757H10.5C10.9142 6.76757 11.25 6.43178 11.25 6.01757C11.25 5.60336 10.9142 5.26757 10.5 5.26757H5.25Z" fill="#0F172A"/>
</svg>
