<svg width="24" height="25" viewBox="0 0 24 25" fill="none" xmlns="http://www.w3.org/2000/svg">
<path fill-rule="evenodd" clip-rule="evenodd" d="M19.5 9.76758C19.5 10.1818 19.1642 10.5176 18.75 10.5176L14.25 10.5176C13.8358 10.5176 13.5 10.1818 13.5 9.76758V5.26758C13.5 4.85336 13.8358 4.51758 14.25 4.51758C14.6642 4.51758 15 4.85336 15 5.26758V7.95692L19.7197 3.23725C20.0126 2.94435 20.4874 2.94435 20.7803 3.23725C21.0732 3.53014 21.0732 4.00502 20.7803 4.29791L16.0607 9.01758L18.75 9.01758C19.1642 9.01758 19.5 9.35336 19.5 9.76758Z" fill="#0F172A"/>
<path fill-rule="evenodd" clip-rule="evenodd" d="M1.5 4.51758C1.5 2.86072 2.84315 1.51758 4.5 1.51758H5.87163C6.732 1.51758 7.48197 2.10314 7.69064 2.93782L8.79644 7.36101C8.97941 8.09288 8.70594 8.86313 8.10242 9.31576L6.8088 10.286C6.67447 10.3867 6.64527 10.5343 6.683 10.6373C7.81851 13.7371 10.2805 16.1991 13.3803 17.3346C13.4833 17.3723 13.6309 17.3431 13.7316 17.2088L14.7018 15.9152C15.1545 15.3116 15.9247 15.0382 16.6566 15.2211L21.0798 16.3269C21.9144 16.5356 22.5 17.2856 22.5 18.146V19.5176C22.5 21.1744 21.1569 22.5176 19.5 22.5176H17.25C8.55151 22.5176 1.5 15.4661 1.5 6.76758V4.51758Z" fill="#0F172A"/>
</svg>
