<svg width="24" height="25" viewBox="0 0 24 25" fill="none" xmlns="http://www.w3.org/2000/svg">
<path fill-rule="evenodd" clip-rule="evenodd" d="M1.5 6.01758C1.5 4.77494 2.50736 3.76758 3.75 3.76758H20.25C21.4926 3.76758 22.5 4.77494 22.5 6.01758V18.0176C22.5 19.2602 21.4926 20.2676 20.25 20.2676H3.75C2.50736 20.2676 1.5 19.2602 1.5 18.0176V6.01758ZM3 16.0782V18.0176C3 18.4318 3.33579 18.7676 3.75 18.7676H20.25C20.6642 18.7676 21 18.4318 21 18.0176V16.0782L18.3107 13.3889C17.7249 12.8031 16.7751 12.8031 16.1893 13.3889L15.3107 14.2676L16.2803 15.2372C16.5732 15.5301 16.5732 16.005 16.2803 16.2979C15.9874 16.5908 15.5126 16.5908 15.2197 16.2979L10.0607 11.1389C9.47487 10.5531 8.52513 10.5531 7.93934 11.1389L3 16.0782ZM13.125 8.26758C13.125 7.64626 13.6287 7.14258 14.25 7.14258C14.8713 7.14258 15.375 7.64626 15.375 8.26758C15.375 8.8889 14.8713 9.39258 14.25 9.39258C13.6287 9.39258 13.125 8.8889 13.125 8.26758Z" fill="#0F172A"/>
</svg>
