<svg width="24" height="25" viewBox="0 0 24 25" fill="none" xmlns="http://www.w3.org/2000/svg">
<path d="M15 6.76758C14.5858 6.76758 14.25 7.10336 14.25 7.51758V18.0176C14.25 18.2165 14.329 18.4073 14.4697 18.5479C14.6103 18.6886 14.8011 18.7676 15 18.7676H15.75C16.1642 18.7676 16.5 18.4318 16.5 18.0176V7.51758C16.5 7.10336 16.1642 6.76758 15.75 6.76758H15Z" fill="#0F172A"/>
<path d="M20.25 6.76758C19.8358 6.76758 19.5 7.10336 19.5 7.51758V18.0176C19.5 18.4318 19.8358 18.7676 20.25 18.7676H21C21.4142 18.7676 21.75 18.4318 21.75 18.0176L21.75 7.51758C21.75 7.31867 21.671 7.1279 21.5303 6.98725C21.3897 6.8466 21.1989 6.76758 21 6.76758H20.25Z" fill="#0F172A"/>
<path d="M5.05526 7.07818C3.80528 6.36391 2.25 7.26647 2.25 8.70614V16.829C2.25 18.2687 3.80528 19.1712 5.05526 18.4569L12.1628 14.3955C13.4224 13.6757 13.4224 11.8594 12.1628 11.1396L5.05526 7.07818Z" fill="#0F172A"/>
</svg>
