<svg width="24" height="25" viewBox="0 0 24 25" fill="none" xmlns="http://www.w3.org/2000/svg">
<path fill-rule="evenodd" clip-rule="evenodd" d="M12 3.76758C12.4142 3.76758 12.75 4.10336 12.75 4.51758V11.2676H19.5C19.9142 11.2676 20.25 11.6034 20.25 12.0176C20.25 12.4318 19.9142 12.7676 19.5 12.7676H12.75V19.5176C12.75 19.9318 12.4142 20.2676 12 20.2676C11.5858 20.2676 11.25 19.9318 11.25 19.5176V12.7676H4.5C4.08579 12.7676 3.75 12.4318 3.75 12.0176C3.75 11.6034 4.08579 11.2676 4.5 11.2676H11.25V4.51758C11.25 4.10336 11.5858 3.76758 12 3.76758Z" fill="#0F172A"/>
</svg>
