<svg width="24" height="25" viewBox="0 0 24 25" fill="none" xmlns="http://www.w3.org/2000/svg">
<path fill-rule="evenodd" clip-rule="evenodd" d="M12 2.26758C6.61522 2.26758 2.25 6.6328 2.25 12.0176C2.25 17.4024 6.61522 21.7676 12 21.7676C17.3848 21.7676 21.75 17.4024 21.75 12.0176C21.75 6.6328 17.3848 2.26758 12 2.26758ZM12.75 9.01758C12.75 8.60336 12.4142 8.26758 12 8.26758C11.5858 8.26758 11.25 8.60336 11.25 9.01758V11.2676H9C8.58579 11.2676 8.25 11.6034 8.25 12.0176C8.25 12.4318 8.58579 12.7676 9 12.7676H11.25V15.0176C11.25 15.4318 11.5858 15.7676 12 15.7676C12.4142 15.7676 12.75 15.4318 12.75 15.0176V12.7676H15C15.4142 12.7676 15.75 12.4318 15.75 12.0176C15.75 11.6034 15.4142 11.2676 15 11.2676H12.75V9.01758Z" fill="#0F172A"/>
</svg>
