<svg width="24" height="25" viewBox="0 0 24 25" fill="none" xmlns="http://www.w3.org/2000/svg">
<path fill-rule="evenodd" clip-rule="evenodd" d="M12 2.26758C12.4142 2.26758 12.75 2.60336 12.75 3.01758V12.0176C12.75 12.4318 12.4142 12.7676 12 12.7676C11.5858 12.7676 11.25 12.4318 11.25 12.0176V3.01758C11.25 2.60336 11.5858 2.26758 12 2.26758ZM6.16637 5.12329C6.45926 5.41618 6.45926 5.89105 6.16637 6.18395C2.94454 9.40577 2.94454 14.6294 6.16637 17.8512C9.38819 21.073 14.6118 21.073 17.8336 17.8512C21.0555 14.6294 21.0555 9.40577 17.8336 6.18395C17.5407 5.89105 17.5407 5.41618 17.8336 5.12329C18.1265 4.83039 18.6014 4.83039 18.8943 5.12329C22.7019 8.9309 22.7019 15.1043 18.8943 18.9119C15.0867 22.7195 8.91332 22.7195 5.10571 18.9119C1.2981 15.1043 1.2981 8.9309 5.10571 5.12329C5.3986 4.83039 5.87348 4.83039 6.16637 5.12329Z" fill="#0F172A"/>
</svg>
