<svg width="24" height="25" viewBox="0 0 24 25" fill="none" xmlns="http://www.w3.org/2000/svg">
<path fill-rule="evenodd" clip-rule="evenodd" d="M2.25 2.26758C1.83579 2.26758 1.5 2.60336 1.5 3.01758C1.5 3.43179 1.83579 3.76758 2.25 3.76758H3V14.2676C3 15.9244 4.34315 17.2676 6 17.2676H7.20943L6.03849 20.7804C5.9075 21.1734 6.11987 21.5981 6.51283 21.7291C6.90579 21.8601 7.33053 21.6477 7.46151 21.2547L7.79057 20.2676H16.2094L16.5385 21.2547C16.6695 21.6477 17.0942 21.8601 17.4872 21.7291C17.8801 21.5981 18.0925 21.1734 17.9615 20.7804L16.7906 17.2676H18C19.6569 17.2676 21 15.9244 21 14.2676V3.76758H21.75C22.1642 3.76758 22.5 3.43179 22.5 3.01758C22.5 2.60336 22.1642 2.26758 21.75 2.26758H2.25ZM8.29057 18.7676L8.79057 17.2676H15.2094L15.7094 18.7676H8.29057ZM15.75 6.76758C15.75 6.35336 15.4142 6.01758 15 6.01758C14.5858 6.01758 14.25 6.35336 14.25 6.76758V12.7676C14.25 13.1818 14.5858 13.5176 15 13.5176C15.4142 13.5176 15.75 13.1818 15.75 12.7676V6.76758ZM12.75 9.01758C12.75 8.60336 12.4142 8.26758 12 8.26758C11.5858 8.26758 11.25 8.60336 11.25 9.01758V12.7676C11.25 13.1818 11.5858 13.5176 12 13.5176C12.4142 13.5176 12.75 13.1818 12.75 12.7676V9.01758ZM9.75 11.2676C9.75 10.8534 9.41421 10.5176 9 10.5176C8.58579 10.5176 8.25 10.8534 8.25 11.2676V12.7676C8.25 13.1818 8.58579 13.5176 9 13.5176C9.41421 13.5176 9.75 13.1818 9.75 12.7676V11.2676Z" fill="#0F172A"/>
</svg>
