<svg width="24" height="25" viewBox="0 0 24 25" fill="none" xmlns="http://www.w3.org/2000/svg">
<path fill-rule="evenodd" clip-rule="evenodd" d="M2.25 2.26758C1.83579 2.26758 1.5 2.60336 1.5 3.01758C1.5 3.43179 1.83579 3.76758 2.25 3.76758H3V14.2676C3 15.9244 4.34315 17.2676 6 17.2676H7.20943L6.03849 20.7804C5.9075 21.1734 6.11987 21.5981 6.51283 21.7291C6.90579 21.8601 7.33053 21.6477 7.46151 21.2547L7.79057 20.2676H16.2094L16.5385 21.2547C16.6695 21.6477 17.0942 21.8601 17.4872 21.7291C17.8801 21.5981 18.0925 21.1734 17.9615 20.7804L16.7906 17.2676H18C19.6569 17.2676 21 15.9244 21 14.2676V3.76758H21.75C22.1642 3.76758 22.5 3.43179 22.5 3.01758C22.5 2.60336 22.1642 2.26758 21.75 2.26758H2.25ZM8.79057 17.2676H15.2094L15.7094 18.7676H8.29057L8.79057 17.2676ZM16.8755 8.27225C17.2341 8.06484 17.3566 7.60605 17.1492 7.2475C16.9418 6.88896 16.483 6.76644 16.1245 6.97384C14.7577 7.76446 13.5517 8.80129 12.5667 10.0237L11.0303 8.48733C10.7374 8.19444 10.2626 8.19444 9.96967 8.48733L6.96967 11.4873C6.67678 11.7802 6.67678 12.2551 6.96967 12.548C7.26256 12.8409 7.73744 12.8409 8.03033 12.548L10.5 10.0783L12.1173 11.6956C12.2742 11.8526 12.4927 11.9319 12.7138 11.9123C12.9349 11.8927 13.136 11.7762 13.2629 11.594C14.207 10.2393 15.4414 9.10186 16.8755 8.27225Z" fill="#0F172A"/>
</svg>
