<svg width="24" height="25" viewBox="0 0 24 25" fill="none" xmlns="http://www.w3.org/2000/svg">
<path fill-rule="evenodd" clip-rule="evenodd" d="M7.875 1.51758C6.83947 1.51758 6 2.35704 6 3.39258V6.38322C5.5736 6.43556 5.1489 6.49341 4.72596 6.55669C3.27191 6.77426 2.25 8.03921 2.25 9.47327V15.7676C2.25 17.4244 3.59315 18.7676 5.25 18.7676H5.51963L5.36461 20.4728C5.26479 21.5709 6.12935 22.5176 7.23191 22.5176H16.7681C17.8706 22.5176 18.7352 21.5709 18.6354 20.4728L18.4804 18.7676H18.75C20.4069 18.7676 21.75 17.4244 21.75 15.7676V9.47327C21.75 8.03921 20.7281 6.77426 19.274 6.55669C18.8511 6.49341 18.4264 6.43556 18 6.38322V3.39258C18 2.35704 17.1605 1.51758 16.125 1.51758H7.875ZM16.5 6.22256V3.39258C16.5 3.18547 16.3321 3.01758 16.125 3.01758H7.875C7.66789 3.01758 7.5 3.18547 7.5 3.39258V6.22256C8.98198 6.08689 10.483 6.01758 12 6.01758C13.517 6.01758 15.018 6.08689 16.5 6.22256ZM16.2834 14.4872C16.4607 14.5055 16.5996 14.6473 16.6158 14.8249L17.1415 20.6086C17.1615 20.8282 16.9886 21.0176 16.7681 21.0176H7.23191C7.0114 21.0176 6.83849 20.8282 6.85845 20.6086L7.38425 14.8249C7.40039 14.6473 7.53926 14.5055 7.71659 14.4872C9.12438 14.342 10.5534 14.2676 12 14.2676C13.4466 14.2676 14.8756 14.342 16.2834 14.4872ZM17.25 10.5176C17.25 10.1034 17.5858 9.76758 18 9.76758H18.0075C18.4217 9.76758 18.7575 10.1034 18.7575 10.5176V10.5251C18.7575 10.9393 18.4217 11.2751 18.0075 11.2751H18C17.5858 11.2751 17.25 10.9393 17.25 10.5251V10.5176ZM15 9.76758C14.5858 9.76758 14.25 10.1034 14.25 10.5176V10.5251C14.25 10.9393 14.5858 11.2751 15 11.2751H15.0075C15.4217 11.2751 15.7575 10.9393 15.7575 10.5251V10.5176C15.7575 10.1034 15.4217 9.76758 15.0075 9.76758H15Z" fill="#0F172A"/>
</svg>
