<svg width="24" height="25" viewBox="0 0 24 25" fill="none" xmlns="http://www.w3.org/2000/svg">
<path d="M11.25 5.35451C11.25 4.99936 11.064 4.67834 10.8488 4.39578C10.6279 4.10568 10.5 3.76158 10.5 3.39258C10.5 2.35704 11.5074 1.51758 12.75 1.51758C13.9926 1.51758 15 2.35704 15 3.39258C15 3.76158 14.8721 4.10568 14.6512 4.39578C14.436 4.67834 14.25 4.99936 14.25 5.35452C14.25 5.68687 14.5277 5.95218 14.8595 5.93238C16.7701 5.81837 18.6498 5.59086 20.4922 5.25656C20.6949 5.21977 20.9039 5.26802 21.07 5.38999C21.2361 5.51195 21.3447 5.69688 21.3703 5.90135C21.5943 7.69082 21.7213 9.5102 21.7459 11.354C21.7508 11.7204 21.4533 12.0175 21.0869 12.0176C20.7318 12.0176 20.4108 11.8315 20.1282 11.6164C19.8381 11.3955 19.494 11.2676 19.125 11.2676C18.0895 11.2676 17.25 12.2749 17.25 13.5176C17.25 14.7602 18.0895 15.7676 19.125 15.7676C19.494 15.7676 19.8381 15.6397 20.1282 15.4188C20.4108 15.2036 20.7318 15.0176 21.0869 15.0176C21.3974 15.0176 21.6439 15.2792 21.6214 15.5889C21.5028 17.2274 21.3031 18.8437 21.0263 20.4337C20.9721 20.7455 20.7279 20.9897 20.416 21.044C18.5969 21.3606 16.7434 21.5763 14.8615 21.6852C14.5285 21.7045 14.25 21.4381 14.25 21.1045C14.25 20.7494 14.436 20.4283 14.6512 20.1458C14.8721 19.8557 15 19.5116 15 19.1426C15 18.107 13.9926 17.2676 12.75 17.2676C11.5074 17.2676 10.5 18.107 10.5 19.1426C10.5 19.5116 10.6279 19.8557 10.8488 20.1458C11.064 20.4283 11.25 20.7494 11.25 21.1045C11.25 21.4661 10.954 21.7581 10.5925 21.7479C9.00303 21.7028 7.43238 21.5816 5.88413 21.3877C5.67966 21.3621 5.49473 21.2535 5.37277 21.0874C5.25081 20.9213 5.20256 20.7124 5.23935 20.5096C5.53223 18.8957 5.74315 17.2529 5.8676 15.5859C5.89058 15.2781 5.64563 15.0176 5.33694 15.0176C4.98178 15.0176 4.66076 15.2036 4.3782 15.4188C4.0881 15.6397 3.744 15.7676 3.375 15.7676C2.33947 15.7676 1.5 14.7602 1.5 13.5176C1.5 12.2749 2.33947 11.2676 3.375 11.2676C3.744 11.2676 4.0881 11.3955 4.3782 11.6164C4.66076 11.8315 4.98178 12.0176 5.33694 12.0176C5.7033 12.0176 6.00078 11.7206 5.99574 11.3542C5.97334 9.72603 5.86862 8.11784 5.68559 6.53386C5.6593 6.30638 5.73838 6.07936 5.9003 5.91744C6.06222 5.75552 6.28924 5.67644 6.51672 5.70273C7.85902 5.85783 9.2186 5.9567 10.5931 5.99689C10.9541 6.00745 11.25 5.71575 11.25 5.35451Z" fill="#0F172A"/>
</svg>
