<svg width="24" height="25" viewBox="0 0 24 25" fill="none" xmlns="http://www.w3.org/2000/svg">
<path fill-rule="evenodd" clip-rule="evenodd" d="M3 4.89258C3 3.85704 3.83947 3.01758 4.875 3.01758H9.375C10.4105 3.01758 11.25 3.85704 11.25 4.89258V9.39258C11.25 10.4281 10.4105 11.2676 9.375 11.2676H4.875C3.83947 11.2676 3 10.4281 3 9.39258V4.89258ZM4.875 4.51758C4.66789 4.51758 4.5 4.68547 4.5 4.89258V9.39258C4.5 9.59968 4.66789 9.76758 4.875 9.76758H9.375C9.58211 9.76758 9.75 9.59968 9.75 9.39258V4.89258C9.75 4.68547 9.58211 4.51758 9.375 4.51758H4.875ZM12.75 4.89258C12.75 3.85704 13.5895 3.01758 14.625 3.01758H19.125C20.1605 3.01758 21 3.85704 21 4.89258V9.39258C21 10.4281 20.1605 11.2676 19.125 11.2676H14.625C13.5895 11.2676 12.75 10.4281 12.75 9.39258V4.89258ZM14.625 4.51758C14.4179 4.51758 14.25 4.68547 14.25 4.89258V9.39258C14.25 9.59968 14.4179 9.76758 14.625 9.76758H19.125C19.3321 9.76758 19.5 9.59968 19.5 9.39258V4.89258C19.5 4.68547 19.3321 4.51758 19.125 4.51758H14.625ZM6 6.76758C6 6.35336 6.33579 6.01758 6.75 6.01758H7.5C7.91421 6.01758 8.25 6.35336 8.25 6.76758V7.51758C8.25 7.93179 7.91421 8.26758 7.5 8.26758H6.75C6.33579 8.26758 6 7.93179 6 7.51758V6.76758ZM15.75 6.76758C15.75 6.35336 16.0858 6.01758 16.5 6.01758H17.25C17.6642 6.01758 18 6.35336 18 6.76758V7.51758C18 7.93179 17.6642 8.26758 17.25 8.26758H16.5C16.0858 8.26758 15.75 7.93179 15.75 7.51758V6.76758ZM3 14.6426C3 13.607 3.83947 12.7676 4.875 12.7676H9.375C10.4105 12.7676 11.25 13.607 11.25 14.6426V19.1426C11.25 20.1781 10.4105 21.0176 9.375 21.0176H4.875C3.83947 21.0176 3 20.1781 3 19.1426V14.6426ZM4.875 14.2676C4.66789 14.2676 4.5 14.4355 4.5 14.6426V19.1426C4.5 19.3497 4.66789 19.5176 4.875 19.5176H9.375C9.58211 19.5176 9.75 19.3497 9.75 19.1426V14.6426C9.75 14.4355 9.58211 14.2676 9.375 14.2676H4.875ZM12.75 13.5176C12.75 13.1034 13.0858 12.7676 13.5 12.7676H14.25C14.6642 12.7676 15 13.1034 15 13.5176V14.2676C15 14.6818 14.6642 15.0176 14.25 15.0176H13.5C13.0858 15.0176 12.75 14.6818 12.75 14.2676V13.5176ZM18.75 13.5176C18.75 13.1034 19.0858 12.7676 19.5 12.7676H20.25C20.6642 12.7676 21 13.1034 21 13.5176V14.2676C21 14.6818 20.6642 15.0176 20.25 15.0176H19.5C19.0858 15.0176 18.75 14.6818 18.75 14.2676V13.5176ZM6 16.5176C6 16.1034 6.33579 15.7676 6.75 15.7676H7.5C7.91421 15.7676 8.25 16.1034 8.25 16.5176V17.2676C8.25 17.6818 7.91421 18.0176 7.5 18.0176H6.75C6.33579 18.0176 6 17.6818 6 17.2676V16.5176ZM15.75 16.5176C15.75 16.1034 16.0858 15.7676 16.5 15.7676H17.25C17.6642 15.7676 18 16.1034 18 16.5176V17.2676C18 17.6818 17.6642 18.0176 17.25 18.0176H16.5C16.0858 18.0176 15.75 17.6818 15.75 17.2676V16.5176ZM12.75 19.5176C12.75 19.1034 13.0858 18.7676 13.5 18.7676H14.25C14.6642 18.7676 15 19.1034 15 19.5176V20.2676C15 20.6818 14.6642 21.0176 14.25 21.0176H13.5C13.0858 21.0176 12.75 20.6818 12.75 20.2676V19.5176ZM18.75 19.5176C18.75 19.1034 19.0858 18.7676 19.5 18.7676H20.25C20.6642 18.7676 21 19.1034 21 19.5176V20.2676C21 20.6818 20.6642 21.0176 20.25 21.0176H19.5C19.0858 21.0176 18.75 20.6818 18.75 20.2676V19.5176Z" fill="#0F172A"/>
</svg>
